<?xml version="1.0" encoding="utf-8" standalone="no"?>
<!DOCTYPE svg PUBLIC "-//W3C//DTD SVG 1.1//EN"
  "http://www.w3.org/Graphics/SVG/1.1/DTD/svg11.dtd">
<svg xmlns:xlink="http://www.w3.org/1999/xlink" width="983.52pt" height="477.36pt" viewBox="0 0 983.52 477.36" xmlns="http://www.w3.org/2000/svg" version="1.1">
 <metadata>
  <rdf:RDF xmlns:dc="http://purl.org/dc/elements/1.1/" xmlns:cc="http://creativecommons.org/ns#" xmlns:rdf="http://www.w3.org/1999/02/22-rdf-syntax-ns#">
   <cc:Work>
    <dc:type rdf:resource="http://purl.org/dc/dcmitype/StillImage"/>
    <dc:date>2024-05-05T00:37:54.056691</dc:date>
    <dc:format>image/svg+xml</dc:format>
    <dc:creator>
     <cc:Agent>
      <dc:title>Matplotlib v3.8.0, https://matplotlib.org/</dc:title>
     </cc:Agent>
    </dc:creator>
   </cc:Work>
  </rdf:RDF>
 </metadata>
 <defs>
  <style type="text/css">*{stroke-linejoin: round; stroke-linecap: butt}</style>
 </defs>
 <g id="figure_1">
  <g id="patch_1">
   <path d="M 0 477.36 
L 983.52 477.36 
L 983.52 0 
L 0 0 
z
" style="fill: #ffffff"/>
  </g>
  <g id="axes_1">
   <g id="patch_2">
    <path d="M 122.94 424.8504 
L 885.168 424.8504 
L 885.168 57.2832 
L 122.94 57.2832 
z
" style="fill: #ffffff"/>
   </g>
   <g id="matplotlib.axis_1">
    <g id="xtick_1">
     <g id="line2d_1">
      <defs>
       <path id="m35f0ad0115" d="M 0 0 
L 0 3.5 
" style="stroke: #000000; stroke-width: 0.8"/>
      </defs>
      <g>
       <use xlink:href="#m35f0ad0115" x="123.189931" y="424.8504" style="stroke: #000000; stroke-width: 0.8"/>
      </g>
     </g>
     <g id="text_1">
      <!-- 300 -->
      <g transform="translate(113.646181 439.448838) scale(0.1 -0.1)">
       <defs>
        <path id="DejaVuSans-33" d="M 2597 2516 
Q 3050 2419 3304 2112 
Q 3559 1806 3559 1356 
Q 3559 666 3084 287 
Q 2609 -91 1734 -91 
Q 1441 -91 1130 -33 
Q 819 25 488 141 
L 488 750 
Q 750 597 1062 519 
Q 1375 441 1716 441 
Q 2309 441 2620 675 
Q 2931 909 2931 1356 
Q 2931 1769 2642 2001 
Q 2353 2234 1838 2234 
L 1294 2234 
L 1294 2753 
L 1863 2753 
Q 2328 2753 2575 2939 
Q 2822 3125 2822 3475 
Q 2822 3834 2567 4026 
Q 2313 4219 1838 4219 
Q 1578 4219 1281 4162 
Q 984 4106 628 3988 
L 628 4550 
Q 988 4650 1302 4700 
Q 1616 4750 1894 4750 
Q 2613 4750 3031 4423 
Q 3450 4097 3450 3541 
Q 3450 3153 3228 2886 
Q 3006 2619 2597 2516 
z
" transform="scale(0.015625)"/>
        <path id="DejaVuSans-30" d="M 2034 4250 
Q 1547 4250 1301 3770 
Q 1056 3291 1056 2328 
Q 1056 1369 1301 889 
Q 1547 409 2034 409 
Q 2525 409 2770 889 
Q 3016 1369 3016 2328 
Q 3016 3291 2770 3770 
Q 2525 4250 2034 4250 
z
M 2034 4750 
Q 2819 4750 3233 4129 
Q 3647 3509 3647 2328 
Q 3647 1150 3233 529 
Q 2819 -91 2034 -91 
Q 1250 -91 836 529 
Q 422 1150 422 2328 
Q 422 3509 836 4129 
Q 1250 4750 2034 4750 
z
" transform="scale(0.015625)"/>
       </defs>
       <use xlink:href="#DejaVuSans-33"/>
       <use xlink:href="#DejaVuSans-30" x="63.623047"/>
       <use xlink:href="#DejaVuSans-30" x="127.246094"/>
      </g>
     </g>
    </g>
    <g id="xtick_2">
     <g id="line2d_2">
      <g>
       <use xlink:href="#m35f0ad0115" x="210.128154" y="424.8504" style="stroke: #000000; stroke-width: 0.8"/>
      </g>
     </g>
     <g id="text_2">
      <!-- 400 -->
      <g transform="translate(200.584404 439.448838) scale(0.1 -0.1)">
       <defs>
        <path id="DejaVuSans-34" d="M 2419 4116 
L 825 1625 
L 2419 1625 
L 2419 4116 
z
M 2253 4666 
L 3047 4666 
L 3047 1625 
L 3713 1625 
L 3713 1100 
L 3047 1100 
L 3047 0 
L 2419 0 
L 2419 1100 
L 313 1100 
L 313 1709 
L 2253 4666 
z
" transform="scale(0.015625)"/>
       </defs>
       <use xlink:href="#DejaVuSans-34"/>
       <use xlink:href="#DejaVuSans-30" x="63.623047"/>
       <use xlink:href="#DejaVuSans-30" x="127.246094"/>
      </g>
     </g>
    </g>
    <g id="xtick_3">
     <g id="line2d_3">
      <g>
       <use xlink:href="#m35f0ad0115" x="297.066376" y="424.8504" style="stroke: #000000; stroke-width: 0.8"/>
      </g>
     </g>
     <g id="text_3">
      <!-- 500 -->
      <g transform="translate(287.522626 439.448838) scale(0.1 -0.1)">
       <defs>
        <path id="DejaVuSans-35" d="M 691 4666 
L 3169 4666 
L 3169 4134 
L 1269 4134 
L 1269 2991 
Q 1406 3038 1543 3061 
Q 1681 3084 1819 3084 
Q 2600 3084 3056 2656 
Q 3513 2228 3513 1497 
Q 3513 744 3044 326 
Q 2575 -91 1722 -91 
Q 1428 -91 1123 -41 
Q 819 9 494 109 
L 494 744 
Q 775 591 1075 516 
Q 1375 441 1709 441 
Q 2250 441 2565 725 
Q 2881 1009 2881 1497 
Q 2881 1984 2565 2268 
Q 2250 2553 1709 2553 
Q 1456 2553 1204 2497 
Q 953 2441 691 2322 
L 691 4666 
z
" transform="scale(0.015625)"/>
       </defs>
       <use xlink:href="#DejaVuSans-35"/>
       <use xlink:href="#DejaVuSans-30" x="63.623047"/>
       <use xlink:href="#DejaVuSans-30" x="127.246094"/>
      </g>
     </g>
    </g>
    <g id="xtick_4">
     <g id="line2d_4">
      <g>
       <use xlink:href="#m35f0ad0115" x="384.004598" y="424.8504" style="stroke: #000000; stroke-width: 0.8"/>
      </g>
     </g>
     <g id="text_4">
      <!-- 600 -->
      <g transform="translate(374.460848 439.448838) scale(0.1 -0.1)">
       <defs>
        <path id="DejaVuSans-36" d="M 2113 2584 
Q 1688 2584 1439 2293 
Q 1191 2003 1191 1497 
Q 1191 994 1439 701 
Q 1688 409 2113 409 
Q 2538 409 2786 701 
Q 3034 994 3034 1497 
Q 3034 2003 2786 2293 
Q 2538 2584 2113 2584 
z
M 3366 4563 
L 3366 3988 
Q 3128 4100 2886 4159 
Q 2644 4219 2406 4219 
Q 1781 4219 1451 3797 
Q 1122 3375 1075 2522 
Q 1259 2794 1537 2939 
Q 1816 3084 2150 3084 
Q 2853 3084 3261 2657 
Q 3669 2231 3669 1497 
Q 3669 778 3244 343 
Q 2819 -91 2113 -91 
Q 1303 -91 875 529 
Q 447 1150 447 2328 
Q 447 3434 972 4092 
Q 1497 4750 2381 4750 
Q 2619 4750 2861 4703 
Q 3103 4656 3366 4563 
z
" transform="scale(0.015625)"/>
       </defs>
       <use xlink:href="#DejaVuSans-36"/>
       <use xlink:href="#DejaVuSans-30" x="63.623047"/>
       <use xlink:href="#DejaVuSans-30" x="127.246094"/>
      </g>
     </g>
    </g>
    <g id="xtick_5">
     <g id="line2d_5">
      <g>
       <use xlink:href="#m35f0ad0115" x="470.942821" y="424.8504" style="stroke: #000000; stroke-width: 0.8"/>
      </g>
     </g>
     <g id="text_5">
      <!-- 700 -->
      <g transform="translate(461.399071 439.448838) scale(0.1 -0.1)">
       <defs>
        <path id="DejaVuSans-37" d="M 525 4666 
L 3525 4666 
L 3525 4397 
L 1831 0 
L 1172 0 
L 2766 4134 
L 525 4134 
L 525 4666 
z
" transform="scale(0.015625)"/>
       </defs>
       <use xlink:href="#DejaVuSans-37"/>
       <use xlink:href="#DejaVuSans-30" x="63.623047"/>
       <use xlink:href="#DejaVuSans-30" x="127.246094"/>
      </g>
     </g>
    </g>
    <g id="xtick_6">
     <g id="line2d_6">
      <g>
       <use xlink:href="#m35f0ad0115" x="557.881043" y="424.8504" style="stroke: #000000; stroke-width: 0.8"/>
      </g>
     </g>
     <g id="text_6">
      <!-- 800 -->
      <g transform="translate(548.337293 439.448838) scale(0.1 -0.1)">
       <defs>
        <path id="DejaVuSans-38" d="M 2034 2216 
Q 1584 2216 1326 1975 
Q 1069 1734 1069 1313 
Q 1069 891 1326 650 
Q 1584 409 2034 409 
Q 2484 409 2743 651 
Q 3003 894 3003 1313 
Q 3003 1734 2745 1975 
Q 2488 2216 2034 2216 
z
M 1403 2484 
Q 997 2584 770 2862 
Q 544 3141 544 3541 
Q 544 4100 942 4425 
Q 1341 4750 2034 4750 
Q 2731 4750 3128 4425 
Q 3525 4100 3525 3541 
Q 3525 3141 3298 2862 
Q 3072 2584 2669 2484 
Q 3125 2378 3379 2068 
Q 3634 1759 3634 1313 
Q 3634 634 3220 271 
Q 2806 -91 2034 -91 
Q 1263 -91 848 271 
Q 434 634 434 1313 
Q 434 1759 690 2068 
Q 947 2378 1403 2484 
z
M 1172 3481 
Q 1172 3119 1398 2916 
Q 1625 2713 2034 2713 
Q 2441 2713 2670 2916 
Q 2900 3119 2900 3481 
Q 2900 3844 2670 4047 
Q 2441 4250 2034 4250 
Q 1625 4250 1398 4047 
Q 1172 3844 1172 3481 
z
" transform="scale(0.015625)"/>
       </defs>
       <use xlink:href="#DejaVuSans-38"/>
       <use xlink:href="#DejaVuSans-30" x="63.623047"/>
       <use xlink:href="#DejaVuSans-30" x="127.246094"/>
      </g>
     </g>
    </g>
    <g id="xtick_7">
     <g id="line2d_7">
      <g>
       <use xlink:href="#m35f0ad0115" x="644.819265" y="424.8504" style="stroke: #000000; stroke-width: 0.8"/>
      </g>
     </g>
     <g id="text_7">
      <!-- 900 -->
      <g transform="translate(635.275515 439.448838) scale(0.1 -0.1)">
       <defs>
        <path id="DejaVuSans-39" d="M 703 97 
L 703 672 
Q 941 559 1184 500 
Q 1428 441 1663 441 
Q 2288 441 2617 861 
Q 2947 1281 2994 2138 
Q 2813 1869 2534 1725 
Q 2256 1581 1919 1581 
Q 1219 1581 811 2004 
Q 403 2428 403 3163 
Q 403 3881 828 4315 
Q 1253 4750 1959 4750 
Q 2769 4750 3195 4129 
Q 3622 3509 3622 2328 
Q 3622 1225 3098 567 
Q 2575 -91 1691 -91 
Q 1453 -91 1209 -44 
Q 966 3 703 97 
z
M 1959 2075 
Q 2384 2075 2632 2365 
Q 2881 2656 2881 3163 
Q 2881 3666 2632 3958 
Q 2384 4250 1959 4250 
Q 1534 4250 1286 3958 
Q 1038 3666 1038 3163 
Q 1038 2656 1286 2365 
Q 1534 2075 1959 2075 
z
" transform="scale(0.015625)"/>
       </defs>
       <use xlink:href="#DejaVuSans-39"/>
       <use xlink:href="#DejaVuSans-30" x="63.623047"/>
       <use xlink:href="#DejaVuSans-30" x="127.246094"/>
      </g>
     </g>
    </g>
    <g id="xtick_8">
     <g id="line2d_8">
      <g>
       <use xlink:href="#m35f0ad0115" x="731.757488" y="424.8504" style="stroke: #000000; stroke-width: 0.8"/>
      </g>
     </g>
     <g id="text_8">
      <!-- 1000 -->
      <g transform="translate(719.032488 439.448838) scale(0.1 -0.1)">
       <defs>
        <path id="DejaVuSans-31" d="M 794 531 
L 1825 531 
L 1825 4091 
L 703 3866 
L 703 4441 
L 1819 4666 
L 2450 4666 
L 2450 531 
L 3481 531 
L 3481 0 
L 794 0 
L 794 531 
z
" transform="scale(0.015625)"/>
       </defs>
       <use xlink:href="#DejaVuSans-31"/>
       <use xlink:href="#DejaVuSans-30" x="63.623047"/>
       <use xlink:href="#DejaVuSans-30" x="127.246094"/>
       <use xlink:href="#DejaVuSans-30" x="190.869141"/>
      </g>
     </g>
    </g>
    <g id="xtick_9">
     <g id="line2d_9">
      <g>
       <use xlink:href="#m35f0ad0115" x="818.69571" y="424.8504" style="stroke: #000000; stroke-width: 0.8"/>
      </g>
     </g>
     <g id="text_9">
      <!-- 1100 -->
      <g transform="translate(805.97071 439.448838) scale(0.1 -0.1)">
       <use xlink:href="#DejaVuSans-31"/>
       <use xlink:href="#DejaVuSans-31" x="63.623047"/>
       <use xlink:href="#DejaVuSans-30" x="127.246094"/>
       <use xlink:href="#DejaVuSans-30" x="190.869141"/>
      </g>
     </g>
    </g>
    <g id="text_10">
     <!-- Instante -->
     <g transform="translate(483.575875 453.126963) scale(0.1 -0.1)">
      <defs>
       <path id="DejaVuSans-49" d="M 628 4666 
L 1259 4666 
L 1259 0 
L 628 0 
L 628 4666 
z
" transform="scale(0.015625)"/>
       <path id="DejaVuSans-6e" d="M 3513 2113 
L 3513 0 
L 2938 0 
L 2938 2094 
Q 2938 2591 2744 2837 
Q 2550 3084 2163 3084 
Q 1697 3084 1428 2787 
Q 1159 2491 1159 1978 
L 1159 0 
L 581 0 
L 581 3500 
L 1159 3500 
L 1159 2956 
Q 1366 3272 1645 3428 
Q 1925 3584 2291 3584 
Q 2894 3584 3203 3211 
Q 3513 2838 3513 2113 
z
" transform="scale(0.015625)"/>
       <path id="DejaVuSans-73" d="M 2834 3397 
L 2834 2853 
Q 2591 2978 2328 3040 
Q 2066 3103 1784 3103 
Q 1356 3103 1142 2972 
Q 928 2841 928 2578 
Q 928 2378 1081 2264 
Q 1234 2150 1697 2047 
L 1894 2003 
Q 2506 1872 2764 1633 
Q 3022 1394 3022 966 
Q 3022 478 2636 193 
Q 2250 -91 1575 -91 
Q 1294 -91 989 -36 
Q 684 19 347 128 
L 347 722 
Q 666 556 975 473 
Q 1284 391 1588 391 
Q 1994 391 2212 530 
Q 2431 669 2431 922 
Q 2431 1156 2273 1281 
Q 2116 1406 1581 1522 
L 1381 1569 
Q 847 1681 609 1914 
Q 372 2147 372 2553 
Q 372 3047 722 3315 
Q 1072 3584 1716 3584 
Q 2034 3584 2315 3537 
Q 2597 3491 2834 3397 
z
" transform="scale(0.015625)"/>
       <path id="DejaVuSans-74" d="M 1172 4494 
L 1172 3500 
L 2356 3500 
L 2356 3053 
L 1172 3053 
L 1172 1153 
Q 1172 725 1289 603 
Q 1406 481 1766 481 
L 2356 481 
L 2356 0 
L 1766 0 
Q 1100 0 847 248 
Q 594 497 594 1153 
L 594 3053 
L 172 3053 
L 172 3500 
L 594 3500 
L 594 4494 
L 1172 4494 
z
" transform="scale(0.015625)"/>
       <path id="DejaVuSans-61" d="M 2194 1759 
Q 1497 1759 1228 1600 
Q 959 1441 959 1056 
Q 959 750 1161 570 
Q 1363 391 1709 391 
Q 2188 391 2477 730 
Q 2766 1069 2766 1631 
L 2766 1759 
L 2194 1759 
z
M 3341 1997 
L 3341 0 
L 2766 0 
L 2766 531 
Q 2569 213 2275 61 
Q 1981 -91 1556 -91 
Q 1019 -91 701 211 
Q 384 513 384 1019 
Q 384 1609 779 1909 
Q 1175 2209 1959 2209 
L 2766 2209 
L 2766 2266 
Q 2766 2663 2505 2880 
Q 2244 3097 1772 3097 
Q 1472 3097 1187 3025 
Q 903 2953 641 2809 
L 641 3341 
Q 956 3463 1253 3523 
Q 1550 3584 1831 3584 
Q 2591 3584 2966 3190 
Q 3341 2797 3341 1997 
z
" transform="scale(0.015625)"/>
       <path id="DejaVuSans-65" d="M 3597 1894 
L 3597 1613 
L 953 1613 
Q 991 1019 1311 708 
Q 1631 397 2203 397 
Q 2534 397 2845 478 
Q 3156 559 3463 722 
L 3463 178 
Q 3153 47 2828 -22 
Q 2503 -91 2169 -91 
Q 1331 -91 842 396 
Q 353 884 353 1716 
Q 353 2575 817 3079 
Q 1281 3584 2069 3584 
Q 2775 3584 3186 3129 
Q 3597 2675 3597 1894 
z
M 3022 2063 
Q 3016 2534 2758 2815 
Q 2500 3097 2075 3097 
Q 1594 3097 1305 2825 
Q 1016 2553 972 2059 
L 3022 2063 
z
" transform="scale(0.015625)"/>
      </defs>
      <use xlink:href="#DejaVuSans-49"/>
      <use xlink:href="#DejaVuSans-6e" x="29.492188"/>
      <use xlink:href="#DejaVuSans-73" x="92.871094"/>
      <use xlink:href="#DejaVuSans-74" x="144.970703"/>
      <use xlink:href="#DejaVuSans-61" x="184.179688"/>
      <use xlink:href="#DejaVuSans-6e" x="245.458984"/>
      <use xlink:href="#DejaVuSans-74" x="308.837891"/>
      <use xlink:href="#DejaVuSans-65" x="348.046875"/>
     </g>
    </g>
   </g>
   <g id="matplotlib.axis_2">
    <g id="ytick_1">
     <g id="line2d_10">
      <defs>
       <path id="m83b58d39d9" d="M 0 0 
L -3.5 0 
" style="stroke: #000000; stroke-width: 0.8"/>
      </defs>
      <g>
       <use xlink:href="#m83b58d39d9" x="122.94" y="357.025291" style="stroke: #000000; stroke-width: 0.8"/>
      </g>
     </g>
     <g id="text_11">
      <!-- 10 -->
      <g transform="translate(103.215 360.82451) scale(0.1 -0.1)">
       <use xlink:href="#DejaVuSans-31"/>
       <use xlink:href="#DejaVuSans-30" x="63.623047"/>
      </g>
     </g>
    </g>
    <g id="ytick_2">
     <g id="line2d_11">
      <g>
       <use xlink:href="#m83b58d39d9" x="122.94" y="288.927865" style="stroke: #000000; stroke-width: 0.8"/>
      </g>
     </g>
     <g id="text_12">
      <!-- 20 -->
      <g transform="translate(103.215 292.727084) scale(0.1 -0.1)">
       <defs>
        <path id="DejaVuSans-32" d="M 1228 531 
L 3431 531 
L 3431 0 
L 469 0 
L 469 531 
Q 828 903 1448 1529 
Q 2069 2156 2228 2338 
Q 2531 2678 2651 2914 
Q 2772 3150 2772 3378 
Q 2772 3750 2511 3984 
Q 2250 4219 1831 4219 
Q 1534 4219 1204 4116 
Q 875 4013 500 3803 
L 500 4441 
Q 881 4594 1212 4672 
Q 1544 4750 1819 4750 
Q 2544 4750 2975 4387 
Q 3406 4025 3406 3419 
Q 3406 3131 3298 2873 
Q 3191 2616 2906 2266 
Q 2828 2175 2409 1742 
Q 1991 1309 1228 531 
z
" transform="scale(0.015625)"/>
       </defs>
       <use xlink:href="#DejaVuSans-32"/>
       <use xlink:href="#DejaVuSans-30" x="63.623047"/>
      </g>
     </g>
    </g>
    <g id="ytick_3">
     <g id="line2d_12">
      <g>
       <use xlink:href="#m83b58d39d9" x="122.94" y="220.830439" style="stroke: #000000; stroke-width: 0.8"/>
      </g>
     </g>
     <g id="text_13">
      <!-- 30 -->
      <g transform="translate(103.215 224.629658) scale(0.1 -0.1)">
       <use xlink:href="#DejaVuSans-33"/>
       <use xlink:href="#DejaVuSans-30" x="63.623047"/>
      </g>
     </g>
    </g>
    <g id="ytick_4">
     <g id="line2d_13">
      <g>
       <use xlink:href="#m83b58d39d9" x="122.94" y="152.733013" style="stroke: #000000; stroke-width: 0.8"/>
      </g>
     </g>
     <g id="text_14">
      <!-- 40 -->
      <g transform="translate(103.215 156.532232) scale(0.1 -0.1)">
       <use xlink:href="#DejaVuSans-34"/>
       <use xlink:href="#DejaVuSans-30" x="63.623047"/>
      </g>
     </g>
    </g>
    <g id="ytick_5">
     <g id="line2d_14">
      <g>
       <use xlink:href="#m83b58d39d9" x="122.94" y="84.635588" style="stroke: #000000; stroke-width: 0.8"/>
      </g>
     </g>
     <g id="text_15">
      <!-- 50 -->
      <g transform="translate(103.215 88.434806) scale(0.1 -0.1)">
       <use xlink:href="#DejaVuSans-35"/>
       <use xlink:href="#DejaVuSans-30" x="63.623047"/>
      </g>
     </g>
    </g>
    <g id="text_16">
     <!-- Potencia[W] maximas -->
     <g transform="translate(97.135312 295.623831) rotate(-90) scale(0.1 -0.1)">
      <defs>
       <path id="DejaVuSans-50" d="M 1259 4147 
L 1259 2394 
L 2053 2394 
Q 2494 2394 2734 2622 
Q 2975 2850 2975 3272 
Q 2975 3691 2734 3919 
Q 2494 4147 2053 4147 
L 1259 4147 
z
M 628 4666 
L 2053 4666 
Q 2838 4666 3239 4311 
Q 3641 3956 3641 3272 
Q 3641 2581 3239 2228 
Q 2838 1875 2053 1875 
L 1259 1875 
L 1259 0 
L 628 0 
L 628 4666 
z
" transform="scale(0.015625)"/>
       <path id="DejaVuSans-6f" d="M 1959 3097 
Q 1497 3097 1228 2736 
Q 959 2375 959 1747 
Q 959 1119 1226 758 
Q 1494 397 1959 397 
Q 2419 397 2687 759 
Q 2956 1122 2956 1747 
Q 2956 2369 2687 2733 
Q 2419 3097 1959 3097 
z
M 1959 3584 
Q 2709 3584 3137 3096 
Q 3566 2609 3566 1747 
Q 3566 888 3137 398 
Q 2709 -91 1959 -91 
Q 1206 -91 779 398 
Q 353 888 353 1747 
Q 353 2609 779 3096 
Q 1206 3584 1959 3584 
z
" transform="scale(0.015625)"/>
       <path id="DejaVuSans-63" d="M 3122 3366 
L 3122 2828 
Q 2878 2963 2633 3030 
Q 2388 3097 2138 3097 
Q 1578 3097 1268 2742 
Q 959 2388 959 1747 
Q 959 1106 1268 751 
Q 1578 397 2138 397 
Q 2388 397 2633 464 
Q 2878 531 3122 666 
L 3122 134 
Q 2881 22 2623 -34 
Q 2366 -91 2075 -91 
Q 1284 -91 818 406 
Q 353 903 353 1747 
Q 353 2603 823 3093 
Q 1294 3584 2113 3584 
Q 2378 3584 2631 3529 
Q 2884 3475 3122 3366 
z
" transform="scale(0.015625)"/>
       <path id="DejaVuSans-69" d="M 603 3500 
L 1178 3500 
L 1178 0 
L 603 0 
L 603 3500 
z
M 603 4863 
L 1178 4863 
L 1178 4134 
L 603 4134 
L 603 4863 
z
" transform="scale(0.015625)"/>
       <path id="DejaVuSans-5b" d="M 550 4863 
L 1875 4863 
L 1875 4416 
L 1125 4416 
L 1125 -397 
L 1875 -397 
L 1875 -844 
L 550 -844 
L 550 4863 
z
" transform="scale(0.015625)"/>
       <path id="DejaVuSans-57" d="M 213 4666 
L 850 4666 
L 1831 722 
L 2809 4666 
L 3519 4666 
L 4500 722 
L 5478 4666 
L 6119 4666 
L 4947 0 
L 4153 0 
L 3169 4050 
L 2175 0 
L 1381 0 
L 213 4666 
z
" transform="scale(0.015625)"/>
       <path id="DejaVuSans-5d" d="M 1947 4863 
L 1947 -844 
L 622 -844 
L 622 -397 
L 1369 -397 
L 1369 4416 
L 622 4416 
L 622 4863 
L 1947 4863 
z
" transform="scale(0.015625)"/>
       <path id="DejaVuSans-20" transform="scale(0.015625)"/>
       <path id="DejaVuSans-6d" d="M 3328 2828 
Q 3544 3216 3844 3400 
Q 4144 3584 4550 3584 
Q 5097 3584 5394 3201 
Q 5691 2819 5691 2113 
L 5691 0 
L 5113 0 
L 5113 2094 
Q 5113 2597 4934 2840 
Q 4756 3084 4391 3084 
Q 3944 3084 3684 2787 
Q 3425 2491 3425 1978 
L 3425 0 
L 2847 0 
L 2847 2094 
Q 2847 2600 2669 2842 
Q 2491 3084 2119 3084 
Q 1678 3084 1418 2786 
Q 1159 2488 1159 1978 
L 1159 0 
L 581 0 
L 581 3500 
L 1159 3500 
L 1159 2956 
Q 1356 3278 1631 3431 
Q 1906 3584 2284 3584 
Q 2666 3584 2933 3390 
Q 3200 3197 3328 2828 
z
" transform="scale(0.015625)"/>
       <path id="DejaVuSans-78" d="M 3513 3500 
L 2247 1797 
L 3578 0 
L 2900 0 
L 1881 1375 
L 863 0 
L 184 0 
L 1544 1831 
L 300 3500 
L 978 3500 
L 1906 2253 
L 2834 3500 
L 3513 3500 
z
" transform="scale(0.015625)"/>
      </defs>
      <use xlink:href="#DejaVuSans-50"/>
      <use xlink:href="#DejaVuSans-6f" x="56.677734"/>
      <use xlink:href="#DejaVuSans-74" x="117.859375"/>
      <use xlink:href="#DejaVuSans-65" x="157.068359"/>
      <use xlink:href="#DejaVuSans-6e" x="218.591797"/>
      <use xlink:href="#DejaVuSans-63" x="281.970703"/>
      <use xlink:href="#DejaVuSans-69" x="336.951172"/>
      <use xlink:href="#DejaVuSans-61" x="364.734375"/>
      <use xlink:href="#DejaVuSans-5b" x="426.013672"/>
      <use xlink:href="#DejaVuSans-57" x="465.027344"/>
      <use xlink:href="#DejaVuSans-5d" x="563.904297"/>
      <use xlink:href="#DejaVuSans-20" x="602.917969"/>
      <use xlink:href="#DejaVuSans-6d" x="634.705078"/>
      <use xlink:href="#DejaVuSans-61" x="732.117188"/>
      <use xlink:href="#DejaVuSans-78" x="793.396484"/>
      <use xlink:href="#DejaVuSans-69" x="852.576172"/>
      <use xlink:href="#DejaVuSans-6d" x="880.359375"/>
      <use xlink:href="#DejaVuSans-61" x="977.771484"/>
      <use xlink:href="#DejaVuSans-73" x="1039.050781"/>
     </g>
    </g>
   </g>
   <g id="line2d_15">
    <path d="M 122.320549 342.973167 
L 123.189931 333.697941 
L 124.928696 368.179738 
L 125.798078 367.638536 
L 126.66746 360.669034 
L 127.536843 342.444296 
L 128.406225 337.689509 
L 129.275607 321.470809 
L 130.144989 339.167426 
L 131.014371 342.644477 
L 131.883754 350.045771 
L 132.753136 335.242231 
L 133.622518 307.745456 
L 134.4919 297.227166 
L 135.361283 338.304316 
L 136.230665 371.590503 
L 137.100047 364.827949 
L 137.969429 373.778074 
L 138.838811 352.891725 
L 139.708194 375.068974 
L 140.577576 375.505641 
L 141.446958 364.588729 
L 142.31634 334.81068 
L 143.185723 339.131421 
L 144.055105 344.512602 
L 144.924487 363.02951 
L 145.793869 371.096899 
L 146.663251 384.987389 
L 147.532634 387.167909 
L 148.402016 336.381076 
L 149.271398 354.77928 
L 150.14078 340.407758 
L 151.010163 345.180324 
L 151.879545 346.816503 
L 152.748927 350.503989 
L 153.618309 365.087384 
L 154.487692 357.696593 
L 155.357074 322.487387 
L 156.226456 325.623793 
L 157.095838 350.225394 
L 157.96522 351.764552 
L 158.834603 395.492273 
L 160.573367 331.28123 
L 161.442749 309.66313 
L 162.312132 336.886322 
L 163.181514 374.564017 
L 164.050896 301.411503 
L 164.920278 389.68917 
L 165.78966 326.838692 
L 166.659043 329.933219 
L 167.528425 269.4676 
L 168.397807 278.67365 
L 169.267189 236.992571 
L 170.136572 288.847595 
L 171.005954 310.48408 
L 171.875336 295.601575 
L 172.744718 306.44153 
L 173.6141 255.437145 
L 174.483483 280.754218 
L 175.352865 255.275439 
L 176.222247 285.935726 
L 177.091629 275.883973 
L 177.961012 254.235975 
L 178.830394 280.697664 
L 179.699776 279.287183 
L 180.569158 291.539479 
L 181.43854 297.341554 
L 182.307923 229.240386 
L 183.177305 234.071566 
L 184.046687 230.653808 
L 184.916069 297.432189 
L 185.785452 250.702858 
L 186.654834 256.659903 
L 187.524216 236.782673 
L 188.393598 239.181619 
L 189.26298 215.532757 
L 190.132363 236.44163 
L 191.001745 193.042319 
L 191.871127 203.112581 
L 192.740509 179.728027 
L 193.609892 214.034012 
L 194.479274 261.312848 
L 195.348656 227.652641 
L 196.218038 270.425461 
L 197.08742 288.253172 
L 197.956803 321.369154 
L 198.826185 316.471343 
L 199.695567 296.753855 
L 200.564949 268.764765 
L 201.434332 261.534374 
L 202.303714 279.665327 
L 203.173096 279.034046 
L 204.042478 267.785194 
L 204.91186 235.132747 
L 205.781243 297.120295 
L 206.650625 271.516359 
L 207.520007 302.793223 
L 208.389389 315.701179 
L 209.258772 326.363079 
L 210.128154 309.067575 
L 210.997536 316.103682 
L 211.866918 309.456643 
L 212.7363 315.618526 
L 213.605683 268.040307 
L 214.475065 270.397833 
L 215.344447 287.43677 
L 216.213829 317.912733 
L 217.083212 326.429676 
L 217.952594 320.88068 
L 218.821976 311.711714 
L 219.691358 322.331202 
L 220.56074 315.985256 
L 221.430123 295.903276 
L 222.299505 321.848634 
L 223.168887 328.222568 
L 224.038269 318.415702 
L 224.907652 323.545809 
L 225.777034 325.693051 
L 226.646416 324.34107 
L 227.515798 328.367436 
L 228.38518 334.373378 
L 229.254563 334.419225 
L 230.123945 329.21207 
L 230.993327 328.740554 
L 231.862709 335.241656 
L 232.732092 335.350479 
L 233.601474 333.33251 
L 234.470856 345.364255 
L 235.340238 337.63791 
L 236.20962 335.917855 
L 237.079003 321.540261 
L 238.817767 331.879945 
L 239.687149 343.750678 
L 240.556532 369.186935 
L 241.425914 366.734789 
L 242.295296 321.794202 
L 243.164678 329.160953 
L 244.03406 309.490199 
L 244.903443 274.155266 
L 245.772825 410.129053 
L 246.642207 283.831752 
L 247.511589 415.343953 
L 248.380972 227.910757 
L 249.250354 356.847763 
L 250.119736 212.086116 
L 250.989118 198.535535 
L 251.8585 245.532488 
L 252.727883 112.193827 
L 253.597265 228.923788 
L 254.466647 121.154744 
L 255.336029 152.689248 
L 256.205412 68.922888 
L 257.074794 66.144803 
L 257.944176 66.238642 
L 259.68294 66.239645 
L 264.029852 66.253724 
L 264.899234 66.55766 
L 265.768616 66.424013 
L 266.637998 66.407883 
L 267.50738 66.512961 
L 268.376763 66.256956 
L 270.115527 66.337101 
L 272.723674 66.263258 
L 276.201203 66.269153 
L 278.809349 66.252213 
L 279.678732 66.199103 
L 284.025643 66.594389 
L 284.895025 67.702318 
L 285.764407 71.962313 
L 286.633789 70.970002 
L 287.503172 67.507165 
L 288.372554 66.650907 
L 289.241936 66.306459 
L 290.111318 66.395372 
L 290.980701 66.236857 
L 295.327612 66.23254 
L 297.066376 66.38656 
L 298.805141 66.199005 
L 299.674523 67.007996 
L 300.543905 66.656346 
L 301.413287 66.683433 
L 302.282669 66.982954 
L 303.152052 66.273799 
L 304.021434 66.187564 
L 304.890816 66.269544 
L 306.629581 67.366699 
L 307.498963 67.352426 
L 308.368345 67.080315 
L 309.237727 66.351205 
L 310.107109 66.332143 
L 310.976492 66.469556 
L 312.715256 66.224812 
L 314.454021 66.416815 
L 315.323403 66.488101 
L 316.192785 66.350555 
L 317.062167 66.331722 
L 317.931549 66.574521 
L 318.800932 66.562672 
L 319.670314 66.737423 
L 320.539696 66.659626 
L 321.409078 67.0301 
L 322.278461 66.981277 
L 323.147843 66.681501 
L 324.886607 66.369861 
L 326.625372 66.776311 
L 327.494754 66.718227 
L 328.364136 66.814828 
L 329.233518 66.463939 
L 330.102901 66.419651 
L 330.972283 66.595465 
L 331.841665 66.406569 
L 332.711047 66.576608 
L 333.580429 66.348646 
L 334.449812 66.659806 
L 335.319194 66.525752 
L 336.188576 66.623384 
L 337.057958 66.332997 
L 337.927341 66.575267 
L 342.274252 66.485593 
L 343.143634 66.523257 
L 344.013016 66.27759 
L 346.621163 66.702984 
L 347.490545 66.39109 
L 348.359927 66.326422 
L 349.229309 66.587786 
L 350.968074 66.257975 
L 351.837456 66.729958 
L 352.706838 66.879402 
L 353.576221 66.441465 
L 354.445603 66.558311 
L 355.314985 67.434743 
L 356.184367 66.560717 
L 357.053749 66.67404 
L 357.923132 66.516892 
L 358.792514 66.857192 
L 359.661896 66.631607 
L 360.531278 66.863258 
L 361.400661 66.379568 
L 362.270043 73.094641 
L 363.139425 88.331498 
L 364.008807 93.530853 
L 364.878189 100.341138 
L 365.747572 102.922346 
L 366.616954 103.505641 
L 367.486336 102.986808 
L 368.355718 101.254631 
L 369.225101 97.50241 
L 370.094483 95.849248 
L 370.963865 93.017214 
L 371.833247 83.478887 
L 372.702629 71.703621 
L 373.572012 66.361358 
L 374.441394 66.478492 
L 375.310776 66.271193 
L 377.918923 66.401531 
L 378.788305 66.704043 
L 379.657687 66.363187 
L 383.135216 66.664233 
L 384.004598 66.999052 
L 384.873981 66.994743 
L 385.743363 66.730611 
L 386.612745 67.075336 
L 388.351509 66.519176 
L 389.220892 67.232454 
L 390.959656 66.690388 
L 392.698421 67.188514 
L 394.437185 66.840649 
L 395.306567 66.976696 
L 396.175949 66.356596 
L 397.045332 66.699428 
L 398.784096 66.469007 
L 400.522861 66.678281 
L 401.392243 66.328438 
L 402.261625 67.059886 
L 403.131007 66.8124 
L 404.00039 66.331708 
L 406.608536 66.538142 
L 407.477918 66.300738 
L 410.086065 66.356146 
L 410.955447 66.561987 
L 411.82483 66.490852 
L 412.694212 66.291127 
L 413.563594 66.600245 
L 414.432976 66.759605 
L 415.302358 66.484594 
L 416.171741 66.597143 
L 417.041123 66.305309 
L 417.910505 66.523203 
L 419.64927 67.538647 
L 420.518652 66.997299 
L 421.388034 66.720447 
L 422.257416 66.887947 
L 423.126798 67.98179 
L 423.996181 66.65108 
L 424.865563 67.30358 
L 425.734945 67.411347 
L 426.604327 68.186693 
L 428.343092 71.255194 
L 429.212474 67.369698 
L 430.081856 66.964657 
L 430.951238 66.730302 
L 431.820621 69.333912 
L 432.690003 66.815064 
L 433.559385 67.241366 
L 434.428767 66.660996 
L 435.29815 68.222698 
L 436.167532 68.809001 
L 437.036914 68.983737 
L 438.775678 69.944855 
L 439.645061 68.063895 
L 440.514443 69.88554 
L 441.383825 68.898037 
L 442.253207 66.957194 
L 443.12259 71.60977 
L 443.991972 66.752475 
L 444.861354 68.629719 
L 445.730736 66.796788 
L 446.600118 67.396997 
L 447.469501 67.148139 
L 448.338883 79.591846 
L 449.208265 67.718664 
L 450.077647 78.704282 
L 450.94703 72.744751 
L 451.816412 76.959705 
L 452.685794 69.233338 
L 453.555176 67.293675 
L 454.424558 68.514599 
L 455.293941 68.251317 
L 456.163323 75.207591 
L 457.032705 67.949306 
L 457.902087 77.17672 
L 458.77147 67.736437 
L 459.640852 74.628948 
L 460.510234 70.555941 
L 461.379616 69.650159 
L 462.248998 85.665409 
L 463.118381 68.988941 
L 463.987763 81.130545 
L 464.857145 80.782483 
L 465.726527 71.286858 
L 466.59591 88.625705 
L 467.465292 69.329757 
L 468.334674 83.11874 
L 469.204056 66.9059 
L 470.073438 73.331991 
L 470.942821 69.756423 
L 471.812203 73.811008 
L 472.681585 67.26285 
L 473.550967 66.983943 
L 474.42035 67.384462 
L 475.289732 66.728525 
L 476.159114 67.105303 
L 477.028496 66.759856 
L 477.897878 66.912385 
L 478.767261 66.57029 
L 479.636643 67.284588 
L 480.506025 66.857364 
L 482.24479 66.562314 
L 483.114172 66.602742 
L 483.983554 66.832311 
L 484.852936 68.205503 
L 485.722318 67.299185 
L 486.591701 67.053433 
L 487.461083 66.303221 
L 488.330465 66.352708 
L 489.199847 66.624551 
L 490.06923 66.500552 
L 491.807994 66.801719 
L 492.677376 66.586292 
L 493.546758 66.52467 
L 494.416141 66.783918 
L 495.285523 66.525695 
L 496.154905 67.000504 
L 497.024287 67.211928 
L 497.89367 67.145903 
L 498.763052 66.472648 
L 499.632434 67.067439 
L 500.501816 66.936025 
L 501.371198 66.411161 
L 502.240581 66.569613 
L 503.109963 66.457766 
L 503.979345 66.543684 
L 504.848727 66.371286 
L 505.71811 66.622094 
L 506.587492 66.379408 
L 507.456874 66.3193 
L 510.934403 66.437766 
L 511.803785 66.338844 
L 512.673167 66.387106 
L 513.54255 66.686261 
L 514.411932 66.633369 
L 515.281314 66.777975 
L 516.150696 66.479589 
L 517.020078 66.367289 
L 518.758843 66.624627 
L 519.628225 66.297059 
L 521.36699 66.30461 
L 522.236372 66.25792 
L 523.975136 66.350315 
L 524.844518 66.365036 
L 525.713901 66.266122 
L 526.583283 66.785501 
L 527.452665 66.50452 
L 530.060812 66.375097 
L 530.930194 66.320166 
L 531.799576 66.79739 
L 532.668959 66.921049 
L 533.538341 66.427913 
L 534.407723 66.576009 
L 535.277105 66.961934 
L 536.146487 66.581087 
L 537.01587 66.386067 
L 537.885252 66.55022 
L 538.754634 66.342063 
L 539.624016 67.509315 
L 540.493399 66.530361 
L 541.362781 66.596211 
L 542.232163 66.95719 
L 543.101545 66.697568 
L 543.970927 67.705911 
L 544.84031 74.469527 
L 545.709692 73.822747 
L 546.579074 71.700574 
L 547.448456 76.863744 
L 548.317839 86.286044 
L 549.187221 88.71893 
L 550.056603 84.912614 
L 550.925985 70.785788 
L 551.795367 71.995656 
L 552.66475 85.983789 
L 553.534132 67.507466 
L 554.403514 70.377317 
L 555.272896 66.340828 
L 556.142279 66.247377 
L 557.011661 66.348632 
L 557.881043 66.655673 
L 558.750425 67.171697 
L 559.619807 67.070607 
L 560.48919 66.622988 
L 563.097336 66.354356 
L 563.966719 66.424162 
L 564.836101 66.314327 
L 565.705483 66.548915 
L 566.574865 66.624527 
L 568.31363 66.359079 
L 570.052394 66.444438 
L 570.921776 66.610147 
L 571.791159 66.49664 
L 572.660541 67.012183 
L 573.529923 66.345243 
L 574.399305 67.040671 
L 575.268687 67.503298 
L 576.13807 86.675007 
L 577.007452 69.226346 
L 577.876834 67.368505 
L 578.746216 73.292453 
L 579.615599 76.481535 
L 580.484981 67.12278 
L 581.354363 66.762223 
L 582.223745 70.067211 
L 583.093127 68.434997 
L 583.96251 66.220518 
L 584.831892 67.004411 
L 585.701274 66.859803 
L 587.440039 66.252833 
L 588.309421 74.639597 
L 589.178803 66.238861 
L 590.048185 67.715477 
L 590.917567 79.786773 
L 591.78695 76.746835 
L 592.656332 66.339485 
L 593.525714 88.809968 
L 594.395096 67.053292 
L 595.264479 66.325858 
L 596.133861 66.862328 
L 597.003243 66.534015 
L 598.742007 67.146971 
L 599.61139 66.529969 
L 601.350154 66.424513 
L 602.219536 66.608263 
L 603.088919 66.465416 
L 603.958301 66.751772 
L 605.697065 67.668078 
L 606.566447 66.976987 
L 608.305212 66.342413 
L 609.174594 67.186125 
L 610.043976 70.824848 
L 610.913359 66.386267 
L 611.782741 66.469865 
L 612.652123 66.701176 
L 613.521505 66.248796 
L 614.390887 70.538434 
L 615.26027 66.23207 
L 616.129652 67.083909 
L 616.999034 67.315445 
L 617.868416 66.210112 
L 619.607181 66.209094 
L 621.345945 66.662223 
L 622.215327 66.206111 
L 624.823474 66.23721 
L 626.562239 66.187667 
L 627.431621 66.183382 
L 628.301003 66.562426 
L 631.778532 66.341891 
L 632.647914 66.6235 
L 633.517296 66.713016 
L 635.256061 66.62923 
L 636.994825 66.588812 
L 641.341736 66.2212 
L 642.211119 66.716155 
L 643.080501 66.570606 
L 643.949883 66.189386 
L 644.819265 66.164711 
L 645.688647 66.297173 
L 646.55803 67.880033 
L 647.427412 66.277273 
L 648.296794 69.750254 
L 649.166176 67.641158 
L 650.035559 66.316521 
L 650.904941 66.254259 
L 651.774323 70.245907 
L 652.643705 68.530732 
L 653.513087 66.215589 
L 654.38247 66.194899 
L 655.251852 66.336136 
L 656.121234 73.67216 
L 656.990616 67.256298 
L 657.859999 66.207018 
L 658.729381 66.447829 
L 659.598763 66.201336 
L 660.468145 67.339656 
L 661.337528 67.868842 
L 662.20691 67.601031 
L 663.076292 66.832255 
L 663.945674 66.245326 
L 665.684439 66.739889 
L 666.553821 66.374191 
L 667.423203 66.309202 
L 668.292585 66.468599 
L 669.161968 67.439929 
L 670.03135 67.648255 
L 670.900732 66.838089 
L 671.770114 70.358791 
L 672.639496 70.758815 
L 673.508879 66.5971 
L 674.378261 66.484527 
L 675.247643 66.509273 
L 676.117025 66.680591 
L 677.85579 66.274601 
L 678.725172 66.419259 
L 679.594554 67.405336 
L 680.463936 66.21938 
L 682.202701 66.487327 
L 683.072083 66.233286 
L 683.941465 66.467431 
L 684.810848 66.278641 
L 690.027141 66.158403 
L 690.896523 66.319605 
L 691.765905 66.260504 
L 692.635288 67.150748 
L 693.50467 66.351955 
L 695.243434 66.154123 
L 696.112816 66.297513 
L 696.982199 66.151445 
L 697.851581 66.486877 
L 700.459728 66.16241 
L 703.067874 66.364339 
L 705.676021 66.145334 
L 706.545403 66.375367 
L 707.414785 66.193589 
L 709.15355 66.262504 
L 710.022932 66.719967 
L 710.892314 66.716122 
L 711.761696 66.563863 
L 712.631079 66.224589 
L 713.500461 66.36045 
L 714.369843 66.154638 
L 716.108608 66.133597 
L 716.97799 66.676241 
L 717.847372 66.210746 
L 718.716754 90.573123 
L 719.586136 66.624913 
L 720.455519 66.140088 
L 721.324901 66.14876 
L 722.194283 66.631465 
L 723.063665 66.830491 
L 723.933048 66.227367 
L 724.80243 66.167686 
L 725.671812 97.219282 
L 726.541194 75.747928 
L 727.410576 66.530308 
L 728.279959 66.540417 
L 729.149341 66.197791 
L 730.018723 66.155427 
L 730.888105 66.364271 
L 731.757488 66.209227 
L 732.62687 66.495016 
L 733.496252 66.305285 
L 736.104399 66.19928 
L 737.843163 66.49749 
L 738.712545 66.240323 
L 741.320692 66.20679 
L 742.190074 66.394624 
L 743.059456 66.293842 
L 743.928839 66.323983 
L 744.798221 66.106149 
L 746.536985 66.151476 
L 747.406368 66.343992 
L 748.27575 66.120982 
L 749.145132 66.117923 
L 750.014514 66.948888 
L 750.883896 66.211102 
L 752.622661 66.148049 
L 753.492043 66.141484 
L 754.361425 83.400952 
L 755.230808 66.453621 
L 756.10019 66.140642 
L 756.969572 82.297142 
L 757.838954 83.073558 
L 758.708336 66.264305 
L 763.055248 66.20019 
L 766.532776 66.16197 
L 767.402159 66.334254 
L 768.271541 66.367785 
L 769.140923 66.166921 
L 770.879688 66.195734 
L 771.74907 66.360695 
L 773.487834 66.180459 
L 774.357216 66.122777 
L 775.226599 66.310845 
L 777.834745 66.431801 
L 778.704128 68.096947 
L 779.57351 66.324673 
L 780.442892 66.124849 
L 781.312274 66.237454 
L 782.181656 73.035707 
L 783.051039 67.879554 
L 783.920421 66.165028 
L 784.789803 67.107002 
L 785.659185 69.738904 
L 786.528568 66.200718 
L 787.39795 66.26119 
L 788.267332 73.325995 
L 789.136714 66.16745 
L 790.006097 66.234787 
L 790.875479 66.836384 
L 791.744861 66.888893 
L 792.614243 67.845662 
L 793.483625 66.76847 
L 794.353008 66.955302 
L 795.22239 80.690759 
L 796.091772 88.247437 
L 796.961154 92.073548 
L 798.699919 107.074632 
L 799.569301 107.94732 
L 800.438683 150.035984 
L 801.308065 120.061424 
L 802.177448 135.711571 
L 803.04683 164.394387 
L 803.916212 142.70258 
L 804.785594 158.672349 
L 805.654977 169.31103 
L 806.524359 151.497045 
L 807.393741 177.80854 
L 808.263123 141.128884 
L 809.132505 184.643388 
L 810.001888 187.875909 
L 810.87127 201.804908 
L 811.740652 207.959064 
L 812.610034 182.607097 
L 813.479417 175.667041 
L 814.348799 198.853735 
L 815.218181 208.388125 
L 816.087563 201.590784 
L 816.956945 202.41202 
L 817.826328 212.398997 
L 818.69571 225.919056 
L 819.565092 235.272612 
L 820.434474 260.097822 
L 821.303857 218.023711 
L 822.173239 211.945036 
L 823.042621 211.288616 
L 824.781385 273.556782 
L 825.650768 250.030526 
L 826.52015 249.103982 
L 827.389532 229.483572 
L 828.258914 218.027978 
L 829.128297 230.3384 
L 829.997679 262.472994 
L 830.867061 235.971973 
L 831.736443 235.918763 
L 832.605825 269.37369 
L 833.475208 247.068612 
L 834.34459 265.177754 
L 835.213972 254.529791 
L 836.083354 276.10477 
L 836.952737 271.045447 
L 837.822119 256.212046 
L 838.691501 283.921427 
L 839.560883 275.42532 
L 840.430265 302.27223 
L 841.299648 292.779466 
L 842.16903 302.250279 
L 843.038412 275.672066 
L 843.907794 290.617045 
L 844.777177 328.012402 
L 845.646559 315.576646 
L 846.515941 324.863297 
L 847.385323 277.133626 
L 848.254705 278.783495 
L 849.124088 285.19034 
L 849.99347 294.776332 
L 850.862852 289.837958 
L 851.732234 305.25572 
L 852.601617 285.936842 
L 854.340381 289.267595 
L 855.209763 281.289257 
L 856.079145 272.264311 
L 856.948528 290.297591 
L 857.81791 315.600983 
L 858.687292 310.671164 
L 859.556674 300.330449 
L 860.426057 315.600041 
L 861.295439 318.051248 
L 862.164821 272.645955 
L 863.034203 292.628626 
L 863.903585 295.555323 
L 864.772968 293.570633 
L 866.511732 314.73505 
L 867.381114 335.933594 
L 868.250497 350.490512 
L 869.119879 336.086634 
L 869.989261 337.810418 
L 870.858643 326.261274 
L 871.728025 324.653633 
L 872.597408 336.120892 
L 873.46679 338.4078 
L 874.336172 337.074319 
L 875.205554 331.411536 
L 876.074937 334.581133 
L 876.944319 339.113358 
L 877.813701 349.386755 
L 878.683083 340.34278 
L 879.552465 328.191839 
L 880.421848 303.741699 
L 881.29123 319.311692 
L 882.160612 343.453259 
L 883.029994 362.888024 
L 883.899377 377.098663 
L 884.768759 348.360451 
L 885.638141 334.86034 
L 885.638141 334.86034 
" clip-path="url(#pf3a0278fb4)" style="fill: none; stroke: #1f77b4; stroke-width: 1.5; stroke-linecap: square"/>
   </g>
   <g id="line2d_16">
    <path d="M 122.320549 327.144729 
L 123.189931 320.649648 
L 124.928696 363.197945 
L 125.798078 353.32133 
L 126.66746 340.40388 
L 127.536843 321.397717 
L 128.406225 309.006758 
L 129.275607 307.554809 
L 131.014371 342.514909 
L 131.883754 333.071575 
L 133.622518 295.130374 
L 134.4919 287.966801 
L 135.361283 336.337552 
L 136.230665 358.194433 
L 137.100047 342.707008 
L 137.969429 346.163734 
L 138.838811 337.349831 
L 139.708194 359.273089 
L 140.577576 343.722959 
L 141.446958 355.20563 
L 142.31634 327.226678 
L 143.185723 316.977387 
L 144.055105 333.450248 
L 144.924487 355.853485 
L 145.793869 359.702156 
L 146.663251 374.958795 
L 147.532634 362.42111 
L 148.402016 334.011529 
L 149.271398 337.921037 
L 150.14078 318.568822 
L 151.010163 336.316439 
L 151.879545 346.807447 
L 152.748927 347.252779 
L 153.618309 358.097097 
L 154.487692 346.919531 
L 155.357074 307.245572 
L 156.226456 297.386696 
L 157.96522 295.781254 
L 158.834603 315.539803 
L 159.703985 317.79521 
L 160.573367 310.556891 
L 161.442749 299.078467 
L 162.312132 322.78622 
L 163.181514 323.264476 
L 164.050896 298.69451 
L 164.920278 293.301739 
L 165.78966 302.372597 
L 166.659043 291.601575 
L 167.528425 268.407188 
L 168.397807 258.585823 
L 169.267189 236.688811 
L 170.136572 254.43312 
L 171.005954 287.575726 
L 171.875336 288.418311 
L 172.744718 244.585878 
L 173.6141 245.670235 
L 174.483483 250.410334 
L 175.352865 235.642096 
L 176.222247 268.101636 
L 177.091629 242.592488 
L 177.961012 252.854182 
L 178.830394 244.189979 
L 180.569158 268.290967 
L 182.307923 210.962545 
L 183.177305 201.837672 
L 184.046687 214.442052 
L 184.916069 214.155633 
L 185.785452 214.149993 
L 186.654834 215.818112 
L 187.524216 197.001638 
L 188.393598 200.186216 
L 189.26298 193.599611 
L 190.132363 156.596304 
L 191.001745 169.672191 
L 191.871127 150.483481 
L 193.609892 174.592299 
L 194.479274 196.889098 
L 195.348656 214.747165 
L 196.218038 214.645797 
L 197.956803 215.105007 
L 198.826185 214.739711 
L 199.695567 214.973449 
L 200.564949 214.839293 
L 201.434332 214.9359 
L 202.303714 215.236162 
L 203.173096 216.943961 
L 204.042478 231.28168 
L 204.91186 232.860773 
L 205.781243 232.075154 
L 206.650625 237.356065 
L 207.520007 225.862341 
L 209.258772 266.431855 
L 210.128154 266.521669 
L 210.997536 266.781941 
L 211.866918 267.571008 
L 212.7363 277.038031 
L 214.475065 242.462112 
L 215.344447 244.188308 
L 216.213829 258.148281 
L 217.083212 294.565488 
L 217.952594 310.304586 
L 218.821976 297.87917 
L 219.691358 290.298667 
L 220.56074 284.251104 
L 221.430123 273.459548 
L 222.299505 290.00095 
L 223.168887 288.852659 
L 224.038269 296.524711 
L 224.907652 288.038924 
L 225.777034 275.514199 
L 226.646416 297.616092 
L 227.515798 301.615549 
L 228.38518 301.733214 
L 229.254563 305.177714 
L 230.123945 311.792106 
L 230.993327 307.510576 
L 231.862709 313.489741 
L 232.732092 289.287813 
L 233.601474 274.130475 
L 234.470856 272.08888 
L 235.340238 271.988858 
L 236.20962 272.119936 
L 237.079003 276.877106 
L 237.948385 300.349887 
L 238.817767 311.557332 
L 239.687149 309.972951 
L 240.556532 284.634685 
L 241.425914 271.496234 
L 242.295296 276.011849 
L 243.164678 293.415107 
L 244.03406 293.678287 
L 244.903443 268.054048 
L 245.772825 236.825755 
L 246.642207 214.551817 
L 247.511589 214.206556 
L 249.250354 214.160203 
L 250.119736 194.441772 
L 251.8585 127.909753 
L 252.727883 112.021119 
L 255.336029 112.073356 
L 256.205412 68.831788 
L 257.074794 65.625255 
L 257.944176 65.721432 
L 259.68294 65.722968 
L 264.029852 65.73733 
L 264.899234 66.109086 
L 265.768616 65.918449 
L 266.637998 65.900732 
L 267.50738 66.058795 
L 268.376763 65.741769 
L 270.115527 65.826961 
L 272.723674 65.748066 
L 275.33182 65.714611 
L 277.939967 65.752162 
L 280.548114 65.739283 
L 284.025643 66.062097 
L 284.895025 67.223687 
L 285.764407 71.862782 
L 286.633789 70.883553 
L 287.503172 67.188454 
L 288.372554 66.204019 
L 289.241936 65.795284 
L 290.111318 65.890056 
L 290.980701 65.719232 
L 295.327612 65.715659 
L 297.066376 65.867722 
L 298.805141 65.681404 
L 299.674523 66.474751 
L 300.543905 66.160411 
L 301.413287 66.182263 
L 302.282669 66.460702 
L 303.152052 65.75779 
L 304.021434 65.669069 
L 304.890816 65.753002 
L 306.629581 66.855198 
L 307.498963 66.822946 
L 308.368345 66.589861 
L 309.237727 65.836729 
L 310.107109 65.815794 
L 310.976492 65.951969 
L 312.715256 65.707809 
L 314.454021 65.897465 
L 315.323403 65.972478 
L 316.192785 65.834317 
L 317.062167 65.818167 
L 317.931549 66.056519 
L 318.800932 66.051297 
L 319.670314 66.220806 
L 320.539696 66.151755 
L 321.409078 66.511224 
L 322.278461 66.472947 
L 323.147843 66.167952 
L 324.886607 65.853911 
L 326.625372 66.280782 
L 327.494754 66.185726 
L 328.364136 66.39892 
L 329.233518 65.940914 
L 330.102901 65.899722 
L 330.972283 66.148847 
L 331.841665 65.895835 
L 332.711047 66.0542 
L 333.580429 65.838022 
L 334.449812 66.136014 
L 335.319194 66.008237 
L 336.188576 66.179129 
L 337.057958 65.822302 
L 337.927341 66.058462 
L 342.274252 65.96706 
L 343.143634 65.997964 
L 344.013016 65.761568 
L 346.621163 66.182372 
L 347.490545 65.879408 
L 348.359927 65.811977 
L 349.229309 66.06815 
L 350.968074 65.74152 
L 351.837456 66.240509 
L 352.706838 66.362848 
L 353.576221 65.93088 
L 354.445603 66.055993 
L 355.314985 67.050553 
L 356.184367 66.053875 
L 357.053749 66.214515 
L 357.923132 66.008352 
L 358.792514 66.419307 
L 359.661896 66.180861 
L 360.531278 66.392906 
L 361.400661 65.869011 
L 362.270043 72.914645 
L 363.139425 84.375828 
L 364.008807 93.052668 
L 364.878189 98.773355 
L 365.747572 101.571259 
L 366.616954 101.730903 
L 367.486336 101.309545 
L 369.225101 96.43044 
L 370.094483 94.248178 
L 370.963865 87.982012 
L 372.702629 71.600563 
L 373.572012 65.854436 
L 374.441394 66.001487 
L 375.310776 65.755127 
L 377.918923 65.890487 
L 378.788305 66.181233 
L 379.657687 65.84582 
L 383.135216 66.148028 
L 384.004598 66.465952 
L 384.873981 66.480217 
L 385.743363 66.242123 
L 386.612745 66.605332 
L 388.351509 66.007045 
L 389.220892 66.775443 
L 390.959656 66.177866 
L 392.698421 66.665398 
L 394.437185 66.324309 
L 395.306567 66.449841 
L 396.175949 65.842705 
L 397.045332 66.180119 
L 398.784096 65.945992 
L 400.522861 66.221807 
L 401.392243 65.812268 
L 402.261625 66.693258 
L 403.131007 66.326499 
L 404.00039 65.817728 
L 406.608536 66.030529 
L 407.477918 65.783652 
L 410.086065 65.839984 
L 410.955447 66.033003 
L 411.82483 65.966688 
L 412.694212 65.775527 
L 413.563594 66.069368 
L 414.432976 66.223545 
L 415.302358 65.965084 
L 416.171741 66.069844 
L 417.041123 65.788467 
L 417.910505 66.001198 
L 419.64927 66.998201 
L 420.518652 66.450713 
L 421.388034 66.186298 
L 422.257416 66.344006 
L 423.126798 67.524455 
L 423.996181 66.131162 
L 424.865563 66.758211 
L 425.734945 66.894009 
L 426.604327 67.709455 
L 427.47371 69.715958 
L 428.343092 71.212816 
L 429.212474 66.853572 
L 430.081856 66.4168 
L 430.951238 66.202753 
L 431.820621 69.294781 
L 432.690003 66.290003 
L 433.559385 66.696493 
L 434.428767 66.136037 
L 435.29815 67.946542 
L 436.167532 68.741801 
L 437.036914 68.930618 
L 437.906296 69.505662 
L 438.775678 69.905836 
L 439.645061 67.771358 
L 440.514443 69.864845 
L 441.383825 68.83393 
L 442.253207 66.406488 
L 443.12259 71.5189 
L 443.991972 66.216728 
L 444.861354 68.511902 
L 445.730736 66.260626 
L 446.600118 66.872517 
L 447.469501 66.622629 
L 448.338883 76.701303 
L 449.208265 67.190903 
L 450.077647 76.312922 
L 450.94703 72.63396 
L 451.816412 75.89967 
L 452.685794 69.140473 
L 453.555176 66.765239 
L 454.424558 68.07879 
L 455.293941 67.806488 
L 456.163323 75.002663 
L 457.032705 67.479882 
L 457.902087 76.417807 
L 458.77147 67.236207 
L 459.640852 74.433994 
L 460.510234 70.55058 
L 461.379616 69.464467 
L 462.248998 80.254062 
L 463.118381 68.749941 
L 463.987763 77.65136 
L 464.857145 77.343739 
L 465.726527 71.190564 
L 466.59591 84.813926 
L 467.465292 69.108712 
L 468.334674 78.117886 
L 469.204056 66.35308 
L 470.073438 73.191327 
L 470.942821 69.752594 
L 471.812203 73.640453 
L 472.681585 66.71551 
L 473.550967 66.433218 
L 474.42035 66.86467 
L 475.289732 66.181363 
L 476.159114 66.555498 
L 477.028496 66.209154 
L 477.897878 66.362413 
L 478.767261 66.036165 
L 479.636643 66.772251 
L 480.506025 66.305648 
L 482.24479 66.031752 
L 483.114172 66.072595 
L 483.983554 66.288778 
L 484.852936 67.876925 
L 485.722318 66.788339 
L 486.591701 66.508589 
L 487.461083 65.785398 
L 488.330465 65.833593 
L 489.199847 66.094439 
L 490.06923 65.977249 
L 491.807994 66.265618 
L 492.677376 66.064752 
L 493.546758 65.999613 
L 494.416141 66.24562 
L 495.285523 66.003583 
L 496.154905 66.458358 
L 497.024287 66.668522 
L 497.89367 66.62306 
L 498.763052 65.951588 
L 499.632434 66.538942 
L 500.501816 66.404009 
L 501.371198 65.894887 
L 502.240581 66.047667 
L 503.109963 65.940594 
L 503.979345 66.015219 
L 504.848727 65.857832 
L 505.71811 66.097478 
L 506.587492 65.862737 
L 507.456874 65.800905 
L 510.934403 65.922323 
L 511.803785 65.822407 
L 512.673167 65.87066 
L 513.54255 66.169906 
L 514.411932 66.119459 
L 515.281314 66.247434 
L 516.150696 65.9759 
L 517.020078 65.854642 
L 518.758843 66.097726 
L 519.628225 65.778806 
L 521.36699 65.787443 
L 522.236372 65.740617 
L 523.975136 65.834161 
L 524.844518 65.849225 
L 525.713901 65.749929 
L 526.583283 66.245889 
L 527.452665 65.983134 
L 530.930194 65.805371 
L 531.799576 66.272304 
L 532.668959 66.400317 
L 533.538341 65.917119 
L 534.407723 66.057197 
L 535.277105 66.428154 
L 536.146487 66.070053 
L 537.01587 65.875182 
L 537.885252 66.031322 
L 538.754634 65.821165 
L 539.624016 67.025595 
L 540.493399 66.014472 
L 541.362781 66.086255 
L 542.232163 66.459903 
L 543.101545 66.249195 
L 543.970927 67.360191 
L 544.84031 74.25798 
L 545.709692 73.670889 
L 546.579074 71.592571 
L 548.317839 81.823839 
L 549.187221 84.494557 
L 550.056603 81.424399 
L 550.925985 70.692836 
L 551.795367 71.89553 
L 552.66475 81.423507 
L 553.534132 67.234758 
L 554.403514 70.291243 
L 555.272896 65.82509 
L 556.142279 65.729824 
L 557.011661 65.83551 
L 558.750425 66.64652 
L 559.619807 66.545224 
L 560.48919 66.096524 
L 563.097336 65.83885 
L 563.966719 65.906499 
L 564.836101 65.79914 
L 565.705483 66.038973 
L 566.574865 66.102179 
L 568.31363 65.844759 
L 570.052394 65.930751 
L 570.921776 66.093825 
L 571.791159 65.984246 
L 572.660541 66.506318 
L 573.529923 65.830901 
L 575.268687 67.186311 
L 576.13807 81.235372 
L 577.007452 69.188136 
L 577.876834 67.034227 
L 578.746216 73.111828 
L 579.615599 75.547386 
L 580.484981 66.604626 
L 581.354363 66.221159 
L 582.223745 70.031529 
L 583.093127 68.172169 
L 583.96251 65.702017 
L 584.831892 66.510189 
L 585.701274 66.46306 
L 587.440039 65.736363 
L 588.309421 74.442773 
L 589.178803 65.720784 
L 590.048185 67.21543 
L 590.917567 76.723052 
L 591.78695 75.787283 
L 592.656332 65.820591 
L 593.525714 88.774955 
L 594.395096 66.422466 
L 595.264479 65.8074 
L 596.133861 66.323207 
L 597.003243 66.018369 
L 598.742007 66.59947 
L 599.61139 66.014238 
L 601.350154 65.908244 
L 602.219536 66.083861 
L 603.088919 65.945493 
L 603.958301 66.213361 
L 605.697065 67.15615 
L 606.566447 66.432164 
L 608.305212 65.82727 
L 609.174594 66.667984 
L 610.043976 70.747098 
L 610.913359 65.872476 
L 611.782741 65.966347 
L 612.652123 66.255357 
L 613.521505 65.732029 
L 614.390887 70.466217 
L 615.26027 65.714701 
L 616.129652 66.712656 
L 616.999034 66.987877 
L 617.868416 65.691229 
L 619.607181 65.690454 
L 620.476563 65.867314 
L 621.345945 66.217355 
L 622.215327 65.687686 
L 624.823474 65.720165 
L 626.562239 65.66796 
L 627.431621 65.663835 
L 628.301003 66.031417 
L 629.170385 65.99487 
L 630.039767 65.832184 
L 631.778532 65.823009 
L 632.647914 66.092802 
L 633.517296 66.177931 
L 635.256061 66.09908 
L 636.994825 66.05979 
L 641.341736 65.703483 
L 642.211119 66.197071 
L 643.080501 66.046123 
L 643.949883 65.671641 
L 644.819265 65.645154 
L 645.688647 65.787219 
L 646.55803 67.453712 
L 647.427412 65.761981 
L 648.296794 69.732275 
L 649.166176 67.478558 
L 650.035559 65.807438 
L 650.904941 65.740904 
L 651.774323 70.208884 
L 652.643705 68.266254 
L 653.513087 65.699032 
L 654.38247 65.677781 
L 655.251852 65.819241 
L 656.121234 73.486809 
L 656.990616 66.764841 
L 657.859999 65.688719 
L 658.729381 65.926918 
L 659.598763 65.683258 
L 660.468145 66.790411 
L 661.337528 67.402906 
L 662.20691 67.059046 
L 663.076292 66.293795 
L 663.945674 65.728714 
L 665.684439 66.19511 
L 666.553821 65.854377 
L 667.423203 65.792132 
L 668.292585 65.9586 
L 669.161968 66.895871 
L 670.03135 67.11971 
L 670.900732 66.292232 
L 671.770114 70.351731 
L 672.639496 70.701142 
L 673.508879 66.067404 
L 674.378261 65.956338 
L 675.247643 65.982809 
L 676.117025 66.147297 
L 677.85579 65.756645 
L 678.725172 65.894461 
L 679.594554 66.85884 
L 680.463936 65.702168 
L 682.202701 65.96323 
L 683.072083 65.715925 
L 683.941465 65.943584 
L 684.810848 65.766544 
L 690.027141 65.63958 
L 690.896523 65.800897 
L 691.765905 65.742833 
L 692.635288 66.634198 
L 693.50467 65.832598 
L 695.243434 65.633726 
L 696.112816 65.778847 
L 696.982199 65.632121 
L 697.851581 65.963319 
L 700.459728 65.642289 
L 703.067874 65.845722 
L 705.676021 65.624987 
L 706.545403 65.852981 
L 707.414785 65.675597 
L 709.15355 65.747027 
L 710.022932 66.173398 
L 710.892314 66.170868 
L 711.761696 66.030454 
L 712.631079 65.707343 
L 713.500461 65.837812 
L 714.369843 65.634407 
L 716.108608 65.612916 
L 716.97799 66.135841 
L 717.847372 65.692595 
L 718.716754 90.330068 
L 719.586136 65.994594 
L 720.455519 65.617978 
L 721.324901 65.62851 
L 722.194283 66.101287 
L 723.063665 66.281017 
L 723.933048 65.710468 
L 724.80243 65.648895 
L 725.671812 96.046719 
L 726.541194 75.254127 
L 727.410576 65.999284 
L 728.279959 66.013829 
L 729.149341 65.679253 
L 730.018723 65.635109 
L 730.888105 65.84178 
L 731.757488 65.691367 
L 732.62687 65.971181 
L 733.496252 65.790326 
L 736.104399 65.680883 
L 737.843163 65.974237 
L 738.712545 65.722289 
L 741.320692 65.68964 
L 742.190074 65.87544 
L 743.059456 65.78032 
L 743.928839 65.802944 
L 744.798221 65.585006 
L 746.536985 65.631899 
L 747.406368 65.823749 
L 748.27575 65.60005 
L 749.145132 65.597014 
L 750.014514 66.409153 
L 750.883896 65.693383 
L 752.622661 65.628594 
L 753.492043 65.621631 
L 754.361425 78.76374 
L 755.230808 65.940707 
L 756.10019 65.620407 
L 756.969572 77.764174 
L 757.838954 78.07849 
L 758.708336 65.750302 
L 763.055248 65.682723 
L 766.532776 65.641985 
L 767.402159 65.820297 
L 768.271541 65.849002 
L 769.140923 65.647216 
L 770.879688 65.676707 
L 771.74907 65.84069 
L 773.487834 65.661118 
L 774.357216 65.601886 
L 775.226599 65.790901 
L 777.834745 65.910151 
L 778.704128 67.81726 
L 779.57351 65.801287 
L 780.442892 65.604935 
L 781.312274 65.719626 
L 782.181656 72.862942 
L 783.051039 67.431764 
L 783.920421 65.646105 
L 784.789803 66.750657 
L 785.659185 69.698623 
L 786.528568 65.683418 
L 787.39795 65.743731 
L 788.267332 73.13845 
L 789.136714 65.647006 
L 790.006097 65.718547 
L 790.875479 66.268677 
L 791.744861 66.323154 
L 792.614243 67.366991 
L 793.483625 66.246096 
L 794.353008 66.500956 
L 795.22239 78.332954 
L 796.091772 88.100167 
L 796.961154 87.02921 
L 797.830537 98.739437 
L 798.699919 106.148137 
L 799.569301 106.975319 
L 800.438683 119.916624 
L 801.308065 114.950041 
L 802.177448 114.194594 
L 803.04683 120.497566 
L 803.916212 141.748953 
L 804.785594 149.111229 
L 805.654977 143.863991 
L 806.524359 135.963873 
L 807.393741 152.971571 
L 808.263123 140.989702 
L 809.132505 158.985168 
L 810.001888 171.538624 
L 810.87127 195.367623 
L 811.740652 206.421619 
L 812.610034 167.311991 
L 813.479417 156.397234 
L 814.348799 172.884784 
L 816.087563 200.783805 
L 816.956945 195.105479 
L 817.826328 205.224234 
L 818.69571 206.452363 
L 819.565092 202.760494 
L 820.434474 219.081252 
L 821.303857 185.735539 
L 822.173239 182.725375 
L 823.042621 194.190547 
L 823.912003 232.79038 
L 824.781385 251.237836 
L 825.650768 239.703843 
L 826.52015 219.109816 
L 827.389532 212.560856 
L 828.258914 214.849787 
L 829.128297 227.958993 
L 829.997679 245.486218 
L 830.867061 232.972515 
L 831.736443 233.766183 
L 832.605825 254.546873 
L 833.475208 246.972728 
L 834.34459 243.860446 
L 835.213972 249.72009 
L 836.952737 267.864201 
L 838.691501 243.129043 
L 839.560883 275.186462 
L 840.430265 292.30761 
L 841.299648 285.572289 
L 842.16903 293.479776 
L 843.038412 264.526249 
L 843.907794 265.245224 
L 844.777177 309.383888 
L 845.646559 302.765923 
L 846.515941 301.428342 
L 847.385323 274.3495 
L 848.254705 273.17311 
L 849.124088 280.856861 
L 849.99347 278.97603 
L 850.862852 283.980925 
L 851.732234 290.949483 
L 853.470999 275.241018 
L 854.340381 281.595385 
L 855.209763 277.901672 
L 856.079145 236.785399 
L 856.948528 255.106356 
L 857.81791 282.644816 
L 858.687292 300.333922 
L 859.556674 278.51195 
L 860.426057 298.809639 
L 861.295439 303.113585 
L 862.164821 270.592865 
L 863.034203 277.325909 
L 863.903585 287.782371 
L 864.772968 285.320619 
L 866.511732 304.731107 
L 867.381114 323.337745 
L 868.250497 325.315752 
L 869.119879 314.6298 
L 869.989261 326.247195 
L 870.858643 313.108949 
L 871.728025 312.250239 
L 872.597408 301.75361 
L 873.46679 322.272256 
L 874.336172 317.159677 
L 875.205554 313.882094 
L 876.074937 323.298295 
L 876.944319 318.643632 
L 877.813701 305.12672 
L 878.683083 319.960268 
L 880.421848 293.128067 
L 881.29123 306.97244 
L 883.029994 358.583871 
L 883.899377 362.494882 
L 884.768759 343.821799 
L 885.638141 317.645179 
L 885.638141 317.645179 
" clip-path="url(#pf3a0278fb4)" style="fill: none; stroke: #ff7f0e; stroke-width: 1.5; stroke-linecap: square"/>
   </g>
   <g id="patch_3">
    <path d="M 122.94 424.8504 
L 122.94 57.2832 
" style="fill: none; stroke: #000000; stroke-width: 0.8; stroke-linejoin: miter; stroke-linecap: square"/>
   </g>
   <g id="patch_4">
    <path d="M 885.168 424.8504 
L 885.168 57.2832 
" style="fill: none; stroke: #000000; stroke-width: 0.8; stroke-linejoin: miter; stroke-linecap: square"/>
   </g>
   <g id="patch_5">
    <path d="M 122.94 424.8504 
L 885.168 424.8504 
" style="fill: none; stroke: #000000; stroke-width: 0.8; stroke-linejoin: miter; stroke-linecap: square"/>
   </g>
   <g id="patch_6">
    <path d="M 122.94 57.2832 
L 885.168 57.2832 
" style="fill: none; stroke: #000000; stroke-width: 0.8; stroke-linejoin: miter; stroke-linecap: square"/>
   </g>
   <g id="text_17">
    <!-- Potencia -->
    <g transform="translate(478.493063 51.2832) scale(0.12 -0.12)">
     <use xlink:href="#DejaVuSans-50"/>
     <use xlink:href="#DejaVuSans-6f" x="56.677734"/>
     <use xlink:href="#DejaVuSans-74" x="117.859375"/>
     <use xlink:href="#DejaVuSans-65" x="157.068359"/>
     <use xlink:href="#DejaVuSans-6e" x="218.591797"/>
     <use xlink:href="#DejaVuSans-63" x="281.970703"/>
     <use xlink:href="#DejaVuSans-69" x="336.951172"/>
     <use xlink:href="#DejaVuSans-61" x="364.734375"/>
    </g>
   </g>
   <g id="legend_1">
    <g id="patch_7">
     <path d="M 129.94 94.63945 
L 225.047812 94.63945 
Q 227.047812 94.63945 227.047812 92.63945 
L 227.047812 64.2832 
Q 227.047812 62.2832 225.047812 62.2832 
L 129.94 62.2832 
Q 127.94 62.2832 127.94 64.2832 
L 127.94 92.63945 
Q 127.94 94.63945 129.94 94.63945 
z
" style="fill: #ffffff; opacity: 0.8; stroke: #cccccc; stroke-linejoin: miter"/>
    </g>
    <g id="line2d_17">
     <path d="M 131.94 70.381638 
L 141.94 70.381638 
L 151.94 70.381638 
" style="fill: none; stroke: #1f77b4; stroke-width: 1.5; stroke-linecap: square"/>
    </g>
    <g id="text_18">
     <!-- predicciones -->
     <g transform="translate(159.94 73.881638) scale(0.1 -0.1)">
      <defs>
       <path id="DejaVuSans-70" d="M 1159 525 
L 1159 -1331 
L 581 -1331 
L 581 3500 
L 1159 3500 
L 1159 2969 
Q 1341 3281 1617 3432 
Q 1894 3584 2278 3584 
Q 2916 3584 3314 3078 
Q 3713 2572 3713 1747 
Q 3713 922 3314 415 
Q 2916 -91 2278 -91 
Q 1894 -91 1617 61 
Q 1341 213 1159 525 
z
M 3116 1747 
Q 3116 2381 2855 2742 
Q 2594 3103 2138 3103 
Q 1681 3103 1420 2742 
Q 1159 2381 1159 1747 
Q 1159 1113 1420 752 
Q 1681 391 2138 391 
Q 2594 391 2855 752 
Q 3116 1113 3116 1747 
z
" transform="scale(0.015625)"/>
       <path id="DejaVuSans-72" d="M 2631 2963 
Q 2534 3019 2420 3045 
Q 2306 3072 2169 3072 
Q 1681 3072 1420 2755 
Q 1159 2438 1159 1844 
L 1159 0 
L 581 0 
L 581 3500 
L 1159 3500 
L 1159 2956 
Q 1341 3275 1631 3429 
Q 1922 3584 2338 3584 
Q 2397 3584 2469 3576 
Q 2541 3569 2628 3553 
L 2631 2963 
z
" transform="scale(0.015625)"/>
       <path id="DejaVuSans-64" d="M 2906 2969 
L 2906 4863 
L 3481 4863 
L 3481 0 
L 2906 0 
L 2906 525 
Q 2725 213 2448 61 
Q 2172 -91 1784 -91 
Q 1150 -91 751 415 
Q 353 922 353 1747 
Q 353 2572 751 3078 
Q 1150 3584 1784 3584 
Q 2172 3584 2448 3432 
Q 2725 3281 2906 2969 
z
M 947 1747 
Q 947 1113 1208 752 
Q 1469 391 1925 391 
Q 2381 391 2643 752 
Q 2906 1113 2906 1747 
Q 2906 2381 2643 2742 
Q 2381 3103 1925 3103 
Q 1469 3103 1208 2742 
Q 947 2381 947 1747 
z
" transform="scale(0.015625)"/>
      </defs>
      <use xlink:href="#DejaVuSans-70"/>
      <use xlink:href="#DejaVuSans-72" x="63.476562"/>
      <use xlink:href="#DejaVuSans-65" x="102.339844"/>
      <use xlink:href="#DejaVuSans-64" x="163.863281"/>
      <use xlink:href="#DejaVuSans-69" x="227.339844"/>
      <use xlink:href="#DejaVuSans-63" x="255.123047"/>
      <use xlink:href="#DejaVuSans-63" x="310.103516"/>
      <use xlink:href="#DejaVuSans-69" x="365.083984"/>
      <use xlink:href="#DejaVuSans-6f" x="392.867188"/>
      <use xlink:href="#DejaVuSans-6e" x="454.048828"/>
      <use xlink:href="#DejaVuSans-65" x="517.427734"/>
      <use xlink:href="#DejaVuSans-73" x="578.951172"/>
     </g>
    </g>
    <g id="line2d_18">
     <path d="M 131.94 85.059763 
L 141.94 85.059763 
L 151.94 85.059763 
" style="fill: none; stroke: #ff7f0e; stroke-width: 1.5; stroke-linecap: square"/>
    </g>
    <g id="text_19">
     <!-- Real -->
     <g transform="translate(159.94 88.559763) scale(0.1 -0.1)">
      <defs>
       <path id="DejaVuSans-52" d="M 2841 2188 
Q 3044 2119 3236 1894 
Q 3428 1669 3622 1275 
L 4263 0 
L 3584 0 
L 2988 1197 
Q 2756 1666 2539 1819 
Q 2322 1972 1947 1972 
L 1259 1972 
L 1259 0 
L 628 0 
L 628 4666 
L 2053 4666 
Q 2853 4666 3247 4331 
Q 3641 3997 3641 3322 
Q 3641 2881 3436 2590 
Q 3231 2300 2841 2188 
z
M 1259 4147 
L 1259 2491 
L 2053 2491 
Q 2509 2491 2742 2702 
Q 2975 2913 2975 3322 
Q 2975 3731 2742 3939 
Q 2509 4147 2053 4147 
L 1259 4147 
z
" transform="scale(0.015625)"/>
       <path id="DejaVuSans-6c" d="M 603 4863 
L 1178 4863 
L 1178 0 
L 603 0 
L 603 4863 
z
" transform="scale(0.015625)"/>
      </defs>
      <use xlink:href="#DejaVuSans-52"/>
      <use xlink:href="#DejaVuSans-65" x="64.982422"/>
      <use xlink:href="#DejaVuSans-61" x="126.505859"/>
      <use xlink:href="#DejaVuSans-6c" x="187.785156"/>
     </g>
    </g>
   </g>
  </g>
 </g>
 <defs>
  <clipPath id="pf3a0278fb4">
   <rect x="122.94" y="57.2832" width="762.228" height="367.5672"/>
  </clipPath>
 </defs>
</svg>
