<?xml version="1.0" encoding="utf-8" standalone="no"?>
<!DOCTYPE svg PUBLIC "-//W3C//DTD SVG 1.1//EN"
  "http://www.w3.org/Graphics/SVG/1.1/DTD/svg11.dtd">
<svg xmlns:xlink="http://www.w3.org/1999/xlink" width="983.52pt" height="477.36pt" viewBox="0 0 983.52 477.36" xmlns="http://www.w3.org/2000/svg" version="1.1">
 <metadata>
  <rdf:RDF xmlns:dc="http://purl.org/dc/elements/1.1/" xmlns:cc="http://creativecommons.org/ns#" xmlns:rdf="http://www.w3.org/1999/02/22-rdf-syntax-ns#">
   <cc:Work>
    <dc:type rdf:resource="http://purl.org/dc/dcmitype/StillImage"/>
    <dc:date>2024-05-05T18:03:49.027068</dc:date>
    <dc:format>image/svg+xml</dc:format>
    <dc:creator>
     <cc:Agent>
      <dc:title>Matplotlib v3.8.0, https://matplotlib.org/</dc:title>
     </cc:Agent>
    </dc:creator>
   </cc:Work>
  </rdf:RDF>
 </metadata>
 <defs>
  <style type="text/css">*{stroke-linejoin: round; stroke-linecap: butt}</style>
 </defs>
 <g id="figure_1">
  <g id="patch_1">
   <path d="M 0 477.36 
L 983.52 477.36 
L 983.52 0 
L 0 0 
z
" style="fill: #ffffff"/>
  </g>
  <g id="axes_1">
   <g id="patch_2">
    <path d="M 122.94 424.8504 
L 885.168 424.8504 
L 885.168 57.2832 
L 122.94 57.2832 
z
" style="fill: #ffffff"/>
   </g>
   <g id="matplotlib.axis_1">
    <g id="xtick_1">
     <g id="line2d_1">
      <defs>
       <path id="m73118f74b1" d="M 0 0 
L 0 3.5 
" style="stroke: #000000; stroke-width: 0.8"/>
      </defs>
      <g>
       <use xlink:href="#m73118f74b1" x="212.446538" y="424.8504" style="stroke: #000000; stroke-width: 0.8"/>
      </g>
     </g>
     <g id="text_1">
      <!-- 3200 -->
      <g transform="translate(199.721538 439.448838) scale(0.1 -0.1)">
       <defs>
        <path id="DejaVuSans-33" d="M 2597 2516 
Q 3050 2419 3304 2112 
Q 3559 1806 3559 1356 
Q 3559 666 3084 287 
Q 2609 -91 1734 -91 
Q 1441 -91 1130 -33 
Q 819 25 488 141 
L 488 750 
Q 750 597 1062 519 
Q 1375 441 1716 441 
Q 2309 441 2620 675 
Q 2931 909 2931 1356 
Q 2931 1769 2642 2001 
Q 2353 2234 1838 2234 
L 1294 2234 
L 1294 2753 
L 1863 2753 
Q 2328 2753 2575 2939 
Q 2822 3125 2822 3475 
Q 2822 3834 2567 4026 
Q 2313 4219 1838 4219 
Q 1578 4219 1281 4162 
Q 984 4106 628 3988 
L 628 4550 
Q 988 4650 1302 4700 
Q 1616 4750 1894 4750 
Q 2613 4750 3031 4423 
Q 3450 4097 3450 3541 
Q 3450 3153 3228 2886 
Q 3006 2619 2597 2516 
z
" transform="scale(0.015625)"/>
        <path id="DejaVuSans-32" d="M 1228 531 
L 3431 531 
L 3431 0 
L 469 0 
L 469 531 
Q 828 903 1448 1529 
Q 2069 2156 2228 2338 
Q 2531 2678 2651 2914 
Q 2772 3150 2772 3378 
Q 2772 3750 2511 3984 
Q 2250 4219 1831 4219 
Q 1534 4219 1204 4116 
Q 875 4013 500 3803 
L 500 4441 
Q 881 4594 1212 4672 
Q 1544 4750 1819 4750 
Q 2544 4750 2975 4387 
Q 3406 4025 3406 3419 
Q 3406 3131 3298 2873 
Q 3191 2616 2906 2266 
Q 2828 2175 2409 1742 
Q 1991 1309 1228 531 
z
" transform="scale(0.015625)"/>
        <path id="DejaVuSans-30" d="M 2034 4250 
Q 1547 4250 1301 3770 
Q 1056 3291 1056 2328 
Q 1056 1369 1301 889 
Q 1547 409 2034 409 
Q 2525 409 2770 889 
Q 3016 1369 3016 2328 
Q 3016 3291 2770 3770 
Q 2525 4250 2034 4250 
z
M 2034 4750 
Q 2819 4750 3233 4129 
Q 3647 3509 3647 2328 
Q 3647 1150 3233 529 
Q 2819 -91 2034 -91 
Q 1250 -91 836 529 
Q 422 1150 422 2328 
Q 422 3509 836 4129 
Q 1250 4750 2034 4750 
z
" transform="scale(0.015625)"/>
       </defs>
       <use xlink:href="#DejaVuSans-33"/>
       <use xlink:href="#DejaVuSans-32" x="63.623047"/>
       <use xlink:href="#DejaVuSans-30" x="127.246094"/>
       <use xlink:href="#DejaVuSans-30" x="190.869141"/>
      </g>
     </g>
    </g>
    <g id="xtick_2">
     <g id="line2d_2">
      <g>
       <use xlink:href="#m73118f74b1" x="318.471033" y="424.8504" style="stroke: #000000; stroke-width: 0.8"/>
      </g>
     </g>
     <g id="text_2">
      <!-- 3300 -->
      <g transform="translate(305.746033 439.448838) scale(0.1 -0.1)">
       <use xlink:href="#DejaVuSans-33"/>
       <use xlink:href="#DejaVuSans-33" x="63.623047"/>
       <use xlink:href="#DejaVuSans-30" x="127.246094"/>
       <use xlink:href="#DejaVuSans-30" x="190.869141"/>
      </g>
     </g>
    </g>
    <g id="xtick_3">
     <g id="line2d_3">
      <g>
       <use xlink:href="#m73118f74b1" x="424.495527" y="424.8504" style="stroke: #000000; stroke-width: 0.8"/>
      </g>
     </g>
     <g id="text_3">
      <!-- 3400 -->
      <g transform="translate(411.770527 439.448838) scale(0.1 -0.1)">
       <defs>
        <path id="DejaVuSans-34" d="M 2419 4116 
L 825 1625 
L 2419 1625 
L 2419 4116 
z
M 2253 4666 
L 3047 4666 
L 3047 1625 
L 3713 1625 
L 3713 1100 
L 3047 1100 
L 3047 0 
L 2419 0 
L 2419 1100 
L 313 1100 
L 313 1709 
L 2253 4666 
z
" transform="scale(0.015625)"/>
       </defs>
       <use xlink:href="#DejaVuSans-33"/>
       <use xlink:href="#DejaVuSans-34" x="63.623047"/>
       <use xlink:href="#DejaVuSans-30" x="127.246094"/>
       <use xlink:href="#DejaVuSans-30" x="190.869141"/>
      </g>
     </g>
    </g>
    <g id="xtick_4">
     <g id="line2d_4">
      <g>
       <use xlink:href="#m73118f74b1" x="530.520022" y="424.8504" style="stroke: #000000; stroke-width: 0.8"/>
      </g>
     </g>
     <g id="text_4">
      <!-- 3500 -->
      <g transform="translate(517.795022 439.448838) scale(0.1 -0.1)">
       <defs>
        <path id="DejaVuSans-35" d="M 691 4666 
L 3169 4666 
L 3169 4134 
L 1269 4134 
L 1269 2991 
Q 1406 3038 1543 3061 
Q 1681 3084 1819 3084 
Q 2600 3084 3056 2656 
Q 3513 2228 3513 1497 
Q 3513 744 3044 326 
Q 2575 -91 1722 -91 
Q 1428 -91 1123 -41 
Q 819 9 494 109 
L 494 744 
Q 775 591 1075 516 
Q 1375 441 1709 441 
Q 2250 441 2565 725 
Q 2881 1009 2881 1497 
Q 2881 1984 2565 2268 
Q 2250 2553 1709 2553 
Q 1456 2553 1204 2497 
Q 953 2441 691 2322 
L 691 4666 
z
" transform="scale(0.015625)"/>
       </defs>
       <use xlink:href="#DejaVuSans-33"/>
       <use xlink:href="#DejaVuSans-35" x="63.623047"/>
       <use xlink:href="#DejaVuSans-30" x="127.246094"/>
       <use xlink:href="#DejaVuSans-30" x="190.869141"/>
      </g>
     </g>
    </g>
    <g id="xtick_5">
     <g id="line2d_5">
      <g>
       <use xlink:href="#m73118f74b1" x="636.544516" y="424.8504" style="stroke: #000000; stroke-width: 0.8"/>
      </g>
     </g>
     <g id="text_5">
      <!-- 3600 -->
      <g transform="translate(623.819516 439.448838) scale(0.1 -0.1)">
       <defs>
        <path id="DejaVuSans-36" d="M 2113 2584 
Q 1688 2584 1439 2293 
Q 1191 2003 1191 1497 
Q 1191 994 1439 701 
Q 1688 409 2113 409 
Q 2538 409 2786 701 
Q 3034 994 3034 1497 
Q 3034 2003 2786 2293 
Q 2538 2584 2113 2584 
z
M 3366 4563 
L 3366 3988 
Q 3128 4100 2886 4159 
Q 2644 4219 2406 4219 
Q 1781 4219 1451 3797 
Q 1122 3375 1075 2522 
Q 1259 2794 1537 2939 
Q 1816 3084 2150 3084 
Q 2853 3084 3261 2657 
Q 3669 2231 3669 1497 
Q 3669 778 3244 343 
Q 2819 -91 2113 -91 
Q 1303 -91 875 529 
Q 447 1150 447 2328 
Q 447 3434 972 4092 
Q 1497 4750 2381 4750 
Q 2619 4750 2861 4703 
Q 3103 4656 3366 4563 
z
" transform="scale(0.015625)"/>
       </defs>
       <use xlink:href="#DejaVuSans-33"/>
       <use xlink:href="#DejaVuSans-36" x="63.623047"/>
       <use xlink:href="#DejaVuSans-30" x="127.246094"/>
       <use xlink:href="#DejaVuSans-30" x="190.869141"/>
      </g>
     </g>
    </g>
    <g id="xtick_6">
     <g id="line2d_6">
      <g>
       <use xlink:href="#m73118f74b1" x="742.569011" y="424.8504" style="stroke: #000000; stroke-width: 0.8"/>
      </g>
     </g>
     <g id="text_6">
      <!-- 3700 -->
      <g transform="translate(729.844011 439.448838) scale(0.1 -0.1)">
       <defs>
        <path id="DejaVuSans-37" d="M 525 4666 
L 3525 4666 
L 3525 4397 
L 1831 0 
L 1172 0 
L 2766 4134 
L 525 4134 
L 525 4666 
z
" transform="scale(0.015625)"/>
       </defs>
       <use xlink:href="#DejaVuSans-33"/>
       <use xlink:href="#DejaVuSans-37" x="63.623047"/>
       <use xlink:href="#DejaVuSans-30" x="127.246094"/>
       <use xlink:href="#DejaVuSans-30" x="190.869141"/>
      </g>
     </g>
    </g>
    <g id="xtick_7">
     <g id="line2d_7">
      <g>
       <use xlink:href="#m73118f74b1" x="848.593506" y="424.8504" style="stroke: #000000; stroke-width: 0.8"/>
      </g>
     </g>
     <g id="text_7">
      <!-- 3800 -->
      <g transform="translate(835.868506 439.448838) scale(0.1 -0.1)">
       <defs>
        <path id="DejaVuSans-38" d="M 2034 2216 
Q 1584 2216 1326 1975 
Q 1069 1734 1069 1313 
Q 1069 891 1326 650 
Q 1584 409 2034 409 
Q 2484 409 2743 651 
Q 3003 894 3003 1313 
Q 3003 1734 2745 1975 
Q 2488 2216 2034 2216 
z
M 1403 2484 
Q 997 2584 770 2862 
Q 544 3141 544 3541 
Q 544 4100 942 4425 
Q 1341 4750 2034 4750 
Q 2731 4750 3128 4425 
Q 3525 4100 3525 3541 
Q 3525 3141 3298 2862 
Q 3072 2584 2669 2484 
Q 3125 2378 3379 2068 
Q 3634 1759 3634 1313 
Q 3634 634 3220 271 
Q 2806 -91 2034 -91 
Q 1263 -91 848 271 
Q 434 634 434 1313 
Q 434 1759 690 2068 
Q 947 2378 1403 2484 
z
M 1172 3481 
Q 1172 3119 1398 2916 
Q 1625 2713 2034 2713 
Q 2441 2713 2670 2916 
Q 2900 3119 2900 3481 
Q 2900 3844 2670 4047 
Q 2441 4250 2034 4250 
Q 1625 4250 1398 4047 
Q 1172 3844 1172 3481 
z
" transform="scale(0.015625)"/>
       </defs>
       <use xlink:href="#DejaVuSans-33"/>
       <use xlink:href="#DejaVuSans-38" x="63.623047"/>
       <use xlink:href="#DejaVuSans-30" x="127.246094"/>
       <use xlink:href="#DejaVuSans-30" x="190.869141"/>
      </g>
     </g>
    </g>
    <g id="text_8">
     <!-- Instante -->
     <g transform="translate(483.575875 453.126963) scale(0.1 -0.1)">
      <defs>
       <path id="DejaVuSans-49" d="M 628 4666 
L 1259 4666 
L 1259 0 
L 628 0 
L 628 4666 
z
" transform="scale(0.015625)"/>
       <path id="DejaVuSans-6e" d="M 3513 2113 
L 3513 0 
L 2938 0 
L 2938 2094 
Q 2938 2591 2744 2837 
Q 2550 3084 2163 3084 
Q 1697 3084 1428 2787 
Q 1159 2491 1159 1978 
L 1159 0 
L 581 0 
L 581 3500 
L 1159 3500 
L 1159 2956 
Q 1366 3272 1645 3428 
Q 1925 3584 2291 3584 
Q 2894 3584 3203 3211 
Q 3513 2838 3513 2113 
z
" transform="scale(0.015625)"/>
       <path id="DejaVuSans-73" d="M 2834 3397 
L 2834 2853 
Q 2591 2978 2328 3040 
Q 2066 3103 1784 3103 
Q 1356 3103 1142 2972 
Q 928 2841 928 2578 
Q 928 2378 1081 2264 
Q 1234 2150 1697 2047 
L 1894 2003 
Q 2506 1872 2764 1633 
Q 3022 1394 3022 966 
Q 3022 478 2636 193 
Q 2250 -91 1575 -91 
Q 1294 -91 989 -36 
Q 684 19 347 128 
L 347 722 
Q 666 556 975 473 
Q 1284 391 1588 391 
Q 1994 391 2212 530 
Q 2431 669 2431 922 
Q 2431 1156 2273 1281 
Q 2116 1406 1581 1522 
L 1381 1569 
Q 847 1681 609 1914 
Q 372 2147 372 2553 
Q 372 3047 722 3315 
Q 1072 3584 1716 3584 
Q 2034 3584 2315 3537 
Q 2597 3491 2834 3397 
z
" transform="scale(0.015625)"/>
       <path id="DejaVuSans-74" d="M 1172 4494 
L 1172 3500 
L 2356 3500 
L 2356 3053 
L 1172 3053 
L 1172 1153 
Q 1172 725 1289 603 
Q 1406 481 1766 481 
L 2356 481 
L 2356 0 
L 1766 0 
Q 1100 0 847 248 
Q 594 497 594 1153 
L 594 3053 
L 172 3053 
L 172 3500 
L 594 3500 
L 594 4494 
L 1172 4494 
z
" transform="scale(0.015625)"/>
       <path id="DejaVuSans-61" d="M 2194 1759 
Q 1497 1759 1228 1600 
Q 959 1441 959 1056 
Q 959 750 1161 570 
Q 1363 391 1709 391 
Q 2188 391 2477 730 
Q 2766 1069 2766 1631 
L 2766 1759 
L 2194 1759 
z
M 3341 1997 
L 3341 0 
L 2766 0 
L 2766 531 
Q 2569 213 2275 61 
Q 1981 -91 1556 -91 
Q 1019 -91 701 211 
Q 384 513 384 1019 
Q 384 1609 779 1909 
Q 1175 2209 1959 2209 
L 2766 2209 
L 2766 2266 
Q 2766 2663 2505 2880 
Q 2244 3097 1772 3097 
Q 1472 3097 1187 3025 
Q 903 2953 641 2809 
L 641 3341 
Q 956 3463 1253 3523 
Q 1550 3584 1831 3584 
Q 2591 3584 2966 3190 
Q 3341 2797 3341 1997 
z
" transform="scale(0.015625)"/>
       <path id="DejaVuSans-65" d="M 3597 1894 
L 3597 1613 
L 953 1613 
Q 991 1019 1311 708 
Q 1631 397 2203 397 
Q 2534 397 2845 478 
Q 3156 559 3463 722 
L 3463 178 
Q 3153 47 2828 -22 
Q 2503 -91 2169 -91 
Q 1331 -91 842 396 
Q 353 884 353 1716 
Q 353 2575 817 3079 
Q 1281 3584 2069 3584 
Q 2775 3584 3186 3129 
Q 3597 2675 3597 1894 
z
M 3022 2063 
Q 3016 2534 2758 2815 
Q 2500 3097 2075 3097 
Q 1594 3097 1305 2825 
Q 1016 2553 972 2059 
L 3022 2063 
z
" transform="scale(0.015625)"/>
      </defs>
      <use xlink:href="#DejaVuSans-49"/>
      <use xlink:href="#DejaVuSans-6e" x="29.492188"/>
      <use xlink:href="#DejaVuSans-73" x="92.871094"/>
      <use xlink:href="#DejaVuSans-74" x="144.970703"/>
      <use xlink:href="#DejaVuSans-61" x="184.179688"/>
      <use xlink:href="#DejaVuSans-6e" x="245.458984"/>
      <use xlink:href="#DejaVuSans-74" x="308.837891"/>
      <use xlink:href="#DejaVuSans-65" x="348.046875"/>
     </g>
    </g>
   </g>
   <g id="matplotlib.axis_2">
    <g id="ytick_1">
     <g id="line2d_8">
      <defs>
       <path id="m450800ffca" d="M 0 0 
L -3.5 0 
" style="stroke: #000000; stroke-width: 0.8"/>
      </defs>
      <g>
       <use xlink:href="#m450800ffca" x="122.94" y="398.044913" style="stroke: #000000; stroke-width: 0.8"/>
      </g>
     </g>
     <g id="text_9">
      <!-- 5 -->
      <g transform="translate(109.5775 401.844131) scale(0.1 -0.1)">
       <use xlink:href="#DejaVuSans-35"/>
      </g>
     </g>
    </g>
    <g id="ytick_2">
     <g id="line2d_9">
      <g>
       <use xlink:href="#m450800ffca" x="122.94" y="355.540156" style="stroke: #000000; stroke-width: 0.8"/>
      </g>
     </g>
     <g id="text_10">
      <!-- 10 -->
      <g transform="translate(103.215 359.339375) scale(0.1 -0.1)">
       <defs>
        <path id="DejaVuSans-31" d="M 794 531 
L 1825 531 
L 1825 4091 
L 703 3866 
L 703 4441 
L 1819 4666 
L 2450 4666 
L 2450 531 
L 3481 531 
L 3481 0 
L 794 0 
L 794 531 
z
" transform="scale(0.015625)"/>
       </defs>
       <use xlink:href="#DejaVuSans-31"/>
       <use xlink:href="#DejaVuSans-30" x="63.623047"/>
      </g>
     </g>
    </g>
    <g id="ytick_3">
     <g id="line2d_10">
      <g>
       <use xlink:href="#m450800ffca" x="122.94" y="313.0354" style="stroke: #000000; stroke-width: 0.8"/>
      </g>
     </g>
     <g id="text_11">
      <!-- 15 -->
      <g transform="translate(103.215 316.834618) scale(0.1 -0.1)">
       <use xlink:href="#DejaVuSans-31"/>
       <use xlink:href="#DejaVuSans-35" x="63.623047"/>
      </g>
     </g>
    </g>
    <g id="ytick_4">
     <g id="line2d_11">
      <g>
       <use xlink:href="#m450800ffca" x="122.94" y="270.530643" style="stroke: #000000; stroke-width: 0.8"/>
      </g>
     </g>
     <g id="text_12">
      <!-- 20 -->
      <g transform="translate(103.215 274.329862) scale(0.1 -0.1)">
       <use xlink:href="#DejaVuSans-32"/>
       <use xlink:href="#DejaVuSans-30" x="63.623047"/>
      </g>
     </g>
    </g>
    <g id="ytick_5">
     <g id="line2d_12">
      <g>
       <use xlink:href="#m450800ffca" x="122.94" y="228.025887" style="stroke: #000000; stroke-width: 0.8"/>
      </g>
     </g>
     <g id="text_13">
      <!-- 25 -->
      <g transform="translate(103.215 231.825105) scale(0.1 -0.1)">
       <use xlink:href="#DejaVuSans-32"/>
       <use xlink:href="#DejaVuSans-35" x="63.623047"/>
      </g>
     </g>
    </g>
    <g id="ytick_6">
     <g id="line2d_13">
      <g>
       <use xlink:href="#m450800ffca" x="122.94" y="185.52113" style="stroke: #000000; stroke-width: 0.8"/>
      </g>
     </g>
     <g id="text_14">
      <!-- 30 -->
      <g transform="translate(103.215 189.320349) scale(0.1 -0.1)">
       <use xlink:href="#DejaVuSans-33"/>
       <use xlink:href="#DejaVuSans-30" x="63.623047"/>
      </g>
     </g>
    </g>
    <g id="ytick_7">
     <g id="line2d_14">
      <g>
       <use xlink:href="#m450800ffca" x="122.94" y="143.016374" style="stroke: #000000; stroke-width: 0.8"/>
      </g>
     </g>
     <g id="text_15">
      <!-- 35 -->
      <g transform="translate(103.215 146.815592) scale(0.1 -0.1)">
       <use xlink:href="#DejaVuSans-33"/>
       <use xlink:href="#DejaVuSans-35" x="63.623047"/>
      </g>
     </g>
    </g>
    <g id="ytick_8">
     <g id="line2d_15">
      <g>
       <use xlink:href="#m450800ffca" x="122.94" y="100.511617" style="stroke: #000000; stroke-width: 0.8"/>
      </g>
     </g>
     <g id="text_16">
      <!-- 40 -->
      <g transform="translate(103.215 104.310836) scale(0.1 -0.1)">
       <use xlink:href="#DejaVuSans-34"/>
       <use xlink:href="#DejaVuSans-30" x="63.623047"/>
      </g>
     </g>
    </g>
    <g id="ytick_9">
     <g id="line2d_16">
      <g>
       <use xlink:href="#m450800ffca" x="122.94" y="58.006861" style="stroke: #000000; stroke-width: 0.8"/>
      </g>
     </g>
     <g id="text_17">
      <!-- 45 -->
      <g transform="translate(103.215 61.80608) scale(0.1 -0.1)">
       <use xlink:href="#DejaVuSans-34"/>
       <use xlink:href="#DejaVuSans-35" x="63.623047"/>
      </g>
     </g>
    </g>
    <g id="text_18">
     <!-- Potencia[W] maximas -->
     <g transform="translate(97.135312 295.623831) rotate(-90) scale(0.1 -0.1)">
      <defs>
       <path id="DejaVuSans-50" d="M 1259 4147 
L 1259 2394 
L 2053 2394 
Q 2494 2394 2734 2622 
Q 2975 2850 2975 3272 
Q 2975 3691 2734 3919 
Q 2494 4147 2053 4147 
L 1259 4147 
z
M 628 4666 
L 2053 4666 
Q 2838 4666 3239 4311 
Q 3641 3956 3641 3272 
Q 3641 2581 3239 2228 
Q 2838 1875 2053 1875 
L 1259 1875 
L 1259 0 
L 628 0 
L 628 4666 
z
" transform="scale(0.015625)"/>
       <path id="DejaVuSans-6f" d="M 1959 3097 
Q 1497 3097 1228 2736 
Q 959 2375 959 1747 
Q 959 1119 1226 758 
Q 1494 397 1959 397 
Q 2419 397 2687 759 
Q 2956 1122 2956 1747 
Q 2956 2369 2687 2733 
Q 2419 3097 1959 3097 
z
M 1959 3584 
Q 2709 3584 3137 3096 
Q 3566 2609 3566 1747 
Q 3566 888 3137 398 
Q 2709 -91 1959 -91 
Q 1206 -91 779 398 
Q 353 888 353 1747 
Q 353 2609 779 3096 
Q 1206 3584 1959 3584 
z
" transform="scale(0.015625)"/>
       <path id="DejaVuSans-63" d="M 3122 3366 
L 3122 2828 
Q 2878 2963 2633 3030 
Q 2388 3097 2138 3097 
Q 1578 3097 1268 2742 
Q 959 2388 959 1747 
Q 959 1106 1268 751 
Q 1578 397 2138 397 
Q 2388 397 2633 464 
Q 2878 531 3122 666 
L 3122 134 
Q 2881 22 2623 -34 
Q 2366 -91 2075 -91 
Q 1284 -91 818 406 
Q 353 903 353 1747 
Q 353 2603 823 3093 
Q 1294 3584 2113 3584 
Q 2378 3584 2631 3529 
Q 2884 3475 3122 3366 
z
" transform="scale(0.015625)"/>
       <path id="DejaVuSans-69" d="M 603 3500 
L 1178 3500 
L 1178 0 
L 603 0 
L 603 3500 
z
M 603 4863 
L 1178 4863 
L 1178 4134 
L 603 4134 
L 603 4863 
z
" transform="scale(0.015625)"/>
       <path id="DejaVuSans-5b" d="M 550 4863 
L 1875 4863 
L 1875 4416 
L 1125 4416 
L 1125 -397 
L 1875 -397 
L 1875 -844 
L 550 -844 
L 550 4863 
z
" transform="scale(0.015625)"/>
       <path id="DejaVuSans-57" d="M 213 4666 
L 850 4666 
L 1831 722 
L 2809 4666 
L 3519 4666 
L 4500 722 
L 5478 4666 
L 6119 4666 
L 4947 0 
L 4153 0 
L 3169 4050 
L 2175 0 
L 1381 0 
L 213 4666 
z
" transform="scale(0.015625)"/>
       <path id="DejaVuSans-5d" d="M 1947 4863 
L 1947 -844 
L 622 -844 
L 622 -397 
L 1369 -397 
L 1369 4416 
L 622 4416 
L 622 4863 
L 1947 4863 
z
" transform="scale(0.015625)"/>
       <path id="DejaVuSans-20" transform="scale(0.015625)"/>
       <path id="DejaVuSans-6d" d="M 3328 2828 
Q 3544 3216 3844 3400 
Q 4144 3584 4550 3584 
Q 5097 3584 5394 3201 
Q 5691 2819 5691 2113 
L 5691 0 
L 5113 0 
L 5113 2094 
Q 5113 2597 4934 2840 
Q 4756 3084 4391 3084 
Q 3944 3084 3684 2787 
Q 3425 2491 3425 1978 
L 3425 0 
L 2847 0 
L 2847 2094 
Q 2847 2600 2669 2842 
Q 2491 3084 2119 3084 
Q 1678 3084 1418 2786 
Q 1159 2488 1159 1978 
L 1159 0 
L 581 0 
L 581 3500 
L 1159 3500 
L 1159 2956 
Q 1356 3278 1631 3431 
Q 1906 3584 2284 3584 
Q 2666 3584 2933 3390 
Q 3200 3197 3328 2828 
z
" transform="scale(0.015625)"/>
       <path id="DejaVuSans-78" d="M 3513 3500 
L 2247 1797 
L 3578 0 
L 2900 0 
L 1881 1375 
L 863 0 
L 184 0 
L 1544 1831 
L 300 3500 
L 978 3500 
L 1906 2253 
L 2834 3500 
L 3513 3500 
z
" transform="scale(0.015625)"/>
      </defs>
      <use xlink:href="#DejaVuSans-50"/>
      <use xlink:href="#DejaVuSans-6f" x="56.677734"/>
      <use xlink:href="#DejaVuSans-74" x="117.859375"/>
      <use xlink:href="#DejaVuSans-65" x="157.068359"/>
      <use xlink:href="#DejaVuSans-6e" x="218.591797"/>
      <use xlink:href="#DejaVuSans-63" x="281.970703"/>
      <use xlink:href="#DejaVuSans-69" x="336.951172"/>
      <use xlink:href="#DejaVuSans-61" x="364.734375"/>
      <use xlink:href="#DejaVuSans-5b" x="426.013672"/>
      <use xlink:href="#DejaVuSans-57" x="465.027344"/>
      <use xlink:href="#DejaVuSans-5d" x="563.904297"/>
      <use xlink:href="#DejaVuSans-20" x="602.917969"/>
      <use xlink:href="#DejaVuSans-6d" x="634.705078"/>
      <use xlink:href="#DejaVuSans-61" x="732.117188"/>
      <use xlink:href="#DejaVuSans-78" x="793.396484"/>
      <use xlink:href="#DejaVuSans-69" x="852.576172"/>
      <use xlink:href="#DejaVuSans-6d" x="880.359375"/>
      <use xlink:href="#DejaVuSans-61" x="977.771484"/>
      <use xlink:href="#DejaVuSans-73" x="1039.050781"/>
     </g>
    </g>
   </g>
   <g id="line2d_17">
    <path d="M 122.325718 333.691765 
L 123.385963 332.694836 
L 124.446208 361.380832 
L 125.506452 343.164659 
L 126.566697 322.156273 
L 127.626942 258.899747 
L 128.687187 252.629651 
L 129.747432 285.074146 
L 130.807677 277.626589 
L 131.867922 301.187728 
L 132.928167 320.68288 
L 133.988412 332.841164 
L 135.048657 351.099973 
L 136.108902 377.329618 
L 137.169147 372.585031 
L 138.229392 361.556082 
L 139.289637 366.507532 
L 140.349882 368.951855 
L 141.410127 367.114709 
L 143.530617 410.919051 
L 144.590862 412.28267 
L 145.651106 407.409306 
L 146.711351 394.638763 
L 147.771596 387.953719 
L 148.831841 410.843742 
L 149.892086 396.126921 
L 150.952331 405.668399 
L 152.012576 399.031809 
L 153.072821 413.512577 
L 154.133066 420.70423 
L 155.193311 391.69769 
L 156.253556 395.81737 
L 157.313801 402.719846 
L 158.374046 412.78248 
L 159.434291 425.714942 
L 160.494536 425.570774 
L 161.554781 413.420348 
L 162.615026 416.369105 
L 163.675271 414.608717 
L 164.735515 422.484043 
L 165.79576 423.907688 
L 166.856005 436.000051 
L 167.91625 437.283655 
L 168.976495 432.081629 
L 170.03674 426.322142 
L 171.096985 433.823048 
L 172.15723 433.365283 
L 173.217475 422.70228 
L 174.27772 420.993039 
L 175.337965 435.989646 
L 176.39821 437.078279 
L 177.458455 434.679829 
L 178.5187 437.670877 
L 179.578945 437.990656 
L 180.63919 436.622406 
L 181.699435 433.672665 
L 182.75968 421.001266 
L 183.819925 433.301796 
L 184.880169 434.380909 
L 185.940414 429.764139 
L 187.000659 437.600232 
L 188.060904 437.786256 
L 189.121149 435.910279 
L 190.181394 431.571949 
L 191.241639 415.612539 
L 192.301884 426.703574 
L 193.362129 415.084744 
L 194.422374 435.096907 
L 195.482619 435.309455 
L 196.542864 423.739406 
L 197.603109 415.57859 
L 198.663354 425.088082 
L 199.723599 421.763281 
L 200.783844 422.92217 
L 201.844089 426.936017 
L 202.904334 426.858277 
L 203.964578 427.769123 
L 205.024823 414.636663 
L 206.085068 412.155239 
L 207.145313 408.590405 
L 208.205558 426.528968 
L 209.265803 424.69951 
L 210.326048 420.738572 
L 211.386293 422.598648 
L 212.446538 418.611705 
L 213.506783 418.172747 
L 214.567028 422.359184 
L 215.627273 413.906107 
L 216.687518 407.818238 
L 217.747763 411.20762 
L 218.808008 415.567658 
L 219.868253 400.464244 
L 220.928498 395.82219 
L 221.988743 399.117087 
L 223.048987 430.691348 
L 224.109232 428.640169 
L 225.169477 419.631369 
L 226.229722 422.935462 
L 227.289967 415.557383 
L 228.350212 400.178817 
L 229.410457 423.674704 
L 230.470702 433.697088 
L 231.530947 426.566923 
L 232.591192 414.285548 
L 233.651437 421.990572 
L 234.711682 434.68596 
L 235.771927 429.433992 
L 236.832172 430.656213 
L 237.892417 429.392484 
L 238.952662 433.48618 
L 240.012907 428.017757 
L 241.073152 430.498615 
L 242.133397 424.639063 
L 243.193641 437.174227 
L 244.253886 434.28072 
L 245.314131 437.785241 
L 246.374376 434.348587 
L 247.434621 417.951115 
L 248.494866 417.831648 
L 249.555111 431.851355 
L 250.615356 416.396213 
L 251.675601 428.955278 
L 252.735846 435.665216 
L 253.796091 425.264818 
L 254.856336 419.209239 
L 255.916581 432.517924 
L 256.976826 415.527066 
L 258.037071 416.757491 
L 259.097316 415.949413 
L 260.157561 421.995541 
L 261.217806 432.04576 
L 262.27805 411.970601 
L 263.338295 398.560172 
L 264.39854 427.296887 
L 265.458785 434.662655 
L 266.51903 414.437906 
L 267.579275 423.394947 
L 268.63952 418.347032 
L 269.699765 398.803031 
L 270.76001 385.489202 
L 272.8805 418.405505 
L 273.940745 414.245079 
L 275.00099 410.941775 
L 276.061235 404.169245 
L 277.12148 414.053647 
L 278.181725 406.813851 
L 279.24197 418.912318 
L 280.302215 413.591055 
L 281.36246 402.381129 
L 283.482949 430.739526 
L 284.543194 418.344748 
L 285.603439 408.497972 
L 286.663684 426.438403 
L 287.723929 415.940609 
L 288.784174 407.940404 
L 289.844419 412.132236 
L 290.904664 422.679717 
L 291.964909 430.610783 
L 293.025154 401.238402 
L 294.085399 389.867708 
L 295.145644 397.053751 
L 296.205889 393.504168 
L 297.266134 399.822921 
L 298.326379 391.050368 
L 299.386624 392.452337 
L 300.446869 386.112758 
L 301.507113 396.718757 
L 302.567358 378.67375 
L 303.627603 354.555135 
L 304.687848 384.221561 
L 305.748093 382.604031 
L 306.808338 388.730758 
L 307.868583 400.48176 
L 308.928828 379.328663 
L 309.989073 396.041445 
L 311.049318 396.13819 
L 312.109563 393.115092 
L 313.169808 374.621559 
L 314.230053 380.90727 
L 315.290298 399.872152 
L 317.410788 370.372104 
L 318.471033 382.644922 
L 319.531278 369.620225 
L 320.591523 363.718782 
L 321.651767 379.925036 
L 322.712012 357.662471 
L 323.772257 358.236565 
L 324.832502 333.355141 
L 325.892747 364.760357 
L 326.952992 372.371431 
L 328.013237 346.996124 
L 329.073482 331.659736 
L 330.133727 326.247601 
L 331.193972 342.934901 
L 332.254217 336.516204 
L 333.314462 333.140286 
L 334.374707 301.491994 
L 335.434952 313.117691 
L 336.495197 346.840175 
L 337.555442 353.09231 
L 338.615687 353.368959 
L 339.675932 347.111188 
L 340.736176 314.701264 
L 341.796421 363.79 
L 342.856666 361.667957 
L 343.916911 344.476913 
L 344.977156 385.541475 
L 346.037401 365.599808 
L 347.097646 333.836413 
L 348.157891 343.380944 
L 349.218136 369.590006 
L 350.278381 345.563264 
L 351.338626 307.026301 
L 352.398871 363.020306 
L 353.459116 358.097628 
L 354.519361 360.125339 
L 356.639851 317.3702 
L 357.700096 347.925488 
L 358.760341 383.58303 
L 359.820586 356.177711 
L 360.88083 321.765382 
L 361.941075 324.615623 
L 363.00132 352.759581 
L 364.061565 376.230975 
L 365.12181 356.895151 
L 366.182055 354.098659 
L 367.2423 344.794645 
L 368.302545 338.337201 
L 369.36279 339.358548 
L 370.423035 365.097951 
L 371.48328 359.456208 
L 372.543525 371.745191 
L 373.60377 375.202479 
L 374.664015 352.843733 
L 375.72426 379.104343 
L 376.784505 365.309254 
L 377.84475 341.606886 
L 378.904995 350.950713 
L 379.965239 383.386302 
L 381.025484 400.178717 
L 382.085729 361.538913 
L 383.145974 370.480021 
L 384.206219 401.314581 
L 385.266464 395.363364 
L 386.326709 383.066872 
L 387.386954 396.495424 
L 388.447199 384.987862 
L 389.507444 396.083791 
L 390.567689 398.735185 
L 391.627934 406.86706 
L 392.688179 395.935302 
L 393.748424 409.178553 
L 394.808669 406.909461 
L 395.868914 379.644954 
L 396.929159 333.077978 
L 397.989404 421.392273 
L 399.049648 388.330503 
L 400.109893 403.40774 
L 401.170138 414.56546 
L 402.230383 427.978789 
L 404.350873 398.920587 
L 405.411118 411.385821 
L 406.471363 411.55866 
L 407.531608 393.130761 
L 408.591853 408.441225 
L 409.652098 409.393658 
L 410.712343 388.030669 
L 411.772588 397.827096 
L 412.832833 411.614974 
L 413.893078 385.909661 
L 414.953323 372.79023 
L 416.013568 387.158879 
L 417.073813 374.512088 
L 418.134058 354.290417 
L 419.194302 374.500624 
L 420.254547 337.404506 
L 421.314792 366.112722 
L 422.375037 361.942727 
L 423.435282 371.089315 
L 424.495527 348.09295 
L 425.555772 355.735407 
L 426.616017 317.246785 
L 427.676262 331.690093 
L 428.736507 359.603392 
L 429.796752 367.688497 
L 430.856997 334.107149 
L 431.917242 380.63251 
L 432.977487 355.695498 
L 434.037732 358.913327 
L 435.097977 376.606476 
L 436.158222 379.89346 
L 437.218467 380.154699 
L 438.278711 370.859707 
L 439.338956 344.075928 
L 440.399201 402.046173 
L 441.459446 396.742117 
L 442.519691 386.496336 
L 443.579936 365.619561 
L 444.640181 380.996809 
L 445.700426 405.597565 
L 446.760671 394.978774 
L 447.820916 381.598976 
L 449.941406 409.834097 
L 451.001651 390.863262 
L 452.061896 386.442436 
L 453.122141 336.054753 
L 454.182386 361.543165 
L 455.242631 391.991711 
L 456.302876 391.268895 
L 457.363121 338.2479 
L 458.423365 344.39124 
L 459.48361 353.090082 
L 461.6041 375.232692 
L 462.664345 361.871202 
L 463.72459 333.477208 
L 464.784835 333.458412 
L 465.84508 336.636793 
L 466.905325 341.436989 
L 467.96557 348.8202 
L 469.025815 339.868407 
L 470.08606 368.341675 
L 471.146305 377.502861 
L 472.20655 371.469062 
L 473.266795 351.891225 
L 474.32704 396.648993 
L 475.387285 397.30313 
L 476.44753 364.961617 
L 477.507774 372.043376 
L 478.568019 376.933515 
L 479.628264 348.234774 
L 480.688509 345.358164 
L 481.748754 374.968798 
L 482.808999 361.762891 
L 483.869244 369.14456 
L 484.929489 380.253136 
L 485.989734 360.5211 
L 487.049979 380.052077 
L 489.170469 394.308821 
L 490.230714 394.421767 
L 491.290959 385.03796 
L 492.351204 401.268054 
L 493.411449 396.538755 
L 494.471694 406.424008 
L 495.531939 408.459982 
L 496.592184 408.693497 
L 497.652428 390.458277 
L 498.712673 406.31711 
L 499.772918 403.9467 
L 501.893408 422.131653 
L 502.953653 411.806719 
L 504.013898 418.557591 
L 505.074143 418.0433 
L 506.134388 420.281385 
L 507.194633 410.730659 
L 508.254878 406.864532 
L 509.315123 387.39342 
L 510.375368 393.384869 
L 511.435613 371.291327 
L 512.495858 364.099583 
L 513.556103 357.672838 
L 514.616348 378.984858 
L 515.676593 373.987797 
L 516.736837 363.566244 
L 517.797082 379.384796 
L 518.857327 384.208587 
L 519.917572 367.342126 
L 520.977817 374.596388 
L 522.038062 382.839028 
L 523.098307 365.096417 
L 524.158552 366.718949 
L 525.218797 360.861755 
L 526.279042 336.964696 
L 527.339287 346.934167 
L 528.399532 371.187237 
L 529.459777 365.919746 
L 530.520022 343.841672 
L 531.580267 302.019115 
L 532.640512 286.555774 
L 533.700757 321.455076 
L 534.761002 305.751083 
L 535.821247 332.031122 
L 536.881491 319.573895 
L 537.941736 273.370819 
L 539.001981 252.123493 
L 540.062226 301.383464 
L 541.122471 302.678256 
L 542.182716 307.916125 
L 543.242961 304.595271 
L 544.303206 294.522728 
L 545.363451 278.977938 
L 546.423696 281.651194 
L 547.483941 267.005907 
L 548.544186 303.355546 
L 549.604431 274.446832 
L 550.664676 265.500087 
L 551.724921 249.737426 
L 552.785166 174.104222 
L 553.845411 173.28447 
L 554.905656 194.433943 
L 555.9659 170.702664 
L 557.026145 178.056069 
L 558.08639 176.088836 
L 559.146635 220.186692 
L 560.20688 273.445447 
L 561.267125 224.339782 
L 562.32737 229.329642 
L 563.387615 174.990512 
L 564.44786 177.4652 
L 565.508105 179.654745 
L 566.56835 178.177339 
L 567.628595 151.809056 
L 568.68884 135.157033 
L 569.749085 138.824487 
L 570.80933 85.768607 
L 571.869575 150.690833 
L 572.92982 61.501484 
L 573.990065 121.604142 
L 575.050309 153.498089 
L 576.110554 95.033446 
L 577.170799 148.485996 
L 578.231044 169.947445 
L 579.291289 172.18892 
L 580.351534 169.741743 
L 581.411779 131.107441 
L 582.472024 164.432787 
L 584.592514 174.128802 
L 585.652759 171.296885 
L 586.713004 170.407426 
L 587.773249 173.297879 
L 588.833494 170.08265 
L 589.893739 172.984494 
L 590.953984 171.435433 
L 592.014229 172.114389 
L 593.074474 169.046213 
L 594.134719 172.147895 
L 595.194963 170.768909 
L 596.255208 172.513424 
L 597.315453 170.987683 
L 598.375698 204.159975 
L 599.435943 197.760682 
L 600.496188 173.072301 
L 601.556433 170.032307 
L 602.616678 174.205167 
L 603.676923 171.768083 
L 604.737168 171.470194 
L 605.797413 173.106202 
L 606.857658 171.850612 
L 607.917903 201.670277 
L 608.978148 173.839985 
L 610.038393 170.56278 
L 611.098638 174.313259 
L 613.219128 141.489867 
L 614.279372 177.591536 
L 615.339617 154.422046 
L 616.399862 60.249955 
L 617.460107 131.465718 
L 618.520352 139.914649 
L 619.580597 76.878638 
L 620.640842 97.314107 
L 621.701087 52.265498 
L 622.761332 131.823277 
L 623.821577 134.887388 
L 624.881822 106.479284 
L 625.942067 108.343585 
L 627.002312 139.979856 
L 628.062557 157.682217 
L 629.122802 165.779748 
L 630.183047 163.006115 
L 631.243292 171.589049 
L 632.303537 173.489133 
L 633.363782 170.07947 
L 634.424026 173.66407 
L 635.484271 172.303733 
L 636.544516 171.447774 
L 637.604761 173.796331 
L 638.665006 196.924569 
L 639.725251 229.896253 
L 640.785496 234.896971 
L 641.845741 240.649649 
L 642.905986 255.784711 
L 643.966231 279.970662 
L 646.086721 239.488155 
L 647.146966 224.56052 
L 648.207211 256.828438 
L 649.267456 282.801414 
L 650.327701 297.117893 
L 651.387946 307.339472 
L 652.448191 308.715663 
L 653.508435 263.052769 
L 654.56868 296.831977 
L 655.628925 260.394157 
L 656.68917 325.175868 
L 657.749415 331.038072 
L 658.80966 331.054137 
L 659.869905 299.790528 
L 660.93015 354.357022 
L 661.990395 355.420148 
L 663.05064 335.836443 
L 664.110885 377.460353 
L 665.17113 343.266053 
L 666.231375 337.192727 
L 667.29162 334.204062 
L 668.351865 379.535529 
L 669.41211 380.173177 
L 670.472355 388.069691 
L 671.5326 377.646699 
L 672.592845 340.638528 
L 673.653089 377.6222 
L 674.713334 376.515931 
L 675.773579 375.023903 
L 676.833824 368.426196 
L 677.894069 378.118027 
L 678.954314 349.610951 
L 680.014559 336.747341 
L 681.074804 398.842486 
L 682.135049 361.550662 
L 683.195294 339.795175 
L 684.255539 382.397451 
L 685.315784 358.662552 
L 686.376029 377.537701 
L 687.436274 366.350152 
L 688.496519 365.606688 
L 689.556764 354.318855 
L 690.617009 358.173021 
L 691.677254 396.679812 
L 692.737498 389.148966 
L 693.797743 394.768524 
L 694.857988 405.218808 
L 695.918233 411.39876 
L 696.978478 397.932089 
L 698.038723 396.561188 
L 699.098968 403.800613 
L 700.159213 404.965369 
L 701.219458 381.852091 
L 702.279703 364.385789 
L 703.339948 384.278495 
L 704.400193 406.694741 
L 705.460438 395.351232 
L 706.520683 389.536017 
L 707.580928 413.76278 
L 708.641173 413.166737 
L 709.701418 391.17712 
L 710.761663 389.401157 
L 711.821908 401.849544 
L 712.882152 393.171231 
L 713.942397 393.514439 
L 715.002642 393.701304 
L 716.062887 393.444929 
L 717.123132 376.054073 
L 718.183377 383.530647 
L 719.243622 392.883919 
L 720.303867 406.02102 
L 721.364112 389.263827 
L 722.424357 354.36753 
L 723.484602 367.979184 
L 724.544847 401.160845 
L 725.605092 398.009624 
L 726.665337 392.473668 
L 727.725582 361.747754 
L 728.785827 363.179565 
L 729.846072 323.698463 
L 730.906317 329.164345 
L 731.966561 335.241214 
L 733.026806 315.579945 
L 734.087051 350.872746 
L 735.147296 377.030365 
L 736.207541 418.893142 
L 737.267786 349.632028 
L 738.328031 388.061185 
L 739.388276 392.609067 
L 740.448521 371.908862 
L 741.508766 387.325006 
L 742.569011 400.282358 
L 743.629256 405.351341 
L 744.689501 383.687606 
L 745.749746 415.889277 
L 746.809991 396.567424 
L 747.870236 385.244338 
L 748.930481 377.601116 
L 749.990726 377.762354 
L 751.05097 365.082608 
L 752.111215 332.208177 
L 753.17146 343.615302 
L 754.231705 378.23072 
L 755.29195 379.723142 
L 756.352195 391.414323 
L 758.472685 352.324915 
L 759.53293 351.47738 
L 760.593175 330.372765 
L 761.65342 373.335973 
L 762.713665 332.356031 
L 763.77391 362.654735 
L 764.834155 397.788767 
L 765.8944 393.577836 
L 766.954645 386.455126 
L 768.01489 368.195749 
L 769.075135 369.457089 
L 770.13538 381.661686 
L 771.195624 387.209263 
L 772.255869 383.731131 
L 773.316114 395.872303 
L 774.376359 386.69426 
L 775.436604 367.971396 
L 776.496849 407.202891 
L 778.617339 373.436371 
L 779.677584 369.509172 
L 780.737829 405.128945 
L 781.798074 411.83668 
L 782.858319 412.281224 
L 783.918564 405.732201 
L 784.978809 405.175198 
L 786.039054 405.190256 
L 787.099299 406.660666 
L 788.159544 408.885011 
L 789.219789 412.101183 
L 790.280033 401.717498 
L 791.340278 405.367037 
L 792.400523 403.935527 
L 793.460768 400.868331 
L 794.521013 388.533914 
L 795.581258 390.90001 
L 796.641503 399.524461 
L 797.701748 403.537209 
L 798.761993 402.211002 
L 799.822238 395.412897 
L 800.882483 404.767678 
L 803.002973 407.343126 
L 804.063218 397.668115 
L 805.123463 397.350412 
L 806.183708 417.029166 
L 808.304198 400.12579 
L 809.364443 398.214758 
L 810.424687 398.818088 
L 811.484932 390.338722 
L 812.545177 409.337629 
L 813.605422 405.107367 
L 814.665667 415.318198 
L 815.725912 421.216165 
L 816.786157 412.902483 
L 817.846402 430.036373 
L 818.906647 425.138109 
L 819.966892 424.044993 
L 821.027137 398.014507 
L 822.087382 413.334058 
L 823.147627 421.788991 
L 824.207872 412.291382 
L 825.268117 401.702737 
L 826.328362 410.610493 
L 827.388607 407.347593 
L 828.448852 402.587734 
L 829.509096 415.673607 
L 830.569341 409.479293 
L 831.629586 426.657252 
L 832.689831 401.298679 
L 833.750076 412.738323 
L 834.810321 413.883617 
L 835.870566 413.965901 
L 836.930811 418.106607 
L 837.991056 434.020653 
L 839.051301 417.563154 
L 840.111546 416.456537 
L 841.171791 420.351604 
L 842.232036 434.609581 
L 843.292281 418.885233 
L 844.352526 434.607766 
L 845.412771 423.390823 
L 846.473016 409.844539 
L 847.533261 420.699014 
L 848.593506 399.511381 
L 849.65375 419.721566 
L 850.713995 421.495467 
L 851.77424 410.618983 
L 852.834485 415.324954 
L 853.89473 423.497052 
L 854.954975 400.843296 
L 857.075465 385.780948 
L 858.13571 419.448268 
L 859.195955 395.43902 
L 860.2562 388.87014 
L 861.316445 383.464998 
L 862.37669 375.583914 
L 863.436935 364.734674 
L 864.49718 376.283808 
L 865.557425 329.806238 
L 866.61767 365.057648 
L 867.677915 360.274224 
L 868.738159 325.893248 
L 869.798404 340.829379 
L 870.858649 340.851074 
L 871.918894 376.170418 
L 872.979139 381.783703 
L 874.039384 328.018718 
L 875.099629 341.02908 
L 876.159874 383.569432 
L 877.220119 357.493696 
L 878.280364 386.561528 
L 879.340609 355.285212 
L 880.400854 368.557845 
L 881.461099 370.899157 
L 882.521344 375.712922 
L 883.581589 354.385402 
L 884.641834 369.869066 
L 885.702079 372.434639 
L 885.702079 372.434639 
" clip-path="url(#p5224ac4850)" style="fill: none; stroke: #1f77b4; stroke-width: 1.5; stroke-linecap: square"/>
   </g>
   <g id="line2d_18">
    <path d="M 122.325718 313.186034 
L 123.385963 319.330082 
L 124.446208 331.114912 
L 125.506452 340.105402 
L 126.566697 305.945177 
L 127.626942 252.088027 
L 128.687187 248.034073 
L 129.747432 275.919044 
L 130.807677 268.227164 
L 131.867922 289.288014 
L 132.928167 285.378244 
L 133.988412 332.272197 
L 135.048657 347.242102 
L 136.108902 367.501537 
L 137.169147 363.478777 
L 138.229392 342.327956 
L 139.289637 359.304463 
L 140.349882 348.1684 
L 141.410127 345.729362 
L 142.470372 377.407014 
L 143.530617 399.131423 
L 144.590862 398.204223 
L 146.711351 391.07997 
L 147.771596 382.723807 
L 148.831841 358.793325 
L 149.892086 376.184199 
L 150.952331 398.899072 
L 152.012576 393.561879 
L 153.072821 405.867316 
L 154.133066 402.452867 
L 155.193311 384.203891 
L 156.253556 391.21034 
L 157.313801 399.395151 
L 158.374046 400.147922 
L 159.434291 416.838395 
L 160.494536 417.434891 
L 161.554781 408.035926 
L 162.615026 414.407253 
L 163.675271 409.813309 
L 164.735515 415.752385 
L 166.856005 431.531076 
L 167.91625 433.592215 
L 168.976495 428.05604 
L 170.03674 421.709916 
L 171.096985 432.464507 
L 172.15723 431.435433 
L 173.217475 410.536812 
L 174.27772 408.729387 
L 175.337965 416.653699 
L 176.39821 419.67993 
L 177.458455 433.584361 
L 178.5187 436.752321 
L 179.578945 436.804053 
L 180.63919 436.279881 
L 181.699435 429.414243 
L 182.75968 420.627322 
L 183.819925 428.344413 
L 184.880169 430.64231 
L 185.940414 424.980374 
L 187.000659 436.531022 
L 188.060904 435.32637 
L 189.121149 433.012843 
L 190.181394 427.678558 
L 191.241639 415.280026 
L 192.301884 389.778171 
L 193.362129 408.72137 
L 194.422374 421.560476 
L 195.482619 428.595033 
L 196.542864 416.064018 
L 197.603109 414.695781 
L 198.663354 416.775981 
L 199.723599 421.143634 
L 200.783844 419.954654 
L 201.844089 419.570267 
L 202.904334 423.400858 
L 203.964578 424.227208 
L 205.024823 410.451869 
L 206.085068 401.967346 
L 207.145313 403.632408 
L 208.205558 412.613827 
L 209.265803 403.492388 
L 210.326048 419.055751 
L 211.386293 422.196261 
L 212.446538 410.684683 
L 213.506783 411.786131 
L 214.567028 415.782938 
L 215.627273 413.222083 
L 216.687518 402.80603 
L 217.747763 409.502774 
L 218.808008 412.018513 
L 219.868253 394.64516 
L 220.928498 380.690608 
L 221.988743 395.950261 
L 223.048987 429.333072 
L 224.109232 427.524253 
L 225.169477 410.339628 
L 226.229722 412.488524 
L 227.289967 405.144866 
L 228.350212 394.60044 
L 229.410457 422.197687 
L 230.470702 425.02103 
L 231.530947 421.060982 
L 232.591192 411.691703 
L 233.651437 419.488422 
L 234.711682 430.27675 
L 235.771927 419.14212 
L 236.832172 418.875818 
L 237.892417 426.229696 
L 238.952662 431.031486 
L 240.012907 427.263451 
L 241.073152 404.988533 
L 242.133397 417.805651 
L 243.193641 429.210079 
L 244.253886 430.693189 
L 245.314131 433.793251 
L 246.374376 416.970294 
L 247.434621 411.608427 
L 248.494866 417.452169 
L 249.555111 419.124834 
L 250.615356 416.017977 
L 251.675601 425.011356 
L 252.735846 424.056006 
L 253.796091 424.441076 
L 254.856336 418.780886 
L 255.916581 422.43941 
L 256.976826 412.27585 
L 258.037071 415.404583 
L 259.097316 415.529989 
L 260.157561 410.291066 
L 261.217806 412.230405 
L 262.27805 411.939995 
L 263.338295 393.239401 
L 264.39854 424.761735 
L 265.458785 419.100875 
L 266.51903 414.129061 
L 267.579275 410.03332 
L 268.63952 406.479022 
L 269.699765 392.902151 
L 270.76001 383.422854 
L 272.8805 413.852301 
L 273.940745 413.720644 
L 275.00099 402.42478 
L 276.061235 395.177661 
L 277.12148 396.359466 
L 278.181725 402.274926 
L 279.24197 413.919046 
L 280.302215 397.011702 
L 281.36246 387.251906 
L 282.422704 415.489144 
L 283.482949 418.958412 
L 284.543194 416.582219 
L 285.603439 399.721297 
L 286.663684 423.816107 
L 287.723929 415.49245 
L 288.784174 399.691759 
L 289.844419 410.966326 
L 290.904664 417.499294 
L 291.964909 403.104735 
L 293.025154 393.679115 
L 294.085399 374.449147 
L 295.145644 386.33301 
L 296.205889 392.099229 
L 297.266134 386.505918 
L 298.326379 360.807264 
L 299.386624 383.018547 
L 300.446869 383.27809 
L 301.507113 369.948777 
L 302.567358 368.992557 
L 303.627603 347.782756 
L 304.687848 370.874829 
L 305.748093 377.984419 
L 306.808338 386.880059 
L 307.868583 374.375737 
L 308.928828 370.28026 
L 309.989073 393.594315 
L 311.049318 393.966314 
L 312.109563 387.793529 
L 313.169808 351.181123 
L 314.230053 356.336132 
L 315.290298 373.203272 
L 316.350543 344.698401 
L 317.410788 362.333926 
L 318.471033 368.235698 
L 319.531278 362.232205 
L 320.591523 349.756969 
L 321.651767 342.838017 
L 322.712012 350.070237 
L 323.772257 328.02193 
L 324.832502 329.267604 
L 325.892747 338.621362 
L 326.952992 351.146073 
L 328.013237 339.260149 
L 329.073482 314.532301 
L 330.133727 321.16075 
L 331.193972 338.690632 
L 332.254217 326.074212 
L 333.314462 322.817647 
L 334.374707 259.743958 
L 336.495197 338.167911 
L 337.555442 333.812027 
L 338.615687 332.955274 
L 339.675932 342.925014 
L 340.736176 298.385492 
L 341.796421 351.574722 
L 342.856666 339.356237 
L 343.916911 341.917011 
L 344.977156 365.448689 
L 346.037401 353.981293 
L 347.097646 311.449184 
L 348.157891 342.57148 
L 349.218136 363.750137 
L 350.278381 335.725323 
L 351.338626 288.768497 
L 352.398871 317.386609 
L 353.459116 332.176796 
L 354.519361 353.852562 
L 355.579606 311.187033 
L 356.639851 290.493722 
L 357.700096 343.1738 
L 358.760341 364.150898 
L 359.820586 344.613455 
L 360.88083 284.357305 
L 361.941075 303.228344 
L 363.00132 348.610349 
L 364.061565 366.059214 
L 365.12181 350.469261 
L 366.182055 349.244815 
L 367.2423 343.593188 
L 368.302545 335.123145 
L 369.36279 322.890289 
L 370.423035 342.542661 
L 371.48328 350.052867 
L 372.543525 348.062931 
L 373.60377 352.20623 
L 374.664015 345.910535 
L 375.72426 370.853937 
L 376.784505 339.563849 
L 377.84475 338.059184 
L 378.904995 348.928791 
L 379.965239 362.066718 
L 381.025484 383.916266 
L 382.085729 349.800509 
L 383.145974 348.529358 
L 384.206219 387.03841 
L 385.266464 384.458056 
L 386.326709 361.792773 
L 387.386954 392.839281 
L 388.447199 372.39552 
L 389.507444 378.1154 
L 390.567689 390.693628 
L 391.627934 397.7942 
L 392.688179 387.042766 
L 393.748424 400.280247 
L 394.808669 398.097971 
L 395.868914 357.428943 
L 396.929159 326.074672 
L 397.989404 335.768211 
L 399.049648 383.754787 
L 400.109893 400.150803 
L 401.170138 412.62085 
L 402.230383 412.499285 
L 403.290628 407.732432 
L 404.350873 395.376609 
L 405.411118 406.822357 
L 406.471363 400.188236 
L 407.531608 387.175597 
L 408.591853 400.733173 
L 409.652098 395.515096 
L 410.712343 384.386266 
L 411.772588 387.821546 
L 412.832833 389.11446 
L 413.893078 369.699274 
L 414.953323 361.673641 
L 416.013568 368.766535 
L 417.073813 365.578725 
L 418.134058 347.365569 
L 419.194302 341.487052 
L 420.254547 334.409825 
L 421.314792 359.268998 
L 422.375037 340.921169 
L 423.435282 355.135423 
L 424.495527 332.642706 
L 425.555772 319.84058 
L 426.616017 296.216195 
L 427.676262 323.788996 
L 428.736507 354.51109 
L 429.796752 347.778731 
L 430.856997 333.920751 
L 431.917242 347.834528 
L 432.977487 348.769028 
L 434.037732 347.426438 
L 435.097977 345.698624 
L 436.158222 366.919 
L 437.218467 358.196159 
L 438.278711 338.95191 
L 439.338956 331.06485 
L 440.399201 387.85548 
L 441.459446 394.345905 
L 442.519691 379.004658 
L 443.579936 357.586328 
L 444.640181 367.258727 
L 445.700426 362.272971 
L 446.760671 366.488593 
L 447.820916 355.673097 
L 448.881161 392.02342 
L 449.941406 385.953263 
L 451.001651 374.72631 
L 452.061896 375.221594 
L 453.122141 330.702516 
L 454.182386 355.216042 
L 455.242631 356.612367 
L 456.302876 368.118156 
L 457.363121 331.276043 
L 458.423365 323.177053 
L 459.48361 345.242976 
L 460.543855 350.575451 
L 461.6041 337.983158 
L 462.664345 344.826156 
L 463.72459 311.152352 
L 464.784835 316.280834 
L 465.84508 329.284549 
L 466.905325 340.166039 
L 467.96557 343.956107 
L 469.025815 324.175484 
L 470.08606 326.222806 
L 471.146305 355.424317 
L 472.20655 359.275832 
L 473.266795 345.635448 
L 474.32704 390.677599 
L 475.387285 373.486903 
L 476.44753 349.132216 
L 477.507774 344.416335 
L 478.568019 366.257431 
L 479.628264 341.870984 
L 480.688509 344.34223 
L 481.748754 365.121794 
L 482.808999 354.769192 
L 483.869244 355.044217 
L 484.929489 362.779359 
L 485.989734 352.685677 
L 487.049979 377.971702 
L 488.110224 386.505562 
L 489.170469 388.565318 
L 490.230714 391.711337 
L 491.290959 382.021292 
L 492.351204 368.712988 
L 493.411449 393.114149 
L 494.471694 401.297393 
L 495.531939 394.123206 
L 496.592184 404.433819 
L 497.652428 387.172125 
L 498.712673 386.13807 
L 499.772918 401.111568 
L 500.833163 409.673895 
L 501.893408 405.431188 
L 502.953653 406.497426 
L 504.013898 397.351144 
L 505.074143 406.48092 
L 506.134388 407.784163 
L 507.194633 393.603519 
L 508.254878 354.335718 
L 509.315123 383.379205 
L 510.375368 379.523479 
L 511.435613 362.084331 
L 512.495858 340.550966 
L 514.616348 360.679338 
L 515.676593 371.706836 
L 516.736837 354.802976 
L 518.857327 377.859497 
L 519.917572 358.332537 
L 520.977817 364.893275 
L 522.038062 343.627694 
L 523.098307 351.386395 
L 524.158552 320.564116 
L 525.218797 313.746434 
L 526.279042 331.938792 
L 527.339287 312.721196 
L 528.399532 336.466013 
L 529.459777 322.716286 
L 531.580267 280.35798 
L 532.640512 274.762801 
L 533.700757 304.03003 
L 534.761002 302.429605 
L 535.821247 280.925674 
L 536.881491 283.24933 
L 537.941736 261.420188 
L 539.001981 246.788503 
L 540.062226 290.912505 
L 541.122471 288.679586 
L 542.182716 291.463175 
L 543.242961 268.888011 
L 544.303206 252.283953 
L 545.363451 247.572847 
L 546.423696 247.328318 
L 547.483941 258.338429 
L 548.544186 266.939965 
L 549.604431 259.373119 
L 550.664676 255.900809 
L 551.724921 216.788169 
L 552.785166 173.549224 
L 553.845411 144.987815 
L 554.905656 125.196878 
L 555.9659 135.870093 
L 557.026145 135.464922 
L 558.08639 175.329435 
L 559.146635 178.104543 
L 560.20688 180.069949 
L 561.267125 177.83404 
L 562.32737 177.900709 
L 563.387615 171.631864 
L 564.44786 134.842511 
L 565.508105 113.15094 
L 566.56835 112.278735 
L 567.628595 112.127685 
L 568.68884 77.816895 
L 569.749085 54.407028 
L 570.80933 50.221768 
L 571.869575 50.960146 
L 572.92982 56.323064 
L 573.990065 66.398244 
L 575.050309 70.313871 
L 576.110554 91.10464 
L 577.170799 128.375423 
L 578.231044 117.383341 
L 579.291289 116.640344 
L 580.351534 118.501487 
L 582.472024 129.000814 
L 583.532269 132.884171 
L 584.592514 127.929678 
L 585.652759 135.901371 
L 586.713004 162.590122 
L 587.773249 154.855199 
L 588.833494 169.675615 
L 589.893739 145.122693 
L 590.953984 133.381369 
L 592.014229 141.527123 
L 593.074474 160.256898 
L 594.134719 170.797182 
L 595.194963 164.779742 
L 596.255208 150.41022 
L 597.315453 163.312673 
L 598.375698 197.641214 
L 599.435943 192.816828 
L 600.496188 170.829071 
L 601.556433 162.591051 
L 602.616678 142.214973 
L 603.676923 151.552415 
L 604.737168 165.274326 
L 606.857658 171.533631 
L 607.917903 190.019302 
L 608.978148 170.860866 
L 610.038393 170.361027 
L 612.158883 128.042069 
L 613.219128 113.529083 
L 614.279372 131.371704 
L 615.339617 83.087743 
L 616.399862 52.760637 
L 617.460107 50.063122 
L 620.640842 49.836416 
L 621.701087 50.742656 
L 622.761332 62.999375 
L 623.821577 93.589279 
L 624.881822 103.245105 
L 625.942067 105.033566 
L 627.002312 110.813734 
L 628.062557 126.752199 
L 629.122802 129.468326 
L 630.183047 130.240332 
L 631.243292 131.41296 
L 632.303537 142.546978 
L 633.363782 156.327211 
L 634.424026 161.298261 
L 635.484271 169.507548 
L 636.544516 171.257065 
L 637.604761 173.485185 
L 638.665006 192.488833 
L 639.725251 197.308342 
L 640.785496 215.449873 
L 641.845741 223.486278 
L 642.905986 250.319402 
L 643.966231 253.452027 
L 645.026476 221.041114 
L 646.086721 219.335714 
L 647.146966 218.639836 
L 648.207211 226.284165 
L 649.267456 250.019601 
L 650.327701 278.797496 
L 651.387946 285.270777 
L 652.448191 269.158092 
L 653.508435 257.712459 
L 654.56868 274.492451 
L 655.628925 254.983157 
L 656.68917 294.23492 
L 657.749415 320.672161 
L 658.80966 322.323235 
L 659.869905 283.872813 
L 660.93015 344.964057 
L 661.990395 321.410305 
L 663.05064 334.008172 
L 664.110885 318.697312 
L 665.17113 338.077301 
L 666.231375 336.00683 
L 667.29162 322.871061 
L 668.351865 357.754752 
L 669.41211 379.95422 
L 670.472355 363.619924 
L 671.5326 352.868176 
L 672.592845 335.286733 
L 673.653089 354.406957 
L 674.713334 367.311759 
L 675.773579 365.530082 
L 676.833824 360.152314 
L 677.894069 368.362982 
L 678.954314 343.375147 
L 680.014559 336.088698 
L 681.074804 376.006959 
L 682.135049 345.133403 
L 683.195294 339.142686 
L 684.255539 363.48181 
L 685.315784 351.304597 
L 686.376029 358.133962 
L 687.436274 352.921866 
L 688.496519 344.436158 
L 689.556764 321.129086 
L 691.677254 385.65185 
L 692.737498 387.584556 
L 693.797743 392.601848 
L 694.857988 402.081645 
L 695.918233 403.18268 
L 696.978478 386.778499 
L 698.038723 386.744673 
L 699.098968 389.249777 
L 700.159213 396.239279 
L 701.219458 366.992067 
L 702.279703 350.42459 
L 703.339948 381.341298 
L 704.400193 383.795029 
L 705.460438 376.756095 
L 706.520683 387.534187 
L 707.580928 404.486382 
L 708.641173 407.142965 
L 709.701418 372.247013 
L 710.761663 381.447233 
L 711.821908 398.159437 
L 712.882152 390.737037 
L 713.942397 391.48978 
L 716.062887 391.336933 
L 717.123132 357.300097 
L 718.183377 373.021901 
L 719.243622 381.221035 
L 720.303867 402.591846 
L 722.424357 347.35139 
L 723.484602 360.072545 
L 724.544847 391.752967 
L 725.605092 386.612871 
L 726.665337 377.597143 
L 727.725582 347.919063 
L 729.846072 314.407274 
L 730.906317 313.757817 
L 731.966561 334.517453 
L 733.026806 300.007455 
L 734.087051 311.689477 
L 735.147296 374.078156 
L 736.207541 353.96664 
L 737.267786 344.684919 
L 738.328031 333.401164 
L 739.388276 371.805633 
L 740.448521 356.902246 
L 743.629256 385.990751 
L 744.689501 357.134425 
L 745.749746 346.993804 
L 746.809991 352.272607 
L 747.870236 352.716375 
L 748.930481 366.681979 
L 749.990726 367.682803 
L 751.05097 357.486169 
L 752.111215 331.606527 
L 753.17146 337.147283 
L 754.231705 357.367328 
L 755.29195 361.315402 
L 756.352195 359.343786 
L 757.41244 354.505644 
L 758.472685 342.127405 
L 759.53293 322.752404 
L 760.593175 327.126115 
L 761.65342 330.786759 
L 762.713665 326.108221 
L 763.77391 345.748503 
L 764.834155 377.470436 
L 765.8944 371.666283 
L 766.954645 360.153218 
L 768.01489 352.999101 
L 769.075135 356.677569 
L 770.13538 366.092457 
L 771.195624 384.086816 
L 772.255869 370.477519 
L 773.316114 374.432051 
L 774.376359 384.382175 
L 775.436604 359.696857 
L 776.496849 396.815384 
L 777.557094 388.770923 
L 778.617339 363.492385 
L 779.677584 347.257828 
L 780.737829 398.410294 
L 781.798074 407.692528 
L 782.858319 399.147885 
L 783.918564 396.194934 
L 784.978809 401.382111 
L 786.039054 401.516971 
L 787.099299 397.087813 
L 788.159544 395.724887 
L 789.219789 407.398638 
L 790.280033 396.652247 
L 791.340278 400.779688 
L 792.400523 390.703444 
L 793.460768 387.306473 
L 794.521013 384.432799 
L 795.581258 389.287239 
L 796.641503 397.170786 
L 797.701748 391.999834 
L 798.761993 394.997319 
L 799.822238 374.022609 
L 800.882483 393.147386 
L 801.942728 402.231599 
L 803.002973 397.616608 
L 804.063218 389.238644 
L 805.123463 394.184072 
L 806.183708 413.345869 
L 807.243953 403.387457 
L 808.304198 396.161117 
L 809.364443 394.938835 
L 810.424687 386.813352 
L 811.484932 359.93748 
L 812.545177 397.203963 
L 813.605422 401.058596 
L 814.665667 410.365898 
L 815.725912 418.233581 
L 816.786157 403.755082 
L 817.846402 427.438402 
L 818.906647 419.295682 
L 819.966892 407.859478 
L 821.027137 394.542659 
L 822.087382 411.703873 
L 823.147627 415.147522 
L 824.207872 406.267403 
L 825.268117 401.041602 
L 826.328362 406.560861 
L 827.388607 403.25168 
L 828.448852 398.632757 
L 829.509096 410.68003 
L 830.569341 408.082821 
L 831.629586 421.796621 
L 832.689831 385.003867 
L 833.750076 403.079195 
L 834.810321 408.247793 
L 835.870566 404.944758 
L 837.991056 431.010183 
L 839.051301 417.11021 
L 840.111546 415.793638 
L 841.171791 419.860631 
L 842.232036 427.783617 
L 843.292281 418.52869 
L 844.352526 430.492594 
L 845.412771 416.50525 
L 846.473016 400.826147 
L 847.533261 373.139442 
L 848.593506 395.516403 
L 849.65375 405.195585 
L 850.713995 408.080457 
L 851.77424 386.496701 
L 852.834485 403.264257 
L 853.89473 412.619129 
L 854.954975 397.626928 
L 857.075465 384.175386 
L 858.13571 392.541259 
L 859.195955 386.877567 
L 860.2562 386.950848 
L 861.316445 358.830865 
L 862.37669 353.100294 
L 863.436935 352.969743 
L 864.49718 300.795407 
L 865.557425 323.347725 
L 866.61767 319.478051 
L 867.677915 333.120417 
L 868.738159 305.136241 
L 869.798404 298.245625 
L 870.858649 340.101688 
L 871.918894 353.398231 
L 872.979139 357.013826 
L 874.039384 303.188291 
L 875.099629 321.148587 
L 876.159874 360.401208 
L 877.220119 350.877985 
L 878.280364 370.618055 
L 879.340609 349.370706 
L 880.400854 361.403372 
L 881.461099 347.127306 
L 882.521344 371.884049 
L 883.581589 348.973943 
L 884.641834 349.425773 
L 885.702079 363.860088 
L 885.702079 363.860088 
" clip-path="url(#p5224ac4850)" style="fill: none; stroke: #ff7f0e; stroke-width: 1.5; stroke-linecap: square"/>
   </g>
   <g id="patch_3">
    <path d="M 122.94 424.8504 
L 122.94 57.2832 
" style="fill: none; stroke: #000000; stroke-width: 0.8; stroke-linejoin: miter; stroke-linecap: square"/>
   </g>
   <g id="patch_4">
    <path d="M 885.168 424.8504 
L 885.168 57.2832 
" style="fill: none; stroke: #000000; stroke-width: 0.8; stroke-linejoin: miter; stroke-linecap: square"/>
   </g>
   <g id="patch_5">
    <path d="M 122.94 424.8504 
L 885.168 424.8504 
" style="fill: none; stroke: #000000; stroke-width: 0.8; stroke-linejoin: miter; stroke-linecap: square"/>
   </g>
   <g id="patch_6">
    <path d="M 122.94 57.2832 
L 885.168 57.2832 
" style="fill: none; stroke: #000000; stroke-width: 0.8; stroke-linejoin: miter; stroke-linecap: square"/>
   </g>
   <g id="text_19">
    <!-- Potencia -->
    <g transform="translate(478.493063 51.2832) scale(0.12 -0.12)">
     <use xlink:href="#DejaVuSans-50"/>
     <use xlink:href="#DejaVuSans-6f" x="56.677734"/>
     <use xlink:href="#DejaVuSans-74" x="117.859375"/>
     <use xlink:href="#DejaVuSans-65" x="157.068359"/>
     <use xlink:href="#DejaVuSans-6e" x="218.591797"/>
     <use xlink:href="#DejaVuSans-63" x="281.970703"/>
     <use xlink:href="#DejaVuSans-69" x="336.951172"/>
     <use xlink:href="#DejaVuSans-61" x="364.734375"/>
    </g>
   </g>
   <g id="legend_1">
    <g id="patch_7">
     <path d="M 783.060187 94.63945 
L 878.168 94.63945 
Q 880.168 94.63945 880.168 92.63945 
L 880.168 64.2832 
Q 880.168 62.2832 878.168 62.2832 
L 783.060187 62.2832 
Q 781.060187 62.2832 781.060187 64.2832 
L 781.060187 92.63945 
Q 781.060187 94.63945 783.060187 94.63945 
z
" style="fill: #ffffff; opacity: 0.8; stroke: #cccccc; stroke-linejoin: miter"/>
    </g>
    <g id="line2d_19">
     <path d="M 785.060187 70.381638 
L 795.060187 70.381638 
L 805.060187 70.381638 
" style="fill: none; stroke: #1f77b4; stroke-width: 1.5; stroke-linecap: square"/>
    </g>
    <g id="text_20">
     <!-- predicciones -->
     <g transform="translate(813.060187 73.881638) scale(0.1 -0.1)">
      <defs>
       <path id="DejaVuSans-70" d="M 1159 525 
L 1159 -1331 
L 581 -1331 
L 581 3500 
L 1159 3500 
L 1159 2969 
Q 1341 3281 1617 3432 
Q 1894 3584 2278 3584 
Q 2916 3584 3314 3078 
Q 3713 2572 3713 1747 
Q 3713 922 3314 415 
Q 2916 -91 2278 -91 
Q 1894 -91 1617 61 
Q 1341 213 1159 525 
z
M 3116 1747 
Q 3116 2381 2855 2742 
Q 2594 3103 2138 3103 
Q 1681 3103 1420 2742 
Q 1159 2381 1159 1747 
Q 1159 1113 1420 752 
Q 1681 391 2138 391 
Q 2594 391 2855 752 
Q 3116 1113 3116 1747 
z
" transform="scale(0.015625)"/>
       <path id="DejaVuSans-72" d="M 2631 2963 
Q 2534 3019 2420 3045 
Q 2306 3072 2169 3072 
Q 1681 3072 1420 2755 
Q 1159 2438 1159 1844 
L 1159 0 
L 581 0 
L 581 3500 
L 1159 3500 
L 1159 2956 
Q 1341 3275 1631 3429 
Q 1922 3584 2338 3584 
Q 2397 3584 2469 3576 
Q 2541 3569 2628 3553 
L 2631 2963 
z
" transform="scale(0.015625)"/>
       <path id="DejaVuSans-64" d="M 2906 2969 
L 2906 4863 
L 3481 4863 
L 3481 0 
L 2906 0 
L 2906 525 
Q 2725 213 2448 61 
Q 2172 -91 1784 -91 
Q 1150 -91 751 415 
Q 353 922 353 1747 
Q 353 2572 751 3078 
Q 1150 3584 1784 3584 
Q 2172 3584 2448 3432 
Q 2725 3281 2906 2969 
z
M 947 1747 
Q 947 1113 1208 752 
Q 1469 391 1925 391 
Q 2381 391 2643 752 
Q 2906 1113 2906 1747 
Q 2906 2381 2643 2742 
Q 2381 3103 1925 3103 
Q 1469 3103 1208 2742 
Q 947 2381 947 1747 
z
" transform="scale(0.015625)"/>
      </defs>
      <use xlink:href="#DejaVuSans-70"/>
      <use xlink:href="#DejaVuSans-72" x="63.476562"/>
      <use xlink:href="#DejaVuSans-65" x="102.339844"/>
      <use xlink:href="#DejaVuSans-64" x="163.863281"/>
      <use xlink:href="#DejaVuSans-69" x="227.339844"/>
      <use xlink:href="#DejaVuSans-63" x="255.123047"/>
      <use xlink:href="#DejaVuSans-63" x="310.103516"/>
      <use xlink:href="#DejaVuSans-69" x="365.083984"/>
      <use xlink:href="#DejaVuSans-6f" x="392.867188"/>
      <use xlink:href="#DejaVuSans-6e" x="454.048828"/>
      <use xlink:href="#DejaVuSans-65" x="517.427734"/>
      <use xlink:href="#DejaVuSans-73" x="578.951172"/>
     </g>
    </g>
    <g id="line2d_20">
     <path d="M 785.060187 85.059763 
L 795.060187 85.059763 
L 805.060187 85.059763 
" style="fill: none; stroke: #ff7f0e; stroke-width: 1.5; stroke-linecap: square"/>
    </g>
    <g id="text_21">
     <!-- Real -->
     <g transform="translate(813.060187 88.559763) scale(0.1 -0.1)">
      <defs>
       <path id="DejaVuSans-52" d="M 2841 2188 
Q 3044 2119 3236 1894 
Q 3428 1669 3622 1275 
L 4263 0 
L 3584 0 
L 2988 1197 
Q 2756 1666 2539 1819 
Q 2322 1972 1947 1972 
L 1259 1972 
L 1259 0 
L 628 0 
L 628 4666 
L 2053 4666 
Q 2853 4666 3247 4331 
Q 3641 3997 3641 3322 
Q 3641 2881 3436 2590 
Q 3231 2300 2841 2188 
z
M 1259 4147 
L 1259 2491 
L 2053 2491 
Q 2509 2491 2742 2702 
Q 2975 2913 2975 3322 
Q 2975 3731 2742 3939 
Q 2509 4147 2053 4147 
L 1259 4147 
z
" transform="scale(0.015625)"/>
       <path id="DejaVuSans-6c" d="M 603 4863 
L 1178 4863 
L 1178 0 
L 603 0 
L 603 4863 
z
" transform="scale(0.015625)"/>
      </defs>
      <use xlink:href="#DejaVuSans-52"/>
      <use xlink:href="#DejaVuSans-65" x="64.982422"/>
      <use xlink:href="#DejaVuSans-61" x="126.505859"/>
      <use xlink:href="#DejaVuSans-6c" x="187.785156"/>
     </g>
    </g>
   </g>
  </g>
 </g>
 <defs>
  <clipPath id="p5224ac4850">
   <rect x="122.94" y="57.2832" width="762.228" height="367.5672"/>
  </clipPath>
 </defs>
</svg>
