<?xml version="1.0" encoding="utf-8" standalone="no"?>
<!DOCTYPE svg PUBLIC "-//W3C//DTD SVG 1.1//EN"
  "http://www.w3.org/Graphics/SVG/1.1/DTD/svg11.dtd">
<svg xmlns:xlink="http://www.w3.org/1999/xlink" width="983.52pt" height="477.36pt" viewBox="0 0 983.52 477.36" xmlns="http://www.w3.org/2000/svg" version="1.1">
 <metadata>
  <rdf:RDF xmlns:dc="http://purl.org/dc/elements/1.1/" xmlns:cc="http://creativecommons.org/ns#" xmlns:rdf="http://www.w3.org/1999/02/22-rdf-syntax-ns#">
   <cc:Work>
    <dc:type rdf:resource="http://purl.org/dc/dcmitype/StillImage"/>
    <dc:date>2024-05-05T18:03:20.136060</dc:date>
    <dc:format>image/svg+xml</dc:format>
    <dc:creator>
     <cc:Agent>
      <dc:title>Matplotlib v3.8.0, https://matplotlib.org/</dc:title>
     </cc:Agent>
    </dc:creator>
   </cc:Work>
  </rdf:RDF>
 </metadata>
 <defs>
  <style type="text/css">*{stroke-linejoin: round; stroke-linecap: butt}</style>
 </defs>
 <g id="figure_1">
  <g id="patch_1">
   <path d="M 0 477.36 
L 983.52 477.36 
L 983.52 0 
L 0 0 
z
" style="fill: #ffffff"/>
  </g>
  <g id="axes_1">
   <g id="patch_2">
    <path d="M 122.94 424.8504 
L 885.168 424.8504 
L 885.168 57.2832 
L 122.94 57.2832 
z
" style="fill: #ffffff"/>
   </g>
   <g id="matplotlib.axis_1">
    <g id="xtick_1">
     <g id="line2d_1">
      <defs>
       <path id="mc4b7c23552" d="M 0 0 
L 0 3.5 
" style="stroke: #000000; stroke-width: 0.8"/>
      </defs>
      <g>
       <use xlink:href="#mc4b7c23552" x="247.087651" y="424.8504" style="stroke: #000000; stroke-width: 0.8"/>
      </g>
     </g>
     <g id="text_1">
      <!-- 400 -->
      <g transform="translate(237.543901 439.448838) scale(0.1 -0.1)">
       <defs>
        <path id="DejaVuSans-34" d="M 2419 4116 
L 825 1625 
L 2419 1625 
L 2419 4116 
z
M 2253 4666 
L 3047 4666 
L 3047 1625 
L 3713 1625 
L 3713 1100 
L 3047 1100 
L 3047 0 
L 2419 0 
L 2419 1100 
L 313 1100 
L 313 1709 
L 2253 4666 
z
" transform="scale(0.015625)"/>
        <path id="DejaVuSans-30" d="M 2034 4250 
Q 1547 4250 1301 3770 
Q 1056 3291 1056 2328 
Q 1056 1369 1301 889 
Q 1547 409 2034 409 
Q 2525 409 2770 889 
Q 3016 1369 3016 2328 
Q 3016 3291 2770 3770 
Q 2525 4250 2034 4250 
z
M 2034 4750 
Q 2819 4750 3233 4129 
Q 3647 3509 3647 2328 
Q 3647 1150 3233 529 
Q 2819 -91 2034 -91 
Q 1250 -91 836 529 
Q 422 1150 422 2328 
Q 422 3509 836 4129 
Q 1250 4750 2034 4750 
z
" transform="scale(0.015625)"/>
       </defs>
       <use xlink:href="#DejaVuSans-34"/>
       <use xlink:href="#DejaVuSans-30" x="63.623047"/>
       <use xlink:href="#DejaVuSans-30" x="127.246094"/>
      </g>
     </g>
    </g>
    <g id="xtick_2">
     <g id="line2d_2">
      <g>
       <use xlink:href="#mc4b7c23552" x="407.999624" y="424.8504" style="stroke: #000000; stroke-width: 0.8"/>
      </g>
     </g>
     <g id="text_2">
      <!-- 600 -->
      <g transform="translate(398.455874 439.448838) scale(0.1 -0.1)">
       <defs>
        <path id="DejaVuSans-36" d="M 2113 2584 
Q 1688 2584 1439 2293 
Q 1191 2003 1191 1497 
Q 1191 994 1439 701 
Q 1688 409 2113 409 
Q 2538 409 2786 701 
Q 3034 994 3034 1497 
Q 3034 2003 2786 2293 
Q 2538 2584 2113 2584 
z
M 3366 4563 
L 3366 3988 
Q 3128 4100 2886 4159 
Q 2644 4219 2406 4219 
Q 1781 4219 1451 3797 
Q 1122 3375 1075 2522 
Q 1259 2794 1537 2939 
Q 1816 3084 2150 3084 
Q 2853 3084 3261 2657 
Q 3669 2231 3669 1497 
Q 3669 778 3244 343 
Q 2819 -91 2113 -91 
Q 1303 -91 875 529 
Q 447 1150 447 2328 
Q 447 3434 972 4092 
Q 1497 4750 2381 4750 
Q 2619 4750 2861 4703 
Q 3103 4656 3366 4563 
z
" transform="scale(0.015625)"/>
       </defs>
       <use xlink:href="#DejaVuSans-36"/>
       <use xlink:href="#DejaVuSans-30" x="63.623047"/>
       <use xlink:href="#DejaVuSans-30" x="127.246094"/>
      </g>
     </g>
    </g>
    <g id="xtick_3">
     <g id="line2d_3">
      <g>
       <use xlink:href="#mc4b7c23552" x="568.911597" y="424.8504" style="stroke: #000000; stroke-width: 0.8"/>
      </g>
     </g>
     <g id="text_3">
      <!-- 800 -->
      <g transform="translate(559.367847 439.448838) scale(0.1 -0.1)">
       <defs>
        <path id="DejaVuSans-38" d="M 2034 2216 
Q 1584 2216 1326 1975 
Q 1069 1734 1069 1313 
Q 1069 891 1326 650 
Q 1584 409 2034 409 
Q 2484 409 2743 651 
Q 3003 894 3003 1313 
Q 3003 1734 2745 1975 
Q 2488 2216 2034 2216 
z
M 1403 2484 
Q 997 2584 770 2862 
Q 544 3141 544 3541 
Q 544 4100 942 4425 
Q 1341 4750 2034 4750 
Q 2731 4750 3128 4425 
Q 3525 4100 3525 3541 
Q 3525 3141 3298 2862 
Q 3072 2584 2669 2484 
Q 3125 2378 3379 2068 
Q 3634 1759 3634 1313 
Q 3634 634 3220 271 
Q 2806 -91 2034 -91 
Q 1263 -91 848 271 
Q 434 634 434 1313 
Q 434 1759 690 2068 
Q 947 2378 1403 2484 
z
M 1172 3481 
Q 1172 3119 1398 2916 
Q 1625 2713 2034 2713 
Q 2441 2713 2670 2916 
Q 2900 3119 2900 3481 
Q 2900 3844 2670 4047 
Q 2441 4250 2034 4250 
Q 1625 4250 1398 4047 
Q 1172 3844 1172 3481 
z
" transform="scale(0.015625)"/>
       </defs>
       <use xlink:href="#DejaVuSans-38"/>
       <use xlink:href="#DejaVuSans-30" x="63.623047"/>
       <use xlink:href="#DejaVuSans-30" x="127.246094"/>
      </g>
     </g>
    </g>
    <g id="xtick_4">
     <g id="line2d_4">
      <g>
       <use xlink:href="#mc4b7c23552" x="729.82357" y="424.8504" style="stroke: #000000; stroke-width: 0.8"/>
      </g>
     </g>
     <g id="text_4">
      <!-- 1000 -->
      <g transform="translate(717.09857 439.448838) scale(0.1 -0.1)">
       <defs>
        <path id="DejaVuSans-31" d="M 794 531 
L 1825 531 
L 1825 4091 
L 703 3866 
L 703 4441 
L 1819 4666 
L 2450 4666 
L 2450 531 
L 3481 531 
L 3481 0 
L 794 0 
L 794 531 
z
" transform="scale(0.015625)"/>
       </defs>
       <use xlink:href="#DejaVuSans-31"/>
       <use xlink:href="#DejaVuSans-30" x="63.623047"/>
       <use xlink:href="#DejaVuSans-30" x="127.246094"/>
       <use xlink:href="#DejaVuSans-30" x="190.869141"/>
      </g>
     </g>
    </g>
    <g id="text_5">
     <!-- Instante -->
     <g transform="translate(483.575875 453.126963) scale(0.1 -0.1)">
      <defs>
       <path id="DejaVuSans-49" d="M 628 4666 
L 1259 4666 
L 1259 0 
L 628 0 
L 628 4666 
z
" transform="scale(0.015625)"/>
       <path id="DejaVuSans-6e" d="M 3513 2113 
L 3513 0 
L 2938 0 
L 2938 2094 
Q 2938 2591 2744 2837 
Q 2550 3084 2163 3084 
Q 1697 3084 1428 2787 
Q 1159 2491 1159 1978 
L 1159 0 
L 581 0 
L 581 3500 
L 1159 3500 
L 1159 2956 
Q 1366 3272 1645 3428 
Q 1925 3584 2291 3584 
Q 2894 3584 3203 3211 
Q 3513 2838 3513 2113 
z
" transform="scale(0.015625)"/>
       <path id="DejaVuSans-73" d="M 2834 3397 
L 2834 2853 
Q 2591 2978 2328 3040 
Q 2066 3103 1784 3103 
Q 1356 3103 1142 2972 
Q 928 2841 928 2578 
Q 928 2378 1081 2264 
Q 1234 2150 1697 2047 
L 1894 2003 
Q 2506 1872 2764 1633 
Q 3022 1394 3022 966 
Q 3022 478 2636 193 
Q 2250 -91 1575 -91 
Q 1294 -91 989 -36 
Q 684 19 347 128 
L 347 722 
Q 666 556 975 473 
Q 1284 391 1588 391 
Q 1994 391 2212 530 
Q 2431 669 2431 922 
Q 2431 1156 2273 1281 
Q 2116 1406 1581 1522 
L 1381 1569 
Q 847 1681 609 1914 
Q 372 2147 372 2553 
Q 372 3047 722 3315 
Q 1072 3584 1716 3584 
Q 2034 3584 2315 3537 
Q 2597 3491 2834 3397 
z
" transform="scale(0.015625)"/>
       <path id="DejaVuSans-74" d="M 1172 4494 
L 1172 3500 
L 2356 3500 
L 2356 3053 
L 1172 3053 
L 1172 1153 
Q 1172 725 1289 603 
Q 1406 481 1766 481 
L 2356 481 
L 2356 0 
L 1766 0 
Q 1100 0 847 248 
Q 594 497 594 1153 
L 594 3053 
L 172 3053 
L 172 3500 
L 594 3500 
L 594 4494 
L 1172 4494 
z
" transform="scale(0.015625)"/>
       <path id="DejaVuSans-61" d="M 2194 1759 
Q 1497 1759 1228 1600 
Q 959 1441 959 1056 
Q 959 750 1161 570 
Q 1363 391 1709 391 
Q 2188 391 2477 730 
Q 2766 1069 2766 1631 
L 2766 1759 
L 2194 1759 
z
M 3341 1997 
L 3341 0 
L 2766 0 
L 2766 531 
Q 2569 213 2275 61 
Q 1981 -91 1556 -91 
Q 1019 -91 701 211 
Q 384 513 384 1019 
Q 384 1609 779 1909 
Q 1175 2209 1959 2209 
L 2766 2209 
L 2766 2266 
Q 2766 2663 2505 2880 
Q 2244 3097 1772 3097 
Q 1472 3097 1187 3025 
Q 903 2953 641 2809 
L 641 3341 
Q 956 3463 1253 3523 
Q 1550 3584 1831 3584 
Q 2591 3584 2966 3190 
Q 3341 2797 3341 1997 
z
" transform="scale(0.015625)"/>
       <path id="DejaVuSans-65" d="M 3597 1894 
L 3597 1613 
L 953 1613 
Q 991 1019 1311 708 
Q 1631 397 2203 397 
Q 2534 397 2845 478 
Q 3156 559 3463 722 
L 3463 178 
Q 3153 47 2828 -22 
Q 2503 -91 2169 -91 
Q 1331 -91 842 396 
Q 353 884 353 1716 
Q 353 2575 817 3079 
Q 1281 3584 2069 3584 
Q 2775 3584 3186 3129 
Q 3597 2675 3597 1894 
z
M 3022 2063 
Q 3016 2534 2758 2815 
Q 2500 3097 2075 3097 
Q 1594 3097 1305 2825 
Q 1016 2553 972 2059 
L 3022 2063 
z
" transform="scale(0.015625)"/>
      </defs>
      <use xlink:href="#DejaVuSans-49"/>
      <use xlink:href="#DejaVuSans-6e" x="29.492188"/>
      <use xlink:href="#DejaVuSans-73" x="92.871094"/>
      <use xlink:href="#DejaVuSans-74" x="144.970703"/>
      <use xlink:href="#DejaVuSans-61" x="184.179688"/>
      <use xlink:href="#DejaVuSans-6e" x="245.458984"/>
      <use xlink:href="#DejaVuSans-74" x="308.837891"/>
      <use xlink:href="#DejaVuSans-65" x="348.046875"/>
     </g>
    </g>
   </g>
   <g id="matplotlib.axis_2">
    <g id="ytick_1">
     <g id="line2d_5">
      <defs>
       <path id="m3a6ce7db6a" d="M 0 0 
L -3.5 0 
" style="stroke: #000000; stroke-width: 0.8"/>
      </defs>
      <g>
       <use xlink:href="#m3a6ce7db6a" x="122.94" y="419.346372" style="stroke: #000000; stroke-width: 0.8"/>
      </g>
     </g>
     <g id="text_6">
      <!-- 44 -->
      <g transform="translate(103.215 423.145591) scale(0.1 -0.1)">
       <use xlink:href="#DejaVuSans-34"/>
       <use xlink:href="#DejaVuSans-34" x="63.623047"/>
      </g>
     </g>
    </g>
    <g id="ytick_2">
     <g id="line2d_6">
      <g>
       <use xlink:href="#m3a6ce7db6a" x="122.94" y="352.347397" style="stroke: #000000; stroke-width: 0.8"/>
      </g>
     </g>
     <g id="text_7">
      <!-- 46 -->
      <g transform="translate(103.215 356.146616) scale(0.1 -0.1)">
       <use xlink:href="#DejaVuSans-34"/>
       <use xlink:href="#DejaVuSans-36" x="63.623047"/>
      </g>
     </g>
    </g>
    <g id="ytick_3">
     <g id="line2d_7">
      <g>
       <use xlink:href="#m3a6ce7db6a" x="122.94" y="285.348423" style="stroke: #000000; stroke-width: 0.8"/>
      </g>
     </g>
     <g id="text_8">
      <!-- 48 -->
      <g transform="translate(103.215 289.147641) scale(0.1 -0.1)">
       <use xlink:href="#DejaVuSans-34"/>
       <use xlink:href="#DejaVuSans-38" x="63.623047"/>
      </g>
     </g>
    </g>
    <g id="ytick_4">
     <g id="line2d_8">
      <g>
       <use xlink:href="#m3a6ce7db6a" x="122.94" y="218.349448" style="stroke: #000000; stroke-width: 0.8"/>
      </g>
     </g>
     <g id="text_9">
      <!-- 50 -->
      <g transform="translate(103.215 222.148667) scale(0.1 -0.1)">
       <defs>
        <path id="DejaVuSans-35" d="M 691 4666 
L 3169 4666 
L 3169 4134 
L 1269 4134 
L 1269 2991 
Q 1406 3038 1543 3061 
Q 1681 3084 1819 3084 
Q 2600 3084 3056 2656 
Q 3513 2228 3513 1497 
Q 3513 744 3044 326 
Q 2575 -91 1722 -91 
Q 1428 -91 1123 -41 
Q 819 9 494 109 
L 494 744 
Q 775 591 1075 516 
Q 1375 441 1709 441 
Q 2250 441 2565 725 
Q 2881 1009 2881 1497 
Q 2881 1984 2565 2268 
Q 2250 2553 1709 2553 
Q 1456 2553 1204 2497 
Q 953 2441 691 2322 
L 691 4666 
z
" transform="scale(0.015625)"/>
       </defs>
       <use xlink:href="#DejaVuSans-35"/>
       <use xlink:href="#DejaVuSans-30" x="63.623047"/>
      </g>
     </g>
    </g>
    <g id="ytick_5">
     <g id="line2d_9">
      <g>
       <use xlink:href="#m3a6ce7db6a" x="122.94" y="151.350473" style="stroke: #000000; stroke-width: 0.8"/>
      </g>
     </g>
     <g id="text_10">
      <!-- 52 -->
      <g transform="translate(103.215 155.149692) scale(0.1 -0.1)">
       <defs>
        <path id="DejaVuSans-32" d="M 1228 531 
L 3431 531 
L 3431 0 
L 469 0 
L 469 531 
Q 828 903 1448 1529 
Q 2069 2156 2228 2338 
Q 2531 2678 2651 2914 
Q 2772 3150 2772 3378 
Q 2772 3750 2511 3984 
Q 2250 4219 1831 4219 
Q 1534 4219 1204 4116 
Q 875 4013 500 3803 
L 500 4441 
Q 881 4594 1212 4672 
Q 1544 4750 1819 4750 
Q 2544 4750 2975 4387 
Q 3406 4025 3406 3419 
Q 3406 3131 3298 2873 
Q 3191 2616 2906 2266 
Q 2828 2175 2409 1742 
Q 1991 1309 1228 531 
z
" transform="scale(0.015625)"/>
       </defs>
       <use xlink:href="#DejaVuSans-35"/>
       <use xlink:href="#DejaVuSans-32" x="63.623047"/>
      </g>
     </g>
    </g>
    <g id="ytick_6">
     <g id="line2d_10">
      <g>
       <use xlink:href="#m3a6ce7db6a" x="122.94" y="84.351498" style="stroke: #000000; stroke-width: 0.8"/>
      </g>
     </g>
     <g id="text_11">
      <!-- 54 -->
      <g transform="translate(103.215 88.150717) scale(0.1 -0.1)">
       <use xlink:href="#DejaVuSans-35"/>
       <use xlink:href="#DejaVuSans-34" x="63.623047"/>
      </g>
     </g>
    </g>
    <g id="text_12">
     <!-- Potencia[W] maximas -->
     <g transform="translate(97.135312 295.623831) rotate(-90) scale(0.1 -0.1)">
      <defs>
       <path id="DejaVuSans-50" d="M 1259 4147 
L 1259 2394 
L 2053 2394 
Q 2494 2394 2734 2622 
Q 2975 2850 2975 3272 
Q 2975 3691 2734 3919 
Q 2494 4147 2053 4147 
L 1259 4147 
z
M 628 4666 
L 2053 4666 
Q 2838 4666 3239 4311 
Q 3641 3956 3641 3272 
Q 3641 2581 3239 2228 
Q 2838 1875 2053 1875 
L 1259 1875 
L 1259 0 
L 628 0 
L 628 4666 
z
" transform="scale(0.015625)"/>
       <path id="DejaVuSans-6f" d="M 1959 3097 
Q 1497 3097 1228 2736 
Q 959 2375 959 1747 
Q 959 1119 1226 758 
Q 1494 397 1959 397 
Q 2419 397 2687 759 
Q 2956 1122 2956 1747 
Q 2956 2369 2687 2733 
Q 2419 3097 1959 3097 
z
M 1959 3584 
Q 2709 3584 3137 3096 
Q 3566 2609 3566 1747 
Q 3566 888 3137 398 
Q 2709 -91 1959 -91 
Q 1206 -91 779 398 
Q 353 888 353 1747 
Q 353 2609 779 3096 
Q 1206 3584 1959 3584 
z
" transform="scale(0.015625)"/>
       <path id="DejaVuSans-63" d="M 3122 3366 
L 3122 2828 
Q 2878 2963 2633 3030 
Q 2388 3097 2138 3097 
Q 1578 3097 1268 2742 
Q 959 2388 959 1747 
Q 959 1106 1268 751 
Q 1578 397 2138 397 
Q 2388 397 2633 464 
Q 2878 531 3122 666 
L 3122 134 
Q 2881 22 2623 -34 
Q 2366 -91 2075 -91 
Q 1284 -91 818 406 
Q 353 903 353 1747 
Q 353 2603 823 3093 
Q 1294 3584 2113 3584 
Q 2378 3584 2631 3529 
Q 2884 3475 3122 3366 
z
" transform="scale(0.015625)"/>
       <path id="DejaVuSans-69" d="M 603 3500 
L 1178 3500 
L 1178 0 
L 603 0 
L 603 3500 
z
M 603 4863 
L 1178 4863 
L 1178 4134 
L 603 4134 
L 603 4863 
z
" transform="scale(0.015625)"/>
       <path id="DejaVuSans-5b" d="M 550 4863 
L 1875 4863 
L 1875 4416 
L 1125 4416 
L 1125 -397 
L 1875 -397 
L 1875 -844 
L 550 -844 
L 550 4863 
z
" transform="scale(0.015625)"/>
       <path id="DejaVuSans-57" d="M 213 4666 
L 850 4666 
L 1831 722 
L 2809 4666 
L 3519 4666 
L 4500 722 
L 5478 4666 
L 6119 4666 
L 4947 0 
L 4153 0 
L 3169 4050 
L 2175 0 
L 1381 0 
L 213 4666 
z
" transform="scale(0.015625)"/>
       <path id="DejaVuSans-5d" d="M 1947 4863 
L 1947 -844 
L 622 -844 
L 622 -397 
L 1369 -397 
L 1369 4416 
L 622 4416 
L 622 4863 
L 1947 4863 
z
" transform="scale(0.015625)"/>
       <path id="DejaVuSans-20" transform="scale(0.015625)"/>
       <path id="DejaVuSans-6d" d="M 3328 2828 
Q 3544 3216 3844 3400 
Q 4144 3584 4550 3584 
Q 5097 3584 5394 3201 
Q 5691 2819 5691 2113 
L 5691 0 
L 5113 0 
L 5113 2094 
Q 5113 2597 4934 2840 
Q 4756 3084 4391 3084 
Q 3944 3084 3684 2787 
Q 3425 2491 3425 1978 
L 3425 0 
L 2847 0 
L 2847 2094 
Q 2847 2600 2669 2842 
Q 2491 3084 2119 3084 
Q 1678 3084 1418 2786 
Q 1159 2488 1159 1978 
L 1159 0 
L 581 0 
L 581 3500 
L 1159 3500 
L 1159 2956 
Q 1356 3278 1631 3431 
Q 1906 3584 2284 3584 
Q 2666 3584 2933 3390 
Q 3200 3197 3328 2828 
z
" transform="scale(0.015625)"/>
       <path id="DejaVuSans-78" d="M 3513 3500 
L 2247 1797 
L 3578 0 
L 2900 0 
L 1881 1375 
L 863 0 
L 184 0 
L 1544 1831 
L 300 3500 
L 978 3500 
L 1906 2253 
L 2834 3500 
L 3513 3500 
z
" transform="scale(0.015625)"/>
      </defs>
      <use xlink:href="#DejaVuSans-50"/>
      <use xlink:href="#DejaVuSans-6f" x="56.677734"/>
      <use xlink:href="#DejaVuSans-74" x="117.859375"/>
      <use xlink:href="#DejaVuSans-65" x="157.068359"/>
      <use xlink:href="#DejaVuSans-6e" x="218.591797"/>
      <use xlink:href="#DejaVuSans-63" x="281.970703"/>
      <use xlink:href="#DejaVuSans-69" x="336.951172"/>
      <use xlink:href="#DejaVuSans-61" x="364.734375"/>
      <use xlink:href="#DejaVuSans-5b" x="426.013672"/>
      <use xlink:href="#DejaVuSans-57" x="465.027344"/>
      <use xlink:href="#DejaVuSans-5d" x="563.904297"/>
      <use xlink:href="#DejaVuSans-20" x="602.917969"/>
      <use xlink:href="#DejaVuSans-6d" x="634.705078"/>
      <use xlink:href="#DejaVuSans-61" x="732.117188"/>
      <use xlink:href="#DejaVuSans-78" x="793.396484"/>
      <use xlink:href="#DejaVuSans-69" x="852.576172"/>
      <use xlink:href="#DejaVuSans-6d" x="880.359375"/>
      <use xlink:href="#DejaVuSans-61" x="977.771484"/>
      <use xlink:href="#DejaVuSans-73" x="1039.050781"/>
     </g>
    </g>
   </g>
   <g id="line2d_11">
    <path d="M 287.920672 478.36 
L 288.120204 386.124692 
L 288.564502 478.36 
M 289.071276 478.36 
L 289.729324 142.449152 
L 290.533884 131.693558 
L 291.338444 132.145506 
L 292.143003 131.929962 
L 292.947563 132.145428 
L 293.752123 132.163085 
L 294.556683 132.513094 
L 295.361243 132.54529 
L 296.165803 132.298132 
L 296.970363 132.215384 
L 297.774923 133.492537 
L 298.579482 133.000781 
L 299.384042 132.928894 
L 300.188602 133.29102 
L 300.993162 132.224475 
L 301.797722 132.630189 
L 303.406842 132.621431 
L 304.211401 132.874866 
L 305.015961 132.25513 
L 305.820521 132.135991 
L 308.234201 132.281041 
L 309.038761 132.38236 
L 311.45244 131.964823 
L 312.257 132.260664 
L 313.06156 132.694713 
L 313.86612 132.865252 
L 314.67068 133.266531 
L 315.47524 133.927953 
L 316.279799 139.148685 
L 317.084359 156.894289 
L 317.888919 152.564045 
L 318.693479 137.806053 
L 319.498039 133.928759 
L 320.302599 132.446406 
L 321.107159 132.858771 
L 321.911718 132.136371 
L 322.716278 132.107947 
L 323.520838 131.920495 
L 324.325398 131.889574 
L 325.129958 132.260501 
L 325.934518 132.11253 
L 326.739078 132.617925 
L 327.543638 132.870695 
L 328.348197 132.125488 
L 329.152757 131.949698 
L 329.957317 135.947864 
L 330.761877 134.098957 
L 331.566437 134.249795 
L 332.370997 135.811718 
L 333.175557 132.310281 
L 333.980116 131.897789 
L 334.784676 132.292802 
L 336.393796 137.646283 
L 337.198356 137.619782 
L 338.002916 136.176816 
L 338.807476 132.680823 
L 339.612035 132.596985 
L 340.416595 133.266349 
L 341.221155 132.439015 
L 342.025715 132.074644 
L 342.830275 132.707532 
L 344.439395 133.348932 
L 345.243955 132.686389 
L 346.048514 132.582169 
L 346.853074 133.776364 
L 347.657634 133.694555 
L 348.462194 134.559271 
L 349.266754 134.155451 
L 350.071314 136.001861 
L 350.875874 135.731972 
L 351.680433 134.277925 
L 353.289553 132.778528 
L 354.898673 134.685925 
L 355.703233 134.52411 
L 356.507793 134.656043 
L 357.312352 133.258667 
L 358.116912 133.033417 
L 358.921472 133.669984 
L 359.726032 132.935647 
L 360.530592 133.800753 
L 361.335152 132.652156 
L 362.139712 134.210116 
L 362.944272 133.536555 
L 363.748831 133.800964 
L 364.553391 132.576156 
L 365.357951 133.77424 
L 366.162511 133.60639 
L 366.967071 133.609908 
L 367.771631 133.724925 
L 368.576191 132.784964 
L 369.38075 133.347141 
L 370.18531 133.555436 
L 370.98987 132.329154 
L 371.79443 132.974174 
L 372.59899 133.37615 
L 373.40355 134.405189 
L 374.20811 132.863075 
L 375.012669 132.560314 
L 375.817229 133.843611 
L 377.426349 132.232941 
L 378.230909 134.444069 
L 379.035469 135.252985 
L 379.840029 133.103612 
L 380.644589 133.642543 
L 381.449148 137.629626 
L 382.253708 133.670697 
L 383.058268 134.09634 
L 383.862828 133.464288 
L 384.667388 134.928487 
L 385.471948 133.866548 
L 386.276508 135.047338 
L 387.081067 132.803137 
L 387.885627 161.621541 
L 388.690187 237.727144 
L 389.494747 276.243293 
L 390.299307 292.37054 
L 391.103867 310.937127 
L 392.712987 309.933179 
L 393.517546 325.018891 
L 394.322106 276.757407 
L 395.126666 291.570718 
L 395.931226 259.546077 
L 397.540346 155.655042 
L 398.344906 132.696756 
L 399.149465 133.190573 
L 399.954025 132.297915 
L 400.758585 132.651156 
L 401.563145 132.543858 
L 402.367705 132.911813 
L 403.172265 134.420405 
L 403.976825 132.752678 
L 404.781384 133.030852 
L 405.585944 133.187476 
L 406.390504 134.015719 
L 407.195064 134.203044 
L 407.999624 135.893287 
L 408.804184 135.812712 
L 409.608744 134.446339 
L 410.413304 136.090381 
L 411.217863 135.066733 
L 412.022423 133.488707 
L 412.826983 136.841695 
L 413.631543 135.861132 
L 414.436103 134.319483 
L 416.045223 136.803854 
L 416.849782 135.726181 
L 417.654342 135.068643 
L 418.458902 135.769636 
L 419.263462 132.704267 
L 420.068022 134.387737 
L 420.872582 133.939141 
L 421.677142 133.285241 
L 422.481701 133.984959 
L 423.286261 134.106524 
L 424.090821 132.577551 
L 424.895381 135.723023 
L 425.699941 134.826761 
L 426.504501 132.583426 
L 428.91818 133.563412 
L 429.72274 132.447571 
L 430.5273 132.550872 
L 431.33186 133.029022 
L 432.13642 132.711981 
L 432.94098 133.756623 
L 433.74554 133.393246 
L 434.550099 132.394296 
L 435.354659 133.946325 
L 436.159219 134.739112 
L 436.963779 133.347213 
L 437.768339 133.918276 
L 438.572899 132.469215 
L 439.377459 133.54425 
L 440.986578 138.573013 
L 441.791138 135.93234 
L 442.595698 134.544282 
L 443.400258 135.390972 
L 444.204818 140.474035 
L 445.009378 134.154888 
L 445.813938 137.445568 
L 446.618497 137.8835 
L 447.423057 141.509845 
L 449.032177 154.325956 
L 449.836737 137.675872 
L 450.641297 135.783227 
L 451.445857 134.567262 
L 452.250416 145.810599 
L 453.054976 134.971092 
L 453.859536 137.133694 
L 454.664096 134.220957 
L 455.468656 141.126788 
L 456.273216 143.373051 
L 457.077776 144.135634 
L 457.882336 146.558992 
L 458.686895 148.165289 
L 459.491455 140.421861 
L 460.296015 147.961117 
L 461.100575 143.780003 
L 461.905135 135.752306 
L 462.709695 155.376459 
L 463.514255 134.701188 
L 464.318814 142.668119 
L 465.123374 134.919526 
L 465.927934 137.823445 
L 466.732494 136.614159 
L 467.537054 190.576688 
L 468.341614 139.369625 
L 469.146174 186.55182 
L 469.950733 160.511175 
L 470.755293 178.859602 
L 471.559853 145.550723 
L 472.364413 137.338353 
L 473.168973 142.977927 
L 473.973533 141.737234 
L 474.778093 171.363202 
L 475.582653 140.338845 
L 476.387212 180.158415 
L 477.191772 139.399452 
L 477.996332 168.84435 
L 478.800892 151.325074 
L 479.605452 147.781611 
L 480.410012 220.475116 
L 481.214572 144.680723 
L 482.019131 197.878829 
L 482.823691 196.16496 
L 483.628251 154.173359 
L 484.432811 241.404246 
L 485.237371 146.214257 
L 486.041931 207.013971 
L 486.846491 135.483401 
L 487.65105 163.017285 
L 488.45561 147.551768 
L 489.26017 165.066097 
L 490.06473 137.232 
L 490.86929 135.88843 
L 491.67385 137.73692 
L 492.47841 134.62712 
L 493.28297 136.476297 
L 494.087529 134.791617 
L 494.892089 135.53555 
L 495.696649 133.814701 
L 496.501209 137.251462 
L 497.305769 135.268129 
L 498.110329 134.269189 
L 498.914889 133.764966 
L 499.719448 133.958829 
L 500.524008 135.118536 
L 501.328568 141.185919 
L 502.133128 137.315991 
L 502.937688 136.211453 
L 503.742248 132.463115 
L 504.546808 132.709566 
L 505.351368 134.064117 
L 506.155927 133.439307 
L 507.765047 134.944654 
L 508.569607 133.849543 
L 509.374167 133.56232 
L 510.178727 134.866479 
L 510.983287 133.559547 
L 511.787846 135.933294 
L 512.592406 136.975394 
L 513.396966 136.599615 
L 514.201526 133.296179 
L 515.006086 136.219517 
L 515.810646 135.584645 
L 516.615206 132.980875 
L 517.419765 133.767617 
L 518.224325 133.209593 
L 519.028885 133.668101 
L 519.833445 132.774243 
L 520.638005 134.028361 
L 521.442565 132.826683 
L 522.247125 132.543864 
L 523.051685 132.787765 
L 523.856244 132.552023 
L 525.465364 133.102097 
L 526.269924 132.629559 
L 527.074484 132.862583 
L 527.879044 134.312283 
L 528.683604 134.044729 
L 529.488163 134.807495 
L 530.292723 133.265632 
L 531.097283 132.751263 
L 531.901843 133.643857 
L 532.706403 134.049751 
L 533.510963 132.435184 
L 534.315523 132.584598 
L 535.924642 132.23966 
L 536.729202 132.627417 
L 538.338322 132.755021 
L 539.142882 132.27388 
L 539.947442 134.876068 
L 540.752002 133.449767 
L 541.556561 133.052489 
L 542.361121 133.19874 
L 543.165681 132.794344 
L 543.970241 132.531686 
L 544.774801 134.882932 
L 545.579361 135.474084 
L 546.383921 133.039826 
L 547.18848 133.782822 
L 547.99304 135.716036 
L 548.7976 133.783065 
L 549.60216 132.835614 
L 550.40672 133.660669 
L 551.21128 132.664178 
L 552.01584 138.234761 
L 552.820399 133.556194 
L 553.624959 133.855161 
L 554.429519 135.586886 
L 555.234079 134.175588 
L 556.038639 138.796936 
L 556.843199 167.789576 
L 557.647759 165.654478 
L 558.452319 155.619987 
L 559.256878 179.926987 
L 560.061438 224.343851 
L 560.865998 239.222975 
L 561.670558 217.210136 
L 562.475118 151.707833 
L 563.279678 157.45137 
L 564.084238 222.634524 
L 564.888797 137.558258 
L 565.693357 149.916251 
L 566.497917 132.633405 
L 567.302477 132.187421 
L 568.107037 132.663422 
L 568.911597 133.987833 
L 569.716157 136.733998 
L 570.520717 136.24015 
L 571.325276 134.03975 
L 572.129836 133.458614 
L 572.934396 132.583259 
L 573.738956 132.701433 
L 574.543516 133.048643 
L 575.348076 132.504908 
L 576.152636 133.625515 
L 576.957195 134.03337 
L 577.761755 133.120191 
L 578.566315 132.719144 
L 580.175435 133.129372 
L 580.979995 133.94197 
L 581.784555 133.379362 
L 582.589114 135.878217 
L 583.393674 132.651232 
L 584.198234 136.162515 
L 585.002794 137.760105 
L 585.807354 226.447981 
L 586.611914 145.269061 
L 587.416474 137.181965 
L 588.221034 162.53655 
L 589.025593 176.477993 
L 589.830153 136.473206 
L 590.634713 134.770523 
L 591.439273 148.769796 
L 592.243833 142.099642 
L 593.048393 132.059514 
L 593.852953 135.813061 
L 594.657512 134.839648 
L 595.462072 133.372752 
L 596.266632 132.208536 
L 597.071192 168.544738 
L 597.875752 132.14193 
L 598.680312 139.260261 
L 599.484872 191.377192 
L 600.289431 177.79118 
L 601.093991 132.635056 
L 601.898551 264.298994 
L 602.703111 135.809701 
L 603.507671 132.564012 
L 604.312231 135.248929 
L 605.116791 133.574047 
L 605.921351 134.931302 
L 606.72591 136.674212 
L 607.53047 133.554837 
L 609.13959 133.045327 
L 609.94415 133.962084 
L 610.74871 133.257064 
L 611.55327 134.710265 
L 612.357829 137.172567 
L 613.162389 139.08411 
L 613.966949 135.824273 
L 615.576069 132.64111 
L 616.380629 136.785608 
L 617.185189 152.074135 
L 617.989749 132.845553 
L 618.794308 133.218908 
L 619.598868 134.185043 
L 620.403428 132.19223 
L 621.207988 150.757416 
L 622.012548 132.108531 
L 622.817108 135.849691 
L 623.621668 136.903397 
L 624.426227 132.011638 
L 626.035347 132.00613 
L 627.644467 133.994083 
L 628.449027 131.989932 
L 629.253587 132.085129 
L 630.058146 131.916621 
L 630.862706 132.135367 
L 631.667266 131.845207 
L 633.276386 131.882792 
L 634.080946 133.77291 
L 634.885506 133.372849 
L 635.690066 132.685124 
L 636.494625 132.872194 
L 637.299185 132.656648 
L 638.103745 134.062245 
L 638.908305 134.509404 
L 639.712865 134.039581 
L 641.321985 134.151099 
L 642.126544 133.886741 
L 642.931104 133.474552 
L 643.735664 132.575951 
L 644.540224 132.311109 
L 645.344784 132.535671 
L 646.149344 132.060577 
L 646.953904 134.467439 
L 647.758463 133.782106 
L 648.563023 131.905346 
L 649.367583 131.791822 
L 650.172143 132.39722 
L 650.976703 139.849764 
L 651.781263 132.322959 
L 652.585823 147.664222 
L 653.390383 137.988086 
L 654.194942 132.488737 
L 654.999502 132.201539 
L 655.804062 149.589374 
L 656.608622 142.571571 
L 657.413182 132.025459 
L 658.217742 131.928816 
L 659.022302 132.618742 
L 659.826861 164.291456 
L 660.631421 137.03014 
L 661.435981 131.99142 
L 662.240541 133.176187 
L 663.045101 131.965081 
L 663.849661 137.618533 
L 664.654221 139.929433 
L 665.45878 138.860106 
L 666.26334 135.101425 
L 667.0679 132.17223 
L 667.87246 133.122675 
L 668.67702 134.678299 
L 669.48158 132.815458 
L 670.28614 132.488978 
L 671.0907 133.233515 
L 671.895259 138.088021 
L 672.699819 139.043209 
L 673.504379 135.154479 
L 674.308939 150.327642 
L 675.113499 151.933561 
L 675.918059 133.930846 
L 676.722619 133.383132 
L 677.527178 133.49393 
L 678.331738 134.345764 
L 679.940858 132.324123 
L 680.745418 133.053251 
L 681.549978 137.922455 
L 682.354538 132.048125 
L 683.159098 132.819982 
L 683.963657 133.37634 
L 684.768217 132.117284 
L 685.572777 133.283136 
L 686.377337 132.315758 
L 687.181897 132.193873 
L 687.986457 132.2074 
L 688.791017 131.767165 
L 689.595576 131.685938 
L 691.204696 131.757307 
L 692.009256 132.546852 
L 692.813816 132.254778 
L 693.618376 136.594527 
L 694.422936 132.705211 
L 696.032055 131.744451 
L 696.836615 132.439162 
L 697.641175 131.725433 
L 698.445735 133.371216 
L 699.250295 132.888215 
L 700.054855 132.806659 
L 700.859415 131.783168 
L 701.663974 132.257583 
L 702.468534 132.311708 
L 703.273094 132.762487 
L 704.882214 131.835525 
L 705.686774 131.700978 
L 706.491334 132.829794 
L 707.295893 131.926856 
L 708.905013 132.252788 
L 709.709573 134.581633 
L 710.514133 134.560294 
L 711.318693 133.783758 
L 712.123253 132.074387 
L 712.927812 132.761162 
L 713.732372 131.745847 
L 714.536932 131.604387 
L 715.341492 131.645173 
L 716.146052 134.354739 
L 716.950612 132.011686 
L 717.755172 269.368722 
L 718.559732 133.577214 
L 719.364291 131.66771 
L 720.168851 131.716458 
L 720.973411 134.094668 
L 721.777971 135.129616 
L 722.582531 132.085829 
L 723.387091 131.804999 
L 724.191651 282.45767 
L 724.99621 173.999734 
L 725.80077 133.579556 
L 726.60533 133.642296 
L 727.40989 131.950102 
L 728.21445 131.750753 
L 729.01901 132.776538 
L 729.82357 132.003072 
L 730.628129 133.412251 
L 731.432689 132.458113 
L 732.237249 132.293762 
L 733.041809 131.939617 
L 733.846369 131.956518 
L 735.455489 133.42409 
L 736.260049 132.154803 
L 737.869168 131.7901 
L 738.673728 131.987562 
L 739.478288 132.912043 
L 740.282848 132.396152 
L 741.087408 132.576828 
L 741.891968 131.509614 
L 742.696527 131.550452 
L 743.501087 131.726449 
L 744.305647 132.67176 
L 745.110207 131.582542 
L 745.914767 131.567168 
L 746.719327 135.677485 
L 747.523887 132.012746 
L 748.328447 131.710349 
L 749.937566 131.679196 
L 750.742126 208.738101 
L 751.546686 133.145333 
L 752.351246 131.676926 
L 753.155806 203.139074 
L 753.960366 206.740867 
L 754.764925 132.228945 
L 757.983165 132.32485 
L 758.787725 131.956614 
L 759.592285 131.860875 
L 760.396844 131.88184 
L 762.005964 131.780396 
L 762.810524 132.596365 
L 763.615084 132.781591 
L 764.419644 131.803203 
L 766.028764 131.941219 
L 766.833323 132.751345 
L 767.637883 132.15034 
L 769.247003 131.591636 
L 770.051563 132.508327 
L 771.660683 132.794171 
L 772.465242 133.103352 
L 773.269802 140.546841 
L 774.074362 132.587586 
L 774.878922 131.598213 
L 775.683482 132.142597 
L 776.488042 161.408452 
L 777.292602 139.886209 
L 778.097161 131.791889 
L 778.901721 135.89809 
L 779.706281 147.175676 
L 780.510841 131.95598 
L 781.315401 132.257237 
L 782.119961 162.667126 
L 782.924521 131.805974 
L 783.729081 132.12463 
L 784.53364 135.267075 
L 785.3382 135.518091 
L 786.14276 139.946474 
L 786.94732 134.749779 
L 787.75188 135.467525 
L 789.361 260.827001 
L 790.165559 252.756919 
L 791.774679 330.924138 
L 792.579239 335.481441 
L 793.383799 453.197466 
L 794.188359 406.662571 
L 794.725815 478.36 
L 794.725815 478.36 
" clip-path="url(#pe5a869d7ac)" style="fill: none; stroke: #1f77b4; stroke-width: 1.5; stroke-linecap: square"/>
   </g>
   <g id="line2d_12">
    <path d="M 285.483638 478.36 
L 285.706525 431.230087 
L 286.511084 353.06838 
L 288.120204 353.257032 
L 288.924764 353.325353 
L 289.729324 140.605075 
L 290.533884 124.831025 
L 291.338444 125.304152 
L 292.143003 125.079302 
L 292.947563 125.311706 
L 293.752123 125.324617 
L 294.556683 125.688268 
L 295.361243 125.727918 
L 296.165803 125.451695 
L 296.970363 125.382361 
L 297.774923 127.211155 
L 298.579482 126.273346 
L 299.384042 126.186189 
L 300.188602 126.963756 
L 300.993162 125.404198 
L 301.797722 125.854441 
L 303.406842 125.833205 
L 304.211401 126.077082 
L 305.015961 125.435174 
L 305.820521 125.303856 
L 307.429641 125.270597 
L 309.038761 125.551971 
L 310.64788 125.380821 
L 311.45244 125.093557 
L 312.257 125.391965 
L 313.06156 125.813172 
L 313.86612 125.982622 
L 314.67068 126.337671 
L 315.47524 126.980003 
L 316.279799 132.694267 
L 317.084359 155.515586 
L 317.888919 150.698416 
L 318.693479 132.520942 
L 319.498039 127.678166 
L 320.302599 125.667457 
L 321.107159 126.13367 
L 321.911718 125.293327 
L 322.716278 125.267006 
L 323.520838 125.069977 
L 324.325398 125.040489 
L 325.129958 125.437302 
L 325.934518 125.275754 
L 326.739078 125.80072 
L 327.543638 126.023805 
L 328.348197 125.310837 
L 329.152757 125.107239 
L 329.957317 129.009987 
L 330.761877 127.463642 
L 331.566437 127.571141 
L 332.370997 128.94088 
L 333.175557 125.483009 
L 333.980116 125.04656 
L 334.784676 125.459457 
L 336.393796 130.881538 
L 337.198356 130.722883 
L 338.002916 129.576258 
L 338.807476 125.871336 
L 339.612035 125.768352 
L 340.416595 126.438243 
L 341.221155 125.609026 
L 342.025715 125.237134 
L 342.830275 125.894256 
L 344.439395 126.539136 
L 345.243955 125.859473 
L 346.048514 125.780026 
L 346.853074 126.952559 
L 347.657634 126.926872 
L 348.462194 127.760746 
L 349.266754 127.421061 
L 350.071314 129.189414 
L 350.875874 129.001114 
L 351.680433 127.500737 
L 353.289553 125.955862 
L 354.094113 126.840094 
L 354.898673 128.055789 
L 355.703233 127.588174 
L 356.507793 128.636952 
L 357.312352 126.38386 
L 358.116912 126.18122 
L 358.921472 127.406752 
L 359.726032 126.162101 
L 360.530592 126.941154 
L 361.335152 125.8777 
L 362.139712 127.343625 
L 362.944272 126.715044 
L 363.748831 127.555724 
L 364.553391 125.800365 
L 365.357951 126.96212 
L 366.162511 126.802823 
L 366.967071 126.769863 
L 367.771631 126.910679 
L 368.576191 125.992189 
L 369.38075 126.512483 
L 370.18531 126.664508 
L 370.98987 125.501595 
L 371.79443 126.177342 
L 372.59899 126.601881 
L 373.40355 127.571675 
L 374.20811 126.08129 
L 375.012669 125.749574 
L 375.817229 127.009776 
L 377.426349 125.402973 
L 378.230909 127.857673 
L 379.035469 128.459499 
L 379.840029 126.334498 
L 380.644589 126.949971 
L 381.449148 131.84256 
L 382.253708 126.939556 
L 383.058268 127.7298 
L 383.862828 126.715613 
L 384.667388 128.737241 
L 385.471948 127.564245 
L 386.276508 128.607367 
L 387.081067 126.030145 
L 387.885627 160.690062 
L 388.690187 217.071602 
L 389.494747 259.75599 
L 390.299307 287.898033 
L 391.103867 301.661893 
L 391.908427 302.447238 
L 392.712987 300.374431 
L 394.322106 276.37242 
L 395.126666 265.637118 
L 395.931226 234.811673 
L 397.540346 154.22564 
L 398.344906 125.958445 
L 399.149465 126.68184 
L 399.954025 125.469909 
L 400.758585 125.828843 
L 401.563145 125.710124 
L 402.367705 126.135791 
L 403.172265 127.566075 
L 403.976825 125.916058 
L 405.585944 126.330966 
L 406.390504 127.167884 
L 407.195064 127.402726 
L 407.999624 128.966705 
L 408.804184 129.03688 
L 409.608744 127.865613 
L 410.413304 129.652364 
L 412.022423 126.709182 
L 412.826983 130.489199 
L 414.436103 127.54951 
L 416.045223 129.947846 
L 416.849782 128.847503 
L 417.654342 128.269912 
L 418.458902 128.88745 
L 419.263462 125.900738 
L 420.068022 127.560594 
L 420.872582 127.144719 
L 421.677142 126.40884 
L 422.481701 127.198072 
L 423.286261 127.765668 
L 424.090821 125.751008 
L 424.895381 130.084901 
L 425.699941 128.280687 
L 426.504501 125.777866 
L 428.113621 126.334999 
L 428.91818 126.824707 
L 429.72274 125.610232 
L 430.5273 125.742664 
L 431.33186 126.173929 
L 432.13642 125.887351 
L 432.94098 126.836878 
L 433.74554 126.510653 
L 434.550099 125.570262 
L 435.354659 127.015767 
L 436.159219 127.774218 
L 436.963779 126.502759 
L 437.768339 127.018111 
L 438.572899 125.63392 
L 439.377459 126.680417 
L 440.986578 131.585021 
L 441.791138 128.891739 
L 442.595698 127.59099 
L 443.400258 128.366809 
L 444.204818 134.173848 
L 445.009378 127.319756 
L 445.813938 130.404427 
L 446.618497 131.072464 
L 447.423057 135.083926 
L 448.227617 144.954614 
L 449.032177 152.318175 
L 449.836737 130.873543 
L 450.641297 128.724908 
L 451.445857 127.671939 
L 452.250416 142.882695 
L 453.054976 128.101148 
L 453.859536 130.100817 
L 454.664096 127.343738 
L 455.468656 136.250241 
L 456.273216 140.162396 
L 457.077776 141.091254 
L 457.882336 143.920091 
L 458.686895 145.888686 
L 459.491455 135.38845 
L 460.296015 145.687037 
L 461.100575 140.615611 
L 461.905135 128.674182 
L 462.709695 153.823911 
L 463.514255 127.740683 
L 464.318814 139.031445 
L 465.123374 127.956636 
L 465.927934 130.966739 
L 466.732494 129.737454 
L 467.537054 179.31795 
L 468.341614 132.532989 
L 469.146174 177.407367 
L 469.950733 159.309279 
L 470.755293 175.374436 
L 471.559853 142.1236 
L 472.364413 130.438999 
L 473.168973 136.900813 
L 473.973533 135.561267 
L 474.778093 170.961749 
L 475.582653 133.954577 
L 476.387212 177.923332 
L 477.191772 132.755855 
L 477.996332 168.164268 
L 478.800892 149.060408 
L 479.605452 143.71744 
L 480.410012 196.795202 
L 481.214572 140.202438 
L 482.019131 183.991608 
L 482.823691 182.478314 
L 483.628251 152.208713 
L 484.432811 219.226758 
L 485.237371 141.967358 
L 486.041931 186.28661 
L 486.846491 128.411445 
L 487.65105 162.051159 
L 488.45561 145.134836 
L 489.26017 164.260566 
L 490.06473 130.194366 
L 490.86929 128.805676 
L 491.67385 130.928137 
L 492.47841 127.566711 
L 493.28297 129.407212 
L 494.087529 127.703424 
L 494.892089 128.457358 
L 495.696649 126.852432 
L 496.501209 130.473496 
L 497.305769 128.178111 
L 498.110329 127.284899 
L 498.914889 126.830721 
L 499.719448 127.031647 
L 500.524008 128.095123 
L 501.328568 135.907771 
L 502.133128 130.552639 
L 502.937688 129.176451 
L 503.742248 125.618824 
L 504.546808 125.85591 
L 505.351368 127.139102 
L 506.155927 126.562605 
L 507.765047 127.981193 
L 508.569607 126.993062 
L 509.374167 126.672619 
L 510.178727 127.882815 
L 510.983287 126.692149 
L 511.787846 128.929348 
L 512.592406 129.963217 
L 513.396966 129.739573 
L 514.201526 126.436367 
L 515.006086 129.325768 
L 515.810646 128.661984 
L 516.615206 126.157436 
L 517.419765 126.909015 
L 518.224325 126.382286 
L 519.028885 126.749394 
L 519.833445 125.975151 
L 520.638005 127.154051 
L 521.442565 125.999279 
L 522.247125 125.695107 
L 523.051685 125.965758 
L 523.856244 125.728393 
L 525.465364 126.292404 
L 526.269924 125.800885 
L 527.074484 126.038254 
L 527.879044 127.510352 
L 528.683604 127.262185 
L 529.488163 127.89174 
L 530.292723 126.55597 
L 531.097283 125.959457 
L 531.901843 126.785777 
L 532.706403 127.155273 
L 533.510963 125.586392 
L 534.315523 125.744349 
L 535.120082 125.628884 
L 535.924642 125.39853 
L 536.729202 125.802329 
L 538.338322 125.93281 
L 539.142882 125.44434 
L 539.947442 127.884136 
L 540.752002 126.591556 
L 541.556561 126.241536 
L 542.361121 126.364301 
L 543.970241 125.717074 
L 544.774801 128.014081 
L 545.579361 128.643822 
L 546.383921 126.266802 
L 547.18848 126.955896 
L 547.99304 128.780762 
L 548.7976 127.019139 
L 549.60216 126.060502 
L 550.40672 126.82861 
L 551.21128 125.794774 
L 552.01584 131.719781 
L 552.820399 126.745717 
L 553.624959 127.098843 
L 554.429519 128.936948 
L 555.234079 127.900402 
L 556.038639 133.365776 
L 556.843199 167.298396 
L 557.647759 164.41029 
L 558.452319 154.186323 
L 560.061438 204.51748 
L 560.865998 217.655668 
L 561.670558 202.552498 
L 562.475118 149.760216 
L 563.279678 155.676681 
L 564.084238 202.548106 
L 564.888797 132.748726 
L 565.693357 147.784639 
L 566.497917 125.814083 
L 567.302477 125.345434 
L 568.107037 125.865343 
L 568.911597 127.668762 
L 569.716157 129.854983 
L 570.520717 129.356671 
L 571.325276 127.149357 
L 572.129836 126.618466 
L 572.934396 125.7546 
L 573.738956 125.881772 
L 574.543516 126.21456 
L 575.348076 125.686426 
L 576.152636 126.866244 
L 576.957195 127.177177 
L 577.761755 126.289142 
L 578.566315 125.910841 
L 580.175435 126.333866 
L 580.979995 127.136081 
L 581.784555 126.597025 
L 582.589114 129.165276 
L 583.393674 125.842667 
L 585.002794 132.510402 
L 585.807354 201.622608 
L 586.611914 142.358072 
L 587.416474 131.762244 
L 588.221034 161.660075 
L 589.025593 173.64143 
L 589.830153 129.648888 
L 590.634713 127.762484 
L 591.439273 146.507016 
L 592.243833 137.36018 
L 593.048393 125.208641 
L 593.852953 129.184321 
L 594.657512 128.952478 
L 595.462072 126.906336 
L 596.266632 125.377604 
L 597.071192 168.207455 
L 597.875752 125.300965 
L 598.680312 132.653644 
L 599.484872 179.424939 
L 600.289431 174.821566 
L 601.093991 125.791948 
L 601.898551 238.712432 
L 602.703111 128.75278 
L 603.507671 125.727056 
L 604.312231 128.264493 
L 605.116791 126.764886 
L 605.921351 127.969055 
L 606.72591 129.623527 
L 607.53047 126.744567 
L 609.13959 126.223144 
L 609.94415 127.087064 
L 610.74871 126.406385 
L 611.55327 127.724121 
L 613.162389 132.362029 
L 613.966949 128.80049 
L 615.576069 125.824806 
L 616.380629 129.960572 
L 617.185189 150.027149 
L 617.989749 126.047191 
L 618.794308 126.508975 
L 619.598868 127.930712 
L 620.403428 125.35628 
L 621.207988 148.645396 
L 622.012548 125.271041 
L 622.817108 130.180328 
L 623.621668 131.534235 
L 624.426227 125.155571 
L 626.035347 125.151762 
L 626.839907 126.021796 
L 627.644467 127.74377 
L 628.449027 125.138142 
L 629.253587 125.242352 
L 630.058146 125.068301 
L 630.862706 125.297919 
L 631.667266 124.983777 
L 633.276386 125.02081 
L 634.080946 126.829076 
L 634.885506 126.64929 
L 635.690066 125.84898 
L 636.494625 126.037909 
L 637.299185 125.803843 
L 638.103745 127.131052 
L 638.908305 127.549829 
L 639.712865 127.122941 
L 641.321985 127.218142 
L 642.126544 126.968654 
L 642.931104 126.586705 
L 643.735664 125.744135 
L 644.540224 125.492696 
L 645.344784 125.745838 
L 646.149344 125.215852 
L 646.953904 127.643985 
L 647.758463 126.90142 
L 648.563023 125.059214 
L 649.367583 124.928912 
L 650.172143 125.627781 
L 650.976703 133.825839 
L 651.781263 125.503624 
L 652.585823 145.03488 
L 653.390383 133.948063 
L 654.194942 125.727247 
L 654.999502 125.39994 
L 655.804062 147.379483 
L 656.608622 137.823014 
L 657.413182 125.19396 
L 658.217742 125.089417 
L 659.022302 125.785309 
L 659.826861 163.504738 
L 660.631421 130.437041 
L 661.435981 125.143226 
L 662.240541 126.315009 
L 663.045101 125.11636 
L 663.849661 130.562832 
L 664.654221 133.575904 
L 665.45878 131.88434 
L 666.26334 128.119804 
L 667.0679 125.339973 
L 667.87246 126.343145 
L 668.67702 127.634338 
L 669.48158 125.958152 
L 670.28614 125.651948 
L 671.0907 126.470866 
L 671.895259 131.081622 
L 672.699819 132.182765 
L 673.504379 128.112116 
L 674.308939 148.082199 
L 675.113499 149.801075 
L 675.918059 127.006108 
L 676.722619 126.459734 
L 677.527178 126.589957 
L 678.331738 127.399127 
L 679.940858 125.477378 
L 680.745418 126.15534 
L 681.549978 130.899458 
L 682.354538 125.209384 
L 683.159098 125.955562 
L 683.963657 126.493641 
L 684.768217 125.277062 
L 685.572777 126.396994 
L 686.377337 125.526071 
L 687.181897 125.351679 
L 687.986457 125.37603 
L 688.791017 124.921167 
L 689.595576 124.825856 
L 691.204696 124.901494 
L 692.009256 125.69507 
L 692.813816 125.409433 
L 693.618376 129.794366 
L 694.422936 125.851014 
L 695.227495 125.435281 
L 696.032055 124.872694 
L 696.836615 125.586596 
L 697.641175 124.864801 
L 698.445735 126.494078 
L 699.250295 126.036298 
L 700.054855 125.922754 
L 700.859415 124.914821 
L 701.663974 125.409492 
L 702.468534 125.470091 
L 703.273094 125.915576 
L 704.882214 124.975288 
L 705.686774 124.829706 
L 706.491334 125.951289 
L 707.295893 125.078675 
L 708.905013 125.430065 
L 709.709573 127.527527 
L 710.514133 127.515083 
L 711.318693 126.824341 
L 712.123253 125.234842 
L 712.927812 125.876665 
L 713.732372 124.876048 
L 714.536932 124.73417 
L 715.341492 124.770323 
L 716.146052 127.342775 
L 716.950612 125.162292 
L 717.755172 246.362575 
L 718.559732 126.647931 
L 719.364291 124.795227 
L 720.168851 124.847037 
L 720.973411 127.172788 
L 721.777971 128.056944 
L 722.582531 125.250215 
L 723.387091 124.947315 
L 724.191651 274.484764 
L 724.99621 172.198786 
L 725.80077 126.671004 
L 726.60533 126.742556 
L 727.40989 125.09666 
L 728.21445 124.8795 
L 729.01901 125.896187 
L 729.82357 125.156252 
L 730.628129 126.532753 
L 731.432689 125.643066 
L 732.237249 125.455985 
L 733.041809 125.087041 
L 733.846369 125.104676 
L 735.455489 126.54779 
L 736.260049 125.308366 
L 737.869168 124.922432 
L 738.673728 125.147754 
L 739.478288 126.061772 
L 740.282848 125.593844 
L 741.087408 125.705136 
L 741.891968 124.633024 
L 742.696527 124.671999 
L 743.501087 124.863708 
L 744.305647 125.807485 
L 745.110207 124.70703 
L 745.914767 124.692098 
L 746.719327 128.68729 
L 747.523887 125.166169 
L 748.328447 124.846943 
L 749.937566 124.813195 
L 750.742126 189.463791 
L 751.546686 126.38284 
L 752.351246 124.807173 
L 753.155806 184.546582 
L 753.960366 186.092809 
L 754.764925 125.446175 
L 755.569485 125.487698 
L 756.374045 125.342827 
L 757.178605 125.524877 
L 757.983165 125.49164 
L 758.787725 125.113727 
L 759.592285 125.011646 
L 760.396844 125.031546 
L 762.005964 124.913325 
L 762.810524 125.790503 
L 763.615084 125.931713 
L 764.419644 124.939059 
L 766.028764 125.084135 
L 766.833323 125.890825 
L 767.637883 125.314858 
L 769.247003 124.716062 
L 770.051563 125.645893 
L 771.660683 125.954194 
L 772.465242 126.232526 
L 773.269802 135.614256 
L 774.074362 125.696987 
L 774.878922 124.731064 
L 775.683482 125.295267 
L 776.488042 160.435718 
L 777.292602 133.717867 
L 778.097161 124.933592 
L 778.901721 130.367265 
L 779.706281 144.869337 
L 780.510841 125.117149 
L 781.315401 125.413848 
L 782.119961 161.791036 
L 782.924521 124.938025 
L 783.729081 125.28996 
L 784.53364 127.996242 
L 785.3382 128.264233 
L 786.14276 133.399228 
L 786.94732 127.885155 
L 787.75188 129.138902 
L 788.55644 187.344606 
L 789.361 235.392916 
L 790.165559 230.124506 
L 790.970119 287.731177 
L 791.774679 324.177146 
L 792.579239 328.246339 
L 793.383799 391.90911 
L 794.188359 367.476767 
L 794.992919 363.760458 
L 795.797478 394.766967 
L 796.440808 478.36 
M 798.860267 478.36 
L 799.015718 470.851098 
L 799.087925 478.36 
L 799.087925 478.36 
" clip-path="url(#pe5a869d7ac)" style="fill: none; stroke: #ff7f0e; stroke-width: 1.5; stroke-linecap: square"/>
   </g>
   <g id="patch_3">
    <path d="M 122.94 424.8504 
L 122.94 57.2832 
" style="fill: none; stroke: #000000; stroke-width: 0.8; stroke-linejoin: miter; stroke-linecap: square"/>
   </g>
   <g id="patch_4">
    <path d="M 885.168 424.8504 
L 885.168 57.2832 
" style="fill: none; stroke: #000000; stroke-width: 0.8; stroke-linejoin: miter; stroke-linecap: square"/>
   </g>
   <g id="patch_5">
    <path d="M 122.94 424.8504 
L 885.168 424.8504 
" style="fill: none; stroke: #000000; stroke-width: 0.8; stroke-linejoin: miter; stroke-linecap: square"/>
   </g>
   <g id="patch_6">
    <path d="M 122.94 57.2832 
L 885.168 57.2832 
" style="fill: none; stroke: #000000; stroke-width: 0.8; stroke-linejoin: miter; stroke-linecap: square"/>
   </g>
   <g id="text_13">
    <!-- Potencia -->
    <g transform="translate(478.493063 51.2832) scale(0.12 -0.12)">
     <use xlink:href="#DejaVuSans-50"/>
     <use xlink:href="#DejaVuSans-6f" x="56.677734"/>
     <use xlink:href="#DejaVuSans-74" x="117.859375"/>
     <use xlink:href="#DejaVuSans-65" x="157.068359"/>
     <use xlink:href="#DejaVuSans-6e" x="218.591797"/>
     <use xlink:href="#DejaVuSans-63" x="281.970703"/>
     <use xlink:href="#DejaVuSans-69" x="336.951172"/>
     <use xlink:href="#DejaVuSans-61" x="364.734375"/>
    </g>
   </g>
   <g id="legend_1">
    <g id="patch_7">
     <path d="M 783.060187 94.63945 
L 878.168 94.63945 
Q 880.168 94.63945 880.168 92.63945 
L 880.168 64.2832 
Q 880.168 62.2832 878.168 62.2832 
L 783.060187 62.2832 
Q 781.060187 62.2832 781.060187 64.2832 
L 781.060187 92.63945 
Q 781.060187 94.63945 783.060187 94.63945 
z
" style="fill: #ffffff; opacity: 0.8; stroke: #cccccc; stroke-linejoin: miter"/>
    </g>
    <g id="line2d_13">
     <path d="M 785.060187 70.381638 
L 795.060187 70.381638 
L 805.060187 70.381638 
" style="fill: none; stroke: #1f77b4; stroke-width: 1.5; stroke-linecap: square"/>
    </g>
    <g id="text_14">
     <!-- predicciones -->
     <g transform="translate(813.060187 73.881638) scale(0.1 -0.1)">
      <defs>
       <path id="DejaVuSans-70" d="M 1159 525 
L 1159 -1331 
L 581 -1331 
L 581 3500 
L 1159 3500 
L 1159 2969 
Q 1341 3281 1617 3432 
Q 1894 3584 2278 3584 
Q 2916 3584 3314 3078 
Q 3713 2572 3713 1747 
Q 3713 922 3314 415 
Q 2916 -91 2278 -91 
Q 1894 -91 1617 61 
Q 1341 213 1159 525 
z
M 3116 1747 
Q 3116 2381 2855 2742 
Q 2594 3103 2138 3103 
Q 1681 3103 1420 2742 
Q 1159 2381 1159 1747 
Q 1159 1113 1420 752 
Q 1681 391 2138 391 
Q 2594 391 2855 752 
Q 3116 1113 3116 1747 
z
" transform="scale(0.015625)"/>
       <path id="DejaVuSans-72" d="M 2631 2963 
Q 2534 3019 2420 3045 
Q 2306 3072 2169 3072 
Q 1681 3072 1420 2755 
Q 1159 2438 1159 1844 
L 1159 0 
L 581 0 
L 581 3500 
L 1159 3500 
L 1159 2956 
Q 1341 3275 1631 3429 
Q 1922 3584 2338 3584 
Q 2397 3584 2469 3576 
Q 2541 3569 2628 3553 
L 2631 2963 
z
" transform="scale(0.015625)"/>
       <path id="DejaVuSans-64" d="M 2906 2969 
L 2906 4863 
L 3481 4863 
L 3481 0 
L 2906 0 
L 2906 525 
Q 2725 213 2448 61 
Q 2172 -91 1784 -91 
Q 1150 -91 751 415 
Q 353 922 353 1747 
Q 353 2572 751 3078 
Q 1150 3584 1784 3584 
Q 2172 3584 2448 3432 
Q 2725 3281 2906 2969 
z
M 947 1747 
Q 947 1113 1208 752 
Q 1469 391 1925 391 
Q 2381 391 2643 752 
Q 2906 1113 2906 1747 
Q 2906 2381 2643 2742 
Q 2381 3103 1925 3103 
Q 1469 3103 1208 2742 
Q 947 2381 947 1747 
z
" transform="scale(0.015625)"/>
      </defs>
      <use xlink:href="#DejaVuSans-70"/>
      <use xlink:href="#DejaVuSans-72" x="63.476562"/>
      <use xlink:href="#DejaVuSans-65" x="102.339844"/>
      <use xlink:href="#DejaVuSans-64" x="163.863281"/>
      <use xlink:href="#DejaVuSans-69" x="227.339844"/>
      <use xlink:href="#DejaVuSans-63" x="255.123047"/>
      <use xlink:href="#DejaVuSans-63" x="310.103516"/>
      <use xlink:href="#DejaVuSans-69" x="365.083984"/>
      <use xlink:href="#DejaVuSans-6f" x="392.867188"/>
      <use xlink:href="#DejaVuSans-6e" x="454.048828"/>
      <use xlink:href="#DejaVuSans-65" x="517.427734"/>
      <use xlink:href="#DejaVuSans-73" x="578.951172"/>
     </g>
    </g>
    <g id="line2d_14">
     <path d="M 785.060187 85.059763 
L 795.060187 85.059763 
L 805.060187 85.059763 
" style="fill: none; stroke: #ff7f0e; stroke-width: 1.5; stroke-linecap: square"/>
    </g>
    <g id="text_15">
     <!-- Real -->
     <g transform="translate(813.060187 88.559763) scale(0.1 -0.1)">
      <defs>
       <path id="DejaVuSans-52" d="M 2841 2188 
Q 3044 2119 3236 1894 
Q 3428 1669 3622 1275 
L 4263 0 
L 3584 0 
L 2988 1197 
Q 2756 1666 2539 1819 
Q 2322 1972 1947 1972 
L 1259 1972 
L 1259 0 
L 628 0 
L 628 4666 
L 2053 4666 
Q 2853 4666 3247 4331 
Q 3641 3997 3641 3322 
Q 3641 2881 3436 2590 
Q 3231 2300 2841 2188 
z
M 1259 4147 
L 1259 2491 
L 2053 2491 
Q 2509 2491 2742 2702 
Q 2975 2913 2975 3322 
Q 2975 3731 2742 3939 
Q 2509 4147 2053 4147 
L 1259 4147 
z
" transform="scale(0.015625)"/>
       <path id="DejaVuSans-6c" d="M 603 4863 
L 1178 4863 
L 1178 0 
L 603 0 
L 603 4863 
z
" transform="scale(0.015625)"/>
      </defs>
      <use xlink:href="#DejaVuSans-52"/>
      <use xlink:href="#DejaVuSans-65" x="64.982422"/>
      <use xlink:href="#DejaVuSans-61" x="126.505859"/>
      <use xlink:href="#DejaVuSans-6c" x="187.785156"/>
     </g>
    </g>
   </g>
  </g>
 </g>
 <defs>
  <clipPath id="pe5a869d7ac">
   <rect x="122.94" y="57.2832" width="762.228" height="367.5672"/>
  </clipPath>
 </defs>
</svg>
