<?xml version="1.0" encoding="utf-8" standalone="no"?>
<!DOCTYPE svg PUBLIC "-//W3C//DTD SVG 1.1//EN"
  "http://www.w3.org/Graphics/SVG/1.1/DTD/svg11.dtd">
<svg xmlns:xlink="http://www.w3.org/1999/xlink" width="983.52pt" height="477.36pt" viewBox="0 0 983.52 477.36" xmlns="http://www.w3.org/2000/svg" version="1.1">
 <metadata>
  <rdf:RDF xmlns:dc="http://purl.org/dc/elements/1.1/" xmlns:cc="http://creativecommons.org/ns#" xmlns:rdf="http://www.w3.org/1999/02/22-rdf-syntax-ns#">
   <cc:Work>
    <dc:type rdf:resource="http://purl.org/dc/dcmitype/StillImage"/>
    <dc:date>2024-05-04T20:01:59.699208</dc:date>
    <dc:format>image/svg+xml</dc:format>
    <dc:creator>
     <cc:Agent>
      <dc:title>Matplotlib v3.8.0, https://matplotlib.org/</dc:title>
     </cc:Agent>
    </dc:creator>
   </cc:Work>
  </rdf:RDF>
 </metadata>
 <defs>
  <style type="text/css">*{stroke-linejoin: round; stroke-linecap: butt}</style>
 </defs>
 <g id="figure_1">
  <g id="patch_1">
   <path d="M 0 477.36 
L 983.52 477.36 
L 983.52 0 
L 0 0 
z
" style="fill: #ffffff"/>
  </g>
  <g id="axes_1">
   <g id="patch_2">
    <path d="M 122.94 424.8504 
L 885.168 424.8504 
L 885.168 57.2832 
L 122.94 57.2832 
z
" style="fill: #ffffff"/>
   </g>
   <g id="matplotlib.axis_1">
    <g id="xtick_1">
     <g id="line2d_1">
      <defs>
       <path id="mce3459fca6" d="M 0 0 
L 0 3.5 
" style="stroke: #000000; stroke-width: 0.8"/>
      </defs>
      <g>
       <use xlink:href="#mce3459fca6" x="144.542118" y="424.8504" style="stroke: #000000; stroke-width: 0.8"/>
      </g>
     </g>
     <g id="text_1">
      <!-- 400 -->
      <g transform="translate(134.998368 439.448838) scale(0.1 -0.1)">
       <defs>
        <path id="DejaVuSans-34" d="M 2419 4116 
L 825 1625 
L 2419 1625 
L 2419 4116 
z
M 2253 4666 
L 3047 4666 
L 3047 1625 
L 3713 1625 
L 3713 1100 
L 3047 1100 
L 3047 0 
L 2419 0 
L 2419 1100 
L 313 1100 
L 313 1709 
L 2253 4666 
z
" transform="scale(0.015625)"/>
        <path id="DejaVuSans-30" d="M 2034 4250 
Q 1547 4250 1301 3770 
Q 1056 3291 1056 2328 
Q 1056 1369 1301 889 
Q 1547 409 2034 409 
Q 2525 409 2770 889 
Q 3016 1369 3016 2328 
Q 3016 3291 2770 3770 
Q 2525 4250 2034 4250 
z
M 2034 4750 
Q 2819 4750 3233 4129 
Q 3647 3509 3647 2328 
Q 3647 1150 3233 529 
Q 2819 -91 2034 -91 
Q 1250 -91 836 529 
Q 422 1150 422 2328 
Q 422 3509 836 4129 
Q 1250 4750 2034 4750 
z
" transform="scale(0.015625)"/>
       </defs>
       <use xlink:href="#DejaVuSans-34"/>
       <use xlink:href="#DejaVuSans-30" x="63.623047"/>
       <use xlink:href="#DejaVuSans-30" x="127.246094"/>
      </g>
     </g>
    </g>
    <g id="xtick_2">
     <g id="line2d_2">
      <g>
       <use xlink:href="#mce3459fca6" x="236.785613" y="424.8504" style="stroke: #000000; stroke-width: 0.8"/>
      </g>
     </g>
     <g id="text_2">
      <!-- 500 -->
      <g transform="translate(227.241863 439.448838) scale(0.1 -0.1)">
       <defs>
        <path id="DejaVuSans-35" d="M 691 4666 
L 3169 4666 
L 3169 4134 
L 1269 4134 
L 1269 2991 
Q 1406 3038 1543 3061 
Q 1681 3084 1819 3084 
Q 2600 3084 3056 2656 
Q 3513 2228 3513 1497 
Q 3513 744 3044 326 
Q 2575 -91 1722 -91 
Q 1428 -91 1123 -41 
Q 819 9 494 109 
L 494 744 
Q 775 591 1075 516 
Q 1375 441 1709 441 
Q 2250 441 2565 725 
Q 2881 1009 2881 1497 
Q 2881 1984 2565 2268 
Q 2250 2553 1709 2553 
Q 1456 2553 1204 2497 
Q 953 2441 691 2322 
L 691 4666 
z
" transform="scale(0.015625)"/>
       </defs>
       <use xlink:href="#DejaVuSans-35"/>
       <use xlink:href="#DejaVuSans-30" x="63.623047"/>
       <use xlink:href="#DejaVuSans-30" x="127.246094"/>
      </g>
     </g>
    </g>
    <g id="xtick_3">
     <g id="line2d_3">
      <g>
       <use xlink:href="#mce3459fca6" x="329.029108" y="424.8504" style="stroke: #000000; stroke-width: 0.8"/>
      </g>
     </g>
     <g id="text_3">
      <!-- 600 -->
      <g transform="translate(319.485358 439.448838) scale(0.1 -0.1)">
       <defs>
        <path id="DejaVuSans-36" d="M 2113 2584 
Q 1688 2584 1439 2293 
Q 1191 2003 1191 1497 
Q 1191 994 1439 701 
Q 1688 409 2113 409 
Q 2538 409 2786 701 
Q 3034 994 3034 1497 
Q 3034 2003 2786 2293 
Q 2538 2584 2113 2584 
z
M 3366 4563 
L 3366 3988 
Q 3128 4100 2886 4159 
Q 2644 4219 2406 4219 
Q 1781 4219 1451 3797 
Q 1122 3375 1075 2522 
Q 1259 2794 1537 2939 
Q 1816 3084 2150 3084 
Q 2853 3084 3261 2657 
Q 3669 2231 3669 1497 
Q 3669 778 3244 343 
Q 2819 -91 2113 -91 
Q 1303 -91 875 529 
Q 447 1150 447 2328 
Q 447 3434 972 4092 
Q 1497 4750 2381 4750 
Q 2619 4750 2861 4703 
Q 3103 4656 3366 4563 
z
" transform="scale(0.015625)"/>
       </defs>
       <use xlink:href="#DejaVuSans-36"/>
       <use xlink:href="#DejaVuSans-30" x="63.623047"/>
       <use xlink:href="#DejaVuSans-30" x="127.246094"/>
      </g>
     </g>
    </g>
    <g id="xtick_4">
     <g id="line2d_4">
      <g>
       <use xlink:href="#mce3459fca6" x="421.272602" y="424.8504" style="stroke: #000000; stroke-width: 0.8"/>
      </g>
     </g>
     <g id="text_4">
      <!-- 700 -->
      <g transform="translate(411.728852 439.448838) scale(0.1 -0.1)">
       <defs>
        <path id="DejaVuSans-37" d="M 525 4666 
L 3525 4666 
L 3525 4397 
L 1831 0 
L 1172 0 
L 2766 4134 
L 525 4134 
L 525 4666 
z
" transform="scale(0.015625)"/>
       </defs>
       <use xlink:href="#DejaVuSans-37"/>
       <use xlink:href="#DejaVuSans-30" x="63.623047"/>
       <use xlink:href="#DejaVuSans-30" x="127.246094"/>
      </g>
     </g>
    </g>
    <g id="xtick_5">
     <g id="line2d_5">
      <g>
       <use xlink:href="#mce3459fca6" x="513.516097" y="424.8504" style="stroke: #000000; stroke-width: 0.8"/>
      </g>
     </g>
     <g id="text_5">
      <!-- 800 -->
      <g transform="translate(503.972347 439.448838) scale(0.1 -0.1)">
       <defs>
        <path id="DejaVuSans-38" d="M 2034 2216 
Q 1584 2216 1326 1975 
Q 1069 1734 1069 1313 
Q 1069 891 1326 650 
Q 1584 409 2034 409 
Q 2484 409 2743 651 
Q 3003 894 3003 1313 
Q 3003 1734 2745 1975 
Q 2488 2216 2034 2216 
z
M 1403 2484 
Q 997 2584 770 2862 
Q 544 3141 544 3541 
Q 544 4100 942 4425 
Q 1341 4750 2034 4750 
Q 2731 4750 3128 4425 
Q 3525 4100 3525 3541 
Q 3525 3141 3298 2862 
Q 3072 2584 2669 2484 
Q 3125 2378 3379 2068 
Q 3634 1759 3634 1313 
Q 3634 634 3220 271 
Q 2806 -91 2034 -91 
Q 1263 -91 848 271 
Q 434 634 434 1313 
Q 434 1759 690 2068 
Q 947 2378 1403 2484 
z
M 1172 3481 
Q 1172 3119 1398 2916 
Q 1625 2713 2034 2713 
Q 2441 2713 2670 2916 
Q 2900 3119 2900 3481 
Q 2900 3844 2670 4047 
Q 2441 4250 2034 4250 
Q 1625 4250 1398 4047 
Q 1172 3844 1172 3481 
z
" transform="scale(0.015625)"/>
       </defs>
       <use xlink:href="#DejaVuSans-38"/>
       <use xlink:href="#DejaVuSans-30" x="63.623047"/>
       <use xlink:href="#DejaVuSans-30" x="127.246094"/>
      </g>
     </g>
    </g>
    <g id="xtick_6">
     <g id="line2d_6">
      <g>
       <use xlink:href="#mce3459fca6" x="605.759592" y="424.8504" style="stroke: #000000; stroke-width: 0.8"/>
      </g>
     </g>
     <g id="text_6">
      <!-- 900 -->
      <g transform="translate(596.215842 439.448838) scale(0.1 -0.1)">
       <defs>
        <path id="DejaVuSans-39" d="M 703 97 
L 703 672 
Q 941 559 1184 500 
Q 1428 441 1663 441 
Q 2288 441 2617 861 
Q 2947 1281 2994 2138 
Q 2813 1869 2534 1725 
Q 2256 1581 1919 1581 
Q 1219 1581 811 2004 
Q 403 2428 403 3163 
Q 403 3881 828 4315 
Q 1253 4750 1959 4750 
Q 2769 4750 3195 4129 
Q 3622 3509 3622 2328 
Q 3622 1225 3098 567 
Q 2575 -91 1691 -91 
Q 1453 -91 1209 -44 
Q 966 3 703 97 
z
M 1959 2075 
Q 2384 2075 2632 2365 
Q 2881 2656 2881 3163 
Q 2881 3666 2632 3958 
Q 2384 4250 1959 4250 
Q 1534 4250 1286 3958 
Q 1038 3666 1038 3163 
Q 1038 2656 1286 2365 
Q 1534 2075 1959 2075 
z
" transform="scale(0.015625)"/>
       </defs>
       <use xlink:href="#DejaVuSans-39"/>
       <use xlink:href="#DejaVuSans-30" x="63.623047"/>
       <use xlink:href="#DejaVuSans-30" x="127.246094"/>
      </g>
     </g>
    </g>
    <g id="xtick_7">
     <g id="line2d_7">
      <g>
       <use xlink:href="#mce3459fca6" x="698.003086" y="424.8504" style="stroke: #000000; stroke-width: 0.8"/>
      </g>
     </g>
     <g id="text_7">
      <!-- 1000 -->
      <g transform="translate(685.278086 439.448838) scale(0.1 -0.1)">
       <defs>
        <path id="DejaVuSans-31" d="M 794 531 
L 1825 531 
L 1825 4091 
L 703 3866 
L 703 4441 
L 1819 4666 
L 2450 4666 
L 2450 531 
L 3481 531 
L 3481 0 
L 794 0 
L 794 531 
z
" transform="scale(0.015625)"/>
       </defs>
       <use xlink:href="#DejaVuSans-31"/>
       <use xlink:href="#DejaVuSans-30" x="63.623047"/>
       <use xlink:href="#DejaVuSans-30" x="127.246094"/>
       <use xlink:href="#DejaVuSans-30" x="190.869141"/>
      </g>
     </g>
    </g>
    <g id="xtick_8">
     <g id="line2d_8">
      <g>
       <use xlink:href="#mce3459fca6" x="790.246581" y="424.8504" style="stroke: #000000; stroke-width: 0.8"/>
      </g>
     </g>
     <g id="text_8">
      <!-- 1100 -->
      <g transform="translate(777.521581 439.448838) scale(0.1 -0.1)">
       <use xlink:href="#DejaVuSans-31"/>
       <use xlink:href="#DejaVuSans-31" x="63.623047"/>
       <use xlink:href="#DejaVuSans-30" x="127.246094"/>
       <use xlink:href="#DejaVuSans-30" x="190.869141"/>
      </g>
     </g>
    </g>
    <g id="xtick_9">
     <g id="line2d_9">
      <g>
       <use xlink:href="#mce3459fca6" x="882.490076" y="424.8504" style="stroke: #000000; stroke-width: 0.8"/>
      </g>
     </g>
     <g id="text_9">
      <!-- 1200 -->
      <g transform="translate(869.765076 439.448838) scale(0.1 -0.1)">
       <defs>
        <path id="DejaVuSans-32" d="M 1228 531 
L 3431 531 
L 3431 0 
L 469 0 
L 469 531 
Q 828 903 1448 1529 
Q 2069 2156 2228 2338 
Q 2531 2678 2651 2914 
Q 2772 3150 2772 3378 
Q 2772 3750 2511 3984 
Q 2250 4219 1831 4219 
Q 1534 4219 1204 4116 
Q 875 4013 500 3803 
L 500 4441 
Q 881 4594 1212 4672 
Q 1544 4750 1819 4750 
Q 2544 4750 2975 4387 
Q 3406 4025 3406 3419 
Q 3406 3131 3298 2873 
Q 3191 2616 2906 2266 
Q 2828 2175 2409 1742 
Q 1991 1309 1228 531 
z
" transform="scale(0.015625)"/>
       </defs>
       <use xlink:href="#DejaVuSans-31"/>
       <use xlink:href="#DejaVuSans-32" x="63.623047"/>
       <use xlink:href="#DejaVuSans-30" x="127.246094"/>
       <use xlink:href="#DejaVuSans-30" x="190.869141"/>
      </g>
     </g>
    </g>
    <g id="text_10">
     <!-- Instante -->
     <g transform="translate(483.575875 453.126963) scale(0.1 -0.1)">
      <defs>
       <path id="DejaVuSans-49" d="M 628 4666 
L 1259 4666 
L 1259 0 
L 628 0 
L 628 4666 
z
" transform="scale(0.015625)"/>
       <path id="DejaVuSans-6e" d="M 3513 2113 
L 3513 0 
L 2938 0 
L 2938 2094 
Q 2938 2591 2744 2837 
Q 2550 3084 2163 3084 
Q 1697 3084 1428 2787 
Q 1159 2491 1159 1978 
L 1159 0 
L 581 0 
L 581 3500 
L 1159 3500 
L 1159 2956 
Q 1366 3272 1645 3428 
Q 1925 3584 2291 3584 
Q 2894 3584 3203 3211 
Q 3513 2838 3513 2113 
z
" transform="scale(0.015625)"/>
       <path id="DejaVuSans-73" d="M 2834 3397 
L 2834 2853 
Q 2591 2978 2328 3040 
Q 2066 3103 1784 3103 
Q 1356 3103 1142 2972 
Q 928 2841 928 2578 
Q 928 2378 1081 2264 
Q 1234 2150 1697 2047 
L 1894 2003 
Q 2506 1872 2764 1633 
Q 3022 1394 3022 966 
Q 3022 478 2636 193 
Q 2250 -91 1575 -91 
Q 1294 -91 989 -36 
Q 684 19 347 128 
L 347 722 
Q 666 556 975 473 
Q 1284 391 1588 391 
Q 1994 391 2212 530 
Q 2431 669 2431 922 
Q 2431 1156 2273 1281 
Q 2116 1406 1581 1522 
L 1381 1569 
Q 847 1681 609 1914 
Q 372 2147 372 2553 
Q 372 3047 722 3315 
Q 1072 3584 1716 3584 
Q 2034 3584 2315 3537 
Q 2597 3491 2834 3397 
z
" transform="scale(0.015625)"/>
       <path id="DejaVuSans-74" d="M 1172 4494 
L 1172 3500 
L 2356 3500 
L 2356 3053 
L 1172 3053 
L 1172 1153 
Q 1172 725 1289 603 
Q 1406 481 1766 481 
L 2356 481 
L 2356 0 
L 1766 0 
Q 1100 0 847 248 
Q 594 497 594 1153 
L 594 3053 
L 172 3053 
L 172 3500 
L 594 3500 
L 594 4494 
L 1172 4494 
z
" transform="scale(0.015625)"/>
       <path id="DejaVuSans-61" d="M 2194 1759 
Q 1497 1759 1228 1600 
Q 959 1441 959 1056 
Q 959 750 1161 570 
Q 1363 391 1709 391 
Q 2188 391 2477 730 
Q 2766 1069 2766 1631 
L 2766 1759 
L 2194 1759 
z
M 3341 1997 
L 3341 0 
L 2766 0 
L 2766 531 
Q 2569 213 2275 61 
Q 1981 -91 1556 -91 
Q 1019 -91 701 211 
Q 384 513 384 1019 
Q 384 1609 779 1909 
Q 1175 2209 1959 2209 
L 2766 2209 
L 2766 2266 
Q 2766 2663 2505 2880 
Q 2244 3097 1772 3097 
Q 1472 3097 1187 3025 
Q 903 2953 641 2809 
L 641 3341 
Q 956 3463 1253 3523 
Q 1550 3584 1831 3584 
Q 2591 3584 2966 3190 
Q 3341 2797 3341 1997 
z
" transform="scale(0.015625)"/>
       <path id="DejaVuSans-65" d="M 3597 1894 
L 3597 1613 
L 953 1613 
Q 991 1019 1311 708 
Q 1631 397 2203 397 
Q 2534 397 2845 478 
Q 3156 559 3463 722 
L 3463 178 
Q 3153 47 2828 -22 
Q 2503 -91 2169 -91 
Q 1331 -91 842 396 
Q 353 884 353 1716 
Q 353 2575 817 3079 
Q 1281 3584 2069 3584 
Q 2775 3584 3186 3129 
Q 3597 2675 3597 1894 
z
M 3022 2063 
Q 3016 2534 2758 2815 
Q 2500 3097 2075 3097 
Q 1594 3097 1305 2825 
Q 1016 2553 972 2059 
L 3022 2063 
z
" transform="scale(0.015625)"/>
      </defs>
      <use xlink:href="#DejaVuSans-49"/>
      <use xlink:href="#DejaVuSans-6e" x="29.492188"/>
      <use xlink:href="#DejaVuSans-73" x="92.871094"/>
      <use xlink:href="#DejaVuSans-74" x="144.970703"/>
      <use xlink:href="#DejaVuSans-61" x="184.179688"/>
      <use xlink:href="#DejaVuSans-6e" x="245.458984"/>
      <use xlink:href="#DejaVuSans-74" x="308.837891"/>
      <use xlink:href="#DejaVuSans-65" x="348.046875"/>
     </g>
    </g>
   </g>
   <g id="matplotlib.axis_2">
    <g id="ytick_1">
     <g id="line2d_10">
      <defs>
       <path id="mfbb76bf0fc" d="M 0 0 
L -3.5 0 
" style="stroke: #000000; stroke-width: 0.8"/>
      </defs>
      <g>
       <use xlink:href="#mfbb76bf0fc" x="122.94" y="366.282411" style="stroke: #000000; stroke-width: 0.8"/>
      </g>
     </g>
     <g id="text_11">
      <!-- 10 -->
      <g transform="translate(103.215 370.08163) scale(0.1 -0.1)">
       <use xlink:href="#DejaVuSans-31"/>
       <use xlink:href="#DejaVuSans-30" x="63.623047"/>
      </g>
     </g>
    </g>
    <g id="ytick_2">
     <g id="line2d_11">
      <g>
       <use xlink:href="#mfbb76bf0fc" x="122.94" y="295.124268" style="stroke: #000000; stroke-width: 0.8"/>
      </g>
     </g>
     <g id="text_12">
      <!-- 20 -->
      <g transform="translate(103.215 298.923487) scale(0.1 -0.1)">
       <use xlink:href="#DejaVuSans-32"/>
       <use xlink:href="#DejaVuSans-30" x="63.623047"/>
      </g>
     </g>
    </g>
    <g id="ytick_3">
     <g id="line2d_12">
      <g>
       <use xlink:href="#mfbb76bf0fc" x="122.94" y="223.966124" style="stroke: #000000; stroke-width: 0.8"/>
      </g>
     </g>
     <g id="text_13">
      <!-- 30 -->
      <g transform="translate(103.215 227.765343) scale(0.1 -0.1)">
       <defs>
        <path id="DejaVuSans-33" d="M 2597 2516 
Q 3050 2419 3304 2112 
Q 3559 1806 3559 1356 
Q 3559 666 3084 287 
Q 2609 -91 1734 -91 
Q 1441 -91 1130 -33 
Q 819 25 488 141 
L 488 750 
Q 750 597 1062 519 
Q 1375 441 1716 441 
Q 2309 441 2620 675 
Q 2931 909 2931 1356 
Q 2931 1769 2642 2001 
Q 2353 2234 1838 2234 
L 1294 2234 
L 1294 2753 
L 1863 2753 
Q 2328 2753 2575 2939 
Q 2822 3125 2822 3475 
Q 2822 3834 2567 4026 
Q 2313 4219 1838 4219 
Q 1578 4219 1281 4162 
Q 984 4106 628 3988 
L 628 4550 
Q 988 4650 1302 4700 
Q 1616 4750 1894 4750 
Q 2613 4750 3031 4423 
Q 3450 4097 3450 3541 
Q 3450 3153 3228 2886 
Q 3006 2619 2597 2516 
z
" transform="scale(0.015625)"/>
       </defs>
       <use xlink:href="#DejaVuSans-33"/>
       <use xlink:href="#DejaVuSans-30" x="63.623047"/>
      </g>
     </g>
    </g>
    <g id="ytick_4">
     <g id="line2d_13">
      <g>
       <use xlink:href="#mfbb76bf0fc" x="122.94" y="152.807981" style="stroke: #000000; stroke-width: 0.8"/>
      </g>
     </g>
     <g id="text_14">
      <!-- 40 -->
      <g transform="translate(103.215 156.6072) scale(0.1 -0.1)">
       <use xlink:href="#DejaVuSans-34"/>
       <use xlink:href="#DejaVuSans-30" x="63.623047"/>
      </g>
     </g>
    </g>
    <g id="ytick_5">
     <g id="line2d_14">
      <g>
       <use xlink:href="#mfbb76bf0fc" x="122.94" y="81.649838" style="stroke: #000000; stroke-width: 0.8"/>
      </g>
     </g>
     <g id="text_15">
      <!-- 50 -->
      <g transform="translate(103.215 85.449056) scale(0.1 -0.1)">
       <use xlink:href="#DejaVuSans-35"/>
       <use xlink:href="#DejaVuSans-30" x="63.623047"/>
      </g>
     </g>
    </g>
    <g id="text_16">
     <!-- Potencia[W] maximas -->
     <g transform="translate(97.135312 295.623831) rotate(-90) scale(0.1 -0.1)">
      <defs>
       <path id="DejaVuSans-50" d="M 1259 4147 
L 1259 2394 
L 2053 2394 
Q 2494 2394 2734 2622 
Q 2975 2850 2975 3272 
Q 2975 3691 2734 3919 
Q 2494 4147 2053 4147 
L 1259 4147 
z
M 628 4666 
L 2053 4666 
Q 2838 4666 3239 4311 
Q 3641 3956 3641 3272 
Q 3641 2581 3239 2228 
Q 2838 1875 2053 1875 
L 1259 1875 
L 1259 0 
L 628 0 
L 628 4666 
z
" transform="scale(0.015625)"/>
       <path id="DejaVuSans-6f" d="M 1959 3097 
Q 1497 3097 1228 2736 
Q 959 2375 959 1747 
Q 959 1119 1226 758 
Q 1494 397 1959 397 
Q 2419 397 2687 759 
Q 2956 1122 2956 1747 
Q 2956 2369 2687 2733 
Q 2419 3097 1959 3097 
z
M 1959 3584 
Q 2709 3584 3137 3096 
Q 3566 2609 3566 1747 
Q 3566 888 3137 398 
Q 2709 -91 1959 -91 
Q 1206 -91 779 398 
Q 353 888 353 1747 
Q 353 2609 779 3096 
Q 1206 3584 1959 3584 
z
" transform="scale(0.015625)"/>
       <path id="DejaVuSans-63" d="M 3122 3366 
L 3122 2828 
Q 2878 2963 2633 3030 
Q 2388 3097 2138 3097 
Q 1578 3097 1268 2742 
Q 959 2388 959 1747 
Q 959 1106 1268 751 
Q 1578 397 2138 397 
Q 2388 397 2633 464 
Q 2878 531 3122 666 
L 3122 134 
Q 2881 22 2623 -34 
Q 2366 -91 2075 -91 
Q 1284 -91 818 406 
Q 353 903 353 1747 
Q 353 2603 823 3093 
Q 1294 3584 2113 3584 
Q 2378 3584 2631 3529 
Q 2884 3475 3122 3366 
z
" transform="scale(0.015625)"/>
       <path id="DejaVuSans-69" d="M 603 3500 
L 1178 3500 
L 1178 0 
L 603 0 
L 603 3500 
z
M 603 4863 
L 1178 4863 
L 1178 4134 
L 603 4134 
L 603 4863 
z
" transform="scale(0.015625)"/>
       <path id="DejaVuSans-5b" d="M 550 4863 
L 1875 4863 
L 1875 4416 
L 1125 4416 
L 1125 -397 
L 1875 -397 
L 1875 -844 
L 550 -844 
L 550 4863 
z
" transform="scale(0.015625)"/>
       <path id="DejaVuSans-57" d="M 213 4666 
L 850 4666 
L 1831 722 
L 2809 4666 
L 3519 4666 
L 4500 722 
L 5478 4666 
L 6119 4666 
L 4947 0 
L 4153 0 
L 3169 4050 
L 2175 0 
L 1381 0 
L 213 4666 
z
" transform="scale(0.015625)"/>
       <path id="DejaVuSans-5d" d="M 1947 4863 
L 1947 -844 
L 622 -844 
L 622 -397 
L 1369 -397 
L 1369 4416 
L 622 4416 
L 622 4863 
L 1947 4863 
z
" transform="scale(0.015625)"/>
       <path id="DejaVuSans-20" transform="scale(0.015625)"/>
       <path id="DejaVuSans-6d" d="M 3328 2828 
Q 3544 3216 3844 3400 
Q 4144 3584 4550 3584 
Q 5097 3584 5394 3201 
Q 5691 2819 5691 2113 
L 5691 0 
L 5113 0 
L 5113 2094 
Q 5113 2597 4934 2840 
Q 4756 3084 4391 3084 
Q 3944 3084 3684 2787 
Q 3425 2491 3425 1978 
L 3425 0 
L 2847 0 
L 2847 2094 
Q 2847 2600 2669 2842 
Q 2491 3084 2119 3084 
Q 1678 3084 1418 2786 
Q 1159 2488 1159 1978 
L 1159 0 
L 581 0 
L 581 3500 
L 1159 3500 
L 1159 2956 
Q 1356 3278 1631 3431 
Q 1906 3584 2284 3584 
Q 2666 3584 2933 3390 
Q 3200 3197 3328 2828 
z
" transform="scale(0.015625)"/>
       <path id="DejaVuSans-78" d="M 3513 3500 
L 2247 1797 
L 3578 0 
L 2900 0 
L 1881 1375 
L 863 0 
L 184 0 
L 1544 1831 
L 300 3500 
L 978 3500 
L 1906 2253 
L 2834 3500 
L 3513 3500 
z
" transform="scale(0.015625)"/>
      </defs>
      <use xlink:href="#DejaVuSans-50"/>
      <use xlink:href="#DejaVuSans-6f" x="56.677734"/>
      <use xlink:href="#DejaVuSans-74" x="117.859375"/>
      <use xlink:href="#DejaVuSans-65" x="157.068359"/>
      <use xlink:href="#DejaVuSans-6e" x="218.591797"/>
      <use xlink:href="#DejaVuSans-63" x="281.970703"/>
      <use xlink:href="#DejaVuSans-69" x="336.951172"/>
      <use xlink:href="#DejaVuSans-61" x="364.734375"/>
      <use xlink:href="#DejaVuSans-5b" x="426.013672"/>
      <use xlink:href="#DejaVuSans-57" x="465.027344"/>
      <use xlink:href="#DejaVuSans-5d" x="563.904297"/>
      <use xlink:href="#DejaVuSans-20" x="602.917969"/>
      <use xlink:href="#DejaVuSans-6d" x="634.705078"/>
      <use xlink:href="#DejaVuSans-61" x="732.117188"/>
      <use xlink:href="#DejaVuSans-78" x="793.396484"/>
      <use xlink:href="#DejaVuSans-69" x="852.576172"/>
      <use xlink:href="#DejaVuSans-6d" x="880.359375"/>
      <use xlink:href="#DejaVuSans-61" x="977.771484"/>
      <use xlink:href="#DejaVuSans-73" x="1039.050781"/>
     </g>
    </g>
   </g>
   <g id="line2d_15">
    <path d="M 122.40368 202.486667 
L 123.326115 235.751313 
L 124.24855 197.14284 
L 125.170984 190.963178 
L 126.093419 178.58129 
L 127.938289 263.376314 
L 128.860724 277.573528 
L 130.705594 285.841917 
L 131.628029 319.2989 
L 132.550464 314.656037 
L 133.472899 289.486479 
L 134.395334 286.719707 
L 135.317769 281.586202 
L 136.240204 285.835306 
L 137.162639 284.427012 
L 138.085074 283.516754 
L 139.007509 285.943551 
L 139.929944 282.299197 
L 140.852379 285.717942 
L 141.774814 299.641084 
L 142.697248 332.903184 
L 143.619683 334.742422 
L 144.542118 302.08238 
L 145.464553 311.4475 
L 146.386988 302.483043 
L 147.309423 313.501999 
L 149.154293 279.410073 
L 150.076728 290.66678 
L 150.999163 336.297047 
L 151.921598 334.746719 
L 152.844033 320.780239 
L 153.766468 304.802396 
L 154.688903 334.121142 
L 155.611338 310.227124 
L 156.533773 358.740641 
L 157.456208 316.821292 
L 158.378643 359.527969 
L 159.301078 314.647171 
L 160.223512 342.792518 
L 161.145947 332.044403 
L 162.068382 332.363937 
L 162.990817 351.16888 
L 163.913252 338.071789 
L 164.835687 374.435193 
L 165.758122 333.056538 
L 166.680557 370.906803 
L 167.602992 336.791473 
L 168.525427 371.79254 
L 169.447862 364.883879 
L 170.370297 372.698349 
L 171.292732 372.480232 
L 172.215167 357.69539 
L 173.137602 321.069311 
L 174.060037 348.965316 
L 174.982472 352.706787 
L 175.904907 318.108775 
L 176.827341 397.108588 
L 177.749776 325.092636 
L 178.672211 333.422092 
L 179.594646 352.39633 
L 180.517081 304.25284 
L 181.439516 359.423458 
L 182.361951 273.587108 
L 183.284386 434.6041 
L 184.206821 247.06187 
L 185.129256 420.518644 
L 186.051691 264.866729 
L 186.974126 290.750702 
L 187.896561 202.988878 
L 188.818996 221.490943 
L 189.741431 136.403822 
L 190.663866 210.541353 
L 191.586301 140.392516 
L 192.508736 150.608367 
L 193.431171 68.457899 
L 194.353605 70.450334 
L 195.27604 69.57564 
L 196.198475 69.814679 
L 198.043345 69.791302 
L 200.81065 69.81267 
L 201.733085 69.793974 
L 202.65552 69.921794 
L 209.112565 69.840479 
L 210.035 69.878495 
L 211.879869 69.776647 
L 221.104219 69.90592 
L 222.949089 70.058915 
L 223.871524 70.716235 
L 224.793959 71.594635 
L 225.716394 71.570137 
L 226.638829 70.669404 
L 227.561264 70.017431 
L 228.483699 69.819075 
L 230.328568 69.791908 
L 234.940743 69.779966 
L 236.785613 69.891616 
L 238.630483 69.74887 
L 239.552918 70.308188 
L 240.475353 70.090338 
L 241.397788 70.051844 
L 242.320223 70.341225 
L 243.242658 69.870035 
L 244.165093 69.732875 
L 245.087528 69.801851 
L 246.932397 70.596879 
L 247.854832 70.633123 
L 248.777267 70.402105 
L 249.699702 69.904424 
L 250.622137 69.837296 
L 251.544572 69.93923 
L 253.389442 69.772161 
L 256.156747 69.951111 
L 258.001617 69.839453 
L 258.924052 69.999889 
L 261.691357 70.072304 
L 262.613792 70.32217 
L 263.536226 70.320913 
L 265.381096 69.973783 
L 266.303531 69.883073 
L 269.070836 70.146394 
L 273.683011 69.895917 
L 274.605446 70.009694 
L 275.527881 69.866857 
L 276.450316 70.056884 
L 279.217621 69.848898 
L 280.140056 69.990958 
L 282.90736 70.008251 
L 283.829795 69.882804 
L 285.674665 69.999309 
L 286.5971 69.827686 
L 289.364405 70.09197 
L 290.28684 69.905061 
L 291.209275 69.835101 
L 292.13171 70.008458 
L 293.97658 69.796472 
L 295.82145 70.226851 
L 296.743885 69.944254 
L 297.66632 69.960918 
L 298.588754 70.519335 
L 299.511189 70.064159 
L 301.356059 69.976941 
L 302.278494 70.129532 
L 303.200929 70.024907 
L 304.123364 70.159703 
L 305.045799 69.906052 
L 305.968234 71.727292 
L 307.813104 94.450295 
L 308.735539 107.871478 
L 309.657974 114.239259 
L 310.580409 114.880966 
L 311.502844 113.927194 
L 312.425279 109.468982 
L 313.347714 103.066882 
L 314.270149 98.66096 
L 315.192584 89.932691 
L 316.115018 77.105825 
L 317.037453 71.782964 
L 317.959888 69.915816 
L 321.649628 69.847849 
L 322.572063 69.87844 
L 323.494498 70.093712 
L 324.416933 69.906619 
L 326.261803 69.942952 
L 329.951543 70.3303 
L 330.873978 70.114571 
L 331.796413 70.321107 
L 332.718847 70.234758 
L 333.641282 69.989604 
L 334.563717 70.428799 
L 335.486152 70.35653 
L 336.408587 70.104587 
L 337.331022 70.236208 
L 338.253457 70.481294 
L 340.098327 70.216069 
L 341.020762 70.318467 
L 341.943197 69.910886 
L 342.865632 70.069343 
L 346.555372 70.039433 
L 347.477807 69.864828 
L 348.400242 70.20047 
L 349.322677 70.160063 
L 350.245111 69.86465 
L 353.934851 69.846359 
L 356.702156 69.872128 
L 357.624591 70.014513 
L 358.547026 69.985079 
L 359.469461 69.830887 
L 361.314331 70.178749 
L 362.236766 69.985315 
L 363.159201 70.035412 
L 364.081636 69.860189 
L 365.004071 69.97028 
L 366.848941 70.762289 
L 368.69381 70.163898 
L 369.616245 70.27437 
L 370.53868 70.93697 
L 371.461115 70.190748 
L 372.38355 70.543694 
L 373.305985 70.692524 
L 374.22842 71.094788 
L 375.150855 71.705055 
L 376.07329 72.006975 
L 376.995725 70.785377 
L 377.91816 70.350264 
L 378.840595 70.172474 
L 379.76303 71.318821 
L 380.685465 70.368023 
L 381.6079 70.492803 
L 382.530335 70.165241 
L 383.45277 70.878875 
L 384.375205 71.166694 
L 385.297639 71.189875 
L 386.220074 71.356333 
L 387.142509 71.377218 
L 388.064944 70.961196 
L 388.987379 71.295491 
L 389.909814 71.216006 
L 390.832249 70.433386 
L 391.754684 71.5172 
L 392.677119 70.358943 
L 393.599554 70.98593 
L 394.521989 70.341902 
L 395.444424 70.572473 
L 396.366859 70.514261 
L 397.289294 73.446032 
L 398.211729 71.155549 
L 399.134164 73.100694 
L 400.056599 72.086065 
L 400.979034 72.799086 
L 402.823903 70.651218 
L 403.746338 71.240547 
L 404.668773 71.20565 
L 405.591208 72.707534 
L 406.513643 71.18965 
L 407.436078 73.196818 
L 408.358513 71.157239 
L 409.280948 72.593071 
L 410.203383 71.965688 
L 411.125818 71.822687 
L 412.048253 77.701245 
L 412.970688 71.815827 
L 413.893123 74.398722 
L 414.815558 74.05494 
L 415.737993 72.098951 
L 416.660428 83.384199 
L 417.582863 72.18153 
L 418.505298 74.970605 
L 419.427732 70.764215 
L 420.350167 71.953358 
L 421.272602 71.502085 
L 422.195037 72.186489 
L 423.117472 70.771332 
L 424.039907 70.348046 
L 424.962342 70.606421 
L 425.884777 70.231848 
L 426.807212 70.424998 
L 427.729647 70.249046 
L 428.652082 70.303554 
L 429.574517 70.084088 
L 430.496952 70.511252 
L 433.264257 70.046109 
L 434.186692 70.060484 
L 435.109127 70.231544 
L 436.031562 70.946648 
L 437.876431 70.426145 
L 438.798866 69.896349 
L 439.721301 69.852981 
L 440.643736 70.064815 
L 441.566171 69.995966 
L 443.411041 70.204247 
L 445.255911 69.999553 
L 446.178346 70.186356 
L 447.100781 70.027429 
L 448.945651 70.531948 
L 449.868086 70.482236 
L 450.790521 70.009713 
L 451.712956 70.344191 
L 452.635391 70.330753 
L 453.557826 69.939771 
L 454.48026 70.002737 
L 457.247565 69.887488 
L 458.17 70.036255 
L 460.01487 69.844162 
L 463.70461 69.915989 
L 465.54948 69.881333 
L 466.471915 70.073158 
L 467.39435 70.057859 
L 468.316785 70.166957 
L 469.23922 69.9567 
L 470.161655 69.860856 
L 472.006524 70.066129 
L 472.928959 69.856926 
L 479.386004 69.808005 
L 480.308439 70.162866 
L 482.153309 69.908414 
L 483.998179 69.87943 
L 484.920614 69.837909 
L 485.843049 70.151493 
L 486.765484 70.276016 
L 487.687919 69.94069 
L 488.610353 69.993888 
L 489.532788 70.299855 
L 491.377658 69.875121 
L 492.300093 69.987878 
L 493.222528 69.887436 
L 494.144963 70.582423 
L 495.067398 70.079683 
L 495.989833 69.992091 
L 496.912268 70.265688 
L 497.834703 70.070593 
L 498.757138 70.600251 
L 499.679573 72.230138 
L 500.602008 72.876992 
L 501.524443 71.592742 
L 502.446878 74.594273 
L 503.369313 79.597038 
L 504.291748 83.267862 
L 505.214183 79.109787 
L 506.136617 71.884004 
L 507.059052 72.098979 
L 507.981487 79.057793 
L 508.903922 70.984431 
L 509.826357 71.258372 
L 510.748792 70.086765 
L 511.671227 69.730136 
L 513.516097 69.997502 
L 514.438532 70.455147 
L 515.360967 70.442731 
L 516.283402 70.09736 
L 518.128272 69.86073 
L 520.895577 69.842857 
L 522.740447 70.058165 
L 524.585316 69.865324 
L 528.275056 69.966296 
L 529.197491 70.289718 
L 530.119926 69.912454 
L 531.042361 70.349149 
L 531.964796 70.548266 
L 532.887231 78.96432 
L 533.809666 71.778766 
L 534.732101 70.461969 
L 535.654536 71.849079 
L 536.576971 72.521075 
L 537.499406 70.679365 
L 538.421841 70.163322 
L 539.344276 71.359189 
L 540.266711 71.149407 
L 541.189145 69.890462 
L 542.11158 70.235 
L 543.034015 70.181122 
L 544.878885 69.801357 
L 545.80132 72.11801 
L 546.723755 70.078265 
L 547.64619 70.618932 
L 548.568625 73.476843 
L 549.49106 72.76154 
L 550.413495 70.146366 
L 551.33593 88.990092 
L 552.258365 71.499663 
L 553.1808 69.592193 
L 554.103235 70.290933 
L 555.02567 70.009743 
L 555.948105 70.183982 
L 556.87054 70.476643 
L 557.792974 70.045252 
L 559.637844 69.92392 
L 560.560279 70.036921 
L 561.482714 69.966225 
L 562.405149 70.155606 
L 563.327584 70.5405 
L 564.250019 70.789121 
L 566.094889 70.087219 
L 567.017324 69.870915 
L 567.939759 70.433205 
L 568.862194 71.630636 
L 569.784629 70.091439 
L 570.707064 69.856838 
L 571.629499 70.044514 
L 572.551934 69.813743 
L 573.474369 71.436351 
L 574.396804 70.006991 
L 575.319238 70.151187 
L 576.241673 70.467044 
L 577.164108 69.834798 
L 579.008978 69.770172 
L 580.853848 70.006584 
L 581.776283 69.788666 
L 587.310893 69.747425 
L 588.233328 70.017042 
L 591.923068 69.870095 
L 593.767937 70.148386 
L 595.612807 70.07989 
L 597.457677 70.05733 
L 602.069852 69.777116 
L 602.992287 70.081731 
L 603.914722 70.050332 
L 604.837157 69.771013 
L 605.759592 69.72708 
L 606.682027 69.79621 
L 607.604462 70.740004 
L 608.526897 69.93904 
L 609.449332 71.370659 
L 611.294201 69.839147 
L 612.216636 69.776195 
L 613.139071 71.379561 
L 614.061506 71.232446 
L 614.983941 69.883186 
L 615.906376 69.714674 
L 616.828811 69.852776 
L 617.751246 71.981048 
L 618.673681 70.70535 
L 619.596116 69.777946 
L 620.518551 69.917661 
L 621.440986 69.782426 
L 622.363421 70.5449 
L 623.285856 70.901656 
L 624.208291 70.818741 
L 626.053161 69.814754 
L 626.975595 69.892843 
L 627.89803 70.169782 
L 628.820465 69.926808 
L 629.7429 69.831162 
L 630.665335 69.920592 
L 631.58777 70.627011 
L 632.510205 70.826818 
L 633.43264 70.312715 
L 634.355075 71.554014 
L 635.27751 71.811542 
L 636.199945 70.237436 
L 637.12238 69.946674 
L 638.96725 70.106949 
L 640.81212 69.824467 
L 641.734555 69.917218 
L 642.65699 70.604034 
L 643.579425 69.879709 
L 644.501859 69.847666 
L 645.424294 69.97564 
L 646.346729 69.796028 
L 647.269164 69.939149 
L 649.114034 69.786201 
L 655.571079 69.811385 
L 656.493514 70.387998 
L 657.415949 69.951246 
L 658.338384 69.787573 
L 659.260819 69.739937 
L 660.183254 69.819011 
L 661.105689 69.737104 
L 662.028123 69.939215 
L 663.872993 69.88853 
L 664.795428 69.750082 
L 668.485168 69.809304 
L 670.330038 69.722191 
L 671.252473 69.87638 
L 673.097343 69.770279 
L 674.019778 69.795075 
L 674.942213 70.133337 
L 675.864648 70.180937 
L 676.787083 70.057247 
L 677.709518 69.795827 
L 678.631953 69.869215 
L 680.476822 69.701449 
L 681.399257 69.713873 
L 682.321692 70.096594 
L 683.244127 69.815504 
L 684.166562 90.741051 
L 685.088997 71.292159 
L 686.011432 69.3932 
L 686.933867 69.812289 
L 688.778737 70.25613 
L 689.701172 69.821136 
L 690.623607 69.725021 
L 691.546042 105.678178 
L 692.468477 72.038253 
L 693.390912 70.360855 
L 694.313347 69.913829 
L 696.158217 69.716749 
L 697.080651 69.87432 
L 698.003086 69.778549 
L 698.925521 69.9492 
L 700.770391 69.801596 
L 702.615261 69.753983 
L 704.460131 69.969768 
L 706.305001 69.749387 
L 708.149871 69.754299 
L 709.072306 69.887943 
L 712.762046 69.691263 
L 715.52935 69.723372 
L 716.451785 69.693275 
L 717.37422 70.269572 
L 718.296655 69.841495 
L 719.21909 69.703661 
L 721.06396 69.714771 
L 721.986395 75.757707 
L 722.90883 70.448767 
L 723.831265 69.588213 
L 724.7537 74.533266 
L 725.676135 74.920427 
L 726.59857 70.287275 
L 727.521005 69.640421 
L 728.44344 69.833876 
L 734.900484 69.731241 
L 736.745354 69.882596 
L 737.667789 69.750311 
L 739.512659 69.755583 
L 740.435094 69.867659 
L 743.202399 69.707899 
L 745.047269 69.858918 
L 746.892139 69.931089 
L 747.814574 70.833588 
L 748.737008 69.999124 
L 749.659443 69.681555 
L 750.581878 69.783664 
L 751.504313 71.745254 
L 752.426748 70.971305 
L 753.349183 69.807486 
L 754.271618 70.164329 
L 755.194053 71.187278 
L 756.116488 69.928509 
L 757.038923 69.748707 
L 757.961358 71.835279 
L 758.883793 70.00608 
L 759.806228 69.703844 
L 760.728663 70.325551 
L 761.651098 70.408892 
L 762.573533 70.968155 
L 763.495968 70.292923 
L 764.418403 70.225362 
L 765.340838 75.161738 
L 766.263272 88.173479 
L 767.185707 87.039323 
L 768.108142 108.025244 
L 769.030577 118.614866 
L 769.953012 122.348334 
L 770.875447 137.99376 
L 771.797882 131.31276 
L 772.720317 146.057084 
L 773.642752 168.52512 
L 774.565187 164.298344 
L 775.487622 172.351215 
L 776.410057 170.411955 
L 777.332492 163.099956 
L 778.254927 171.433593 
L 779.177362 174.627996 
L 780.099797 173.874229 
L 781.022232 187.70535 
L 781.944667 205.654215 
L 782.867101 213.921113 
L 783.789536 184.728658 
L 784.711971 180.665109 
L 785.634406 191.492672 
L 786.556841 213.6906 
L 787.479276 206.215019 
L 788.401711 207.925849 
L 789.324146 219.662216 
L 790.246581 235.909431 
L 791.169016 247.142857 
L 792.091451 263.391327 
L 793.013886 228.778097 
L 793.936321 221.934243 
L 794.858756 219.316899 
L 796.703626 277.73636 
L 797.626061 282.951308 
L 798.548496 247.609628 
L 799.470931 224.079825 
L 800.393365 225.080971 
L 801.3158 241.170883 
L 802.238235 265.233612 
L 803.16067 248.31859 
L 804.083105 247.723738 
L 805.00554 273.459168 
L 805.927975 285.413395 
L 806.85041 267.148072 
L 807.772845 270.917785 
L 808.69528 279.954431 
L 809.617715 293.560699 
L 810.54015 294.447071 
L 811.462585 288.402786 
L 812.38502 296.08729 
L 813.307455 305.645656 
L 814.22989 303.573935 
L 815.152325 306.535221 
L 816.07476 287.225096 
L 816.997195 285.987872 
L 817.919629 324.34451 
L 818.842064 313.425803 
L 819.764499 319.389898 
L 820.686934 313.708117 
L 821.609369 302.635782 
L 822.531804 304.480401 
L 823.454239 300.147771 
L 824.376674 302.344489 
L 825.299109 307.74286 
L 826.221544 302.69713 
L 827.143979 296.392869 
L 828.066414 300.313999 
L 828.988849 301.874071 
L 829.911284 271.687033 
L 831.756154 312.900238 
L 832.678589 310.556596 
L 833.601024 307.237035 
L 834.523459 312.968522 
L 835.445893 313.817437 
L 836.368328 309.570345 
L 837.290763 299.306998 
L 838.213198 303.286774 
L 839.135633 304.33028 
L 840.058068 307.805907 
L 840.980503 313.513733 
L 841.902938 334.345909 
L 842.825373 350.595577 
L 843.747808 334.113909 
L 844.670243 336.498145 
L 845.592678 322.193523 
L 846.515113 319.913109 
L 847.437548 340.883359 
L 849.282418 347.27009 
L 850.204853 329.292047 
L 851.127288 337.132683 
L 852.049722 342.804548 
L 852.972157 350.214222 
L 853.894592 356.574377 
L 854.817027 324.870659 
L 855.739462 308.711472 
L 856.661897 314.86578 
L 857.584332 359.662063 
L 858.506767 368.095427 
L 859.429202 381.47852 
L 861.274072 336.536711 
L 862.196507 318.253744 
L 863.118942 342.670804 
L 864.041377 381.201567 
L 864.963812 374.47578 
L 865.886247 368.96367 
L 866.808682 365.525713 
L 867.731117 361.073284 
L 868.653552 345.850353 
L 869.575986 345.948083 
L 870.498421 331.014888 
L 871.420856 331.694365 
L 872.343291 362.723197 
L 873.265726 374.869379 
L 874.188161 394.949322 
L 875.110596 352.936407 
L 876.033031 378.710858 
L 876.955466 379.121149 
L 877.877901 370.456104 
L 878.800336 379.773853 
L 879.722771 392.338436 
L 880.645206 379.744936 
L 881.567641 393.489821 
L 882.490076 389.555713 
L 883.412511 366.881551 
L 884.334946 388.678146 
L 885.257381 386.464571 
L 885.257381 386.464571 
" clip-path="url(#p66a55b76c4)" style="fill: none; stroke: #1f77b4; stroke-width: 1.5; stroke-linecap: square"/>
   </g>
   <g id="line2d_16">
    <path d="M 122.40368 195.511375 
L 123.326115 156.844912 
L 124.24855 170.508509 
L 125.170984 150.457341 
L 127.015854 175.649758 
L 127.938289 198.948712 
L 128.860724 217.60943 
L 129.783159 217.503506 
L 131.628029 217.983356 
L 132.550464 217.601641 
L 133.472899 217.845885 
L 134.395334 217.7057 
L 135.317769 217.806648 
L 136.240204 218.120406 
L 137.162639 219.904964 
L 138.085074 234.887109 
L 139.007509 236.537175 
L 139.929944 235.716246 
L 140.852379 241.234514 
L 141.774814 229.224191 
L 143.619683 271.617149 
L 144.542118 271.711 
L 145.464553 271.982969 
L 146.386988 272.807502 
L 147.309423 282.700031 
L 148.231858 263.444403 
L 149.154293 246.570058 
L 150.076728 248.37384 
L 150.999163 262.96126 
L 151.921598 301.015281 
L 152.844033 317.461791 
L 153.766468 304.477899 
L 154.688903 296.556682 
L 155.611338 290.237304 
L 156.533773 278.960709 
L 157.456208 296.245584 
L 158.378643 295.045682 
L 159.301078 303.062563 
L 160.223512 294.195372 
L 161.145947 281.107709 
L 162.068382 304.202997 
L 162.990817 308.382215 
L 163.913252 308.505169 
L 164.835687 312.104485 
L 165.758122 319.016169 
L 166.680557 314.542201 
L 167.602992 320.790106 
L 168.525427 295.500394 
L 169.447862 279.661792 
L 170.370297 277.528435 
L 171.292732 277.423918 
L 172.215167 277.560887 
L 173.137602 282.531873 
L 174.060037 307.059666 
L 174.982472 318.770842 
L 175.904907 317.115249 
L 176.827341 290.638126 
L 177.749776 276.909152 
L 178.672211 281.627726 
L 179.594646 299.813194 
L 180.517081 300.088203 
L 181.439516 273.312253 
L 182.361951 240.680368 
L 183.284386 217.405303 
L 184.206821 217.044523 
L 186.051691 216.996087 
L 186.974126 196.391388 
L 188.818996 126.86901 
L 189.741431 110.266243 
L 192.508736 110.320828 
L 193.431171 65.135718 
L 194.353605 61.785064 
L 195.27604 61.885563 
L 197.12091 61.887168 
L 201.733085 61.902176 
L 202.65552 62.290641 
L 203.577955 62.091435 
L 204.50039 62.072922 
L 205.422825 62.238089 
L 206.34526 61.906815 
L 208.19013 61.995836 
L 210.957435 61.913395 
L 213.724739 61.878436 
L 216.492044 61.917675 
L 219.259349 61.904216 
L 222.949089 62.24154 
L 223.871524 63.455339 
L 224.793959 68.302944 
L 225.716394 67.279702 
L 226.638829 63.418522 
L 227.561264 62.389841 
L 228.483699 61.962735 
L 229.406133 62.061766 
L 230.328568 61.883264 
L 234.940743 61.879531 
L 236.785613 62.038429 
L 238.630483 61.843736 
L 239.552918 62.672741 
L 240.475353 62.344273 
L 241.397788 62.367107 
L 242.320223 62.658061 
L 243.242658 61.923555 
L 244.165093 61.830847 
L 245.087528 61.918553 
L 246.932397 63.070287 
L 247.854832 63.036587 
L 248.777267 62.793025 
L 249.699702 62.006042 
L 250.622137 61.984167 
L 251.544572 62.126462 
L 253.389442 61.871328 
L 255.234312 62.069508 
L 256.156747 62.147893 
L 257.079182 62.003522 
L 258.001617 61.986647 
L 258.924052 62.235711 
L 259.846487 62.230255 
L 260.768922 62.407382 
L 261.691357 62.335228 
L 262.613792 62.710854 
L 263.536226 62.670856 
L 264.458661 62.352152 
L 266.303531 62.023997 
L 268.148401 62.470054 
L 269.070836 62.370725 
L 269.993271 62.593502 
L 270.915706 62.11491 
L 271.838141 62.071866 
L 272.760576 62.332189 
L 273.683011 62.067805 
L 274.605446 62.233288 
L 275.527881 62.007394 
L 276.450316 62.318779 
L 277.372751 62.185259 
L 278.295186 62.363833 
L 279.217621 61.990967 
L 280.140056 62.237742 
L 284.75223 62.142232 
L 285.674665 62.174524 
L 286.5971 61.927504 
L 289.364405 62.367221 
L 290.28684 62.05064 
L 291.209275 61.980178 
L 292.13171 62.247865 
L 293.97658 61.906555 
L 294.899015 62.427971 
L 295.82145 62.555808 
L 296.743885 62.104425 
L 297.66632 62.235161 
L 298.588754 63.274423 
L 299.511189 62.232949 
L 300.433624 62.400809 
L 301.356059 62.18538 
L 302.278494 62.614805 
L 303.200929 62.365642 
L 304.123364 62.587218 
L 305.045799 62.039776 
L 305.968234 69.402083 
L 306.890669 81.378403 
L 307.813104 90.445234 
L 308.735539 96.423043 
L 309.657974 99.346702 
L 310.580409 99.513522 
L 311.502844 99.073225 
L 313.347714 93.974823 
L 314.270149 91.694477 
L 315.192584 85.146671 
L 317.037453 68.028939 
L 317.959888 62.024545 
L 318.882323 62.178206 
L 319.804758 61.920773 
L 322.572063 62.062217 
L 323.494498 62.366031 
L 324.416933 62.015542 
L 328.106673 62.331333 
L 329.029108 62.663547 
L 329.951543 62.678453 
L 330.873978 62.429658 
L 331.796413 62.809192 
L 333.641282 62.184014 
L 334.563717 62.986949 
L 336.408587 62.362512 
L 338.253457 62.871957 
L 340.098327 62.515537 
L 341.020762 62.646712 
L 341.943197 62.012288 
L 342.865632 62.364867 
L 344.710502 62.120216 
L 346.555372 62.408428 
L 347.477807 61.980483 
L 348.400242 62.901069 
L 349.322677 62.517826 
L 350.245111 61.986188 
L 353.012416 62.208553 
L 353.934851 61.95058 
L 356.702156 62.009444 
L 357.624591 62.211138 
L 358.547026 62.141843 
L 359.469461 61.942089 
L 360.391896 62.249137 
L 361.314331 62.410244 
L 362.236766 62.140166 
L 363.159201 62.249635 
L 364.081636 61.955611 
L 365.004071 62.177904 
L 366.848941 63.219718 
L 367.771375 62.647623 
L 368.69381 62.371324 
L 369.616245 62.53612 
L 370.53868 63.769625 
L 371.461115 62.313709 
L 372.38355 62.968942 
L 373.305985 63.110843 
L 374.22842 63.96294 
L 375.150855 66.059629 
L 376.07329 67.623764 
L 376.995725 63.068589 
L 377.91816 62.612185 
L 378.840595 62.388518 
L 379.76303 65.619521 
L 380.685465 62.479689 
L 381.6079 62.90445 
L 382.530335 62.318803 
L 383.45277 64.210684 
L 384.375205 65.041686 
L 385.297639 65.23899 
L 386.220074 65.83988 
L 387.142509 66.25804 
L 388.064944 64.027626 
L 388.987379 66.215207 
L 389.909814 65.137956 
L 390.832249 62.60141 
L 391.754684 67.943606 
L 392.677119 62.403121 
L 393.599554 64.801455 
L 394.521989 62.448992 
L 395.444424 63.088385 
L 396.366859 62.827266 
L 397.289294 73.358938 
L 398.211729 63.421081 
L 399.134164 72.9531 
L 400.056599 69.108783 
L 400.979034 72.521274 
L 401.901468 65.458277 
L 402.823903 62.976285 
L 403.746338 64.348875 
L 404.668773 64.064335 
L 405.591208 71.58395 
L 406.513643 63.723049 
L 407.436078 73.062699 
L 408.358513 63.468421 
L 409.280948 70.989722 
L 410.203383 66.931763 
L 411.125818 65.796833 
L 412.048253 77.071379 
L 412.970688 65.050192 
L 413.893123 74.351696 
L 414.815558 74.030248 
L 415.737993 67.600512 
L 416.660428 81.836192 
L 417.582863 65.425089 
L 418.505298 74.83919 
L 419.427732 62.545601 
L 420.350167 69.691202 
L 421.272602 66.09791 
L 422.195037 70.160514 
L 423.117472 62.924321 
L 424.039907 62.629342 
L 424.962342 63.080186 
L 425.884777 62.366166 
L 426.807212 62.757118 
L 427.729647 62.395206 
L 428.652082 62.555354 
L 429.574517 62.214442 
L 430.496952 62.983613 
L 431.419387 62.496037 
L 433.264257 62.209831 
L 434.186692 62.25251 
L 435.109127 62.478409 
L 436.031562 64.137938 
L 436.953996 63.000424 
L 437.876431 62.7081 
L 438.798866 61.952405 
L 439.721301 62.002765 
L 440.643736 62.275336 
L 441.566171 62.152878 
L 443.411041 62.454209 
L 444.333476 62.244314 
L 445.255911 62.176247 
L 446.178346 62.433312 
L 447.100781 62.180396 
L 448.023216 62.655612 
L 448.945651 62.875222 
L 449.868086 62.827716 
L 450.790521 62.126064 
L 451.712956 62.739818 
L 452.635391 62.598819 
L 453.557826 62.066814 
L 454.48026 62.226462 
L 455.402695 62.114576 
L 456.32513 62.192555 
L 457.247565 62.028094 
L 458.17 62.278511 
L 459.092435 62.033219 
L 460.01487 61.968608 
L 463.70461 62.095484 
L 464.627045 61.991077 
L 465.54948 62.041498 
L 466.471915 62.354195 
L 467.39435 62.30148 
L 468.316785 62.435208 
L 469.23922 62.151469 
L 470.161655 62.02476 
L 472.006524 62.27877 
L 472.928959 61.945516 
L 474.773829 61.954542 
L 475.696264 61.905611 
L 477.541134 62.003359 
L 478.463569 62.0191 
L 479.386004 61.915342 
L 480.308439 62.433592 
L 481.230874 62.159028 
L 483.998179 62.031753 
L 484.920614 61.973275 
L 485.843049 62.461195 
L 486.765484 62.594962 
L 487.687919 62.090045 
L 488.610353 62.23642 
L 489.532788 62.62405 
L 490.455223 62.249854 
L 491.377658 62.046224 
L 492.300093 62.209382 
L 493.222528 61.989779 
L 494.144963 63.248343 
L 495.067398 62.191774 
L 495.989833 62.266784 
L 496.912268 62.657226 
L 497.834703 62.437047 
L 498.757138 63.597978 
L 499.679573 70.805797 
L 500.602008 70.192318 
L 501.524443 68.020588 
L 503.369313 78.711712 
L 504.291748 81.502468 
L 505.214183 78.294319 
L 506.136617 67.080413 
L 507.059052 68.337163 
L 507.981487 78.293386 
L 508.903922 63.466907 
L 509.826357 66.66077 
L 510.748792 61.993881 
L 511.671227 61.894332 
L 512.593662 62.004769 
L 514.438532 62.852231 
L 515.360967 62.746382 
L 516.283402 62.277514 
L 519.050707 62.008259 
L 519.973142 62.078948 
L 520.895577 61.966764 
L 521.818012 62.217376 
L 522.740447 62.283423 
L 524.585316 62.014434 
L 526.430186 62.104291 
L 527.352621 62.274694 
L 528.275056 62.16019 
L 529.197491 62.705727 
L 530.119926 61.999953 
L 531.964796 63.416283 
L 532.887231 78.096796 
L 533.809666 65.508082 
L 534.732101 63.257363 
L 535.654536 69.608129 
L 536.576971 72.153156 
L 537.499406 62.808453 
L 538.421841 62.407752 
L 539.344276 66.389383 
L 540.266711 64.446452 
L 541.189145 61.865275 
L 542.11158 62.709772 
L 543.034015 62.660525 
L 544.878885 61.901166 
L 545.80132 70.998895 
L 546.723755 61.884887 
L 547.64619 63.44671 
L 548.568625 73.381664 
L 549.49106 72.403836 
L 550.413495 61.989179 
L 551.33593 85.975253 
L 552.258365 62.618106 
L 553.1808 61.975395 
L 554.103235 62.514386 
L 555.02567 62.195846 
L 556.87054 62.803066 
L 557.792974 62.19153 
L 559.637844 62.080772 
L 560.560279 62.264282 
L 561.482714 62.119695 
L 562.405149 62.399603 
L 564.250019 63.384767 
L 565.172454 62.62824 
L 567.017324 61.996158 
L 567.939759 62.87466 
L 568.862194 67.137114 
L 569.784629 62.043397 
L 570.707064 62.141487 
L 571.629499 62.443486 
L 572.551934 61.896636 
L 573.474369 66.843608 
L 574.396804 61.87853 
L 575.319238 62.921339 
L 576.241673 63.20893 
L 577.164108 61.854003 
L 579.008978 61.853193 
L 579.931413 62.038002 
L 580.853848 62.403776 
L 581.776283 61.8503 
L 584.543588 61.88424 
L 586.388458 61.829688 
L 587.310893 61.825377 
L 588.233328 62.209481 
L 589.155763 62.171292 
L 590.078198 62.001293 
L 591.923068 61.991706 
L 592.845502 62.273625 
L 593.767937 62.36258 
L 595.612807 62.280186 
L 597.457677 62.23913 
L 602.069852 61.866807 
L 602.992287 62.382581 
L 603.914722 62.224848 
L 604.837157 61.833535 
L 605.759592 61.805857 
L 606.682027 61.954307 
L 607.604462 63.695703 
L 608.526897 61.927934 
L 609.449332 66.076678 
L 610.371766 63.721665 
L 611.294201 61.975435 
L 612.216636 61.90591 
L 613.139071 66.574709 
L 614.061506 64.544765 
L 614.983941 61.862157 
L 615.906376 61.83995 
L 616.828811 61.987769 
L 617.751246 69.999965 
L 618.673681 62.975869 
L 619.596116 61.85138 
L 620.518551 62.100285 
L 621.440986 61.845673 
L 622.363421 63.002589 
L 623.285856 63.642613 
L 624.208291 63.283298 
L 625.130726 62.483652 
L 626.053161 61.893172 
L 627.89803 62.380531 
L 628.820465 62.024483 
L 629.7429 61.959441 
L 630.665335 62.133392 
L 631.58777 63.112788 
L 632.510205 63.346688 
L 633.43264 62.482019 
L 634.355075 66.723976 
L 635.27751 67.089093 
L 636.199945 62.247085 
L 637.12238 62.131027 
L 638.044815 62.158688 
L 638.96725 62.330569 
L 640.81212 61.922359 
L 641.734555 62.066369 
L 642.65699 63.074094 
L 643.579425 61.865433 
L 645.424294 62.138229 
L 646.346729 61.879809 
L 647.269164 62.1177 
L 648.191599 61.932703 
L 653.726209 61.800033 
L 654.648644 61.968601 
L 655.571079 61.907927 
L 656.493514 62.839355 
L 657.415949 62.001725 
L 659.260819 61.793915 
L 660.183254 61.945559 
L 661.105689 61.792238 
L 662.028123 62.138322 
L 664.795428 61.802863 
L 667.562733 62.015439 
L 670.330038 61.784784 
L 671.252473 62.023025 
L 672.174908 61.837669 
L 674.019778 61.912309 
L 674.942213 62.357843 
L 675.864648 62.3552 
L 676.787083 62.208475 
L 677.709518 61.870841 
L 678.631953 62.007174 
L 679.554387 61.794627 
L 681.399257 61.77217 
L 682.321692 62.318599 
L 683.244127 61.85543 
L 684.166562 87.600263 
L 685.088997 62.171003 
L 686.011432 61.77746 
L 686.933867 61.788465 
L 687.856302 62.282491 
L 688.778737 62.470299 
L 689.701172 61.874106 
L 690.623607 61.809766 
L 691.546042 93.573855 
L 692.468477 71.846716 
L 693.390912 62.175904 
L 694.313347 62.191103 
L 695.235782 61.841489 
L 696.158217 61.795361 
L 697.080651 62.011321 
L 698.003086 61.854147 
L 698.925521 62.146537 
L 699.847956 61.957554 
L 702.615261 61.843192 
L 704.460131 62.149731 
L 705.382566 61.886459 
L 708.149871 61.852342 
L 709.072306 62.046494 
L 709.994741 61.947099 
L 710.917176 61.970739 
L 711.839611 61.743005 
L 713.68448 61.792006 
L 714.606915 61.992479 
L 715.52935 61.758725 
L 716.451785 61.755554 
L 717.37422 62.604195 
L 718.296655 61.856254 
L 720.141525 61.788552 
L 721.06396 61.781277 
L 721.986395 75.514073 
L 722.90883 62.114694 
L 723.831265 61.779997 
L 724.7537 74.469581 
L 725.676135 74.798024 
L 726.59857 61.915731 
L 730.28831 61.925389 
L 732.133179 61.823431 
L 734.900484 61.802546 
L 735.822919 61.988872 
L 736.745354 62.018867 
L 737.667789 61.808012 
L 739.512659 61.838828 
L 740.435094 62.010182 
L 742.279964 61.822539 
L 743.202399 61.760644 
L 744.124834 61.958155 
L 746.892139 62.082765 
L 747.814574 64.075591 
L 748.737008 61.969008 
L 749.659443 61.763831 
L 750.581878 61.883676 
L 751.504313 69.348057 
L 752.426748 63.672768 
L 753.349183 61.806851 
L 754.271618 62.961048 
L 755.194053 66.041514 
L 756.116488 61.845841 
L 757.038923 61.908865 
L 757.961358 69.635947 
L 758.883793 61.807792 
L 759.806228 61.882549 
L 760.728663 62.457405 
L 761.651098 62.514331 
L 762.573533 63.605084 
L 763.495968 62.433809 
L 764.418403 62.700124 
L 765.340838 75.063925 
L 766.263272 85.270136 
L 767.185707 84.151044 
L 768.108142 96.387601 
L 769.030577 104.129294 
L 769.953012 104.993654 
L 770.875447 118.516621 
L 771.797882 113.326809 
L 772.720317 112.537407 
L 773.642752 119.123674 
L 774.565187 141.33023 
L 775.487622 149.023412 
L 776.410057 143.54033 
L 777.332492 135.285132 
L 778.254927 153.057261 
L 779.177362 140.536853 
L 780.099797 159.341146 
L 781.022232 172.458831 
L 781.944667 197.358853 
L 782.867101 208.909684 
L 783.789536 168.042228 
L 784.711971 156.636894 
L 785.634406 173.865496 
L 787.479276 203.018471 
L 788.401711 197.084926 
L 789.324146 207.658481 
L 790.246581 208.941809 
L 791.169016 205.084005 
L 792.091451 222.138318 
L 793.013886 187.293843 
L 793.936321 184.148384 
L 794.858756 196.128871 
L 795.781191 236.463618 
L 796.703626 255.740217 
L 797.626061 243.687815 
L 798.548496 222.168166 
L 799.470931 215.324856 
L 800.393365 217.716665 
L 801.3158 231.415079 
L 802.238235 249.730086 
L 803.16067 236.65394 
L 804.083105 237.483281 
L 805.00554 259.197982 
L 805.927975 251.283409 
L 806.85041 248.031242 
L 807.772845 254.154255 
L 809.617715 273.113873 
L 811.462585 247.266965 
L 812.38502 280.765241 
L 813.307455 298.655919 
L 814.22989 291.617872 
L 815.152325 299.880769 
L 816.07476 269.625893 
L 816.997195 270.377183 
L 817.919629 316.499711 
L 818.842064 309.584294 
L 819.764499 308.186593 
L 820.686934 279.890662 
L 821.609369 278.661398 
L 822.531804 286.690503 
L 823.454239 284.725136 
L 824.376674 289.954982 
L 825.299109 297.23675 
L 827.143979 280.82225 
L 828.066414 287.462221 
L 828.988849 283.60249 
L 829.911284 240.638199 
L 830.833719 259.782612 
L 831.756154 288.55882 
L 832.678589 307.042984 
L 833.601024 284.240197 
L 834.523459 305.450189 
L 835.445893 309.947582 
L 836.368328 275.96518 
L 837.290763 283.000848 
L 838.213198 293.927288 
L 839.135633 291.35489 
L 840.980503 311.637805 
L 841.902938 331.080739 
L 842.825373 333.14765 
L 843.747808 321.981406 
L 844.670243 334.120958 
L 845.592678 320.392199 
L 846.515113 319.494893 
L 847.437548 308.526481 
L 848.359983 329.967361 
L 849.282418 324.624992 
L 850.204853 321.200093 
L 851.127288 331.039516 
L 852.049722 326.175644 
L 852.972157 312.051199 
L 853.894592 327.551458 
L 855.739462 299.513253 
L 856.661897 313.979877 
L 858.506767 367.911043 
L 859.429202 371.997839 
L 860.351637 352.485473 
L 861.274072 325.132315 
L 862.196507 315.525736 
L 863.118942 340.277211 
L 864.041377 361.210903 
L 864.963812 366.347706 
L 865.886247 358.239657 
L 866.808682 351.397596 
L 867.731117 354.005936 
L 868.653552 341.970691 
L 869.575986 321.484985 
L 870.498421 315.049667 
L 871.420856 330.496703 
L 872.343291 357.537072 
L 873.265726 361.06863 
L 874.188161 353.979407 
L 875.110596 344.370573 
L 876.033031 360.3051 
L 876.955466 373.490879 
L 877.877901 363.282362 
L 879.722771 383.601752 
L 880.645206 373.45978 
L 881.567641 377.281536 
L 882.490076 347.459199 
L 883.412511 352.583073 
L 884.334946 380.166218 
L 885.257381 370.487413 
L 885.257381 370.487413 
" clip-path="url(#p66a55b76c4)" style="fill: none; stroke: #ff7f0e; stroke-width: 1.5; stroke-linecap: square"/>
   </g>
   <g id="patch_3">
    <path d="M 122.94 424.8504 
L 122.94 57.2832 
" style="fill: none; stroke: #000000; stroke-width: 0.8; stroke-linejoin: miter; stroke-linecap: square"/>
   </g>
   <g id="patch_4">
    <path d="M 885.168 424.8504 
L 885.168 57.2832 
" style="fill: none; stroke: #000000; stroke-width: 0.8; stroke-linejoin: miter; stroke-linecap: square"/>
   </g>
   <g id="patch_5">
    <path d="M 122.94 424.8504 
L 885.168 424.8504 
" style="fill: none; stroke: #000000; stroke-width: 0.8; stroke-linejoin: miter; stroke-linecap: square"/>
   </g>
   <g id="patch_6">
    <path d="M 122.94 57.2832 
L 885.168 57.2832 
" style="fill: none; stroke: #000000; stroke-width: 0.8; stroke-linejoin: miter; stroke-linecap: square"/>
   </g>
   <g id="text_17">
    <!-- Potencia -->
    <g transform="translate(478.493063 51.2832) scale(0.12 -0.12)">
     <use xlink:href="#DejaVuSans-50"/>
     <use xlink:href="#DejaVuSans-6f" x="56.677734"/>
     <use xlink:href="#DejaVuSans-74" x="117.859375"/>
     <use xlink:href="#DejaVuSans-65" x="157.068359"/>
     <use xlink:href="#DejaVuSans-6e" x="218.591797"/>
     <use xlink:href="#DejaVuSans-63" x="281.970703"/>
     <use xlink:href="#DejaVuSans-69" x="336.951172"/>
     <use xlink:href="#DejaVuSans-61" x="364.734375"/>
    </g>
   </g>
   <g id="legend_1">
    <g id="patch_7">
     <path d="M 783.060187 94.63945 
L 878.168 94.63945 
Q 880.168 94.63945 880.168 92.63945 
L 880.168 64.2832 
Q 880.168 62.2832 878.168 62.2832 
L 783.060187 62.2832 
Q 781.060187 62.2832 781.060187 64.2832 
L 781.060187 92.63945 
Q 781.060187 94.63945 783.060187 94.63945 
z
" style="fill: #ffffff; opacity: 0.8; stroke: #cccccc; stroke-linejoin: miter"/>
    </g>
    <g id="line2d_17">
     <path d="M 785.060187 70.381638 
L 795.060187 70.381638 
L 805.060187 70.381638 
" style="fill: none; stroke: #1f77b4; stroke-width: 1.5; stroke-linecap: square"/>
    </g>
    <g id="text_18">
     <!-- predicciones -->
     <g transform="translate(813.060187 73.881638) scale(0.1 -0.1)">
      <defs>
       <path id="DejaVuSans-70" d="M 1159 525 
L 1159 -1331 
L 581 -1331 
L 581 3500 
L 1159 3500 
L 1159 2969 
Q 1341 3281 1617 3432 
Q 1894 3584 2278 3584 
Q 2916 3584 3314 3078 
Q 3713 2572 3713 1747 
Q 3713 922 3314 415 
Q 2916 -91 2278 -91 
Q 1894 -91 1617 61 
Q 1341 213 1159 525 
z
M 3116 1747 
Q 3116 2381 2855 2742 
Q 2594 3103 2138 3103 
Q 1681 3103 1420 2742 
Q 1159 2381 1159 1747 
Q 1159 1113 1420 752 
Q 1681 391 2138 391 
Q 2594 391 2855 752 
Q 3116 1113 3116 1747 
z
" transform="scale(0.015625)"/>
       <path id="DejaVuSans-72" d="M 2631 2963 
Q 2534 3019 2420 3045 
Q 2306 3072 2169 3072 
Q 1681 3072 1420 2755 
Q 1159 2438 1159 1844 
L 1159 0 
L 581 0 
L 581 3500 
L 1159 3500 
L 1159 2956 
Q 1341 3275 1631 3429 
Q 1922 3584 2338 3584 
Q 2397 3584 2469 3576 
Q 2541 3569 2628 3553 
L 2631 2963 
z
" transform="scale(0.015625)"/>
       <path id="DejaVuSans-64" d="M 2906 2969 
L 2906 4863 
L 3481 4863 
L 3481 0 
L 2906 0 
L 2906 525 
Q 2725 213 2448 61 
Q 2172 -91 1784 -91 
Q 1150 -91 751 415 
Q 353 922 353 1747 
Q 353 2572 751 3078 
Q 1150 3584 1784 3584 
Q 2172 3584 2448 3432 
Q 2725 3281 2906 2969 
z
M 947 1747 
Q 947 1113 1208 752 
Q 1469 391 1925 391 
Q 2381 391 2643 752 
Q 2906 1113 2906 1747 
Q 2906 2381 2643 2742 
Q 2381 3103 1925 3103 
Q 1469 3103 1208 2742 
Q 947 2381 947 1747 
z
" transform="scale(0.015625)"/>
      </defs>
      <use xlink:href="#DejaVuSans-70"/>
      <use xlink:href="#DejaVuSans-72" x="63.476562"/>
      <use xlink:href="#DejaVuSans-65" x="102.339844"/>
      <use xlink:href="#DejaVuSans-64" x="163.863281"/>
      <use xlink:href="#DejaVuSans-69" x="227.339844"/>
      <use xlink:href="#DejaVuSans-63" x="255.123047"/>
      <use xlink:href="#DejaVuSans-63" x="310.103516"/>
      <use xlink:href="#DejaVuSans-69" x="365.083984"/>
      <use xlink:href="#DejaVuSans-6f" x="392.867188"/>
      <use xlink:href="#DejaVuSans-6e" x="454.048828"/>
      <use xlink:href="#DejaVuSans-65" x="517.427734"/>
      <use xlink:href="#DejaVuSans-73" x="578.951172"/>
     </g>
    </g>
    <g id="line2d_18">
     <path d="M 785.060187 85.059763 
L 795.060187 85.059763 
L 805.060187 85.059763 
" style="fill: none; stroke: #ff7f0e; stroke-width: 1.5; stroke-linecap: square"/>
    </g>
    <g id="text_19">
     <!-- Real -->
     <g transform="translate(813.060187 88.559763) scale(0.1 -0.1)">
      <defs>
       <path id="DejaVuSans-52" d="M 2841 2188 
Q 3044 2119 3236 1894 
Q 3428 1669 3622 1275 
L 4263 0 
L 3584 0 
L 2988 1197 
Q 2756 1666 2539 1819 
Q 2322 1972 1947 1972 
L 1259 1972 
L 1259 0 
L 628 0 
L 628 4666 
L 2053 4666 
Q 2853 4666 3247 4331 
Q 3641 3997 3641 3322 
Q 3641 2881 3436 2590 
Q 3231 2300 2841 2188 
z
M 1259 4147 
L 1259 2491 
L 2053 2491 
Q 2509 2491 2742 2702 
Q 2975 2913 2975 3322 
Q 2975 3731 2742 3939 
Q 2509 4147 2053 4147 
L 1259 4147 
z
" transform="scale(0.015625)"/>
       <path id="DejaVuSans-6c" d="M 603 4863 
L 1178 4863 
L 1178 0 
L 603 0 
L 603 4863 
z
" transform="scale(0.015625)"/>
      </defs>
      <use xlink:href="#DejaVuSans-52"/>
      <use xlink:href="#DejaVuSans-65" x="64.982422"/>
      <use xlink:href="#DejaVuSans-61" x="126.505859"/>
      <use xlink:href="#DejaVuSans-6c" x="187.785156"/>
     </g>
    </g>
   </g>
  </g>
 </g>
 <defs>
  <clipPath id="p66a55b76c4">
   <rect x="122.94" y="57.2832" width="762.228" height="367.5672"/>
  </clipPath>
 </defs>
</svg>
