<?xml version="1.0" encoding="utf-8" standalone="no"?>
<!DOCTYPE svg PUBLIC "-//W3C//DTD SVG 1.1//EN"
  "http://www.w3.org/Graphics/SVG/1.1/DTD/svg11.dtd">
<svg xmlns:xlink="http://www.w3.org/1999/xlink" width="983.52pt" height="477.36pt" viewBox="0 0 983.52 477.36" xmlns="http://www.w3.org/2000/svg" version="1.1">
 <metadata>
  <rdf:RDF xmlns:dc="http://purl.org/dc/elements/1.1/" xmlns:cc="http://creativecommons.org/ns#" xmlns:rdf="http://www.w3.org/1999/02/22-rdf-syntax-ns#">
   <cc:Work>
    <dc:type rdf:resource="http://purl.org/dc/dcmitype/StillImage"/>
    <dc:date>2024-05-04T20:02:23.808547</dc:date>
    <dc:format>image/svg+xml</dc:format>
    <dc:creator>
     <cc:Agent>
      <dc:title>Matplotlib v3.8.0, https://matplotlib.org/</dc:title>
     </cc:Agent>
    </dc:creator>
   </cc:Work>
  </rdf:RDF>
 </metadata>
 <defs>
  <style type="text/css">*{stroke-linejoin: round; stroke-linecap: butt}</style>
 </defs>
 <g id="figure_1">
  <g id="patch_1">
   <path d="M 0 477.36 
L 983.52 477.36 
L 983.52 0 
L 0 0 
z
" style="fill: #ffffff"/>
  </g>
  <g id="axes_1">
   <g id="patch_2">
    <path d="M 122.94 424.8504 
L 885.168 424.8504 
L 885.168 57.2832 
L 122.94 57.2832 
z
" style="fill: #ffffff"/>
   </g>
   <g id="matplotlib.axis_1">
    <g id="xtick_1">
     <g id="line2d_1">
      <defs>
       <path id="m8d0530b13d" d="M 0 0 
L 0 3.5 
" style="stroke: #000000; stroke-width: 0.8"/>
      </defs>
      <g>
       <use xlink:href="#m8d0530b13d" x="261.712464" y="424.8504" style="stroke: #000000; stroke-width: 0.8"/>
      </g>
     </g>
     <g id="text_1">
      <!-- 3300 -->
      <g transform="translate(248.987464 439.448838) scale(0.1 -0.1)">
       <defs>
        <path id="DejaVuSans-33" d="M 2597 2516 
Q 3050 2419 3304 2112 
Q 3559 1806 3559 1356 
Q 3559 666 3084 287 
Q 2609 -91 1734 -91 
Q 1441 -91 1130 -33 
Q 819 25 488 141 
L 488 750 
Q 750 597 1062 519 
Q 1375 441 1716 441 
Q 2309 441 2620 675 
Q 2931 909 2931 1356 
Q 2931 1769 2642 2001 
Q 2353 2234 1838 2234 
L 1294 2234 
L 1294 2753 
L 1863 2753 
Q 2328 2753 2575 2939 
Q 2822 3125 2822 3475 
Q 2822 3834 2567 4026 
Q 2313 4219 1838 4219 
Q 1578 4219 1281 4162 
Q 984 4106 628 3988 
L 628 4550 
Q 988 4650 1302 4700 
Q 1616 4750 1894 4750 
Q 2613 4750 3031 4423 
Q 3450 4097 3450 3541 
Q 3450 3153 3228 2886 
Q 3006 2619 2597 2516 
z
" transform="scale(0.015625)"/>
        <path id="DejaVuSans-30" d="M 2034 4250 
Q 1547 4250 1301 3770 
Q 1056 3291 1056 2328 
Q 1056 1369 1301 889 
Q 1547 409 2034 409 
Q 2525 409 2770 889 
Q 3016 1369 3016 2328 
Q 3016 3291 2770 3770 
Q 2525 4250 2034 4250 
z
M 2034 4750 
Q 2819 4750 3233 4129 
Q 3647 3509 3647 2328 
Q 3647 1150 3233 529 
Q 2819 -91 2034 -91 
Q 1250 -91 836 529 
Q 422 1150 422 2328 
Q 422 3509 836 4129 
Q 1250 4750 2034 4750 
z
" transform="scale(0.015625)"/>
       </defs>
       <use xlink:href="#DejaVuSans-33"/>
       <use xlink:href="#DejaVuSans-33" x="63.623047"/>
       <use xlink:href="#DejaVuSans-30" x="127.246094"/>
       <use xlink:href="#DejaVuSans-30" x="190.869141"/>
      </g>
     </g>
    </g>
    <g id="xtick_2">
     <g id="line2d_2">
      <g>
       <use xlink:href="#m8d0530b13d" x="403.299045" y="424.8504" style="stroke: #000000; stroke-width: 0.8"/>
      </g>
     </g>
     <g id="text_2">
      <!-- 3400 -->
      <g transform="translate(390.574045 439.448838) scale(0.1 -0.1)">
       <defs>
        <path id="DejaVuSans-34" d="M 2419 4116 
L 825 1625 
L 2419 1625 
L 2419 4116 
z
M 2253 4666 
L 3047 4666 
L 3047 1625 
L 3713 1625 
L 3713 1100 
L 3047 1100 
L 3047 0 
L 2419 0 
L 2419 1100 
L 313 1100 
L 313 1709 
L 2253 4666 
z
" transform="scale(0.015625)"/>
       </defs>
       <use xlink:href="#DejaVuSans-33"/>
       <use xlink:href="#DejaVuSans-34" x="63.623047"/>
       <use xlink:href="#DejaVuSans-30" x="127.246094"/>
       <use xlink:href="#DejaVuSans-30" x="190.869141"/>
      </g>
     </g>
    </g>
    <g id="xtick_3">
     <g id="line2d_3">
      <g>
       <use xlink:href="#m8d0530b13d" x="544.885626" y="424.8504" style="stroke: #000000; stroke-width: 0.8"/>
      </g>
     </g>
     <g id="text_3">
      <!-- 3500 -->
      <g transform="translate(532.160626 439.448838) scale(0.1 -0.1)">
       <defs>
        <path id="DejaVuSans-35" d="M 691 4666 
L 3169 4666 
L 3169 4134 
L 1269 4134 
L 1269 2991 
Q 1406 3038 1543 3061 
Q 1681 3084 1819 3084 
Q 2600 3084 3056 2656 
Q 3513 2228 3513 1497 
Q 3513 744 3044 326 
Q 2575 -91 1722 -91 
Q 1428 -91 1123 -41 
Q 819 9 494 109 
L 494 744 
Q 775 591 1075 516 
Q 1375 441 1709 441 
Q 2250 441 2565 725 
Q 2881 1009 2881 1497 
Q 2881 1984 2565 2268 
Q 2250 2553 1709 2553 
Q 1456 2553 1204 2497 
Q 953 2441 691 2322 
L 691 4666 
z
" transform="scale(0.015625)"/>
       </defs>
       <use xlink:href="#DejaVuSans-33"/>
       <use xlink:href="#DejaVuSans-35" x="63.623047"/>
       <use xlink:href="#DejaVuSans-30" x="127.246094"/>
       <use xlink:href="#DejaVuSans-30" x="190.869141"/>
      </g>
     </g>
    </g>
    <g id="xtick_4">
     <g id="line2d_4">
      <g>
       <use xlink:href="#m8d0530b13d" x="686.472207" y="424.8504" style="stroke: #000000; stroke-width: 0.8"/>
      </g>
     </g>
     <g id="text_4">
      <!-- 3600 -->
      <g transform="translate(673.747207 439.448838) scale(0.1 -0.1)">
       <defs>
        <path id="DejaVuSans-36" d="M 2113 2584 
Q 1688 2584 1439 2293 
Q 1191 2003 1191 1497 
Q 1191 994 1439 701 
Q 1688 409 2113 409 
Q 2538 409 2786 701 
Q 3034 994 3034 1497 
Q 3034 2003 2786 2293 
Q 2538 2584 2113 2584 
z
M 3366 4563 
L 3366 3988 
Q 3128 4100 2886 4159 
Q 2644 4219 2406 4219 
Q 1781 4219 1451 3797 
Q 1122 3375 1075 2522 
Q 1259 2794 1537 2939 
Q 1816 3084 2150 3084 
Q 2853 3084 3261 2657 
Q 3669 2231 3669 1497 
Q 3669 778 3244 343 
Q 2819 -91 2113 -91 
Q 1303 -91 875 529 
Q 447 1150 447 2328 
Q 447 3434 972 4092 
Q 1497 4750 2381 4750 
Q 2619 4750 2861 4703 
Q 3103 4656 3366 4563 
z
" transform="scale(0.015625)"/>
       </defs>
       <use xlink:href="#DejaVuSans-33"/>
       <use xlink:href="#DejaVuSans-36" x="63.623047"/>
       <use xlink:href="#DejaVuSans-30" x="127.246094"/>
       <use xlink:href="#DejaVuSans-30" x="190.869141"/>
      </g>
     </g>
    </g>
    <g id="xtick_5">
     <g id="line2d_5">
      <g>
       <use xlink:href="#m8d0530b13d" x="828.058788" y="424.8504" style="stroke: #000000; stroke-width: 0.8"/>
      </g>
     </g>
     <g id="text_5">
      <!-- 3700 -->
      <g transform="translate(815.333788 439.448838) scale(0.1 -0.1)">
       <defs>
        <path id="DejaVuSans-37" d="M 525 4666 
L 3525 4666 
L 3525 4397 
L 1831 0 
L 1172 0 
L 2766 4134 
L 525 4134 
L 525 4666 
z
" transform="scale(0.015625)"/>
       </defs>
       <use xlink:href="#DejaVuSans-33"/>
       <use xlink:href="#DejaVuSans-37" x="63.623047"/>
       <use xlink:href="#DejaVuSans-30" x="127.246094"/>
       <use xlink:href="#DejaVuSans-30" x="190.869141"/>
      </g>
     </g>
    </g>
    <g id="text_6">
     <!-- Instante -->
     <g transform="translate(483.575875 453.126963) scale(0.1 -0.1)">
      <defs>
       <path id="DejaVuSans-49" d="M 628 4666 
L 1259 4666 
L 1259 0 
L 628 0 
L 628 4666 
z
" transform="scale(0.015625)"/>
       <path id="DejaVuSans-6e" d="M 3513 2113 
L 3513 0 
L 2938 0 
L 2938 2094 
Q 2938 2591 2744 2837 
Q 2550 3084 2163 3084 
Q 1697 3084 1428 2787 
Q 1159 2491 1159 1978 
L 1159 0 
L 581 0 
L 581 3500 
L 1159 3500 
L 1159 2956 
Q 1366 3272 1645 3428 
Q 1925 3584 2291 3584 
Q 2894 3584 3203 3211 
Q 3513 2838 3513 2113 
z
" transform="scale(0.015625)"/>
       <path id="DejaVuSans-73" d="M 2834 3397 
L 2834 2853 
Q 2591 2978 2328 3040 
Q 2066 3103 1784 3103 
Q 1356 3103 1142 2972 
Q 928 2841 928 2578 
Q 928 2378 1081 2264 
Q 1234 2150 1697 2047 
L 1894 2003 
Q 2506 1872 2764 1633 
Q 3022 1394 3022 966 
Q 3022 478 2636 193 
Q 2250 -91 1575 -91 
Q 1294 -91 989 -36 
Q 684 19 347 128 
L 347 722 
Q 666 556 975 473 
Q 1284 391 1588 391 
Q 1994 391 2212 530 
Q 2431 669 2431 922 
Q 2431 1156 2273 1281 
Q 2116 1406 1581 1522 
L 1381 1569 
Q 847 1681 609 1914 
Q 372 2147 372 2553 
Q 372 3047 722 3315 
Q 1072 3584 1716 3584 
Q 2034 3584 2315 3537 
Q 2597 3491 2834 3397 
z
" transform="scale(0.015625)"/>
       <path id="DejaVuSans-74" d="M 1172 4494 
L 1172 3500 
L 2356 3500 
L 2356 3053 
L 1172 3053 
L 1172 1153 
Q 1172 725 1289 603 
Q 1406 481 1766 481 
L 2356 481 
L 2356 0 
L 1766 0 
Q 1100 0 847 248 
Q 594 497 594 1153 
L 594 3053 
L 172 3053 
L 172 3500 
L 594 3500 
L 594 4494 
L 1172 4494 
z
" transform="scale(0.015625)"/>
       <path id="DejaVuSans-61" d="M 2194 1759 
Q 1497 1759 1228 1600 
Q 959 1441 959 1056 
Q 959 750 1161 570 
Q 1363 391 1709 391 
Q 2188 391 2477 730 
Q 2766 1069 2766 1631 
L 2766 1759 
L 2194 1759 
z
M 3341 1997 
L 3341 0 
L 2766 0 
L 2766 531 
Q 2569 213 2275 61 
Q 1981 -91 1556 -91 
Q 1019 -91 701 211 
Q 384 513 384 1019 
Q 384 1609 779 1909 
Q 1175 2209 1959 2209 
L 2766 2209 
L 2766 2266 
Q 2766 2663 2505 2880 
Q 2244 3097 1772 3097 
Q 1472 3097 1187 3025 
Q 903 2953 641 2809 
L 641 3341 
Q 956 3463 1253 3523 
Q 1550 3584 1831 3584 
Q 2591 3584 2966 3190 
Q 3341 2797 3341 1997 
z
" transform="scale(0.015625)"/>
       <path id="DejaVuSans-65" d="M 3597 1894 
L 3597 1613 
L 953 1613 
Q 991 1019 1311 708 
Q 1631 397 2203 397 
Q 2534 397 2845 478 
Q 3156 559 3463 722 
L 3463 178 
Q 3153 47 2828 -22 
Q 2503 -91 2169 -91 
Q 1331 -91 842 396 
Q 353 884 353 1716 
Q 353 2575 817 3079 
Q 1281 3584 2069 3584 
Q 2775 3584 3186 3129 
Q 3597 2675 3597 1894 
z
M 3022 2063 
Q 3016 2534 2758 2815 
Q 2500 3097 2075 3097 
Q 1594 3097 1305 2825 
Q 1016 2553 972 2059 
L 3022 2063 
z
" transform="scale(0.015625)"/>
      </defs>
      <use xlink:href="#DejaVuSans-49"/>
      <use xlink:href="#DejaVuSans-6e" x="29.492188"/>
      <use xlink:href="#DejaVuSans-73" x="92.871094"/>
      <use xlink:href="#DejaVuSans-74" x="144.970703"/>
      <use xlink:href="#DejaVuSans-61" x="184.179688"/>
      <use xlink:href="#DejaVuSans-6e" x="245.458984"/>
      <use xlink:href="#DejaVuSans-74" x="308.837891"/>
      <use xlink:href="#DejaVuSans-65" x="348.046875"/>
     </g>
    </g>
   </g>
   <g id="matplotlib.axis_2">
    <g id="ytick_1">
     <g id="line2d_6">
      <defs>
       <path id="md18133cd19" d="M 0 0 
L -3.5 0 
" style="stroke: #000000; stroke-width: 0.8"/>
      </defs>
      <g>
       <use xlink:href="#md18133cd19" x="122.94" y="412.886019" style="stroke: #000000; stroke-width: 0.8"/>
      </g>
     </g>
     <g id="text_7">
      <!-- 5 -->
      <g transform="translate(109.5775 416.685238) scale(0.1 -0.1)">
       <use xlink:href="#DejaVuSans-35"/>
      </g>
     </g>
    </g>
    <g id="ytick_2">
     <g id="line2d_7">
      <g>
       <use xlink:href="#md18133cd19" x="122.94" y="370.10008" style="stroke: #000000; stroke-width: 0.8"/>
      </g>
     </g>
     <g id="text_8">
      <!-- 10 -->
      <g transform="translate(103.215 373.899299) scale(0.1 -0.1)">
       <defs>
        <path id="DejaVuSans-31" d="M 794 531 
L 1825 531 
L 1825 4091 
L 703 3866 
L 703 4441 
L 1819 4666 
L 2450 4666 
L 2450 531 
L 3481 531 
L 3481 0 
L 794 0 
L 794 531 
z
" transform="scale(0.015625)"/>
       </defs>
       <use xlink:href="#DejaVuSans-31"/>
       <use xlink:href="#DejaVuSans-30" x="63.623047"/>
      </g>
     </g>
    </g>
    <g id="ytick_3">
     <g id="line2d_8">
      <g>
       <use xlink:href="#md18133cd19" x="122.94" y="327.31414" style="stroke: #000000; stroke-width: 0.8"/>
      </g>
     </g>
     <g id="text_9">
      <!-- 15 -->
      <g transform="translate(103.215 331.113359) scale(0.1 -0.1)">
       <use xlink:href="#DejaVuSans-31"/>
       <use xlink:href="#DejaVuSans-35" x="63.623047"/>
      </g>
     </g>
    </g>
    <g id="ytick_4">
     <g id="line2d_9">
      <g>
       <use xlink:href="#md18133cd19" x="122.94" y="284.528201" style="stroke: #000000; stroke-width: 0.8"/>
      </g>
     </g>
     <g id="text_10">
      <!-- 20 -->
      <g transform="translate(103.215 288.32742) scale(0.1 -0.1)">
       <defs>
        <path id="DejaVuSans-32" d="M 1228 531 
L 3431 531 
L 3431 0 
L 469 0 
L 469 531 
Q 828 903 1448 1529 
Q 2069 2156 2228 2338 
Q 2531 2678 2651 2914 
Q 2772 3150 2772 3378 
Q 2772 3750 2511 3984 
Q 2250 4219 1831 4219 
Q 1534 4219 1204 4116 
Q 875 4013 500 3803 
L 500 4441 
Q 881 4594 1212 4672 
Q 1544 4750 1819 4750 
Q 2544 4750 2975 4387 
Q 3406 4025 3406 3419 
Q 3406 3131 3298 2873 
Q 3191 2616 2906 2266 
Q 2828 2175 2409 1742 
Q 1991 1309 1228 531 
z
" transform="scale(0.015625)"/>
       </defs>
       <use xlink:href="#DejaVuSans-32"/>
       <use xlink:href="#DejaVuSans-30" x="63.623047"/>
      </g>
     </g>
    </g>
    <g id="ytick_5">
     <g id="line2d_10">
      <g>
       <use xlink:href="#md18133cd19" x="122.94" y="241.742262" style="stroke: #000000; stroke-width: 0.8"/>
      </g>
     </g>
     <g id="text_11">
      <!-- 25 -->
      <g transform="translate(103.215 245.54148) scale(0.1 -0.1)">
       <use xlink:href="#DejaVuSans-32"/>
       <use xlink:href="#DejaVuSans-35" x="63.623047"/>
      </g>
     </g>
    </g>
    <g id="ytick_6">
     <g id="line2d_11">
      <g>
       <use xlink:href="#md18133cd19" x="122.94" y="198.956322" style="stroke: #000000; stroke-width: 0.8"/>
      </g>
     </g>
     <g id="text_12">
      <!-- 30 -->
      <g transform="translate(103.215 202.755541) scale(0.1 -0.1)">
       <use xlink:href="#DejaVuSans-33"/>
       <use xlink:href="#DejaVuSans-30" x="63.623047"/>
      </g>
     </g>
    </g>
    <g id="ytick_7">
     <g id="line2d_12">
      <g>
       <use xlink:href="#md18133cd19" x="122.94" y="156.170383" style="stroke: #000000; stroke-width: 0.8"/>
      </g>
     </g>
     <g id="text_13">
      <!-- 35 -->
      <g transform="translate(103.215 159.969602) scale(0.1 -0.1)">
       <use xlink:href="#DejaVuSans-33"/>
       <use xlink:href="#DejaVuSans-35" x="63.623047"/>
      </g>
     </g>
    </g>
    <g id="ytick_8">
     <g id="line2d_13">
      <g>
       <use xlink:href="#md18133cd19" x="122.94" y="113.384443" style="stroke: #000000; stroke-width: 0.8"/>
      </g>
     </g>
     <g id="text_14">
      <!-- 40 -->
      <g transform="translate(103.215 117.183662) scale(0.1 -0.1)">
       <use xlink:href="#DejaVuSans-34"/>
       <use xlink:href="#DejaVuSans-30" x="63.623047"/>
      </g>
     </g>
    </g>
    <g id="ytick_9">
     <g id="line2d_14">
      <g>
       <use xlink:href="#md18133cd19" x="122.94" y="70.598504" style="stroke: #000000; stroke-width: 0.8"/>
      </g>
     </g>
     <g id="text_15">
      <!-- 45 -->
      <g transform="translate(103.215 74.397723) scale(0.1 -0.1)">
       <use xlink:href="#DejaVuSans-34"/>
       <use xlink:href="#DejaVuSans-35" x="63.623047"/>
      </g>
     </g>
    </g>
    <g id="text_16">
     <!-- Potencia[W] maximas -->
     <g transform="translate(97.135312 295.623831) rotate(-90) scale(0.1 -0.1)">
      <defs>
       <path id="DejaVuSans-50" d="M 1259 4147 
L 1259 2394 
L 2053 2394 
Q 2494 2394 2734 2622 
Q 2975 2850 2975 3272 
Q 2975 3691 2734 3919 
Q 2494 4147 2053 4147 
L 1259 4147 
z
M 628 4666 
L 2053 4666 
Q 2838 4666 3239 4311 
Q 3641 3956 3641 3272 
Q 3641 2581 3239 2228 
Q 2838 1875 2053 1875 
L 1259 1875 
L 1259 0 
L 628 0 
L 628 4666 
z
" transform="scale(0.015625)"/>
       <path id="DejaVuSans-6f" d="M 1959 3097 
Q 1497 3097 1228 2736 
Q 959 2375 959 1747 
Q 959 1119 1226 758 
Q 1494 397 1959 397 
Q 2419 397 2687 759 
Q 2956 1122 2956 1747 
Q 2956 2369 2687 2733 
Q 2419 3097 1959 3097 
z
M 1959 3584 
Q 2709 3584 3137 3096 
Q 3566 2609 3566 1747 
Q 3566 888 3137 398 
Q 2709 -91 1959 -91 
Q 1206 -91 779 398 
Q 353 888 353 1747 
Q 353 2609 779 3096 
Q 1206 3584 1959 3584 
z
" transform="scale(0.015625)"/>
       <path id="DejaVuSans-63" d="M 3122 3366 
L 3122 2828 
Q 2878 2963 2633 3030 
Q 2388 3097 2138 3097 
Q 1578 3097 1268 2742 
Q 959 2388 959 1747 
Q 959 1106 1268 751 
Q 1578 397 2138 397 
Q 2388 397 2633 464 
Q 2878 531 3122 666 
L 3122 134 
Q 2881 22 2623 -34 
Q 2366 -91 2075 -91 
Q 1284 -91 818 406 
Q 353 903 353 1747 
Q 353 2603 823 3093 
Q 1294 3584 2113 3584 
Q 2378 3584 2631 3529 
Q 2884 3475 3122 3366 
z
" transform="scale(0.015625)"/>
       <path id="DejaVuSans-69" d="M 603 3500 
L 1178 3500 
L 1178 0 
L 603 0 
L 603 3500 
z
M 603 4863 
L 1178 4863 
L 1178 4134 
L 603 4134 
L 603 4863 
z
" transform="scale(0.015625)"/>
       <path id="DejaVuSans-5b" d="M 550 4863 
L 1875 4863 
L 1875 4416 
L 1125 4416 
L 1125 -397 
L 1875 -397 
L 1875 -844 
L 550 -844 
L 550 4863 
z
" transform="scale(0.015625)"/>
       <path id="DejaVuSans-57" d="M 213 4666 
L 850 4666 
L 1831 722 
L 2809 4666 
L 3519 4666 
L 4500 722 
L 5478 4666 
L 6119 4666 
L 4947 0 
L 4153 0 
L 3169 4050 
L 2175 0 
L 1381 0 
L 213 4666 
z
" transform="scale(0.015625)"/>
       <path id="DejaVuSans-5d" d="M 1947 4863 
L 1947 -844 
L 622 -844 
L 622 -397 
L 1369 -397 
L 1369 4416 
L 622 4416 
L 622 4863 
L 1947 4863 
z
" transform="scale(0.015625)"/>
       <path id="DejaVuSans-20" transform="scale(0.015625)"/>
       <path id="DejaVuSans-6d" d="M 3328 2828 
Q 3544 3216 3844 3400 
Q 4144 3584 4550 3584 
Q 5097 3584 5394 3201 
Q 5691 2819 5691 2113 
L 5691 0 
L 5113 0 
L 5113 2094 
Q 5113 2597 4934 2840 
Q 4756 3084 4391 3084 
Q 3944 3084 3684 2787 
Q 3425 2491 3425 1978 
L 3425 0 
L 2847 0 
L 2847 2094 
Q 2847 2600 2669 2842 
Q 2491 3084 2119 3084 
Q 1678 3084 1418 2786 
Q 1159 2488 1159 1978 
L 1159 0 
L 581 0 
L 581 3500 
L 1159 3500 
L 1159 2956 
Q 1356 3278 1631 3431 
Q 1906 3584 2284 3584 
Q 2666 3584 2933 3390 
Q 3200 3197 3328 2828 
z
" transform="scale(0.015625)"/>
       <path id="DejaVuSans-78" d="M 3513 3500 
L 2247 1797 
L 3578 0 
L 2900 0 
L 1881 1375 
L 863 0 
L 184 0 
L 1544 1831 
L 300 3500 
L 978 3500 
L 1906 2253 
L 2834 3500 
L 3513 3500 
z
" transform="scale(0.015625)"/>
      </defs>
      <use xlink:href="#DejaVuSans-50"/>
      <use xlink:href="#DejaVuSans-6f" x="56.677734"/>
      <use xlink:href="#DejaVuSans-74" x="117.859375"/>
      <use xlink:href="#DejaVuSans-65" x="157.068359"/>
      <use xlink:href="#DejaVuSans-6e" x="218.591797"/>
      <use xlink:href="#DejaVuSans-63" x="281.970703"/>
      <use xlink:href="#DejaVuSans-69" x="336.951172"/>
      <use xlink:href="#DejaVuSans-61" x="364.734375"/>
      <use xlink:href="#DejaVuSans-5b" x="426.013672"/>
      <use xlink:href="#DejaVuSans-57" x="465.027344"/>
      <use xlink:href="#DejaVuSans-5d" x="563.904297"/>
      <use xlink:href="#DejaVuSans-20" x="602.917969"/>
      <use xlink:href="#DejaVuSans-6d" x="634.705078"/>
      <use xlink:href="#DejaVuSans-61" x="732.117188"/>
      <use xlink:href="#DejaVuSans-78" x="793.396484"/>
      <use xlink:href="#DejaVuSans-69" x="852.576172"/>
      <use xlink:href="#DejaVuSans-6d" x="880.359375"/>
      <use xlink:href="#DejaVuSans-61" x="977.771484"/>
      <use xlink:href="#DejaVuSans-73" x="1039.050781"/>
     </g>
    </g>
   </g>
   <g id="line2d_15">
    <path d="M 121.541749 430.126018 
L 122.957615 433.876832 
L 124.373481 438.799198 
L 125.789347 418.182957 
L 127.205213 437.182927 
L 128.621078 429.727345 
L 130.036944 422.897396 
L 131.45281 398.239741 
L 132.868676 414.758345 
L 134.284542 449.275138 
L 135.700407 445.877811 
L 137.116273 447.213012 
L 138.532139 432.987952 
L 139.948005 421.806513 
L 141.363871 438.175556 
L 142.779737 449.406139 
L 144.195602 451.049142 
L 145.611468 436.144831 
L 147.027334 428.829584 
L 148.4432 437.590177 
L 149.859066 449.618864 
L 151.274931 451.198155 
L 152.690797 441.569796 
L 154.106663 441.543669 
L 155.522529 449.079722 
L 156.938395 449.383944 
L 158.35426 450.653506 
L 159.770126 452.278525 
L 161.185992 451.57046 
L 162.601858 450.074347 
L 164.017724 452.393329 
L 165.433589 450.378449 
L 166.849455 450.29437 
L 168.265321 447.524653 
L 169.681187 445.281304 
L 171.097053 439.957934 
L 172.512918 441.63738 
L 173.928784 449.069429 
L 175.34465 451.512693 
L 176.760516 449.583819 
L 178.176382 450.338302 
L 179.592248 450.573903 
L 181.008113 451.234894 
L 182.423979 433.100144 
L 183.839845 437.567351 
L 185.255711 444.639576 
L 186.671577 432.757682 
L 188.087442 410.025607 
L 189.503308 441.909053 
L 190.919174 449.803666 
L 192.33504 447.678042 
L 193.750906 440.32052 
L 195.166771 429.435592 
L 196.582637 416.371748 
L 197.998503 400.384061 
L 199.414369 430.195331 
L 200.830235 430.858872 
L 202.2461 432.662736 
L 203.661966 417.973429 
L 205.077832 419.737089 
L 206.493698 425.92692 
L 207.909564 417.92552 
L 209.32543 430.732826 
L 212.157161 409.040873 
L 213.573027 433.810683 
L 214.988893 449.216839 
L 216.404759 436.023958 
L 217.820624 421.467689 
L 219.23649 441.432039 
L 220.652356 438.531376 
L 222.068222 420.42611 
L 223.484088 439.585485 
L 224.899953 436.13844 
L 226.315819 445.032825 
L 227.731685 426.425234 
L 229.147551 403.743438 
L 230.563417 405.459624 
L 231.979282 407.801804 
L 233.395148 422.569793 
L 234.811014 405.999842 
L 236.22688 403.400751 
L 237.642746 442.247898 
L 240.474477 383.817669 
L 241.890343 426.6985 
L 243.306209 390.699829 
L 244.722075 396.130394 
L 246.137941 417.358207 
L 247.553806 404.90357 
L 248.969672 385.044053 
L 250.385538 412.30947 
L 251.801404 435.159207 
L 253.21727 429.50839 
L 254.633135 376.455631 
L 256.049001 393.264049 
L 257.464867 414.898442 
L 258.880733 401.125023 
L 260.296599 381.069138 
L 261.712464 389.215146 
L 263.12833 400.703481 
L 264.544196 408.683372 
L 265.960062 372.37527 
L 267.375928 371.533755 
L 268.791793 393.017496 
L 270.207659 358.678666 
L 271.623525 413.841787 
L 273.039391 383.92354 
L 274.455257 374.895426 
L 275.871123 338.531054 
L 277.286988 358.156149 
L 278.702854 360.207916 
L 280.11872 344.706834 
L 281.534586 340.886103 
L 282.950452 296.075642 
L 284.366317 311.792098 
L 285.782183 374.4858 
L 287.198049 352.735496 
L 288.613915 352.099606 
L 290.029781 374.813847 
L 291.445646 316.309161 
L 292.861512 379.671743 
L 294.277378 359.731697 
L 295.693244 377.145259 
L 297.10911 393.052727 
L 298.524975 377.169509 
L 299.940841 341.297054 
L 301.356707 381.376131 
L 302.772573 381.203923 
L 304.188439 386.13846 
L 305.604304 305.910187 
L 307.02017 364.479002 
L 308.436036 354.885299 
L 309.851902 378.033499 
L 311.267768 348.934694 
L 312.683634 317.49475 
L 314.099499 368.211239 
L 315.515365 399.255167 
L 316.931231 367.554553 
L 318.347097 326.553791 
L 319.762963 328.644593 
L 321.178828 369.725717 
L 322.594694 381.149179 
L 324.01056 396.338247 
L 325.426426 375.506739 
L 326.842292 358.294094 
L 328.258157 387.33991 
L 329.674023 341.817339 
L 331.089889 378.391244 
L 332.505755 372.167435 
L 333.921621 370.136214 
L 335.337486 374.484832 
L 336.753352 368.772858 
L 338.169218 386.270527 
L 339.585084 362.15523 
L 341.00095 372.11871 
L 342.416816 375.426987 
L 343.832681 385.700781 
L 345.248547 405.662893 
L 346.664413 393.440565 
L 348.080279 382.466483 
L 349.496145 415.245353 
L 350.91201 404.570846 
L 352.327876 395.237482 
L 353.743742 409.09287 
L 355.159608 387.392958 
L 356.575474 413.252772 
L 357.991339 410.109925 
L 359.407205 418.060245 
L 360.823071 406.102305 
L 362.238937 423.251529 
L 363.654803 418.798666 
L 365.070668 392.898906 
L 366.486534 340.634003 
L 367.9024 436.30458 
L 369.318266 403.574051 
L 370.734132 415.050057 
L 372.149997 437.8365 
L 373.565863 445.610673 
L 374.981729 426.10421 
L 376.397595 426.260574 
L 377.813461 423.586694 
L 379.229327 439.726087 
L 380.645192 435.855437 
L 382.061058 420.36856 
L 383.476924 426.337446 
L 384.89279 448.897121 
L 386.308656 409.368048 
L 387.724521 423.310395 
L 389.140387 418.630682 
L 390.556253 380.191834 
L 391.972119 404.069727 
L 393.387985 386.723938 
L 394.80385 382.826043 
L 396.219716 387.198217 
L 397.635582 393.047078 
L 399.051448 374.055104 
L 400.467314 364.854898 
L 401.883179 376.467278 
L 403.299045 370.961404 
L 404.714911 356.594102 
L 406.130777 313.22019 
L 407.546643 369.498426 
L 408.962509 375.348941 
L 410.378374 372.528578 
L 411.79424 386.153435 
L 413.210106 382.977038 
L 414.625972 367.536844 
L 416.041838 392.699257 
L 417.457703 386.528391 
L 418.873569 387.21406 
L 420.289435 401.312034 
L 421.705301 382.155395 
L 423.121167 352.740565 
L 424.537032 418.098839 
L 425.952898 420.72957 
L 427.368764 407.587326 
L 428.78463 374.371958 
L 430.200496 390.711917 
L 431.616361 417.830038 
L 433.032227 404.737716 
L 434.448093 387.95997 
L 435.863959 410.386263 
L 437.279825 423.628172 
L 438.69569 421.71942 
L 440.111556 403.247813 
L 441.527422 426.061222 
L 442.943288 374.668114 
L 444.359154 419.177346 
L 445.77502 396.001272 
L 447.190885 375.731721 
L 448.606751 342.246828 
L 450.022617 369.355434 
L 451.438483 372.274471 
L 452.854349 384.48702 
L 454.270214 385.217462 
L 455.68608 330.151279 
L 457.101946 333.861492 
L 458.517812 381.422848 
L 459.933678 362.990233 
L 461.349543 370.571057 
L 462.765409 349.799027 
L 464.181275 383.919681 
L 465.597141 389.663683 
L 467.013007 383.003072 
L 468.428872 360.274126 
L 469.844738 410.012172 
L 471.260604 408.585673 
L 472.67647 377.463993 
L 474.092336 384.508235 
L 475.508202 393.89027 
L 476.924067 396.981739 
L 478.339933 359.410918 
L 479.755799 387.16511 
L 481.171665 382.766981 
L 482.587531 388.690965 
L 484.003396 385.275672 
L 485.419262 393.324346 
L 486.835128 402.83864 
L 488.250994 401.58567 
L 489.66686 413.757896 
L 491.082725 410.989496 
L 492.498591 400.370695 
L 493.914457 393.665317 
L 495.330323 418.786707 
L 496.746189 438.676705 
L 498.162054 422.992424 
L 499.57792 420.884751 
L 500.993786 431.496478 
L 502.409652 420.830664 
L 503.825518 416.68277 
L 505.241383 426.025276 
L 506.657249 441.40026 
L 508.073115 436.02661 
L 509.488981 433.622821 
L 510.904847 429.55546 
L 512.320713 434.821479 
L 513.736578 422.733125 
L 515.152444 420.834571 
L 516.56831 400.814676 
L 517.984176 395.902077 
L 519.400042 377.361091 
L 520.815907 364.47421 
L 522.231773 374.748253 
L 523.647639 383.570483 
L 525.063505 407.456205 
L 526.479371 385.3691 
L 527.895236 384.460288 
L 529.311102 393.808661 
L 530.726968 379.461376 
L 532.142834 387.509312 
L 533.5587 392.942527 
L 534.974565 389.420385 
L 536.390431 379.958683 
L 537.806297 375.311711 
L 539.222163 356.700336 
L 540.638029 347.819716 
L 542.053895 390.195282 
L 543.46976 382.456397 
L 544.885626 360.582306 
L 546.301492 302.80857 
L 547.717358 292.369932 
L 549.133224 321.306125 
L 550.549089 369.043918 
L 551.964955 373.738793 
L 553.380821 345.293359 
L 554.796687 279.151113 
L 556.212553 295.194527 
L 557.628418 305.048849 
L 559.044284 305.091955 
L 560.46015 308.486259 
L 561.876016 304.517619 
L 563.291882 296.010976 
L 564.707747 285.313799 
L 566.123613 289.566186 
L 567.539479 285.788702 
L 568.955345 306.206384 
L 570.371211 285.842332 
L 571.787076 285.891147 
L 573.202942 263.841483 
L 574.618808 199.674167 
L 576.034674 198.861528 
L 577.45054 219.36247 
L 578.866406 196.603646 
L 580.282271 203.170062 
L 581.698137 203.573209 
L 583.114003 275.955297 
L 584.529869 253.492709 
L 585.945735 292.921298 
L 587.3616 241.660654 
L 588.777466 199.571642 
L 590.193332 201.018989 
L 591.609198 203.894082 
L 593.025064 204.479972 
L 594.440929 158.307212 
L 595.856795 163.230348 
L 597.272661 114.166211 
L 598.688527 151.498537 
L 600.104393 119.219696 
L 601.520258 147.958974 
L 602.936124 122.9037 
L 604.35199 146.253173 
L 605.767856 127.137484 
L 607.183722 162.837165 
L 608.599588 193.897184 
L 610.015453 194.481961 
L 611.431319 195.938336 
L 612.847185 138.488087 
L 614.263051 182.185098 
L 615.678917 194.968266 
L 618.510648 196.011674 
L 619.926514 195.131352 
L 621.34238 196.099941 
L 622.758246 195.665717 
L 624.174111 195.40394 
L 625.589977 194.893789 
L 627.005843 194.785359 
L 628.421709 195.411027 
L 629.837575 195.144871 
L 631.25344 195.566242 
L 632.669306 195.516227 
L 634.085172 196.14432 
L 635.501038 225.525157 
L 636.916904 222.428223 
L 638.332769 198.669416 
L 639.748635 197.689837 
L 641.164501 197.021941 
L 642.580367 197.257768 
L 643.996233 196.099998 
L 645.412099 196.283528 
L 646.827964 196.175838 
L 648.24383 224.903802 
L 649.659696 197.739901 
L 651.075562 196.956688 
L 652.491428 196.974846 
L 653.907293 169.623191 
L 655.323159 150.274778 
L 656.739025 183.706878 
L 658.154891 158.463638 
L 659.570757 117.037652 
L 660.986622 149.418349 
L 662.402488 120.360603 
L 663.818354 146.28537 
L 665.23422 122.407632 
L 666.650086 144.355794 
L 668.065951 124.085988 
L 669.481817 142.576899 
L 670.897683 130.428536 
L 672.313549 141.961451 
L 673.729415 138.050073 
L 675.145281 163.746534 
L 676.561146 185.041508 
L 677.977012 186.171117 
L 679.392878 190.132129 
L 680.808744 194.940372 
L 682.22461 195.821574 
L 683.640475 195.226634 
L 685.056341 196.383242 
L 686.472207 195.687104 
L 687.888073 196.542568 
L 690.719804 246.783318 
L 692.13567 249.293417 
L 693.551536 254.792401 
L 694.967402 274.806709 
L 696.383268 281.77948 
L 697.799133 255.791717 
L 699.214999 252.074909 
L 700.630865 276.575159 
L 702.046731 271.974578 
L 703.462597 284.070324 
L 704.878462 299.181665 
L 706.294328 337.769164 
L 707.710194 306.698013 
L 709.12606 299.64924 
L 710.541926 299.973428 
L 711.957792 291.189951 
L 713.373657 329.902138 
L 714.789523 342.757893 
L 716.205389 345.024426 
L 717.621255 297.968686 
L 719.037121 368.450268 
L 720.452986 351.185386 
L 721.868852 365.455159 
L 723.284718 385.499898 
L 724.700584 366.65106 
L 726.11645 357.67565 
L 727.532315 343.98336 
L 728.948181 380.011609 
L 730.364047 397.773154 
L 731.779913 400.222926 
L 733.195779 380.102754 
L 734.611644 372.407553 
L 736.02751 377.28607 
L 737.443376 384.268546 
L 738.859242 390.127338 
L 740.275108 375.147911 
L 741.690974 389.079889 
L 743.106839 378.181285 
L 744.522705 359.453912 
L 745.938571 407.81424 
L 747.354437 383.588844 
L 748.770303 399.094398 
L 750.186168 386.052719 
L 751.602034 376.186663 
L 753.0179 387.620615 
L 754.433766 374.409476 
L 755.849632 366.510118 
L 757.265497 349.619318 
L 758.681363 384.560715 
L 760.097229 406.844474 
L 761.513095 402.928236 
L 762.928961 423.036149 
L 764.344826 419.70107 
L 765.760692 423.932596 
L 767.176558 407.355683 
L 768.592424 407.643322 
L 770.00829 417.444371 
L 771.424155 416.283944 
L 772.840021 387.817095 
L 774.255887 373.475054 
L 775.671753 415.567166 
L 777.087619 420.334274 
L 778.503485 402.425217 
L 779.91935 403.697879 
L 781.335216 425.697378 
L 782.751082 424.317347 
L 784.166948 401.779601 
L 785.582814 399.07738 
L 786.998679 416.901368 
L 788.414545 409.659476 
L 789.830411 406.402656 
L 791.246277 411.408694 
L 792.662143 407.919643 
L 794.078008 386.37986 
L 795.493874 387.747189 
L 796.90974 408.760389 
L 798.325606 420.336078 
L 799.741472 397.078983 
L 801.157337 378.784858 
L 802.573203 380.935643 
L 803.989069 410.879471 
L 805.404935 405.140038 
L 806.820801 405.146175 
L 808.236667 371.949985 
L 809.652532 364.160806 
L 811.068398 330.947718 
L 812.484264 414.987974 
L 813.90013 363.415077 
L 815.315996 316.698863 
L 816.731861 354.798694 
L 818.147727 410.927255 
L 819.563593 376.801521 
L 820.979459 417.167274 
L 822.395325 382.999188 
L 823.81119 408.94316 
L 825.227056 377.087083 
L 826.642922 437.659474 
L 828.058788 406.476923 
L 829.474654 415.811257 
L 830.890519 430.043267 
L 832.306385 432.39577 
L 833.722251 407.971212 
L 835.138117 398.468743 
L 836.553983 382.77095 
L 837.969848 395.987879 
L 839.385714 388.12453 
L 840.80158 354.292969 
L 842.217446 420.45268 
L 843.633312 397.456824 
L 845.049178 399.938795 
L 846.465043 402.102715 
L 847.880909 377.493908 
L 849.296775 364.287334 
L 850.712641 353.164527 
L 852.128507 344.685498 
L 853.544372 376.673089 
L 856.376104 367.641455 
L 857.79197 407.266542 
L 859.207836 394.753486 
L 860.623701 384.504293 
L 862.039567 375.14782 
L 863.455433 378.72816 
L 864.871299 387.596507 
L 866.287165 408.921051 
L 867.70303 386.085615 
L 869.118896 399.130805 
L 870.534762 406.573885 
L 871.950628 418.978196 
L 873.366494 419.973016 
L 874.78236 427.909189 
L 876.198225 392.982498 
L 877.614091 368.565456 
L 879.029957 420.052783 
L 880.445823 425.349965 
L 881.861689 423.373914 
L 883.277554 415.468556 
L 884.69342 416.66223 
L 886.109286 420.601434 
L 886.109286 420.601434 
" clip-path="url(#p44ee524d98)" style="fill: none; stroke: #1f77b4; stroke-width: 1.5; stroke-linecap: square"/>
   </g>
   <g id="line2d_16">
    <path d="M 121.541749 426.718141 
L 122.957615 430.741388 
L 124.373481 428.163592 
L 125.789347 417.678633 
L 127.205213 424.419679 
L 128.621078 426.95206 
L 130.036944 409.463776 
L 131.45281 395.41691 
L 132.868676 410.777511 
L 134.284542 444.381161 
L 135.700407 442.560375 
L 137.116273 425.262068 
L 138.532139 427.42518 
L 139.948005 420.032942 
L 141.363871 409.41876 
L 142.779737 437.198573 
L 144.195602 440.040592 
L 145.611468 436.054348 
L 147.027334 426.623088 
L 148.4432 434.471384 
L 149.859066 445.331081 
L 151.274931 434.122791 
L 152.690797 433.854728 
L 154.106663 441.257255 
L 155.522529 446.09081 
L 156.938395 442.297848 
L 158.35426 419.875574 
L 159.770126 432.777482 
L 161.185992 444.257353 
L 162.601858 445.750275 
L 164.017724 448.870844 
L 165.433589 431.936598 
L 166.849455 426.539261 
L 168.265321 432.421661 
L 169.681187 434.105391 
L 171.097053 430.977982 
L 172.512918 440.030854 
L 173.928784 439.069185 
L 175.34465 439.456802 
L 176.760516 433.759168 
L 178.176382 437.441894 
L 179.592248 427.211099 
L 181.008113 430.36053 
L 182.423979 430.486765 
L 183.839845 425.213185 
L 185.255711 427.165354 
L 186.671577 426.873022 
L 188.087442 408.048718 
L 189.503308 439.779582 
L 190.919174 434.081274 
L 192.33504 429.076569 
L 193.750906 424.953734 
L 195.166771 421.375923 
L 196.582637 407.709237 
L 197.998503 398.167231 
L 200.830235 428.797979 
L 202.2461 428.665451 
L 203.661966 417.294861 
L 205.077832 409.999799 
L 206.493698 411.189423 
L 207.909564 417.144015 
L 209.32543 428.865165 
L 210.741295 411.845974 
L 212.157161 402.021613 
L 213.573027 430.44565 
L 214.988893 433.937869 
L 216.404759 431.545956 
L 217.820624 414.573493 
L 219.23649 438.827698 
L 220.652356 430.448978 
L 222.068222 414.543761 
L 223.484088 425.892912 
L 224.899953 432.469097 
L 226.315819 417.979314 
L 227.731685 408.49134 
L 229.147551 389.13416 
L 230.563417 401.096638 
L 231.979282 406.901003 
L 233.395148 401.27069 
L 234.811014 375.402031 
L 236.22688 397.76025 
L 237.642746 398.021509 
L 239.058611 384.604018 
L 240.474477 383.641473 
L 241.890343 362.291362 
L 243.306209 385.536197 
L 244.722075 392.692818 
L 246.137941 401.647307 
L 247.553806 389.060264 
L 248.969672 384.937695 
L 250.385538 408.40598 
L 251.801404 408.780439 
L 253.21727 402.566819 
L 254.633135 365.71221 
L 256.049001 370.901321 
L 257.464867 387.880043 
L 258.880733 359.186603 
L 260.296599 376.938793 
L 261.712464 382.879606 
L 263.12833 376.836399 
L 264.544196 364.278635 
L 265.960062 357.313912 
L 267.375928 364.593975 
L 268.791793 342.399811 
L 270.207659 343.653727 
L 271.623525 353.069362 
L 273.039391 365.676929 
L 274.455257 353.712375 
L 275.871123 328.820945 
L 277.286988 335.493243 
L 278.702854 353.139091 
L 280.11872 340.439209 
L 281.534586 337.1611 
L 282.950452 273.670159 
L 285.782183 352.612912 
L 287.198049 348.228212 
L 288.613915 347.365791 
L 290.029781 357.401484 
L 291.445646 312.567318 
L 292.861512 366.108413 
L 294.277378 353.809099 
L 295.693244 356.386813 
L 297.10911 380.074161 
L 298.524975 368.530905 
L 299.940841 325.717431 
L 301.356707 357.045611 
L 302.772573 378.364372 
L 304.188439 350.154165 
L 305.604304 302.886704 
L 307.02017 331.694135 
L 308.436036 346.582163 
L 309.851902 368.401322 
L 311.267768 325.453546 
L 312.683634 304.623342 
L 314.099499 357.651917 
L 315.515365 378.767784 
L 316.931231 359.101095 
L 318.347097 298.446331 
L 319.762963 317.442208 
L 321.178828 363.12443 
L 322.594694 380.688724 
L 324.01056 364.995639 
L 325.426426 363.763093 
L 326.842292 358.074079 
L 328.258157 349.548004 
L 329.674023 337.234223 
L 331.089889 357.016602 
L 332.505755 364.576491 
L 333.921621 362.57339 
L 335.337486 366.744099 
L 336.753352 360.406756 
L 338.169218 385.515167 
L 339.585084 354.018084 
L 341.00095 352.503466 
L 342.416816 363.444978 
L 343.832681 376.669817 
L 345.248547 398.663907 
L 346.664413 364.322463 
L 348.080279 363.042903 
L 349.496145 401.806705 
L 350.91201 399.209281 
L 352.327876 376.39406 
L 353.743742 407.64595 
L 355.159608 387.066947 
L 356.575474 392.824666 
L 357.991339 405.486103 
L 359.407205 412.633648 
L 360.823071 401.81109 
L 362.238937 415.136141 
L 363.654803 412.939428 
L 365.070668 372.001361 
L 366.486534 340.439672 
L 367.9024 350.197337 
L 369.318266 398.50136 
L 370.734132 415.005841 
L 372.149997 427.558381 
L 373.565863 427.436012 
L 374.981729 422.637625 
L 376.397595 410.200064 
L 377.813461 421.721529 
L 379.229327 415.043522 
L 380.645192 401.944799 
L 382.061058 415.592063 
L 383.476924 410.339467 
L 384.89279 399.137016 
L 386.308656 402.595022 
L 387.724521 403.896488 
L 389.140387 384.352865 
L 390.556253 376.27414 
L 391.972119 383.413956 
L 393.387985 380.205057 
L 394.80385 361.871415 
L 396.219716 355.95401 
L 397.635582 348.829965 
L 399.051448 373.853589 
L 400.467314 355.384383 
L 401.883179 369.69267 
L 403.299045 347.051155 
L 404.714911 334.164339 
L 406.130777 310.383671 
L 407.546643 338.138876 
L 408.962509 369.064206 
L 410.378374 362.287311 
L 411.79424 348.337655 
L 413.210106 362.343476 
L 414.625972 363.284159 
L 416.041838 361.932687 
L 417.457703 360.193443 
L 418.873569 381.554198 
L 420.289435 372.773653 
L 421.705301 353.402097 
L 423.121167 345.462862 
L 424.537032 402.62918 
L 425.952898 409.162542 
L 427.368764 393.719807 
L 428.78463 372.159788 
L 430.200496 381.896173 
L 431.616361 376.877434 
L 433.032227 381.120944 
L 434.448093 370.233901 
L 435.863959 406.824693 
L 437.279825 400.714379 
L 438.69569 389.413156 
L 440.111556 389.911717 
L 441.527422 345.09813 
L 442.943288 369.773822 
L 444.359154 371.179384 
L 445.77502 382.761288 
L 447.190885 345.675451 
L 448.606751 337.522884 
L 450.022617 359.734781 
L 451.438483 365.102531 
L 452.854349 352.426937 
L 454.270214 359.315203 
L 455.68608 325.418636 
L 457.101946 330.581044 
L 458.517812 343.670784 
L 459.933678 354.624258 
L 461.349543 358.439398 
L 462.765409 338.52792 
L 464.181275 340.588786 
L 465.597141 369.983475 
L 467.013007 373.860468 
L 468.428872 360.129848 
L 469.844738 405.469969 
L 471.260604 388.16555 
L 472.67647 363.649749 
L 474.092336 358.902671 
L 475.508202 380.888253 
L 476.924067 356.340482 
L 478.339933 358.828075 
L 479.755799 379.745103 
L 481.171665 369.324016 
L 482.587531 369.600859 
L 484.003396 377.387172 
L 485.419262 367.226718 
L 486.835128 392.680017 
L 488.250994 401.270332 
L 489.66686 403.343715 
L 491.082725 406.510545 
L 492.498591 396.756397 
L 493.914457 383.360054 
L 495.330323 407.922637 
L 496.746189 416.160016 
L 498.162054 408.938369 
L 499.57792 419.317191 
L 500.993786 401.941305 
L 502.409652 400.900409 
L 503.825518 415.972962 
L 505.241383 424.591931 
L 506.657249 420.321157 
L 508.073115 421.394449 
L 509.488981 412.187662 
L 510.904847 421.377834 
L 512.320713 422.689698 
L 513.736578 408.415244 
L 515.152444 368.887674 
L 516.56831 398.123293 
L 517.984176 394.242061 
L 519.400042 376.687547 
L 520.815907 355.011732 
L 522.231773 364.677586 
L 525.063505 386.373708 
L 526.479371 369.358023 
L 529.311102 392.567071 
L 530.726968 372.910933 
L 532.142834 379.515073 
L 533.5587 358.108813 
L 534.974565 365.91884 
L 536.390431 334.892661 
L 537.806297 328.029878 
L 539.222163 346.342585 
L 540.638029 326.997858 
L 542.053895 350.899755 
L 543.46976 337.059069 
L 546.301492 294.420549 
L 547.717358 288.788356 
L 549.133224 318.249197 
L 550.549089 316.638185 
L 551.964955 294.991998 
L 553.380821 297.331026 
L 554.796687 275.357477 
L 556.212553 260.628999 
L 557.628418 305.044895 
L 559.044284 302.797206 
L 560.46015 305.599209 
L 561.876016 282.874702 
L 563.291882 266.160803 
L 564.707747 261.418532 
L 566.123613 261.172385 
L 567.539479 272.255332 
L 568.955345 280.91377 
L 570.371211 273.296866 
L 571.787076 269.801585 
L 573.202942 230.430203 
L 574.618808 186.905218 
L 576.034674 158.154866 
L 577.45054 138.233005 
L 578.866406 148.976827 
L 580.282271 148.568976 
L 581.698137 188.697206 
L 583.114003 191.490672 
L 584.529869 193.469079 
L 585.945735 191.218379 
L 587.3616 191.285489 
L 588.777466 184.975174 
L 590.193332 147.942447 
L 591.609198 126.107379 
L 593.025064 125.229405 
L 594.440929 125.077355 
L 595.856795 90.539588 
L 597.272661 66.974857 
L 598.688527 62.761911 
L 600.104393 63.505172 
L 601.520258 68.903568 
L 602.936124 79.045399 
L 604.35199 82.986929 
L 605.767856 103.915235 
L 607.183722 141.432577 
L 608.599588 130.367779 
L 610.015453 129.619867 
L 611.431319 131.493322 
L 614.263051 142.062106 
L 615.678917 145.971152 
L 617.094782 140.983883 
L 618.510648 149.008312 
L 619.926514 175.873618 
L 621.34238 168.087525 
L 622.758246 183.005984 
L 624.174111 158.290636 
L 625.589977 146.471639 
L 627.005843 154.67128 
L 628.421709 173.524959 
L 629.837575 184.13497 
L 631.25344 178.077723 
L 632.669306 163.613141 
L 634.085172 176.600949 
L 635.501038 211.156585 
L 636.916904 206.300283 
L 638.332769 184.16707 
L 639.748635 175.874553 
L 641.164501 155.363681 
L 642.580367 164.762893 
L 643.996233 178.575578 
L 645.412099 181.878768 
L 646.827964 184.876291 
L 648.24383 203.484251 
L 649.659696 184.199075 
L 651.075562 183.69593 
L 653.907293 141.097018 
L 655.323159 126.488024 
L 656.739025 144.44868 
L 658.154891 95.845304 
L 659.570757 65.317574 
L 660.986622 62.602215 
L 665.23422 62.374009 
L 666.650086 63.286245 
L 668.065951 75.624045 
L 669.481817 106.416312 
L 670.897683 116.136014 
L 672.313549 117.936306 
L 673.729415 123.754712 
L 675.145281 139.798616 
L 676.561146 142.532711 
L 677.977012 143.309823 
L 679.392878 144.490209 
L 680.808744 155.697882 
L 682.22461 169.569275 
L 683.640475 174.573211 
L 685.056341 182.836804 
L 686.472207 184.597895 
L 687.888073 186.840756 
L 689.303939 205.970119 
L 690.719804 210.82151 
L 692.13567 229.083053 
L 693.551536 237.172622 
L 694.967402 264.183256 
L 696.383268 267.336604 
L 697.799133 234.711282 
L 699.214999 232.994601 
L 700.630865 232.294119 
L 702.046731 239.989018 
L 703.462597 263.881472 
L 704.878462 292.849741 
L 706.294328 299.365846 
L 707.710194 283.14657 
L 709.12606 271.62522 
L 710.541926 288.516218 
L 711.957792 268.877864 
L 713.373657 308.389289 
L 714.789523 335.001421 
L 716.205389 336.663418 
L 717.621255 297.958634 
L 719.037121 359.454017 
L 720.452986 335.744448 
L 721.868852 348.425654 
L 723.284718 333.013508 
L 724.700584 352.521702 
L 726.11645 350.437534 
L 727.532315 337.214868 
L 728.948181 372.329326 
L 730.364047 394.675651 
L 731.779913 378.233298 
L 733.195779 367.410424 
L 734.611644 349.712674 
L 736.02751 368.959384 
L 737.443376 381.949556 
L 738.859242 380.156092 
L 740.275108 374.742749 
L 741.690974 383.007733 
L 743.106839 357.854595 
L 744.522705 350.519944 
L 745.938571 390.702277 
L 747.354437 359.624483 
L 748.770303 353.594135 
L 750.186168 378.09427 
L 751.602034 365.836502 
L 753.0179 372.711045 
L 754.433766 367.464468 
L 755.849632 358.922625 
L 757.265497 335.461369 
L 760.097229 400.410973 
L 761.513095 402.356464 
L 762.928961 407.406947 
L 764.344826 416.949456 
L 765.760692 418.057775 
L 767.176558 401.545075 
L 768.592424 401.511025 
L 770.00829 404.032701 
L 771.424155 411.068441 
L 772.840021 381.627749 
L 774.255887 364.950673 
L 775.671753 396.071905 
L 777.087619 398.541868 
L 778.503485 391.456369 
L 779.91935 402.305761 
L 781.335216 419.370101 
L 782.751082 422.044258 
L 784.166948 386.917459 
L 785.582814 396.17854 
L 786.998679 413.001301 
L 788.414545 405.5298 
L 789.830411 406.287523 
L 792.662143 406.133665 
L 794.078008 371.871663 
L 795.493874 387.697472 
L 796.90974 395.950847 
L 798.325606 417.463033 
L 799.741472 390.81993 
L 801.157337 361.857142 
L 802.573203 374.662452 
L 803.989069 406.552451 
L 805.404935 401.378351 
L 806.820801 392.302981 
L 808.236667 362.428571 
L 811.068398 328.695091 
L 812.484264 328.041336 
L 813.90013 348.938304 
L 815.315996 314.200012 
L 816.731861 325.959314 
L 818.147727 388.760715 
L 819.563593 368.516155 
L 820.979459 359.173032 
L 822.395325 347.814631 
L 823.81119 386.473158 
L 825.227056 371.471181 
L 829.474654 400.752116 
L 830.890519 371.704896 
L 832.306385 361.497191 
L 833.722251 366.810915 
L 835.138117 367.257619 
L 836.553983 381.31561 
L 837.969848 382.323055 
L 839.385714 372.058966 
L 840.80158 346.008121 
L 842.217446 351.585532 
L 843.633312 371.939339 
L 845.049178 375.913531 
L 846.465043 373.928872 
L 847.880909 369.058724 
L 849.296775 356.598599 
L 850.712641 337.095426 
L 852.128507 341.498071 
L 853.544372 345.182931 
L 854.960238 340.473442 
L 856.376104 360.243651 
L 857.79197 392.175436 
L 859.207836 386.332887 
L 860.623701 374.743658 
L 862.039567 367.542215 
L 863.455433 371.245017 
L 864.871299 380.722188 
L 866.287165 398.835585 
L 867.70303 385.136259 
L 869.118896 389.116951 
L 870.534762 399.132898 
L 871.950628 374.284279 
L 873.366494 411.648357 
L 874.78236 403.550679 
L 876.198225 378.104915 
L 877.614091 361.762961 
L 879.029957 413.253818 
L 880.445823 422.597456 
L 881.861689 413.996288 
L 883.277554 411.023803 
L 884.69342 416.245295 
L 886.109286 416.381047 
L 886.109286 416.381047 
" clip-path="url(#p44ee524d98)" style="fill: none; stroke: #ff7f0e; stroke-width: 1.5; stroke-linecap: square"/>
   </g>
   <g id="patch_3">
    <path d="M 122.94 424.8504 
L 122.94 57.2832 
" style="fill: none; stroke: #000000; stroke-width: 0.8; stroke-linejoin: miter; stroke-linecap: square"/>
   </g>
   <g id="patch_4">
    <path d="M 885.168 424.8504 
L 885.168 57.2832 
" style="fill: none; stroke: #000000; stroke-width: 0.8; stroke-linejoin: miter; stroke-linecap: square"/>
   </g>
   <g id="patch_5">
    <path d="M 122.94 424.8504 
L 885.168 424.8504 
" style="fill: none; stroke: #000000; stroke-width: 0.8; stroke-linejoin: miter; stroke-linecap: square"/>
   </g>
   <g id="patch_6">
    <path d="M 122.94 57.2832 
L 885.168 57.2832 
" style="fill: none; stroke: #000000; stroke-width: 0.8; stroke-linejoin: miter; stroke-linecap: square"/>
   </g>
   <g id="text_17">
    <!-- Potencia -->
    <g transform="translate(478.493063 51.2832) scale(0.12 -0.12)">
     <use xlink:href="#DejaVuSans-50"/>
     <use xlink:href="#DejaVuSans-6f" x="56.677734"/>
     <use xlink:href="#DejaVuSans-74" x="117.859375"/>
     <use xlink:href="#DejaVuSans-65" x="157.068359"/>
     <use xlink:href="#DejaVuSans-6e" x="218.591797"/>
     <use xlink:href="#DejaVuSans-63" x="281.970703"/>
     <use xlink:href="#DejaVuSans-69" x="336.951172"/>
     <use xlink:href="#DejaVuSans-61" x="364.734375"/>
    </g>
   </g>
   <g id="legend_1">
    <g id="patch_7">
     <path d="M 783.060187 94.63945 
L 878.168 94.63945 
Q 880.168 94.63945 880.168 92.63945 
L 880.168 64.2832 
Q 880.168 62.2832 878.168 62.2832 
L 783.060187 62.2832 
Q 781.060187 62.2832 781.060187 64.2832 
L 781.060187 92.63945 
Q 781.060187 94.63945 783.060187 94.63945 
z
" style="fill: #ffffff; opacity: 0.8; stroke: #cccccc; stroke-linejoin: miter"/>
    </g>
    <g id="line2d_17">
     <path d="M 785.060187 70.381638 
L 795.060187 70.381638 
L 805.060187 70.381638 
" style="fill: none; stroke: #1f77b4; stroke-width: 1.5; stroke-linecap: square"/>
    </g>
    <g id="text_18">
     <!-- predicciones -->
     <g transform="translate(813.060187 73.881638) scale(0.1 -0.1)">
      <defs>
       <path id="DejaVuSans-70" d="M 1159 525 
L 1159 -1331 
L 581 -1331 
L 581 3500 
L 1159 3500 
L 1159 2969 
Q 1341 3281 1617 3432 
Q 1894 3584 2278 3584 
Q 2916 3584 3314 3078 
Q 3713 2572 3713 1747 
Q 3713 922 3314 415 
Q 2916 -91 2278 -91 
Q 1894 -91 1617 61 
Q 1341 213 1159 525 
z
M 3116 1747 
Q 3116 2381 2855 2742 
Q 2594 3103 2138 3103 
Q 1681 3103 1420 2742 
Q 1159 2381 1159 1747 
Q 1159 1113 1420 752 
Q 1681 391 2138 391 
Q 2594 391 2855 752 
Q 3116 1113 3116 1747 
z
" transform="scale(0.015625)"/>
       <path id="DejaVuSans-72" d="M 2631 2963 
Q 2534 3019 2420 3045 
Q 2306 3072 2169 3072 
Q 1681 3072 1420 2755 
Q 1159 2438 1159 1844 
L 1159 0 
L 581 0 
L 581 3500 
L 1159 3500 
L 1159 2956 
Q 1341 3275 1631 3429 
Q 1922 3584 2338 3584 
Q 2397 3584 2469 3576 
Q 2541 3569 2628 3553 
L 2631 2963 
z
" transform="scale(0.015625)"/>
       <path id="DejaVuSans-64" d="M 2906 2969 
L 2906 4863 
L 3481 4863 
L 3481 0 
L 2906 0 
L 2906 525 
Q 2725 213 2448 61 
Q 2172 -91 1784 -91 
Q 1150 -91 751 415 
Q 353 922 353 1747 
Q 353 2572 751 3078 
Q 1150 3584 1784 3584 
Q 2172 3584 2448 3432 
Q 2725 3281 2906 2969 
z
M 947 1747 
Q 947 1113 1208 752 
Q 1469 391 1925 391 
Q 2381 391 2643 752 
Q 2906 1113 2906 1747 
Q 2906 2381 2643 2742 
Q 2381 3103 1925 3103 
Q 1469 3103 1208 2742 
Q 947 2381 947 1747 
z
" transform="scale(0.015625)"/>
      </defs>
      <use xlink:href="#DejaVuSans-70"/>
      <use xlink:href="#DejaVuSans-72" x="63.476562"/>
      <use xlink:href="#DejaVuSans-65" x="102.339844"/>
      <use xlink:href="#DejaVuSans-64" x="163.863281"/>
      <use xlink:href="#DejaVuSans-69" x="227.339844"/>
      <use xlink:href="#DejaVuSans-63" x="255.123047"/>
      <use xlink:href="#DejaVuSans-63" x="310.103516"/>
      <use xlink:href="#DejaVuSans-69" x="365.083984"/>
      <use xlink:href="#DejaVuSans-6f" x="392.867188"/>
      <use xlink:href="#DejaVuSans-6e" x="454.048828"/>
      <use xlink:href="#DejaVuSans-65" x="517.427734"/>
      <use xlink:href="#DejaVuSans-73" x="578.951172"/>
     </g>
    </g>
    <g id="line2d_18">
     <path d="M 785.060187 85.059763 
L 795.060187 85.059763 
L 805.060187 85.059763 
" style="fill: none; stroke: #ff7f0e; stroke-width: 1.5; stroke-linecap: square"/>
    </g>
    <g id="text_19">
     <!-- Real -->
     <g transform="translate(813.060187 88.559763) scale(0.1 -0.1)">
      <defs>
       <path id="DejaVuSans-52" d="M 2841 2188 
Q 3044 2119 3236 1894 
Q 3428 1669 3622 1275 
L 4263 0 
L 3584 0 
L 2988 1197 
Q 2756 1666 2539 1819 
Q 2322 1972 1947 1972 
L 1259 1972 
L 1259 0 
L 628 0 
L 628 4666 
L 2053 4666 
Q 2853 4666 3247 4331 
Q 3641 3997 3641 3322 
Q 3641 2881 3436 2590 
Q 3231 2300 2841 2188 
z
M 1259 4147 
L 1259 2491 
L 2053 2491 
Q 2509 2491 2742 2702 
Q 2975 2913 2975 3322 
Q 2975 3731 2742 3939 
Q 2509 4147 2053 4147 
L 1259 4147 
z
" transform="scale(0.015625)"/>
       <path id="DejaVuSans-6c" d="M 603 4863 
L 1178 4863 
L 1178 0 
L 603 0 
L 603 4863 
z
" transform="scale(0.015625)"/>
      </defs>
      <use xlink:href="#DejaVuSans-52"/>
      <use xlink:href="#DejaVuSans-65" x="64.982422"/>
      <use xlink:href="#DejaVuSans-61" x="126.505859"/>
      <use xlink:href="#DejaVuSans-6c" x="187.785156"/>
     </g>
    </g>
   </g>
  </g>
 </g>
 <defs>
  <clipPath id="p44ee524d98">
   <rect x="122.94" y="57.2832" width="762.228" height="367.5672"/>
  </clipPath>
 </defs>
</svg>
