<?xml version="1.0" encoding="utf-8" standalone="no"?>
<!DOCTYPE svg PUBLIC "-//W3C//DTD SVG 1.1//EN"
  "http://www.w3.org/Graphics/SVG/1.1/DTD/svg11.dtd">
<svg xmlns:xlink="http://www.w3.org/1999/xlink" width="983.52pt" height="477.36pt" viewBox="0 0 983.52 477.36" xmlns="http://www.w3.org/2000/svg" version="1.1">
 <metadata>
  <rdf:RDF xmlns:dc="http://purl.org/dc/elements/1.1/" xmlns:cc="http://creativecommons.org/ns#" xmlns:rdf="http://www.w3.org/1999/02/22-rdf-syntax-ns#">
   <cc:Work>
    <dc:type rdf:resource="http://purl.org/dc/dcmitype/StillImage"/>
    <dc:date>2024-05-05T11:45:51.888606</dc:date>
    <dc:format>image/svg+xml</dc:format>
    <dc:creator>
     <cc:Agent>
      <dc:title>Matplotlib v3.8.0, https://matplotlib.org/</dc:title>
     </cc:Agent>
    </dc:creator>
   </cc:Work>
  </rdf:RDF>
 </metadata>
 <defs>
  <style type="text/css">*{stroke-linejoin: round; stroke-linecap: butt}</style>
 </defs>
 <g id="figure_1">
  <g id="patch_1">
   <path d="M 0 477.36 
L 983.52 477.36 
L 983.52 0 
L 0 0 
z
" style="fill: #ffffff"/>
  </g>
  <g id="axes_1">
   <g id="patch_2">
    <path d="M 122.94 424.8504 
L 885.168 424.8504 
L 885.168 57.2832 
L 122.94 57.2832 
z
" style="fill: #ffffff"/>
   </g>
   <g id="matplotlib.axis_1">
    <g id="xtick_1">
     <g id="line2d_1">
      <defs>
       <path id="m8c3522ce1a" d="M 0 0 
L 0 3.5 
" style="stroke: #000000; stroke-width: 0.8"/>
      </defs>
      <g>
       <use xlink:href="#m8c3522ce1a" x="156.94396" y="424.8504" style="stroke: #000000; stroke-width: 0.8"/>
      </g>
     </g>
     <g id="text_1">
      <!-- 2400 -->
      <g transform="translate(144.21896 439.448838) scale(0.1 -0.1)">
       <defs>
        <path id="DejaVuSans-32" d="M 1228 531 
L 3431 531 
L 3431 0 
L 469 0 
L 469 531 
Q 828 903 1448 1529 
Q 2069 2156 2228 2338 
Q 2531 2678 2651 2914 
Q 2772 3150 2772 3378 
Q 2772 3750 2511 3984 
Q 2250 4219 1831 4219 
Q 1534 4219 1204 4116 
Q 875 4013 500 3803 
L 500 4441 
Q 881 4594 1212 4672 
Q 1544 4750 1819 4750 
Q 2544 4750 2975 4387 
Q 3406 4025 3406 3419 
Q 3406 3131 3298 2873 
Q 3191 2616 2906 2266 
Q 2828 2175 2409 1742 
Q 1991 1309 1228 531 
z
" transform="scale(0.015625)"/>
        <path id="DejaVuSans-34" d="M 2419 4116 
L 825 1625 
L 2419 1625 
L 2419 4116 
z
M 2253 4666 
L 3047 4666 
L 3047 1625 
L 3713 1625 
L 3713 1100 
L 3047 1100 
L 3047 0 
L 2419 0 
L 2419 1100 
L 313 1100 
L 313 1709 
L 2253 4666 
z
" transform="scale(0.015625)"/>
        <path id="DejaVuSans-30" d="M 2034 4250 
Q 1547 4250 1301 3770 
Q 1056 3291 1056 2328 
Q 1056 1369 1301 889 
Q 1547 409 2034 409 
Q 2525 409 2770 889 
Q 3016 1369 3016 2328 
Q 3016 3291 2770 3770 
Q 2525 4250 2034 4250 
z
M 2034 4750 
Q 2819 4750 3233 4129 
Q 3647 3509 3647 2328 
Q 3647 1150 3233 529 
Q 2819 -91 2034 -91 
Q 1250 -91 836 529 
Q 422 1150 422 2328 
Q 422 3509 836 4129 
Q 1250 4750 2034 4750 
z
" transform="scale(0.015625)"/>
       </defs>
       <use xlink:href="#DejaVuSans-32"/>
       <use xlink:href="#DejaVuSans-34" x="63.623047"/>
       <use xlink:href="#DejaVuSans-30" x="127.246094"/>
       <use xlink:href="#DejaVuSans-30" x="190.869141"/>
      </g>
     </g>
    </g>
    <g id="xtick_2">
     <g id="line2d_2">
      <g>
       <use xlink:href="#m8c3522ce1a" x="244.243315" y="424.8504" style="stroke: #000000; stroke-width: 0.8"/>
      </g>
     </g>
     <g id="text_2">
      <!-- 2450 -->
      <g transform="translate(231.518315 439.448838) scale(0.1 -0.1)">
       <defs>
        <path id="DejaVuSans-35" d="M 691 4666 
L 3169 4666 
L 3169 4134 
L 1269 4134 
L 1269 2991 
Q 1406 3038 1543 3061 
Q 1681 3084 1819 3084 
Q 2600 3084 3056 2656 
Q 3513 2228 3513 1497 
Q 3513 744 3044 326 
Q 2575 -91 1722 -91 
Q 1428 -91 1123 -41 
Q 819 9 494 109 
L 494 744 
Q 775 591 1075 516 
Q 1375 441 1709 441 
Q 2250 441 2565 725 
Q 2881 1009 2881 1497 
Q 2881 1984 2565 2268 
Q 2250 2553 1709 2553 
Q 1456 2553 1204 2497 
Q 953 2441 691 2322 
L 691 4666 
z
" transform="scale(0.015625)"/>
       </defs>
       <use xlink:href="#DejaVuSans-32"/>
       <use xlink:href="#DejaVuSans-34" x="63.623047"/>
       <use xlink:href="#DejaVuSans-35" x="127.246094"/>
       <use xlink:href="#DejaVuSans-30" x="190.869141"/>
      </g>
     </g>
    </g>
    <g id="xtick_3">
     <g id="line2d_3">
      <g>
       <use xlink:href="#m8c3522ce1a" x="331.54267" y="424.8504" style="stroke: #000000; stroke-width: 0.8"/>
      </g>
     </g>
     <g id="text_3">
      <!-- 2500 -->
      <g transform="translate(318.81767 439.448838) scale(0.1 -0.1)">
       <use xlink:href="#DejaVuSans-32"/>
       <use xlink:href="#DejaVuSans-35" x="63.623047"/>
       <use xlink:href="#DejaVuSans-30" x="127.246094"/>
       <use xlink:href="#DejaVuSans-30" x="190.869141"/>
      </g>
     </g>
    </g>
    <g id="xtick_4">
     <g id="line2d_4">
      <g>
       <use xlink:href="#m8c3522ce1a" x="418.842026" y="424.8504" style="stroke: #000000; stroke-width: 0.8"/>
      </g>
     </g>
     <g id="text_4">
      <!-- 2550 -->
      <g transform="translate(406.117026 439.448838) scale(0.1 -0.1)">
       <use xlink:href="#DejaVuSans-32"/>
       <use xlink:href="#DejaVuSans-35" x="63.623047"/>
       <use xlink:href="#DejaVuSans-35" x="127.246094"/>
       <use xlink:href="#DejaVuSans-30" x="190.869141"/>
      </g>
     </g>
    </g>
    <g id="xtick_5">
     <g id="line2d_5">
      <g>
       <use xlink:href="#m8c3522ce1a" x="506.141381" y="424.8504" style="stroke: #000000; stroke-width: 0.8"/>
      </g>
     </g>
     <g id="text_5">
      <!-- 2600 -->
      <g transform="translate(493.416381 439.448838) scale(0.1 -0.1)">
       <defs>
        <path id="DejaVuSans-36" d="M 2113 2584 
Q 1688 2584 1439 2293 
Q 1191 2003 1191 1497 
Q 1191 994 1439 701 
Q 1688 409 2113 409 
Q 2538 409 2786 701 
Q 3034 994 3034 1497 
Q 3034 2003 2786 2293 
Q 2538 2584 2113 2584 
z
M 3366 4563 
L 3366 3988 
Q 3128 4100 2886 4159 
Q 2644 4219 2406 4219 
Q 1781 4219 1451 3797 
Q 1122 3375 1075 2522 
Q 1259 2794 1537 2939 
Q 1816 3084 2150 3084 
Q 2853 3084 3261 2657 
Q 3669 2231 3669 1497 
Q 3669 778 3244 343 
Q 2819 -91 2113 -91 
Q 1303 -91 875 529 
Q 447 1150 447 2328 
Q 447 3434 972 4092 
Q 1497 4750 2381 4750 
Q 2619 4750 2861 4703 
Q 3103 4656 3366 4563 
z
" transform="scale(0.015625)"/>
       </defs>
       <use xlink:href="#DejaVuSans-32"/>
       <use xlink:href="#DejaVuSans-36" x="63.623047"/>
       <use xlink:href="#DejaVuSans-30" x="127.246094"/>
       <use xlink:href="#DejaVuSans-30" x="190.869141"/>
      </g>
     </g>
    </g>
    <g id="xtick_6">
     <g id="line2d_6">
      <g>
       <use xlink:href="#m8c3522ce1a" x="593.440736" y="424.8504" style="stroke: #000000; stroke-width: 0.8"/>
      </g>
     </g>
     <g id="text_6">
      <!-- 2650 -->
      <g transform="translate(580.715736 439.448838) scale(0.1 -0.1)">
       <use xlink:href="#DejaVuSans-32"/>
       <use xlink:href="#DejaVuSans-36" x="63.623047"/>
       <use xlink:href="#DejaVuSans-35" x="127.246094"/>
       <use xlink:href="#DejaVuSans-30" x="190.869141"/>
      </g>
     </g>
    </g>
    <g id="xtick_7">
     <g id="line2d_7">
      <g>
       <use xlink:href="#m8c3522ce1a" x="680.740091" y="424.8504" style="stroke: #000000; stroke-width: 0.8"/>
      </g>
     </g>
     <g id="text_7">
      <!-- 2700 -->
      <g transform="translate(668.015091 439.448838) scale(0.1 -0.1)">
       <defs>
        <path id="DejaVuSans-37" d="M 525 4666 
L 3525 4666 
L 3525 4397 
L 1831 0 
L 1172 0 
L 2766 4134 
L 525 4134 
L 525 4666 
z
" transform="scale(0.015625)"/>
       </defs>
       <use xlink:href="#DejaVuSans-32"/>
       <use xlink:href="#DejaVuSans-37" x="63.623047"/>
       <use xlink:href="#DejaVuSans-30" x="127.246094"/>
       <use xlink:href="#DejaVuSans-30" x="190.869141"/>
      </g>
     </g>
    </g>
    <g id="xtick_8">
     <g id="line2d_8">
      <g>
       <use xlink:href="#m8c3522ce1a" x="768.039447" y="424.8504" style="stroke: #000000; stroke-width: 0.8"/>
      </g>
     </g>
     <g id="text_8">
      <!-- 2750 -->
      <g transform="translate(755.314447 439.448838) scale(0.1 -0.1)">
       <use xlink:href="#DejaVuSans-32"/>
       <use xlink:href="#DejaVuSans-37" x="63.623047"/>
       <use xlink:href="#DejaVuSans-35" x="127.246094"/>
       <use xlink:href="#DejaVuSans-30" x="190.869141"/>
      </g>
     </g>
    </g>
    <g id="xtick_9">
     <g id="line2d_9">
      <g>
       <use xlink:href="#m8c3522ce1a" x="855.338802" y="424.8504" style="stroke: #000000; stroke-width: 0.8"/>
      </g>
     </g>
     <g id="text_9">
      <!-- 2800 -->
      <g transform="translate(842.613802 439.448838) scale(0.1 -0.1)">
       <defs>
        <path id="DejaVuSans-38" d="M 2034 2216 
Q 1584 2216 1326 1975 
Q 1069 1734 1069 1313 
Q 1069 891 1326 650 
Q 1584 409 2034 409 
Q 2484 409 2743 651 
Q 3003 894 3003 1313 
Q 3003 1734 2745 1975 
Q 2488 2216 2034 2216 
z
M 1403 2484 
Q 997 2584 770 2862 
Q 544 3141 544 3541 
Q 544 4100 942 4425 
Q 1341 4750 2034 4750 
Q 2731 4750 3128 4425 
Q 3525 4100 3525 3541 
Q 3525 3141 3298 2862 
Q 3072 2584 2669 2484 
Q 3125 2378 3379 2068 
Q 3634 1759 3634 1313 
Q 3634 634 3220 271 
Q 2806 -91 2034 -91 
Q 1263 -91 848 271 
Q 434 634 434 1313 
Q 434 1759 690 2068 
Q 947 2378 1403 2484 
z
M 1172 3481 
Q 1172 3119 1398 2916 
Q 1625 2713 2034 2713 
Q 2441 2713 2670 2916 
Q 2900 3119 2900 3481 
Q 2900 3844 2670 4047 
Q 2441 4250 2034 4250 
Q 1625 4250 1398 4047 
Q 1172 3844 1172 3481 
z
" transform="scale(0.015625)"/>
       </defs>
       <use xlink:href="#DejaVuSans-32"/>
       <use xlink:href="#DejaVuSans-38" x="63.623047"/>
       <use xlink:href="#DejaVuSans-30" x="127.246094"/>
       <use xlink:href="#DejaVuSans-30" x="190.869141"/>
      </g>
     </g>
    </g>
    <g id="text_10">
     <!-- Instante -->
     <g transform="translate(483.575875 453.126963) scale(0.1 -0.1)">
      <defs>
       <path id="DejaVuSans-49" d="M 628 4666 
L 1259 4666 
L 1259 0 
L 628 0 
L 628 4666 
z
" transform="scale(0.015625)"/>
       <path id="DejaVuSans-6e" d="M 3513 2113 
L 3513 0 
L 2938 0 
L 2938 2094 
Q 2938 2591 2744 2837 
Q 2550 3084 2163 3084 
Q 1697 3084 1428 2787 
Q 1159 2491 1159 1978 
L 1159 0 
L 581 0 
L 581 3500 
L 1159 3500 
L 1159 2956 
Q 1366 3272 1645 3428 
Q 1925 3584 2291 3584 
Q 2894 3584 3203 3211 
Q 3513 2838 3513 2113 
z
" transform="scale(0.015625)"/>
       <path id="DejaVuSans-73" d="M 2834 3397 
L 2834 2853 
Q 2591 2978 2328 3040 
Q 2066 3103 1784 3103 
Q 1356 3103 1142 2972 
Q 928 2841 928 2578 
Q 928 2378 1081 2264 
Q 1234 2150 1697 2047 
L 1894 2003 
Q 2506 1872 2764 1633 
Q 3022 1394 3022 966 
Q 3022 478 2636 193 
Q 2250 -91 1575 -91 
Q 1294 -91 989 -36 
Q 684 19 347 128 
L 347 722 
Q 666 556 975 473 
Q 1284 391 1588 391 
Q 1994 391 2212 530 
Q 2431 669 2431 922 
Q 2431 1156 2273 1281 
Q 2116 1406 1581 1522 
L 1381 1569 
Q 847 1681 609 1914 
Q 372 2147 372 2553 
Q 372 3047 722 3315 
Q 1072 3584 1716 3584 
Q 2034 3584 2315 3537 
Q 2597 3491 2834 3397 
z
" transform="scale(0.015625)"/>
       <path id="DejaVuSans-74" d="M 1172 4494 
L 1172 3500 
L 2356 3500 
L 2356 3053 
L 1172 3053 
L 1172 1153 
Q 1172 725 1289 603 
Q 1406 481 1766 481 
L 2356 481 
L 2356 0 
L 1766 0 
Q 1100 0 847 248 
Q 594 497 594 1153 
L 594 3053 
L 172 3053 
L 172 3500 
L 594 3500 
L 594 4494 
L 1172 4494 
z
" transform="scale(0.015625)"/>
       <path id="DejaVuSans-61" d="M 2194 1759 
Q 1497 1759 1228 1600 
Q 959 1441 959 1056 
Q 959 750 1161 570 
Q 1363 391 1709 391 
Q 2188 391 2477 730 
Q 2766 1069 2766 1631 
L 2766 1759 
L 2194 1759 
z
M 3341 1997 
L 3341 0 
L 2766 0 
L 2766 531 
Q 2569 213 2275 61 
Q 1981 -91 1556 -91 
Q 1019 -91 701 211 
Q 384 513 384 1019 
Q 384 1609 779 1909 
Q 1175 2209 1959 2209 
L 2766 2209 
L 2766 2266 
Q 2766 2663 2505 2880 
Q 2244 3097 1772 3097 
Q 1472 3097 1187 3025 
Q 903 2953 641 2809 
L 641 3341 
Q 956 3463 1253 3523 
Q 1550 3584 1831 3584 
Q 2591 3584 2966 3190 
Q 3341 2797 3341 1997 
z
" transform="scale(0.015625)"/>
       <path id="DejaVuSans-65" d="M 3597 1894 
L 3597 1613 
L 953 1613 
Q 991 1019 1311 708 
Q 1631 397 2203 397 
Q 2534 397 2845 478 
Q 3156 559 3463 722 
L 3463 178 
Q 3153 47 2828 -22 
Q 2503 -91 2169 -91 
Q 1331 -91 842 396 
Q 353 884 353 1716 
Q 353 2575 817 3079 
Q 1281 3584 2069 3584 
Q 2775 3584 3186 3129 
Q 3597 2675 3597 1894 
z
M 3022 2063 
Q 3016 2534 2758 2815 
Q 2500 3097 2075 3097 
Q 1594 3097 1305 2825 
Q 1016 2553 972 2059 
L 3022 2063 
z
" transform="scale(0.015625)"/>
      </defs>
      <use xlink:href="#DejaVuSans-49"/>
      <use xlink:href="#DejaVuSans-6e" x="29.492188"/>
      <use xlink:href="#DejaVuSans-73" x="92.871094"/>
      <use xlink:href="#DejaVuSans-74" x="144.970703"/>
      <use xlink:href="#DejaVuSans-61" x="184.179688"/>
      <use xlink:href="#DejaVuSans-6e" x="245.458984"/>
      <use xlink:href="#DejaVuSans-74" x="308.837891"/>
      <use xlink:href="#DejaVuSans-65" x="348.046875"/>
     </g>
    </g>
   </g>
   <g id="matplotlib.axis_2">
    <g id="ytick_1">
     <g id="line2d_10">
      <defs>
       <path id="m1cf82e0204" d="M 0 0 
L -3.5 0 
" style="stroke: #000000; stroke-width: 0.8"/>
      </defs>
      <g>
       <use xlink:href="#m1cf82e0204" x="122.94" y="363.112504" style="stroke: #000000; stroke-width: 0.8"/>
      </g>
     </g>
     <g id="text_11">
      <!-- 5 -->
      <g transform="translate(109.5775 366.911723) scale(0.1 -0.1)">
       <use xlink:href="#DejaVuSans-35"/>
      </g>
     </g>
    </g>
    <g id="ytick_2">
     <g id="line2d_11">
      <g>
       <use xlink:href="#m1cf82e0204" x="122.94" y="300.47912" style="stroke: #000000; stroke-width: 0.8"/>
      </g>
     </g>
     <g id="text_12">
      <!-- 10 -->
      <g transform="translate(103.215 304.278338) scale(0.1 -0.1)">
       <defs>
        <path id="DejaVuSans-31" d="M 794 531 
L 1825 531 
L 1825 4091 
L 703 3866 
L 703 4441 
L 1819 4666 
L 2450 4666 
L 2450 531 
L 3481 531 
L 3481 0 
L 794 0 
L 794 531 
z
" transform="scale(0.015625)"/>
       </defs>
       <use xlink:href="#DejaVuSans-31"/>
       <use xlink:href="#DejaVuSans-30" x="63.623047"/>
      </g>
     </g>
    </g>
    <g id="ytick_3">
     <g id="line2d_12">
      <g>
       <use xlink:href="#m1cf82e0204" x="122.94" y="237.845736" style="stroke: #000000; stroke-width: 0.8"/>
      </g>
     </g>
     <g id="text_13">
      <!-- 15 -->
      <g transform="translate(103.215 241.644954) scale(0.1 -0.1)">
       <use xlink:href="#DejaVuSans-31"/>
       <use xlink:href="#DejaVuSans-35" x="63.623047"/>
      </g>
     </g>
    </g>
    <g id="ytick_4">
     <g id="line2d_13">
      <g>
       <use xlink:href="#m1cf82e0204" x="122.94" y="175.212352" style="stroke: #000000; stroke-width: 0.8"/>
      </g>
     </g>
     <g id="text_14">
      <!-- 20 -->
      <g transform="translate(103.215 179.01157) scale(0.1 -0.1)">
       <use xlink:href="#DejaVuSans-32"/>
       <use xlink:href="#DejaVuSans-30" x="63.623047"/>
      </g>
     </g>
    </g>
    <g id="ytick_5">
     <g id="line2d_14">
      <g>
       <use xlink:href="#m1cf82e0204" x="122.94" y="112.578967" style="stroke: #000000; stroke-width: 0.8"/>
      </g>
     </g>
     <g id="text_15">
      <!-- 25 -->
      <g transform="translate(103.215 116.378186) scale(0.1 -0.1)">
       <use xlink:href="#DejaVuSans-32"/>
       <use xlink:href="#DejaVuSans-35" x="63.623047"/>
      </g>
     </g>
    </g>
    <g id="text_16">
     <!-- Potencia[W] maximas -->
     <g transform="translate(97.135312 295.623831) rotate(-90) scale(0.1 -0.1)">
      <defs>
       <path id="DejaVuSans-50" d="M 1259 4147 
L 1259 2394 
L 2053 2394 
Q 2494 2394 2734 2622 
Q 2975 2850 2975 3272 
Q 2975 3691 2734 3919 
Q 2494 4147 2053 4147 
L 1259 4147 
z
M 628 4666 
L 2053 4666 
Q 2838 4666 3239 4311 
Q 3641 3956 3641 3272 
Q 3641 2581 3239 2228 
Q 2838 1875 2053 1875 
L 1259 1875 
L 1259 0 
L 628 0 
L 628 4666 
z
" transform="scale(0.015625)"/>
       <path id="DejaVuSans-6f" d="M 1959 3097 
Q 1497 3097 1228 2736 
Q 959 2375 959 1747 
Q 959 1119 1226 758 
Q 1494 397 1959 397 
Q 2419 397 2687 759 
Q 2956 1122 2956 1747 
Q 2956 2369 2687 2733 
Q 2419 3097 1959 3097 
z
M 1959 3584 
Q 2709 3584 3137 3096 
Q 3566 2609 3566 1747 
Q 3566 888 3137 398 
Q 2709 -91 1959 -91 
Q 1206 -91 779 398 
Q 353 888 353 1747 
Q 353 2609 779 3096 
Q 1206 3584 1959 3584 
z
" transform="scale(0.015625)"/>
       <path id="DejaVuSans-63" d="M 3122 3366 
L 3122 2828 
Q 2878 2963 2633 3030 
Q 2388 3097 2138 3097 
Q 1578 3097 1268 2742 
Q 959 2388 959 1747 
Q 959 1106 1268 751 
Q 1578 397 2138 397 
Q 2388 397 2633 464 
Q 2878 531 3122 666 
L 3122 134 
Q 2881 22 2623 -34 
Q 2366 -91 2075 -91 
Q 1284 -91 818 406 
Q 353 903 353 1747 
Q 353 2603 823 3093 
Q 1294 3584 2113 3584 
Q 2378 3584 2631 3529 
Q 2884 3475 3122 3366 
z
" transform="scale(0.015625)"/>
       <path id="DejaVuSans-69" d="M 603 3500 
L 1178 3500 
L 1178 0 
L 603 0 
L 603 3500 
z
M 603 4863 
L 1178 4863 
L 1178 4134 
L 603 4134 
L 603 4863 
z
" transform="scale(0.015625)"/>
       <path id="DejaVuSans-5b" d="M 550 4863 
L 1875 4863 
L 1875 4416 
L 1125 4416 
L 1125 -397 
L 1875 -397 
L 1875 -844 
L 550 -844 
L 550 4863 
z
" transform="scale(0.015625)"/>
       <path id="DejaVuSans-57" d="M 213 4666 
L 850 4666 
L 1831 722 
L 2809 4666 
L 3519 4666 
L 4500 722 
L 5478 4666 
L 6119 4666 
L 4947 0 
L 4153 0 
L 3169 4050 
L 2175 0 
L 1381 0 
L 213 4666 
z
" transform="scale(0.015625)"/>
       <path id="DejaVuSans-5d" d="M 1947 4863 
L 1947 -844 
L 622 -844 
L 622 -397 
L 1369 -397 
L 1369 4416 
L 622 4416 
L 622 4863 
L 1947 4863 
z
" transform="scale(0.015625)"/>
       <path id="DejaVuSans-20" transform="scale(0.015625)"/>
       <path id="DejaVuSans-6d" d="M 3328 2828 
Q 3544 3216 3844 3400 
Q 4144 3584 4550 3584 
Q 5097 3584 5394 3201 
Q 5691 2819 5691 2113 
L 5691 0 
L 5113 0 
L 5113 2094 
Q 5113 2597 4934 2840 
Q 4756 3084 4391 3084 
Q 3944 3084 3684 2787 
Q 3425 2491 3425 1978 
L 3425 0 
L 2847 0 
L 2847 2094 
Q 2847 2600 2669 2842 
Q 2491 3084 2119 3084 
Q 1678 3084 1418 2786 
Q 1159 2488 1159 1978 
L 1159 0 
L 581 0 
L 581 3500 
L 1159 3500 
L 1159 2956 
Q 1356 3278 1631 3431 
Q 1906 3584 2284 3584 
Q 2666 3584 2933 3390 
Q 3200 3197 3328 2828 
z
" transform="scale(0.015625)"/>
       <path id="DejaVuSans-78" d="M 3513 3500 
L 2247 1797 
L 3578 0 
L 2900 0 
L 1881 1375 
L 863 0 
L 184 0 
L 1544 1831 
L 300 3500 
L 978 3500 
L 1906 2253 
L 2834 3500 
L 3513 3500 
z
" transform="scale(0.015625)"/>
      </defs>
      <use xlink:href="#DejaVuSans-50"/>
      <use xlink:href="#DejaVuSans-6f" x="56.677734"/>
      <use xlink:href="#DejaVuSans-74" x="117.859375"/>
      <use xlink:href="#DejaVuSans-65" x="157.068359"/>
      <use xlink:href="#DejaVuSans-6e" x="218.591797"/>
      <use xlink:href="#DejaVuSans-63" x="281.970703"/>
      <use xlink:href="#DejaVuSans-69" x="336.951172"/>
      <use xlink:href="#DejaVuSans-61" x="364.734375"/>
      <use xlink:href="#DejaVuSans-5b" x="426.013672"/>
      <use xlink:href="#DejaVuSans-57" x="465.027344"/>
      <use xlink:href="#DejaVuSans-5d" x="563.904297"/>
      <use xlink:href="#DejaVuSans-20" x="602.917969"/>
      <use xlink:href="#DejaVuSans-6d" x="634.705078"/>
      <use xlink:href="#DejaVuSans-61" x="732.117188"/>
      <use xlink:href="#DejaVuSans-78" x="793.396484"/>
      <use xlink:href="#DejaVuSans-69" x="852.576172"/>
      <use xlink:href="#DejaVuSans-6d" x="880.359375"/>
      <use xlink:href="#DejaVuSans-61" x="977.771484"/>
      <use xlink:href="#DejaVuSans-73" x="1039.050781"/>
     </g>
    </g>
   </g>
   <g id="line2d_15">
    <path d="M 122.024218 421.378101 
L 123.770205 422.095148 
L 125.516192 421.476499 
L 127.262179 421.71493 
L 129.008166 421.632575 
L 130.754153 421.774365 
L 132.500141 421.765787 
L 135.992115 421.150929 
L 137.738102 418.939529 
L 139.484089 410.733398 
L 141.230076 398.427568 
L 142.976063 389.654573 
L 144.72205 400.711696 
L 146.468037 387.47239 
L 148.214024 393.231571 
L 149.960012 392.613567 
L 151.705999 396.436274 
L 153.451986 399.280471 
L 155.197973 403.753918 
L 156.94396 397.747676 
L 158.689947 394.88041 
L 160.435934 405.276988 
L 162.181921 404.161636 
L 163.927908 391.485335 
L 165.673896 401.922039 
L 167.419883 411.39486 
L 169.16587 389.36694 
L 170.911857 411.044992 
L 174.403831 393.362954 
L 176.149818 385.829458 
L 177.895805 362.343438 
L 179.641792 371.400481 
L 181.387779 370.738553 
L 184.879754 396.161502 
L 186.625741 394.839897 
L 188.371728 381.419221 
L 190.117715 388.802648 
L 191.863702 394.079116 
L 193.609689 386.814851 
L 195.355676 382.333276 
L 197.101663 379.503634 
L 198.84765 327.218204 
L 200.593638 400.038149 
L 202.339625 346.912615 
L 204.085612 363.007581 
L 205.831599 352.77462 
L 207.577586 350.595456 
L 209.323573 407.448613 
L 211.06956 289.844029 
L 212.815547 385.413497 
L 214.561534 320.349678 
L 216.307522 328.210023 
L 218.053509 349.390042 
L 219.799496 393.24466 
L 221.545483 314.128514 
L 223.29147 253.071736 
L 225.037457 289.850521 
L 226.783444 252.128163 
L 228.529431 290.981647 
L 230.275418 257.623279 
L 232.021405 242.555886 
L 233.767393 248.132189 
L 235.51338 243.304487 
L 237.259367 244.277081 
L 239.005354 192.767404 
L 240.751341 172.201874 
L 242.497328 234.492444 
L 244.243315 234.640235 
L 245.989302 158.44364 
L 247.735289 160.009629 
L 249.481277 215.642286 
L 251.227264 202.721987 
L 252.973251 187.116859 
L 254.719238 109.069268 
L 256.465225 177.186099 
L 258.211212 135.525703 
L 259.957199 156.784503 
L 261.703186 141.573699 
L 263.449173 194.539243 
L 265.19516 223.157443 
L 266.941148 173.78487 
L 268.687135 216.017455 
L 270.433122 215.988149 
L 272.179109 197.014648 
L 273.925096 227.898611 
L 275.671083 238.74777 
L 277.41707 245.459618 
L 279.163057 266.140968 
L 280.909044 263.041255 
L 282.655032 249.303429 
L 284.401019 249.629586 
L 286.147006 247.33598 
L 287.892993 292.627232 
L 289.63898 306.330556 
L 291.384967 306.256956 
L 293.130954 319.682916 
L 294.876941 317.424568 
L 296.622928 403.854058 
L 298.368915 325.757612 
L 300.114903 372.315902 
L 301.86089 351.463946 
L 303.606877 350.33164 
L 305.352864 366.705497 
L 307.098851 372.813745 
L 310.590825 399.119611 
L 312.336812 360.098154 
L 314.082799 409.283605 
L 315.828787 399.495317 
L 317.574774 392.638442 
L 319.320761 412.674173 
L 321.066748 408.224842 
L 322.812735 419.848495 
L 324.558722 418.726815 
L 326.304709 416.075824 
L 328.050696 415.738007 
L 329.796683 418.841251 
L 331.54267 421.54613 
L 333.288658 421.64885 
L 335.034645 421.432597 
L 336.780632 422.091948 
L 338.526619 421.272751 
L 340.272606 421.394314 
L 342.018593 421.678049 
L 345.510567 422.116344 
L 347.256554 421.601925 
L 349.002542 421.43075 
L 350.748529 422.050484 
L 352.494516 421.475385 
L 354.240503 421.818059 
L 355.98649 421.774279 
L 357.732477 421.594678 
L 359.478464 421.72382 
L 362.970438 421.591985 
L 364.716425 421.655817 
L 366.462413 422.109622 
L 368.2084 421.156632 
L 369.954387 421.283356 
L 371.700374 421.540178 
L 373.446361 421.060825 
L 375.192348 421.547836 
L 376.938335 421.351209 
L 378.684322 421.517945 
L 380.430309 421.554603 
L 382.176297 421.294457 
L 383.922284 422.104656 
L 385.668271 421.532692 
L 387.414258 421.860724 
L 389.160245 421.248984 
L 392.652219 421.622819 
L 394.398206 421.353937 
L 396.144193 421.235845 
L 397.89018 421.921851 
L 399.636168 422.22293 
L 401.382155 421.70916 
L 403.128142 421.634931 
L 404.874129 421.405484 
L 406.620116 421.768386 
L 408.366103 421.34044 
L 410.11209 421.34875 
L 411.858077 421.479025 
L 413.604064 421.323465 
L 418.842026 421.486307 
L 420.588013 421.287897 
L 422.334 421.472216 
L 427.571961 421.477771 
L 432.809923 421.354859 
L 434.55591 421.357066 
L 436.301897 421.476985 
L 439.793871 421.405681 
L 441.539858 421.460583 
L 445.031832 421.360392 
L 446.777819 421.593654 
L 448.523806 421.352175 
L 450.269794 421.606698 
L 453.761768 421.412544 
L 455.507755 421.555497 
L 457.253742 421.388161 
L 458.999729 421.474474 
L 464.23769 421.414572 
L 465.983678 421.454858 
L 467.729665 421.382563 
L 476.4596 421.545826 
L 478.205587 421.395799 
L 481.697561 421.53194 
L 486.935523 421.348974 
L 488.68151 421.593864 
L 493.919471 421.379154 
L 495.665458 421.492973 
L 497.411445 421.350999 
L 500.90342 421.332009 
L 504.395394 421.350667 
L 506.141381 421.671894 
L 507.887368 421.326228 
L 511.379342 421.425944 
L 513.125329 421.344892 
L 514.871316 421.491151 
L 516.617304 421.349325 
L 518.363291 421.456836 
L 520.109278 421.332916 
L 528.839213 421.578153 
L 530.5852 421.391979 
L 534.077175 421.597392 
L 535.823162 421.445217 
L 537.569149 421.594682 
L 544.553097 421.376423 
L 546.299084 421.483633 
L 548.045071 421.382587 
L 549.791059 421.474482 
L 551.537046 421.431722 
L 553.283033 421.645079 
L 555.02902 421.345984 
L 560.266981 421.490389 
L 562.012968 421.38878 
L 563.758955 421.565073 
L 565.504943 421.40592 
L 572.488891 421.39351 
L 574.234878 421.56453 
L 575.980865 421.332548 
L 579.472839 421.678705 
L 581.218826 421.495531 
L 584.710801 421.621314 
L 586.456788 421.330752 
L 589.948762 421.534752 
L 591.694749 421.411085 
L 593.440736 421.47916 
L 595.186723 421.37486 
L 600.424685 421.558377 
L 602.170672 421.383047 
L 603.916659 421.450339 
L 605.662646 421.662182 
L 607.408633 421.60714 
L 609.15462 421.377014 
L 614.392581 421.448367 
L 616.138569 421.370646 
L 617.884556 421.544684 
L 619.630543 421.492774 
L 621.37653 421.593035 
L 623.122517 421.342551 
L 626.614491 421.429041 
L 630.106465 421.647289 
L 631.852452 421.486949 
L 638.836401 421.342572 
L 640.582388 421.638151 
L 642.328375 421.441352 
L 645.820349 421.502653 
L 656.296272 421.390396 
L 658.042259 421.547892 
L 659.788246 421.356827 
L 661.534233 421.61734 
L 663.28022 421.530367 
L 665.026207 421.596937 
L 666.772195 421.347481 
L 672.010156 421.634249 
L 677.248117 421.386275 
L 678.994104 421.613955 
L 687.72404 421.355842 
L 689.470027 421.383424 
L 691.216014 421.65284 
L 692.962001 421.463513 
L 705.183911 421.512018 
L 706.929898 421.638415 
L 708.675885 421.336888 
L 710.421872 421.428294 
L 712.167859 421.374471 
L 715.659834 421.496996 
L 722.643782 421.370307 
L 724.389769 421.472201 
L 726.135756 421.336062 
L 727.881743 421.552259 
L 729.62773 421.383578 
L 731.373717 421.583475 
L 733.119705 421.600753 
L 734.865692 421.367473 
L 740.103653 421.493488 
L 741.84964 421.40561 
L 745.341614 421.500082 
L 747.087601 421.438248 
L 748.833589 421.639128 
L 750.579576 421.406371 
L 752.325563 421.635047 
L 754.07155 421.386002 
L 757.563524 421.421914 
L 759.309511 421.560086 
L 761.055498 421.427354 
L 764.547472 421.60315 
L 766.29346 421.675044 
L 769.785434 421.416907 
L 771.531421 421.6052 
L 773.277408 421.372764 
L 775.023395 421.337088 
L 776.769382 421.476351 
L 778.515369 421.34539 
L 780.261356 421.560807 
L 783.753331 421.356991 
L 785.499318 421.62957 
L 787.245305 421.42943 
L 790.737279 421.340482 
L 792.483266 421.477368 
L 795.97524 421.389043 
L 797.721227 421.441797 
L 801.213202 421.384134 
L 804.705176 421.43417 
L 806.451163 421.348008 
L 808.19715 421.415439 
L 809.943137 421.631669 
L 811.689124 421.471128 
L 813.435111 421.637583 
L 816.927086 421.443348 
L 818.673073 421.543044 
L 820.41906 421.438617 
L 822.165047 421.592372 
L 827.403008 421.38649 
L 829.148995 421.551547 
L 830.894982 421.38827 
L 832.64097 421.503547 
L 839.624918 421.354522 
L 844.862879 421.37084 
L 846.608866 421.602037 
L 848.354853 421.653488 
L 850.100841 421.386801 
L 851.846828 421.523688 
L 853.592815 421.336139 
L 855.338802 421.381647 
L 857.084789 421.638295 
L 860.576763 421.3394 
L 862.32275 421.602969 
L 864.068737 421.42722 
L 865.814725 421.531899 
L 871.052686 421.352625 
L 872.798673 421.451416 
L 874.54466 421.36628 
L 879.782621 421.516352 
L 881.528608 421.604843 
L 883.274596 421.372881 
L 886.76657 421.664438 
L 886.76657 421.664438 
" clip-path="url(#p513707b3c4)" style="fill: none; stroke: #1f77b4; stroke-width: 1.5; stroke-linecap: square"/>
   </g>
   <g id="line2d_16">
    <path d="M 122.024218 419.708234 
L 123.770205 418.15568 
L 125.516192 417.981864 
L 127.262179 418.264498 
L 129.008166 418.344489 
L 130.754153 418.990584 
L 132.500141 409.579471 
L 134.246128 398.778045 
L 135.992115 402.437991 
L 137.738102 417.244167 
L 139.484089 408.787156 
L 141.230076 386.57639 
L 142.976063 389.178483 
L 144.72205 386.305607 
L 146.468037 384.356454 
L 148.214024 392.858961 
L 149.960012 380.29293 
L 151.705999 389.922893 
L 153.451986 393.444752 
L 155.197973 402.566056 
L 156.94396 396.781396 
L 158.689947 394.256675 
L 160.435934 381.901787 
L 162.181921 381.927828 
L 163.927908 388.072735 
L 165.673896 392.267046 
L 167.419883 408.536688 
L 169.16587 386.863117 
L 170.911857 369.901999 
L 172.657844 375.922857 
L 174.403831 378.360097 
L 176.149818 376.743369 
L 177.895805 355.40339 
L 179.641792 365.039101 
L 181.387779 364.504812 
L 183.133767 370.276218 
L 184.879754 380.04737 
L 186.625741 380.178809 
L 188.371728 364.480993 
L 190.117715 380.068414 
L 191.863702 380.696522 
L 193.609689 376.033323 
L 195.355676 373.030431 
L 197.101663 358.593705 
L 198.84765 323.219372 
L 200.593638 324.353006 
L 202.339625 319.900383 
L 204.085612 347.305646 
L 205.831599 332.826569 
L 207.577586 298.820922 
L 209.323573 314.125436 
L 211.06956 289.347473 
L 212.815547 291.779669 
L 214.561534 306.68711 
L 216.307522 316.773625 
L 218.053509 308.392123 
L 219.799496 273.789709 
L 221.545483 299.189945 
L 223.29147 229.410679 
L 225.037457 285.574261 
L 226.783444 246.272949 
L 228.529431 225.521827 
L 230.275418 242.674572 
L 232.021405 218.45142 
L 233.767393 204.79299 
L 235.51338 224.736898 
L 237.259367 183.433083 
L 239.005354 156.036692 
L 240.751341 159.265467 
L 242.497328 168.686657 
L 244.243315 168.402802 
L 245.989302 100.799239 
L 247.735289 114.485413 
L 249.481277 168.420528 
L 251.227264 146.901856 
L 252.973251 135.782955 
L 254.719238 67.998155 
L 256.465225 100.584252 
L 258.211212 127.490825 
L 259.957199 113.307182 
L 261.703186 90.976599 
L 263.449173 73.930929 
L 265.19516 135.667223 
L 266.941148 139.347827 
L 268.687135 167.111578 
L 270.433122 187.877772 
L 272.179109 176.628218 
L 273.925096 193.554646 
L 275.671083 207.247426 
L 277.41707 232.821252 
L 279.163057 228.626481 
L 280.909044 226.626926 
L 282.655032 227.447014 
L 284.401019 207.218278 
L 286.147006 196.008299 
L 287.892993 231.832816 
L 289.63898 283.291529 
L 293.130954 310.278189 
L 294.876941 292.499365 
L 296.622928 289.437867 
L 298.368915 279.995117 
L 300.114903 290.845742 
L 301.86089 330.731681 
L 303.606877 339.619624 
L 305.352864 345.048508 
L 307.098851 358.684467 
L 308.844838 364.207423 
L 310.590825 349.62849 
L 312.336812 359.688736 
L 314.082799 358.51377 
L 315.828787 393.919356 
L 317.574774 391.679197 
L 319.320761 405.103062 
L 321.066748 386.235182 
L 322.812735 381.014608 
L 324.558722 401.062104 
L 326.304709 413.918521 
L 328.050696 401.27757 
L 329.796683 415.553531 
L 331.54267 420.489148 
L 333.288658 420.867299 
L 335.034645 420.703758 
L 336.780632 420.214024 
L 338.526619 420.349281 
L 340.272606 421.081683 
L 342.018593 421.665299 
L 343.76458 420.594367 
L 345.510567 422.02562 
L 347.256554 420.789229 
L 350.748529 422.004237 
L 352.494516 421.231121 
L 354.240503 421.74126 
L 355.98649 421.762062 
L 357.732477 421.031196 
L 359.478464 421.723835 
L 361.224451 421.578846 
L 362.970438 420.941178 
L 366.462413 421.930761 
L 368.2084 421.153465 
L 369.954387 421.2795 
L 371.700374 421.037163 
L 375.192348 420.994827 
L 378.684322 421.488898 
L 380.430309 420.885352 
L 382.176297 421.123015 
L 383.922284 421.987003 
L 385.668271 421.469192 
L 387.414258 421.733671 
L 389.160245 421.241245 
L 390.906232 421.41677 
L 392.652219 420.895468 
L 394.398206 420.869475 
L 396.144193 421.20234 
L 397.89018 420.63787 
L 399.636168 422.092774 
L 401.382155 421.698323 
L 403.128142 421.632365 
L 404.874129 420.984517 
L 406.620116 421.76555 
L 408.366103 421.122026 
L 410.11209 421.154575 
L 411.858077 421.478732 
L 413.604064 421.22639 
L 415.350051 421.371793 
L 417.096039 421.348456 
L 418.842026 421.476518 
L 420.588013 421.237535 
L 422.334 421.45822 
L 427.571961 421.470326 
L 432.809923 421.334752 
L 434.55591 421.332344 
L 436.301897 421.467273 
L 439.793871 421.398607 
L 441.539858 421.452649 
L 445.031832 421.343133 
L 446.777819 421.593685 
L 448.523806 421.340216 
L 450.269794 421.605228 
L 453.761768 421.405561 
L 455.507755 421.549241 
L 457.253742 421.379613 
L 458.999729 421.462976 
L 464.23769 421.406731 
L 469.475652 421.418464 
L 474.713613 421.442776 
L 476.4596 421.542439 
L 478.205587 421.391481 
L 481.697561 421.522228 
L 486.935523 421.336133 
L 488.68151 421.59166 
L 493.919471 421.363425 
L 495.665458 421.484548 
L 497.411445 421.327043 
L 499.157433 421.375804 
L 502.649407 421.24345 
L 504.395394 421.302046 
L 506.141381 421.670598 
L 507.887368 421.289599 
L 511.379342 421.416745 
L 513.125329 421.319148 
L 514.871316 421.485298 
L 516.617304 421.326507 
L 518.363291 421.449993 
L 520.109278 421.308872 
L 525.347239 421.567514 
L 527.093226 421.46179 
L 528.839213 421.574234 
L 530.5852 421.383786 
L 534.077175 421.594336 
L 535.823162 421.433877 
L 537.569149 421.58986 
L 544.553097 421.369019 
L 546.299084 421.469081 
L 548.045071 421.377864 
L 549.791059 421.46206 
L 551.537046 421.415959 
L 553.283033 421.644284 
L 555.02902 421.33091 
L 560.266981 421.48632 
L 562.012968 421.374706 
L 563.758955 421.562957 
L 565.504943 421.386858 
L 572.488891 421.375347 
L 574.234878 421.562832 
L 575.980865 421.304319 
L 579.472839 421.667703 
L 581.218826 421.489936 
L 584.710801 421.620707 
L 586.456788 421.301293 
L 588.202775 421.473976 
L 589.948762 421.527444 
L 591.694749 421.4023 
L 593.440736 421.465103 
L 595.186723 421.366668 
L 600.424685 421.553291 
L 602.170672 421.378711 
L 603.916659 421.436016 
L 605.662646 421.661608 
L 607.408633 421.605228 
L 609.15462 421.371166 
L 614.392581 421.431249 
L 616.138569 421.362741 
L 617.884556 421.539442 
L 619.630543 421.481127 
L 621.37653 421.589637 
L 623.122517 421.32893 
L 624.868504 421.429461 
L 628.360478 421.515588 
L 630.106465 421.646997 
L 631.852452 421.480834 
L 638.836401 421.325604 
L 640.582388 421.638036 
L 642.328375 421.424702 
L 645.820349 421.493886 
L 647.566336 421.474745 
L 649.312324 421.573709 
L 652.804298 421.305649 
L 656.296272 421.37337 
L 658.042259 421.542261 
L 659.788246 421.340757 
L 661.534233 421.616186 
L 663.28022 421.520411 
L 665.026207 421.595678 
L 666.772195 421.329406 
L 672.010156 421.633971 
L 677.248117 421.379924 
L 678.994104 421.611848 
L 687.72404 421.342604 
L 689.470027 421.376112 
L 691.216014 421.652005 
L 692.962001 421.447175 
L 699.94595 421.454959 
L 701.691937 421.334147 
L 703.437924 421.346988 
L 706.929898 421.638038 
L 708.675885 421.31316 
L 710.421872 421.413446 
L 712.167859 421.357577 
L 715.659834 421.487642 
L 722.643782 421.351956 
L 724.389769 421.461846 
L 726.135756 421.315093 
L 727.881743 421.550621 
L 729.62773 421.364476 
L 731.373717 421.581986 
L 733.119705 421.599498 
L 734.865692 421.352432 
L 740.103653 421.481867 
L 741.84964 421.398499 
L 745.341614 421.488622 
L 747.087601 421.426278 
L 748.833589 421.638738 
L 750.579576 421.395149 
L 752.325563 421.634625 
L 754.07155 421.371344 
L 757.563524 421.410937 
L 759.309511 421.552481 
L 761.055498 421.412259 
L 764.547472 421.601751 
L 766.29346 421.674851 
L 769.785434 421.406848 
L 771.531421 421.603837 
L 773.277408 421.361065 
L 775.023395 421.312551 
L 776.769382 421.471878 
L 778.515369 421.330629 
L 780.261356 421.558366 
L 783.753331 421.340231 
L 785.499318 421.629599 
L 787.245305 421.410431 
L 790.737279 421.31935 
L 792.483266 421.466532 
L 795.97524 421.380676 
L 797.721227 421.428856 
L 801.213202 421.368352 
L 804.705176 421.42248 
L 806.451163 421.3325 
L 808.19715 421.401151 
L 809.943137 421.631002 
L 811.689124 421.457201 
L 813.435111 421.636771 
L 816.927086 421.430543 
L 818.673073 421.533758 
L 820.41906 421.424306 
L 822.165047 421.58997 
L 827.403008 421.373489 
L 829.148995 421.546481 
L 830.894982 421.373076 
L 832.64097 421.495157 
L 837.878931 421.363358 
L 844.862879 421.355687 
L 846.608866 421.601121 
L 848.354853 421.653367 
L 850.100841 421.369748 
L 851.846828 421.517999 
L 853.592815 421.313377 
L 855.338802 421.364588 
L 857.084789 421.638246 
L 860.576763 421.317182 
L 862.32275 421.602872 
L 864.068737 421.416938 
L 865.814725 421.527307 
L 871.052686 421.333566 
L 872.798673 421.436752 
L 876.290647 421.376368 
L 878.036634 421.50338 
L 881.528608 421.603117 
L 883.274596 421.365317 
L 886.76657 421.664308 
L 886.76657 421.664308 
" clip-path="url(#p513707b3c4)" style="fill: none; stroke: #ff7f0e; stroke-width: 1.5; stroke-linecap: square"/>
   </g>
   <g id="patch_3">
    <path d="M 122.94 424.8504 
L 122.94 57.2832 
" style="fill: none; stroke: #000000; stroke-width: 0.8; stroke-linejoin: miter; stroke-linecap: square"/>
   </g>
   <g id="patch_4">
    <path d="M 885.168 424.8504 
L 885.168 57.2832 
" style="fill: none; stroke: #000000; stroke-width: 0.8; stroke-linejoin: miter; stroke-linecap: square"/>
   </g>
   <g id="patch_5">
    <path d="M 122.94 424.8504 
L 885.168 424.8504 
" style="fill: none; stroke: #000000; stroke-width: 0.8; stroke-linejoin: miter; stroke-linecap: square"/>
   </g>
   <g id="patch_6">
    <path d="M 122.94 57.2832 
L 885.168 57.2832 
" style="fill: none; stroke: #000000; stroke-width: 0.8; stroke-linejoin: miter; stroke-linecap: square"/>
   </g>
   <g id="text_17">
    <!-- Potencia -->
    <g transform="translate(478.493063 51.2832) scale(0.12 -0.12)">
     <use xlink:href="#DejaVuSans-50"/>
     <use xlink:href="#DejaVuSans-6f" x="56.677734"/>
     <use xlink:href="#DejaVuSans-74" x="117.859375"/>
     <use xlink:href="#DejaVuSans-65" x="157.068359"/>
     <use xlink:href="#DejaVuSans-6e" x="218.591797"/>
     <use xlink:href="#DejaVuSans-63" x="281.970703"/>
     <use xlink:href="#DejaVuSans-69" x="336.951172"/>
     <use xlink:href="#DejaVuSans-61" x="364.734375"/>
    </g>
   </g>
   <g id="legend_1">
    <g id="patch_7">
     <path d="M 783.060187 94.63945 
L 878.168 94.63945 
Q 880.168 94.63945 880.168 92.63945 
L 880.168 64.2832 
Q 880.168 62.2832 878.168 62.2832 
L 783.060187 62.2832 
Q 781.060187 62.2832 781.060187 64.2832 
L 781.060187 92.63945 
Q 781.060187 94.63945 783.060187 94.63945 
z
" style="fill: #ffffff; opacity: 0.8; stroke: #cccccc; stroke-linejoin: miter"/>
    </g>
    <g id="line2d_17">
     <path d="M 785.060187 70.381638 
L 795.060187 70.381638 
L 805.060187 70.381638 
" style="fill: none; stroke: #1f77b4; stroke-width: 1.5; stroke-linecap: square"/>
    </g>
    <g id="text_18">
     <!-- predicciones -->
     <g transform="translate(813.060187 73.881638) scale(0.1 -0.1)">
      <defs>
       <path id="DejaVuSans-70" d="M 1159 525 
L 1159 -1331 
L 581 -1331 
L 581 3500 
L 1159 3500 
L 1159 2969 
Q 1341 3281 1617 3432 
Q 1894 3584 2278 3584 
Q 2916 3584 3314 3078 
Q 3713 2572 3713 1747 
Q 3713 922 3314 415 
Q 2916 -91 2278 -91 
Q 1894 -91 1617 61 
Q 1341 213 1159 525 
z
M 3116 1747 
Q 3116 2381 2855 2742 
Q 2594 3103 2138 3103 
Q 1681 3103 1420 2742 
Q 1159 2381 1159 1747 
Q 1159 1113 1420 752 
Q 1681 391 2138 391 
Q 2594 391 2855 752 
Q 3116 1113 3116 1747 
z
" transform="scale(0.015625)"/>
       <path id="DejaVuSans-72" d="M 2631 2963 
Q 2534 3019 2420 3045 
Q 2306 3072 2169 3072 
Q 1681 3072 1420 2755 
Q 1159 2438 1159 1844 
L 1159 0 
L 581 0 
L 581 3500 
L 1159 3500 
L 1159 2956 
Q 1341 3275 1631 3429 
Q 1922 3584 2338 3584 
Q 2397 3584 2469 3576 
Q 2541 3569 2628 3553 
L 2631 2963 
z
" transform="scale(0.015625)"/>
       <path id="DejaVuSans-64" d="M 2906 2969 
L 2906 4863 
L 3481 4863 
L 3481 0 
L 2906 0 
L 2906 525 
Q 2725 213 2448 61 
Q 2172 -91 1784 -91 
Q 1150 -91 751 415 
Q 353 922 353 1747 
Q 353 2572 751 3078 
Q 1150 3584 1784 3584 
Q 2172 3584 2448 3432 
Q 2725 3281 2906 2969 
z
M 947 1747 
Q 947 1113 1208 752 
Q 1469 391 1925 391 
Q 2381 391 2643 752 
Q 2906 1113 2906 1747 
Q 2906 2381 2643 2742 
Q 2381 3103 1925 3103 
Q 1469 3103 1208 2742 
Q 947 2381 947 1747 
z
" transform="scale(0.015625)"/>
      </defs>
      <use xlink:href="#DejaVuSans-70"/>
      <use xlink:href="#DejaVuSans-72" x="63.476562"/>
      <use xlink:href="#DejaVuSans-65" x="102.339844"/>
      <use xlink:href="#DejaVuSans-64" x="163.863281"/>
      <use xlink:href="#DejaVuSans-69" x="227.339844"/>
      <use xlink:href="#DejaVuSans-63" x="255.123047"/>
      <use xlink:href="#DejaVuSans-63" x="310.103516"/>
      <use xlink:href="#DejaVuSans-69" x="365.083984"/>
      <use xlink:href="#DejaVuSans-6f" x="392.867188"/>
      <use xlink:href="#DejaVuSans-6e" x="454.048828"/>
      <use xlink:href="#DejaVuSans-65" x="517.427734"/>
      <use xlink:href="#DejaVuSans-73" x="578.951172"/>
     </g>
    </g>
    <g id="line2d_18">
     <path d="M 785.060187 85.059763 
L 795.060187 85.059763 
L 805.060187 85.059763 
" style="fill: none; stroke: #ff7f0e; stroke-width: 1.5; stroke-linecap: square"/>
    </g>
    <g id="text_19">
     <!-- Real -->
     <g transform="translate(813.060187 88.559763) scale(0.1 -0.1)">
      <defs>
       <path id="DejaVuSans-52" d="M 2841 2188 
Q 3044 2119 3236 1894 
Q 3428 1669 3622 1275 
L 4263 0 
L 3584 0 
L 2988 1197 
Q 2756 1666 2539 1819 
Q 2322 1972 1947 1972 
L 1259 1972 
L 1259 0 
L 628 0 
L 628 4666 
L 2053 4666 
Q 2853 4666 3247 4331 
Q 3641 3997 3641 3322 
Q 3641 2881 3436 2590 
Q 3231 2300 2841 2188 
z
M 1259 4147 
L 1259 2491 
L 2053 2491 
Q 2509 2491 2742 2702 
Q 2975 2913 2975 3322 
Q 2975 3731 2742 3939 
Q 2509 4147 2053 4147 
L 1259 4147 
z
" transform="scale(0.015625)"/>
       <path id="DejaVuSans-6c" d="M 603 4863 
L 1178 4863 
L 1178 0 
L 603 0 
L 603 4863 
z
" transform="scale(0.015625)"/>
      </defs>
      <use xlink:href="#DejaVuSans-52"/>
      <use xlink:href="#DejaVuSans-65" x="64.982422"/>
      <use xlink:href="#DejaVuSans-61" x="126.505859"/>
      <use xlink:href="#DejaVuSans-6c" x="187.785156"/>
     </g>
    </g>
   </g>
  </g>
 </g>
 <defs>
  <clipPath id="p513707b3c4">
   <rect x="122.94" y="57.2832" width="762.228" height="367.5672"/>
  </clipPath>
 </defs>
</svg>
