<?xml version="1.0" encoding="utf-8" standalone="no"?>
<!DOCTYPE svg PUBLIC "-//W3C//DTD SVG 1.1//EN"
  "http://www.w3.org/Graphics/SVG/1.1/DTD/svg11.dtd">
<svg xmlns:xlink="http://www.w3.org/1999/xlink" width="983.52pt" height="477.36pt" viewBox="0 0 983.52 477.36" xmlns="http://www.w3.org/2000/svg" version="1.1">
 <metadata>
  <rdf:RDF xmlns:dc="http://purl.org/dc/elements/1.1/" xmlns:cc="http://creativecommons.org/ns#" xmlns:rdf="http://www.w3.org/1999/02/22-rdf-syntax-ns#">
   <cc:Work>
    <dc:type rdf:resource="http://purl.org/dc/dcmitype/StillImage"/>
    <dc:date>2024-05-05T11:46:14.853770</dc:date>
    <dc:format>image/svg+xml</dc:format>
    <dc:creator>
     <cc:Agent>
      <dc:title>Matplotlib v3.8.0, https://matplotlib.org/</dc:title>
     </cc:Agent>
    </dc:creator>
   </cc:Work>
  </rdf:RDF>
 </metadata>
 <defs>
  <style type="text/css">*{stroke-linejoin: round; stroke-linecap: butt}</style>
 </defs>
 <g id="figure_1">
  <g id="patch_1">
   <path d="M 0 477.36 
L 983.52 477.36 
L 983.52 0 
L 0 0 
z
" style="fill: #ffffff"/>
  </g>
  <g id="axes_1">
   <g id="patch_2">
    <path d="M 122.94 424.8504 
L 885.168 424.8504 
L 885.168 57.2832 
L 122.94 57.2832 
z
" style="fill: #ffffff"/>
   </g>
   <g id="matplotlib.axis_1">
    <g id="xtick_1">
     <g id="line2d_1">
      <defs>
       <path id="m678191252b" d="M 0 0 
L 0 3.5 
" style="stroke: #000000; stroke-width: 0.8"/>
      </defs>
      <g>
       <use xlink:href="#m678191252b" x="172.898645" y="424.8504" style="stroke: #000000; stroke-width: 0.8"/>
      </g>
     </g>
     <g id="text_1">
      <!-- 200 -->
      <g transform="translate(163.354895 439.448838) scale(0.1 -0.1)">
       <defs>
        <path id="DejaVuSans-32" d="M 1228 531 
L 3431 531 
L 3431 0 
L 469 0 
L 469 531 
Q 828 903 1448 1529 
Q 2069 2156 2228 2338 
Q 2531 2678 2651 2914 
Q 2772 3150 2772 3378 
Q 2772 3750 2511 3984 
Q 2250 4219 1831 4219 
Q 1534 4219 1204 4116 
Q 875 4013 500 3803 
L 500 4441 
Q 881 4594 1212 4672 
Q 1544 4750 1819 4750 
Q 2544 4750 2975 4387 
Q 3406 4025 3406 3419 
Q 3406 3131 3298 2873 
Q 3191 2616 2906 2266 
Q 2828 2175 2409 1742 
Q 1991 1309 1228 531 
z
" transform="scale(0.015625)"/>
        <path id="DejaVuSans-30" d="M 2034 4250 
Q 1547 4250 1301 3770 
Q 1056 3291 1056 2328 
Q 1056 1369 1301 889 
Q 1547 409 2034 409 
Q 2525 409 2770 889 
Q 3016 1369 3016 2328 
Q 3016 3291 2770 3770 
Q 2525 4250 2034 4250 
z
M 2034 4750 
Q 2819 4750 3233 4129 
Q 3647 3509 3647 2328 
Q 3647 1150 3233 529 
Q 2819 -91 2034 -91 
Q 1250 -91 836 529 
Q 422 1150 422 2328 
Q 422 3509 836 4129 
Q 1250 4750 2034 4750 
z
" transform="scale(0.015625)"/>
       </defs>
       <use xlink:href="#DejaVuSans-32"/>
       <use xlink:href="#DejaVuSans-30" x="63.623047"/>
       <use xlink:href="#DejaVuSans-30" x="127.246094"/>
      </g>
     </g>
    </g>
    <g id="xtick_2">
     <g id="line2d_2">
      <g>
       <use xlink:href="#m678191252b" x="262.376925" y="424.8504" style="stroke: #000000; stroke-width: 0.8"/>
      </g>
     </g>
     <g id="text_2">
      <!-- 250 -->
      <g transform="translate(252.833175 439.448838) scale(0.1 -0.1)">
       <defs>
        <path id="DejaVuSans-35" d="M 691 4666 
L 3169 4666 
L 3169 4134 
L 1269 4134 
L 1269 2991 
Q 1406 3038 1543 3061 
Q 1681 3084 1819 3084 
Q 2600 3084 3056 2656 
Q 3513 2228 3513 1497 
Q 3513 744 3044 326 
Q 2575 -91 1722 -91 
Q 1428 -91 1123 -41 
Q 819 9 494 109 
L 494 744 
Q 775 591 1075 516 
Q 1375 441 1709 441 
Q 2250 441 2565 725 
Q 2881 1009 2881 1497 
Q 2881 1984 2565 2268 
Q 2250 2553 1709 2553 
Q 1456 2553 1204 2497 
Q 953 2441 691 2322 
L 691 4666 
z
" transform="scale(0.015625)"/>
       </defs>
       <use xlink:href="#DejaVuSans-32"/>
       <use xlink:href="#DejaVuSans-35" x="63.623047"/>
       <use xlink:href="#DejaVuSans-30" x="127.246094"/>
      </g>
     </g>
    </g>
    <g id="xtick_3">
     <g id="line2d_3">
      <g>
       <use xlink:href="#m678191252b" x="351.855206" y="424.8504" style="stroke: #000000; stroke-width: 0.8"/>
      </g>
     </g>
     <g id="text_3">
      <!-- 300 -->
      <g transform="translate(342.311456 439.448838) scale(0.1 -0.1)">
       <defs>
        <path id="DejaVuSans-33" d="M 2597 2516 
Q 3050 2419 3304 2112 
Q 3559 1806 3559 1356 
Q 3559 666 3084 287 
Q 2609 -91 1734 -91 
Q 1441 -91 1130 -33 
Q 819 25 488 141 
L 488 750 
Q 750 597 1062 519 
Q 1375 441 1716 441 
Q 2309 441 2620 675 
Q 2931 909 2931 1356 
Q 2931 1769 2642 2001 
Q 2353 2234 1838 2234 
L 1294 2234 
L 1294 2753 
L 1863 2753 
Q 2328 2753 2575 2939 
Q 2822 3125 2822 3475 
Q 2822 3834 2567 4026 
Q 2313 4219 1838 4219 
Q 1578 4219 1281 4162 
Q 984 4106 628 3988 
L 628 4550 
Q 988 4650 1302 4700 
Q 1616 4750 1894 4750 
Q 2613 4750 3031 4423 
Q 3450 4097 3450 3541 
Q 3450 3153 3228 2886 
Q 3006 2619 2597 2516 
z
" transform="scale(0.015625)"/>
       </defs>
       <use xlink:href="#DejaVuSans-33"/>
       <use xlink:href="#DejaVuSans-30" x="63.623047"/>
       <use xlink:href="#DejaVuSans-30" x="127.246094"/>
      </g>
     </g>
    </g>
    <g id="xtick_4">
     <g id="line2d_4">
      <g>
       <use xlink:href="#m678191252b" x="441.333486" y="424.8504" style="stroke: #000000; stroke-width: 0.8"/>
      </g>
     </g>
     <g id="text_4">
      <!-- 350 -->
      <g transform="translate(431.789736 439.448838) scale(0.1 -0.1)">
       <use xlink:href="#DejaVuSans-33"/>
       <use xlink:href="#DejaVuSans-35" x="63.623047"/>
       <use xlink:href="#DejaVuSans-30" x="127.246094"/>
      </g>
     </g>
    </g>
    <g id="xtick_5">
     <g id="line2d_5">
      <g>
       <use xlink:href="#m678191252b" x="530.811767" y="424.8504" style="stroke: #000000; stroke-width: 0.8"/>
      </g>
     </g>
     <g id="text_5">
      <!-- 400 -->
      <g transform="translate(521.268017 439.448838) scale(0.1 -0.1)">
       <defs>
        <path id="DejaVuSans-34" d="M 2419 4116 
L 825 1625 
L 2419 1625 
L 2419 4116 
z
M 2253 4666 
L 3047 4666 
L 3047 1625 
L 3713 1625 
L 3713 1100 
L 3047 1100 
L 3047 0 
L 2419 0 
L 2419 1100 
L 313 1100 
L 313 1709 
L 2253 4666 
z
" transform="scale(0.015625)"/>
       </defs>
       <use xlink:href="#DejaVuSans-34"/>
       <use xlink:href="#DejaVuSans-30" x="63.623047"/>
       <use xlink:href="#DejaVuSans-30" x="127.246094"/>
      </g>
     </g>
    </g>
    <g id="xtick_6">
     <g id="line2d_6">
      <g>
       <use xlink:href="#m678191252b" x="620.290048" y="424.8504" style="stroke: #000000; stroke-width: 0.8"/>
      </g>
     </g>
     <g id="text_6">
      <!-- 450 -->
      <g transform="translate(610.746298 439.448838) scale(0.1 -0.1)">
       <use xlink:href="#DejaVuSans-34"/>
       <use xlink:href="#DejaVuSans-35" x="63.623047"/>
       <use xlink:href="#DejaVuSans-30" x="127.246094"/>
      </g>
     </g>
    </g>
    <g id="xtick_7">
     <g id="line2d_7">
      <g>
       <use xlink:href="#m678191252b" x="709.768328" y="424.8504" style="stroke: #000000; stroke-width: 0.8"/>
      </g>
     </g>
     <g id="text_7">
      <!-- 500 -->
      <g transform="translate(700.224578 439.448838) scale(0.1 -0.1)">
       <use xlink:href="#DejaVuSans-35"/>
       <use xlink:href="#DejaVuSans-30" x="63.623047"/>
       <use xlink:href="#DejaVuSans-30" x="127.246094"/>
      </g>
     </g>
    </g>
    <g id="xtick_8">
     <g id="line2d_8">
      <g>
       <use xlink:href="#m678191252b" x="799.246609" y="424.8504" style="stroke: #000000; stroke-width: 0.8"/>
      </g>
     </g>
     <g id="text_8">
      <!-- 550 -->
      <g transform="translate(789.702859 439.448838) scale(0.1 -0.1)">
       <use xlink:href="#DejaVuSans-35"/>
       <use xlink:href="#DejaVuSans-35" x="63.623047"/>
       <use xlink:href="#DejaVuSans-30" x="127.246094"/>
      </g>
     </g>
    </g>
    <g id="text_9">
     <!-- Instante -->
     <g transform="translate(483.575875 453.126963) scale(0.1 -0.1)">
      <defs>
       <path id="DejaVuSans-49" d="M 628 4666 
L 1259 4666 
L 1259 0 
L 628 0 
L 628 4666 
z
" transform="scale(0.015625)"/>
       <path id="DejaVuSans-6e" d="M 3513 2113 
L 3513 0 
L 2938 0 
L 2938 2094 
Q 2938 2591 2744 2837 
Q 2550 3084 2163 3084 
Q 1697 3084 1428 2787 
Q 1159 2491 1159 1978 
L 1159 0 
L 581 0 
L 581 3500 
L 1159 3500 
L 1159 2956 
Q 1366 3272 1645 3428 
Q 1925 3584 2291 3584 
Q 2894 3584 3203 3211 
Q 3513 2838 3513 2113 
z
" transform="scale(0.015625)"/>
       <path id="DejaVuSans-73" d="M 2834 3397 
L 2834 2853 
Q 2591 2978 2328 3040 
Q 2066 3103 1784 3103 
Q 1356 3103 1142 2972 
Q 928 2841 928 2578 
Q 928 2378 1081 2264 
Q 1234 2150 1697 2047 
L 1894 2003 
Q 2506 1872 2764 1633 
Q 3022 1394 3022 966 
Q 3022 478 2636 193 
Q 2250 -91 1575 -91 
Q 1294 -91 989 -36 
Q 684 19 347 128 
L 347 722 
Q 666 556 975 473 
Q 1284 391 1588 391 
Q 1994 391 2212 530 
Q 2431 669 2431 922 
Q 2431 1156 2273 1281 
Q 2116 1406 1581 1522 
L 1381 1569 
Q 847 1681 609 1914 
Q 372 2147 372 2553 
Q 372 3047 722 3315 
Q 1072 3584 1716 3584 
Q 2034 3584 2315 3537 
Q 2597 3491 2834 3397 
z
" transform="scale(0.015625)"/>
       <path id="DejaVuSans-74" d="M 1172 4494 
L 1172 3500 
L 2356 3500 
L 2356 3053 
L 1172 3053 
L 1172 1153 
Q 1172 725 1289 603 
Q 1406 481 1766 481 
L 2356 481 
L 2356 0 
L 1766 0 
Q 1100 0 847 248 
Q 594 497 594 1153 
L 594 3053 
L 172 3053 
L 172 3500 
L 594 3500 
L 594 4494 
L 1172 4494 
z
" transform="scale(0.015625)"/>
       <path id="DejaVuSans-61" d="M 2194 1759 
Q 1497 1759 1228 1600 
Q 959 1441 959 1056 
Q 959 750 1161 570 
Q 1363 391 1709 391 
Q 2188 391 2477 730 
Q 2766 1069 2766 1631 
L 2766 1759 
L 2194 1759 
z
M 3341 1997 
L 3341 0 
L 2766 0 
L 2766 531 
Q 2569 213 2275 61 
Q 1981 -91 1556 -91 
Q 1019 -91 701 211 
Q 384 513 384 1019 
Q 384 1609 779 1909 
Q 1175 2209 1959 2209 
L 2766 2209 
L 2766 2266 
Q 2766 2663 2505 2880 
Q 2244 3097 1772 3097 
Q 1472 3097 1187 3025 
Q 903 2953 641 2809 
L 641 3341 
Q 956 3463 1253 3523 
Q 1550 3584 1831 3584 
Q 2591 3584 2966 3190 
Q 3341 2797 3341 1997 
z
" transform="scale(0.015625)"/>
       <path id="DejaVuSans-65" d="M 3597 1894 
L 3597 1613 
L 953 1613 
Q 991 1019 1311 708 
Q 1631 397 2203 397 
Q 2534 397 2845 478 
Q 3156 559 3463 722 
L 3463 178 
Q 3153 47 2828 -22 
Q 2503 -91 2169 -91 
Q 1331 -91 842 396 
Q 353 884 353 1716 
Q 353 2575 817 3079 
Q 1281 3584 2069 3584 
Q 2775 3584 3186 3129 
Q 3597 2675 3597 1894 
z
M 3022 2063 
Q 3016 2534 2758 2815 
Q 2500 3097 2075 3097 
Q 1594 3097 1305 2825 
Q 1016 2553 972 2059 
L 3022 2063 
z
" transform="scale(0.015625)"/>
      </defs>
      <use xlink:href="#DejaVuSans-49"/>
      <use xlink:href="#DejaVuSans-6e" x="29.492188"/>
      <use xlink:href="#DejaVuSans-73" x="92.871094"/>
      <use xlink:href="#DejaVuSans-74" x="144.970703"/>
      <use xlink:href="#DejaVuSans-61" x="184.179688"/>
      <use xlink:href="#DejaVuSans-6e" x="245.458984"/>
      <use xlink:href="#DejaVuSans-74" x="308.837891"/>
      <use xlink:href="#DejaVuSans-65" x="348.046875"/>
     </g>
    </g>
   </g>
   <g id="matplotlib.axis_2">
    <g id="ytick_1">
     <g id="line2d_9">
      <defs>
       <path id="m9192b84539" d="M 0 0 
L -3.5 0 
" style="stroke: #000000; stroke-width: 0.8"/>
      </defs>
      <g>
       <use xlink:href="#m9192b84539" x="122.94" y="392.806407" style="stroke: #000000; stroke-width: 0.8"/>
      </g>
     </g>
     <g id="text_10">
      <!-- 10 -->
      <g transform="translate(103.215 396.605626) scale(0.1 -0.1)">
       <defs>
        <path id="DejaVuSans-31" d="M 794 531 
L 1825 531 
L 1825 4091 
L 703 3866 
L 703 4441 
L 1819 4666 
L 2450 4666 
L 2450 531 
L 3481 531 
L 3481 0 
L 794 0 
L 794 531 
z
" transform="scale(0.015625)"/>
       </defs>
       <use xlink:href="#DejaVuSans-31"/>
       <use xlink:href="#DejaVuSans-30" x="63.623047"/>
      </g>
     </g>
    </g>
    <g id="ytick_2">
     <g id="line2d_10">
      <g>
       <use xlink:href="#m9192b84539" x="122.94" y="315.790199" style="stroke: #000000; stroke-width: 0.8"/>
      </g>
     </g>
     <g id="text_11">
      <!-- 20 -->
      <g transform="translate(103.215 319.589418) scale(0.1 -0.1)">
       <use xlink:href="#DejaVuSans-32"/>
       <use xlink:href="#DejaVuSans-30" x="63.623047"/>
      </g>
     </g>
    </g>
    <g id="ytick_3">
     <g id="line2d_11">
      <g>
       <use xlink:href="#m9192b84539" x="122.94" y="238.773991" style="stroke: #000000; stroke-width: 0.8"/>
      </g>
     </g>
     <g id="text_12">
      <!-- 30 -->
      <g transform="translate(103.215 242.57321) scale(0.1 -0.1)">
       <use xlink:href="#DejaVuSans-33"/>
       <use xlink:href="#DejaVuSans-30" x="63.623047"/>
      </g>
     </g>
    </g>
    <g id="ytick_4">
     <g id="line2d_12">
      <g>
       <use xlink:href="#m9192b84539" x="122.94" y="161.757784" style="stroke: #000000; stroke-width: 0.8"/>
      </g>
     </g>
     <g id="text_13">
      <!-- 40 -->
      <g transform="translate(103.215 165.557002) scale(0.1 -0.1)">
       <use xlink:href="#DejaVuSans-34"/>
       <use xlink:href="#DejaVuSans-30" x="63.623047"/>
      </g>
     </g>
    </g>
    <g id="ytick_5">
     <g id="line2d_13">
      <g>
       <use xlink:href="#m9192b84539" x="122.94" y="84.741576" style="stroke: #000000; stroke-width: 0.8"/>
      </g>
     </g>
     <g id="text_14">
      <!-- 50 -->
      <g transform="translate(103.215 88.540795) scale(0.1 -0.1)">
       <use xlink:href="#DejaVuSans-35"/>
       <use xlink:href="#DejaVuSans-30" x="63.623047"/>
      </g>
     </g>
    </g>
    <g id="text_15">
     <!-- Potencia[W] maximas -->
     <g transform="translate(97.135312 295.623831) rotate(-90) scale(0.1 -0.1)">
      <defs>
       <path id="DejaVuSans-50" d="M 1259 4147 
L 1259 2394 
L 2053 2394 
Q 2494 2394 2734 2622 
Q 2975 2850 2975 3272 
Q 2975 3691 2734 3919 
Q 2494 4147 2053 4147 
L 1259 4147 
z
M 628 4666 
L 2053 4666 
Q 2838 4666 3239 4311 
Q 3641 3956 3641 3272 
Q 3641 2581 3239 2228 
Q 2838 1875 2053 1875 
L 1259 1875 
L 1259 0 
L 628 0 
L 628 4666 
z
" transform="scale(0.015625)"/>
       <path id="DejaVuSans-6f" d="M 1959 3097 
Q 1497 3097 1228 2736 
Q 959 2375 959 1747 
Q 959 1119 1226 758 
Q 1494 397 1959 397 
Q 2419 397 2687 759 
Q 2956 1122 2956 1747 
Q 2956 2369 2687 2733 
Q 2419 3097 1959 3097 
z
M 1959 3584 
Q 2709 3584 3137 3096 
Q 3566 2609 3566 1747 
Q 3566 888 3137 398 
Q 2709 -91 1959 -91 
Q 1206 -91 779 398 
Q 353 888 353 1747 
Q 353 2609 779 3096 
Q 1206 3584 1959 3584 
z
" transform="scale(0.015625)"/>
       <path id="DejaVuSans-63" d="M 3122 3366 
L 3122 2828 
Q 2878 2963 2633 3030 
Q 2388 3097 2138 3097 
Q 1578 3097 1268 2742 
Q 959 2388 959 1747 
Q 959 1106 1268 751 
Q 1578 397 2138 397 
Q 2388 397 2633 464 
Q 2878 531 3122 666 
L 3122 134 
Q 2881 22 2623 -34 
Q 2366 -91 2075 -91 
Q 1284 -91 818 406 
Q 353 903 353 1747 
Q 353 2603 823 3093 
Q 1294 3584 2113 3584 
Q 2378 3584 2631 3529 
Q 2884 3475 3122 3366 
z
" transform="scale(0.015625)"/>
       <path id="DejaVuSans-69" d="M 603 3500 
L 1178 3500 
L 1178 0 
L 603 0 
L 603 3500 
z
M 603 4863 
L 1178 4863 
L 1178 4134 
L 603 4134 
L 603 4863 
z
" transform="scale(0.015625)"/>
       <path id="DejaVuSans-5b" d="M 550 4863 
L 1875 4863 
L 1875 4416 
L 1125 4416 
L 1125 -397 
L 1875 -397 
L 1875 -844 
L 550 -844 
L 550 4863 
z
" transform="scale(0.015625)"/>
       <path id="DejaVuSans-57" d="M 213 4666 
L 850 4666 
L 1831 722 
L 2809 4666 
L 3519 4666 
L 4500 722 
L 5478 4666 
L 6119 4666 
L 4947 0 
L 4153 0 
L 3169 4050 
L 2175 0 
L 1381 0 
L 213 4666 
z
" transform="scale(0.015625)"/>
       <path id="DejaVuSans-5d" d="M 1947 4863 
L 1947 -844 
L 622 -844 
L 622 -397 
L 1369 -397 
L 1369 4416 
L 622 4416 
L 622 4863 
L 1947 4863 
z
" transform="scale(0.015625)"/>
       <path id="DejaVuSans-20" transform="scale(0.015625)"/>
       <path id="DejaVuSans-6d" d="M 3328 2828 
Q 3544 3216 3844 3400 
Q 4144 3584 4550 3584 
Q 5097 3584 5394 3201 
Q 5691 2819 5691 2113 
L 5691 0 
L 5113 0 
L 5113 2094 
Q 5113 2597 4934 2840 
Q 4756 3084 4391 3084 
Q 3944 3084 3684 2787 
Q 3425 2491 3425 1978 
L 3425 0 
L 2847 0 
L 2847 2094 
Q 2847 2600 2669 2842 
Q 2491 3084 2119 3084 
Q 1678 3084 1418 2786 
Q 1159 2488 1159 1978 
L 1159 0 
L 581 0 
L 581 3500 
L 1159 3500 
L 1159 2956 
Q 1356 3278 1631 3431 
Q 1906 3584 2284 3584 
Q 2666 3584 2933 3390 
Q 3200 3197 3328 2828 
z
" transform="scale(0.015625)"/>
       <path id="DejaVuSans-78" d="M 3513 3500 
L 2247 1797 
L 3578 0 
L 2900 0 
L 1881 1375 
L 863 0 
L 184 0 
L 1544 1831 
L 300 3500 
L 978 3500 
L 1906 2253 
L 2834 3500 
L 3513 3500 
z
" transform="scale(0.015625)"/>
      </defs>
      <use xlink:href="#DejaVuSans-50"/>
      <use xlink:href="#DejaVuSans-6f" x="56.677734"/>
      <use xlink:href="#DejaVuSans-74" x="117.859375"/>
      <use xlink:href="#DejaVuSans-65" x="157.068359"/>
      <use xlink:href="#DejaVuSans-6e" x="218.591797"/>
      <use xlink:href="#DejaVuSans-63" x="281.970703"/>
      <use xlink:href="#DejaVuSans-69" x="336.951172"/>
      <use xlink:href="#DejaVuSans-61" x="364.734375"/>
      <use xlink:href="#DejaVuSans-5b" x="426.013672"/>
      <use xlink:href="#DejaVuSans-57" x="465.027344"/>
      <use xlink:href="#DejaVuSans-5d" x="563.904297"/>
      <use xlink:href="#DejaVuSans-20" x="602.917969"/>
      <use xlink:href="#DejaVuSans-6d" x="634.705078"/>
      <use xlink:href="#DejaVuSans-61" x="732.117188"/>
      <use xlink:href="#DejaVuSans-78" x="793.396484"/>
      <use xlink:href="#DejaVuSans-69" x="852.576172"/>
      <use xlink:href="#DejaVuSans-6d" x="880.359375"/>
      <use xlink:href="#DejaVuSans-61" x="977.771484"/>
      <use xlink:href="#DejaVuSans-73" x="1039.050781"/>
     </g>
    </g>
   </g>
   <g id="line2d_14">
    <path d="M 122.790808 63.832829 
L 137.107332 63.826578 
L 149.634292 63.836969 
L 280.272581 63.902269 
L 283.851713 64.212783 
L 285.641278 69.829418 
L 287.430844 88.975027 
L 289.220409 153.929291 
L 291.009975 143.607528 
L 292.799541 180.986358 
L 294.589106 245.015313 
L 296.378672 140.487543 
L 298.168238 263.044985 
L 299.957803 212.017328 
L 301.747369 231.2928 
L 303.536934 200.989678 
L 305.3265 252.021901 
L 307.116066 270.410772 
L 308.905631 269.334348 
L 310.695197 271.632884 
L 312.484762 271.861023 
L 316.063894 343.078881 
L 317.853459 338.271634 
L 319.643025 291.317529 
L 321.43259 295.180396 
L 323.222156 296.635297 
L 325.011722 308.637185 
L 326.801287 221.331931 
L 328.590853 352.388081 
L 330.380419 237.161893 
L 332.169984 295.627244 
L 333.95955 253.485692 
L 335.749115 313.891553 
L 337.538681 316.191933 
L 339.328247 332.211923 
L 341.117812 346.229235 
L 342.907378 349.866841 
L 344.696943 333.562698 
L 346.486509 357.185601 
L 348.276075 361.143618 
L 350.06564 388.174602 
L 351.855206 370.875842 
L 353.644771 328.435685 
L 355.434337 360.387327 
L 357.223903 357.632796 
L 359.013468 303.591849 
L 360.803034 357.784554 
L 362.5926 351.056027 
L 364.382165 389.687533 
L 366.171731 363.855451 
L 369.750862 323.655913 
L 371.540428 357.39329 
L 373.329993 307.332043 
L 375.119559 349.760127 
L 376.909124 360.342356 
L 378.69869 359.562827 
L 380.488256 294.680057 
L 382.277821 290.579667 
L 384.067387 352.767115 
L 385.856953 346.800828 
L 387.646518 279.474545 
L 389.436084 272.253228 
L 391.225649 293.678185 
L 393.015215 301.463789 
L 394.804781 309.988371 
L 396.594346 305.788808 
L 398.383912 361.421064 
L 400.173477 310.430155 
L 401.963043 343.974371 
L 403.752609 331.016273 
L 405.542174 309.80234 
L 407.33174 392.076892 
L 409.121305 328.626126 
L 410.910871 353.857951 
L 412.700437 362.792818 
L 414.490002 353.689358 
L 416.279568 357.033838 
L 418.069134 382.073229 
L 419.858699 382.924124 
L 421.648265 297.683331 
L 423.43783 349.595982 
L 425.227396 346.706735 
L 427.016962 331.515508 
L 428.806527 342.096236 
L 430.596093 313.360174 
L 432.385658 320.631436 
L 434.175224 236.924829 
L 435.96479 382.487304 
L 437.754355 258.60995 
L 439.543921 261.559538 
L 441.333486 227.458154 
L 443.123052 214.469339 
L 444.912618 230.262166 
L 446.702183 282.743952 
L 450.281315 236.977806 
L 452.07088 247.971613 
L 453.860446 222.491473 
L 455.650011 211.38574 
L 457.439577 226.771319 
L 459.229143 231.038725 
L 461.018708 223.167939 
L 462.808274 211.192374 
L 464.597839 197.095578 
L 466.387405 218.565871 
L 468.176971 197.165414 
L 469.966536 192.97292 
L 471.756102 220.191817 
L 473.545668 243.756599 
L 475.335233 233.822838 
L 477.124799 281.923045 
L 478.914364 250.257645 
L 480.70393 244.828353 
L 482.493496 202.992073 
L 484.283061 290.314846 
L 486.072627 338.092213 
L 487.862192 281.838706 
L 489.651758 270.873712 
L 491.441324 268.122479 
L 493.230889 296.83684 
L 495.020455 295.635865 
L 496.81002 254.919371 
L 498.599586 265.276181 
L 500.389152 242.065772 
L 502.178717 213.535438 
L 503.968283 210.255743 
L 505.757849 216.031434 
L 507.547414 200.000377 
L 509.33698 195.858253 
L 511.126545 250.875185 
L 512.916111 128.39344 
L 514.705677 239.792818 
L 516.495242 176.917333 
L 518.284808 224.856436 
L 520.074373 125.944361 
L 521.863939 205.285877 
L 523.653505 224.240608 
L 525.44307 195.568486 
L 527.232636 199.36078 
L 529.022201 199.863213 
L 530.811767 233.153104 
L 532.601333 173.886436 
L 534.390898 211.289598 
L 536.180464 193.961213 
L 537.97003 262.805469 
L 539.759595 134.632448 
L 541.549161 155.283565 
L 543.338726 115.489131 
L 545.128292 82.503298 
L 546.917858 64.136339 
L 548.707423 63.836025 
L 552.286554 63.813216 
L 554.07612 63.941626 
L 555.865686 64.184359 
L 557.655251 63.875815 
L 613.131785 63.822835 
L 668.608319 63.816694 
L 707.978763 63.825731 
L 709.768328 64.067865 
L 711.557894 89.989363 
L 715.137025 189.979383 
L 716.926591 172.666853 
L 718.716156 226.420579 
L 720.505722 256.331885 
L 722.295288 298.080833 
L 724.084853 267.991277 
L 725.874419 335.86036 
L 727.663984 242.002846 
L 729.45355 415.244602 
L 731.243116 294.049474 
L 733.032681 449.056113 
L 734.822247 357.349495 
L 736.611812 403.678212 
L 738.401378 398.787589 
L 740.190944 406.621046 
L 741.980509 421.654709 
L 743.770075 444.975161 
L 745.559641 417.790784 
L 747.349206 432.109739 
L 749.138772 433.636231 
L 750.928337 448.557597 
L 752.717903 445.121755 
L 754.507469 444.231357 
L 756.297034 461.470936 
L 758.0866 452.124329 
L 759.876165 466.8468 
L 761.665731 467.397398 
L 763.455297 460.470567 
L 765.244862 466.858135 
L 767.034428 466.905484 
L 768.823993 463.878243 
L 770.613559 466.813716 
L 772.403125 467.138329 
L 774.19269 467.265765 
L 775.982256 467.547147 
L 777.771822 467.243855 
L 779.561387 467.296985 
L 781.350953 467.108891 
L 784.930084 467.288517 
L 795.667478 467.042103 
L 797.457043 467.449405 
L 799.246609 467.328212 
L 801.036175 467.367797 
L 802.82574 467.787701 
L 804.615306 467.206055 
L 806.404871 467.139058 
L 808.194437 466.958669 
L 809.984003 467.365749 
L 811.773568 467.07775 
L 813.563134 467.31327 
L 817.142265 467.472233 
L 820.721396 467.379604 
L 822.510962 467.579269 
L 824.300527 467.312575 
L 827.879659 467.207676 
L 829.669224 467.191771 
L 831.45879 467.654347 
L 833.248356 467.288977 
L 835.037921 467.386243 
L 836.827487 467.879399 
L 838.617052 467.174534 
L 842.196184 467.330415 
L 843.985749 467.047763 
L 845.775315 467.662868 
L 847.56488 467.756618 
L 851.144012 467.284196 
L 852.933577 467.856983 
L 854.723143 467.982465 
L 858.302274 467.848574 
L 860.09184 467.065922 
L 861.881405 468.256354 
L 863.670971 467.194865 
L 865.460537 468.015074 
L 867.250102 467.736173 
L 869.039668 467.788293 
L 870.829233 467.342527 
L 872.618799 467.207233 
L 874.408365 467.235686 
L 876.19793 467.792003 
L 877.987496 467.573383 
L 879.777061 467.641542 
L 881.566627 467.498078 
L 883.356193 468.386596 
L 885.145758 467.387503 
L 886.935324 467.090583 
L 886.935324 467.090583 
" clip-path="url(#p895331b4cb)" style="fill: none; stroke: #1f77b4; stroke-width: 1.5; stroke-linecap: square"/>
   </g>
   <g id="line2d_15">
    <path d="M 122.790808 63.244608 
L 137.107332 63.23846 
L 149.634292 63.249184 
L 280.272581 63.320519 
L 283.851713 63.60625 
L 285.641278 69.797766 
L 287.430844 84.622106 
L 289.220409 130.109311 
L 291.009975 124.491999 
L 292.799541 124.111202 
L 296.378672 137.688736 
L 299.957803 205.975989 
L 301.747369 219.270315 
L 303.536934 190.33678 
L 305.3265 200.994419 
L 307.116066 190.286506 
L 308.905631 182.375152 
L 310.695197 217.133412 
L 312.484762 234.699904 
L 314.274328 237.743041 
L 316.063894 240.147334 
L 317.853459 250.835037 
L 319.643025 278.106999 
L 321.43259 270.463797 
L 323.222156 283.356968 
L 325.011722 258.088742 
L 326.801287 219.300092 
L 328.590853 213.511699 
L 330.380419 228.785005 
L 332.169984 245.6614 
L 333.95955 240.861472 
L 337.538681 302.305682 
L 339.328247 303.425064 
L 341.117812 321.878788 
L 342.907378 322.995731 
L 344.696943 314.600562 
L 346.486509 319.48018 
L 348.276075 329.327224 
L 350.06564 348.408038 
L 351.855206 347.530792 
L 353.644771 313.673738 
L 355.434337 327.451115 
L 357.223903 316.640138 
L 359.013468 299.356976 
L 360.803034 326.340883 
L 362.5926 350.132124 
L 364.382165 343.369339 
L 366.171731 341.827618 
L 367.961296 328.636872 
L 369.750862 296.032073 
L 371.540428 318.948271 
L 373.329993 300.32474 
L 375.119559 336.832566 
L 376.909124 322.76618 
L 378.69869 329.311916 
L 380.488256 294.461852 
L 382.277821 290.449058 
L 384.067387 341.522012 
L 385.856953 333.857391 
L 387.646518 260.180793 
L 389.436084 250.06144 
L 391.225649 283.928071 
L 393.015215 298.418229 
L 394.804781 306.014365 
L 396.594346 300.914224 
L 398.383912 321.263735 
L 400.173477 304.353693 
L 401.963043 315.900823 
L 403.752609 300.911773 
L 405.542174 307.681617 
L 407.33174 325.230214 
L 409.121305 318.99951 
L 410.910871 332.822067 
L 412.700437 334.601296 
L 414.490002 320.035398 
L 416.279568 319.721263 
L 418.069134 322.15168 
L 419.858699 341.159273 
L 421.648265 283.507549 
L 423.43783 336.919651 
L 425.227396 307.840017 
L 427.016962 321.662926 
L 428.806527 327.710276 
L 430.596093 288.762818 
L 432.385658 266.56718 
L 434.175224 229.606944 
L 435.96479 232.406366 
L 437.754355 248.885219 
L 439.543921 243.151651 
L 441.333486 223.94136 
L 443.123052 213.423515 
L 444.912618 229.263315 
L 446.702183 237.352821 
L 448.491749 226.426623 
L 450.281315 233.082798 
L 452.07088 232.709415 
L 453.860446 209.669268 
L 455.650011 178.565549 
L 457.439577 213.416336 
L 459.229143 226.168344 
L 461.018708 216.970881 
L 462.808274 174.080719 
L 464.597839 196.851397 
L 466.387405 185.887795 
L 468.176971 181.281299 
L 469.966536 183.722151 
L 471.756102 216.007003 
L 473.545668 230.577922 
L 475.335233 232.729726 
L 477.124799 220.778927 
L 478.914364 232.275807 
L 480.70393 218.80166 
L 482.493496 202.074346 
L 484.283061 272.182848 
L 486.072627 301.627619 
L 489.651758 215.135693 
L 491.441324 235.668762 
L 493.230889 276.197586 
L 495.020455 285.720039 
L 496.81002 204.782908 
L 498.599586 227.188077 
L 500.389152 179.207304 
L 502.178717 194.607102 
L 503.968283 208.167043 
L 505.757849 197.199545 
L 507.547414 197.076311 
L 509.33698 193.8292 
L 511.126545 182.052074 
L 512.916111 127.850153 
L 514.705677 125.75306 
L 516.495242 175.273311 
L 518.284808 179.733765 
L 520.074373 124.216571 
L 521.863939 141.229534 
L 523.653505 187.065819 
L 525.44307 191.277045 
L 527.232636 181.335256 
L 529.022201 198.527106 
L 530.811767 178.234229 
L 532.601333 162.415023 
L 534.390898 172.41689 
L 536.180464 172.273989 
L 537.97003 133.716989 
L 539.759595 115.93874 
L 541.549161 115.743097 
L 543.338726 111.356269 
L 545.128292 77.545878 
L 546.917858 63.587706 
L 548.707423 63.24837 
L 552.286554 63.224701 
L 554.07612 63.368139 
L 555.865686 63.664262 
L 557.655251 63.290831 
L 595.236129 63.228608 
L 620.290048 63.25131 
L 656.08136 63.229527 
L 695.451803 63.227492 
L 702.610066 63.234893 
L 707.978763 63.237498 
L 709.768328 63.466506 
L 711.557894 89.881759 
L 713.34746 122.227968 
L 716.926591 169.141497 
L 718.716156 179.517781 
L 720.505722 180.030915 
L 722.295288 202.158969 
L 724.084853 237.149031 
L 725.874419 237.522325 
L 727.663984 238.730342 
L 729.45355 245.357983 
L 731.243116 256.556268 
L 733.032681 285.962535 
L 734.822247 338.768592 
L 736.611812 349.192091 
L 738.401378 355.375542 
L 740.190944 364.8159 
L 743.770075 395.179463 
L 745.559641 405.333643 
L 747.349206 405.449483 
L 749.138772 406.206126 
L 750.928337 418.10514 
L 752.717903 406.945388 
L 754.507469 437.899443 
L 756.297034 432.418308 
L 758.0866 434.175631 
L 759.876165 436.284031 
L 761.665731 434.455909 
L 763.455297 435.575469 
L 765.244862 441.925572 
L 767.034428 455.726376 
L 768.823993 461.386323 
L 770.613559 466.181504 
L 772.403125 466.919685 
L 775.982256 467.516378 
L 777.771822 467.182229 
L 779.561387 466.107091 
L 781.350953 467.108419 
L 783.140518 466.654175 
L 784.930084 467.142975 
L 786.71965 467.234112 
L 788.509215 467.152341 
L 790.298781 466.929794 
L 792.088346 467.179347 
L 793.877912 467.038172 
L 795.667478 467.038028 
L 797.457043 467.443898 
L 799.246609 467.317357 
L 801.036175 467.364652 
L 802.82574 467.584387 
L 804.615306 467.205857 
L 806.404871 467.12718 
L 808.194437 466.900749 
L 809.984003 467.363577 
L 811.773568 467.032387 
L 813.563134 467.253212 
L 815.352699 466.667202 
L 817.142265 467.43311 
L 820.721396 467.360667 
L 822.510962 467.545632 
L 824.300527 467.232928 
L 826.090093 467.23243 
L 827.879659 466.774679 
L 831.45879 467.405722 
L 833.248356 467.288497 
L 835.037921 467.326058 
L 836.827487 467.714493 
L 838.617052 467.174525 
L 842.196184 467.319869 
L 843.985749 467.018179 
L 845.775315 467.469285 
L 847.56488 467.657582 
L 851.144012 467.255049 
L 852.933577 467.743991 
L 854.723143 467.738705 
L 856.512708 467.851207 
L 858.302274 467.628669 
L 860.09184 467.065837 
L 861.881405 468.245077 
L 863.670971 467.028598 
L 865.460537 468.006404 
L 867.250102 467.467741 
L 869.039668 467.694949 
L 870.829233 466.735472 
L 872.618799 467.073851 
L 874.408365 467.227961 
L 876.19793 467.693194 
L 877.987496 467.476482 
L 879.777061 467.448082 
L 881.566627 466.477516 
L 883.356193 467.986672 
L 885.145758 467.274795 
L 886.935324 467.079011 
L 886.935324 467.079011 
" clip-path="url(#p895331b4cb)" style="fill: none; stroke: #ff7f0e; stroke-width: 1.5; stroke-linecap: square"/>
   </g>
   <g id="patch_3">
    <path d="M 122.94 424.8504 
L 122.94 57.2832 
" style="fill: none; stroke: #000000; stroke-width: 0.8; stroke-linejoin: miter; stroke-linecap: square"/>
   </g>
   <g id="patch_4">
    <path d="M 885.168 424.8504 
L 885.168 57.2832 
" style="fill: none; stroke: #000000; stroke-width: 0.8; stroke-linejoin: miter; stroke-linecap: square"/>
   </g>
   <g id="patch_5">
    <path d="M 122.94 424.8504 
L 885.168 424.8504 
" style="fill: none; stroke: #000000; stroke-width: 0.8; stroke-linejoin: miter; stroke-linecap: square"/>
   </g>
   <g id="patch_6">
    <path d="M 122.94 57.2832 
L 885.168 57.2832 
" style="fill: none; stroke: #000000; stroke-width: 0.8; stroke-linejoin: miter; stroke-linecap: square"/>
   </g>
   <g id="text_16">
    <!-- Potencia -->
    <g transform="translate(478.493063 51.2832) scale(0.12 -0.12)">
     <use xlink:href="#DejaVuSans-50"/>
     <use xlink:href="#DejaVuSans-6f" x="56.677734"/>
     <use xlink:href="#DejaVuSans-74" x="117.859375"/>
     <use xlink:href="#DejaVuSans-65" x="157.068359"/>
     <use xlink:href="#DejaVuSans-6e" x="218.591797"/>
     <use xlink:href="#DejaVuSans-63" x="281.970703"/>
     <use xlink:href="#DejaVuSans-69" x="336.951172"/>
     <use xlink:href="#DejaVuSans-61" x="364.734375"/>
    </g>
   </g>
   <g id="legend_1">
    <g id="patch_7">
     <path d="M 783.060187 94.63945 
L 878.168 94.63945 
Q 880.168 94.63945 880.168 92.63945 
L 880.168 64.2832 
Q 880.168 62.2832 878.168 62.2832 
L 783.060187 62.2832 
Q 781.060187 62.2832 781.060187 64.2832 
L 781.060187 92.63945 
Q 781.060187 94.63945 783.060187 94.63945 
z
" style="fill: #ffffff; opacity: 0.8; stroke: #cccccc; stroke-linejoin: miter"/>
    </g>
    <g id="line2d_16">
     <path d="M 785.060187 70.381638 
L 795.060187 70.381638 
L 805.060187 70.381638 
" style="fill: none; stroke: #1f77b4; stroke-width: 1.5; stroke-linecap: square"/>
    </g>
    <g id="text_17">
     <!-- predicciones -->
     <g transform="translate(813.060187 73.881638) scale(0.1 -0.1)">
      <defs>
       <path id="DejaVuSans-70" d="M 1159 525 
L 1159 -1331 
L 581 -1331 
L 581 3500 
L 1159 3500 
L 1159 2969 
Q 1341 3281 1617 3432 
Q 1894 3584 2278 3584 
Q 2916 3584 3314 3078 
Q 3713 2572 3713 1747 
Q 3713 922 3314 415 
Q 2916 -91 2278 -91 
Q 1894 -91 1617 61 
Q 1341 213 1159 525 
z
M 3116 1747 
Q 3116 2381 2855 2742 
Q 2594 3103 2138 3103 
Q 1681 3103 1420 2742 
Q 1159 2381 1159 1747 
Q 1159 1113 1420 752 
Q 1681 391 2138 391 
Q 2594 391 2855 752 
Q 3116 1113 3116 1747 
z
" transform="scale(0.015625)"/>
       <path id="DejaVuSans-72" d="M 2631 2963 
Q 2534 3019 2420 3045 
Q 2306 3072 2169 3072 
Q 1681 3072 1420 2755 
Q 1159 2438 1159 1844 
L 1159 0 
L 581 0 
L 581 3500 
L 1159 3500 
L 1159 2956 
Q 1341 3275 1631 3429 
Q 1922 3584 2338 3584 
Q 2397 3584 2469 3576 
Q 2541 3569 2628 3553 
L 2631 2963 
z
" transform="scale(0.015625)"/>
       <path id="DejaVuSans-64" d="M 2906 2969 
L 2906 4863 
L 3481 4863 
L 3481 0 
L 2906 0 
L 2906 525 
Q 2725 213 2448 61 
Q 2172 -91 1784 -91 
Q 1150 -91 751 415 
Q 353 922 353 1747 
Q 353 2572 751 3078 
Q 1150 3584 1784 3584 
Q 2172 3584 2448 3432 
Q 2725 3281 2906 2969 
z
M 947 1747 
Q 947 1113 1208 752 
Q 1469 391 1925 391 
Q 2381 391 2643 752 
Q 2906 1113 2906 1747 
Q 2906 2381 2643 2742 
Q 2381 3103 1925 3103 
Q 1469 3103 1208 2742 
Q 947 2381 947 1747 
z
" transform="scale(0.015625)"/>
      </defs>
      <use xlink:href="#DejaVuSans-70"/>
      <use xlink:href="#DejaVuSans-72" x="63.476562"/>
      <use xlink:href="#DejaVuSans-65" x="102.339844"/>
      <use xlink:href="#DejaVuSans-64" x="163.863281"/>
      <use xlink:href="#DejaVuSans-69" x="227.339844"/>
      <use xlink:href="#DejaVuSans-63" x="255.123047"/>
      <use xlink:href="#DejaVuSans-63" x="310.103516"/>
      <use xlink:href="#DejaVuSans-69" x="365.083984"/>
      <use xlink:href="#DejaVuSans-6f" x="392.867188"/>
      <use xlink:href="#DejaVuSans-6e" x="454.048828"/>
      <use xlink:href="#DejaVuSans-65" x="517.427734"/>
      <use xlink:href="#DejaVuSans-73" x="578.951172"/>
     </g>
    </g>
    <g id="line2d_17">
     <path d="M 785.060187 85.059763 
L 795.060187 85.059763 
L 805.060187 85.059763 
" style="fill: none; stroke: #ff7f0e; stroke-width: 1.5; stroke-linecap: square"/>
    </g>
    <g id="text_18">
     <!-- Real -->
     <g transform="translate(813.060187 88.559763) scale(0.1 -0.1)">
      <defs>
       <path id="DejaVuSans-52" d="M 2841 2188 
Q 3044 2119 3236 1894 
Q 3428 1669 3622 1275 
L 4263 0 
L 3584 0 
L 2988 1197 
Q 2756 1666 2539 1819 
Q 2322 1972 1947 1972 
L 1259 1972 
L 1259 0 
L 628 0 
L 628 4666 
L 2053 4666 
Q 2853 4666 3247 4331 
Q 3641 3997 3641 3322 
Q 3641 2881 3436 2590 
Q 3231 2300 2841 2188 
z
M 1259 4147 
L 1259 2491 
L 2053 2491 
Q 2509 2491 2742 2702 
Q 2975 2913 2975 3322 
Q 2975 3731 2742 3939 
Q 2509 4147 2053 4147 
L 1259 4147 
z
" transform="scale(0.015625)"/>
       <path id="DejaVuSans-6c" d="M 603 4863 
L 1178 4863 
L 1178 0 
L 603 0 
L 603 4863 
z
" transform="scale(0.015625)"/>
      </defs>
      <use xlink:href="#DejaVuSans-52"/>
      <use xlink:href="#DejaVuSans-65" x="64.982422"/>
      <use xlink:href="#DejaVuSans-61" x="126.505859"/>
      <use xlink:href="#DejaVuSans-6c" x="187.785156"/>
     </g>
    </g>
   </g>
  </g>
 </g>
 <defs>
  <clipPath id="p895331b4cb">
   <rect x="122.94" y="57.2832" width="762.228" height="367.5672"/>
  </clipPath>
 </defs>
</svg>
