<?xml version="1.0" encoding="utf-8" standalone="no"?>
<!DOCTYPE svg PUBLIC "-//W3C//DTD SVG 1.1//EN"
  "http://www.w3.org/Graphics/SVG/1.1/DTD/svg11.dtd">
<svg xmlns:xlink="http://www.w3.org/1999/xlink" width="983.52pt" height="477.36pt" viewBox="0 0 983.52 477.36" xmlns="http://www.w3.org/2000/svg" version="1.1">
 <metadata>
  <rdf:RDF xmlns:dc="http://purl.org/dc/elements/1.1/" xmlns:cc="http://creativecommons.org/ns#" xmlns:rdf="http://www.w3.org/1999/02/22-rdf-syntax-ns#">
   <cc:Work>
    <dc:type rdf:resource="http://purl.org/dc/dcmitype/StillImage"/>
    <dc:date>2024-05-05T00:39:11.463076</dc:date>
    <dc:format>image/svg+xml</dc:format>
    <dc:creator>
     <cc:Agent>
      <dc:title>Matplotlib v3.8.0, https://matplotlib.org/</dc:title>
     </cc:Agent>
    </dc:creator>
   </cc:Work>
  </rdf:RDF>
 </metadata>
 <defs>
  <style type="text/css">*{stroke-linejoin: round; stroke-linecap: butt}</style>
 </defs>
 <g id="figure_1">
  <g id="patch_1">
   <path d="M 0 477.36 
L 983.52 477.36 
L 983.52 0 
L 0 0 
z
" style="fill: #ffffff"/>
  </g>
  <g id="axes_1">
   <g id="patch_2">
    <path d="M 122.94 424.8504 
L 885.168 424.8504 
L 885.168 57.2832 
L 122.94 57.2832 
z
" style="fill: #ffffff"/>
   </g>
   <g id="matplotlib.axis_1">
    <g id="xtick_1">
     <g id="line2d_1">
      <defs>
       <path id="m96aec13a69" d="M 0 0 
L 0 3.5 
" style="stroke: #000000; stroke-width: 0.8"/>
      </defs>
      <g>
       <use xlink:href="#m96aec13a69" x="242.210216" y="424.8504" style="stroke: #000000; stroke-width: 0.8"/>
      </g>
     </g>
     <g id="text_1">
      <!-- 3000 -->
      <g transform="translate(229.485216 439.448838) scale(0.1 -0.1)">
       <defs>
        <path id="DejaVuSans-33" d="M 2597 2516 
Q 3050 2419 3304 2112 
Q 3559 1806 3559 1356 
Q 3559 666 3084 287 
Q 2609 -91 1734 -91 
Q 1441 -91 1130 -33 
Q 819 25 488 141 
L 488 750 
Q 750 597 1062 519 
Q 1375 441 1716 441 
Q 2309 441 2620 675 
Q 2931 909 2931 1356 
Q 2931 1769 2642 2001 
Q 2353 2234 1838 2234 
L 1294 2234 
L 1294 2753 
L 1863 2753 
Q 2328 2753 2575 2939 
Q 2822 3125 2822 3475 
Q 2822 3834 2567 4026 
Q 2313 4219 1838 4219 
Q 1578 4219 1281 4162 
Q 984 4106 628 3988 
L 628 4550 
Q 988 4650 1302 4700 
Q 1616 4750 1894 4750 
Q 2613 4750 3031 4423 
Q 3450 4097 3450 3541 
Q 3450 3153 3228 2886 
Q 3006 2619 2597 2516 
z
" transform="scale(0.015625)"/>
        <path id="DejaVuSans-30" d="M 2034 4250 
Q 1547 4250 1301 3770 
Q 1056 3291 1056 2328 
Q 1056 1369 1301 889 
Q 1547 409 2034 409 
Q 2525 409 2770 889 
Q 3016 1369 3016 2328 
Q 3016 3291 2770 3770 
Q 2525 4250 2034 4250 
z
M 2034 4750 
Q 2819 4750 3233 4129 
Q 3647 3509 3647 2328 
Q 3647 1150 3233 529 
Q 2819 -91 2034 -91 
Q 1250 -91 836 529 
Q 422 1150 422 2328 
Q 422 3509 836 4129 
Q 1250 4750 2034 4750 
z
" transform="scale(0.015625)"/>
       </defs>
       <use xlink:href="#DejaVuSans-33"/>
       <use xlink:href="#DejaVuSans-30" x="63.623047"/>
       <use xlink:href="#DejaVuSans-30" x="127.246094"/>
       <use xlink:href="#DejaVuSans-30" x="190.869141"/>
      </g>
     </g>
    </g>
    <g id="xtick_2">
     <g id="line2d_2">
      <g>
       <use xlink:href="#m96aec13a69" x="370.641506" y="424.8504" style="stroke: #000000; stroke-width: 0.8"/>
      </g>
     </g>
     <g id="text_2">
      <!-- 3200 -->
      <g transform="translate(357.916506 439.448838) scale(0.1 -0.1)">
       <defs>
        <path id="DejaVuSans-32" d="M 1228 531 
L 3431 531 
L 3431 0 
L 469 0 
L 469 531 
Q 828 903 1448 1529 
Q 2069 2156 2228 2338 
Q 2531 2678 2651 2914 
Q 2772 3150 2772 3378 
Q 2772 3750 2511 3984 
Q 2250 4219 1831 4219 
Q 1534 4219 1204 4116 
Q 875 4013 500 3803 
L 500 4441 
Q 881 4594 1212 4672 
Q 1544 4750 1819 4750 
Q 2544 4750 2975 4387 
Q 3406 4025 3406 3419 
Q 3406 3131 3298 2873 
Q 3191 2616 2906 2266 
Q 2828 2175 2409 1742 
Q 1991 1309 1228 531 
z
" transform="scale(0.015625)"/>
       </defs>
       <use xlink:href="#DejaVuSans-33"/>
       <use xlink:href="#DejaVuSans-32" x="63.623047"/>
       <use xlink:href="#DejaVuSans-30" x="127.246094"/>
       <use xlink:href="#DejaVuSans-30" x="190.869141"/>
      </g>
     </g>
    </g>
    <g id="xtick_3">
     <g id="line2d_3">
      <g>
       <use xlink:href="#m96aec13a69" x="499.072796" y="424.8504" style="stroke: #000000; stroke-width: 0.8"/>
      </g>
     </g>
     <g id="text_3">
      <!-- 3400 -->
      <g transform="translate(486.347796 439.448838) scale(0.1 -0.1)">
       <defs>
        <path id="DejaVuSans-34" d="M 2419 4116 
L 825 1625 
L 2419 1625 
L 2419 4116 
z
M 2253 4666 
L 3047 4666 
L 3047 1625 
L 3713 1625 
L 3713 1100 
L 3047 1100 
L 3047 0 
L 2419 0 
L 2419 1100 
L 313 1100 
L 313 1709 
L 2253 4666 
z
" transform="scale(0.015625)"/>
       </defs>
       <use xlink:href="#DejaVuSans-33"/>
       <use xlink:href="#DejaVuSans-34" x="63.623047"/>
       <use xlink:href="#DejaVuSans-30" x="127.246094"/>
       <use xlink:href="#DejaVuSans-30" x="190.869141"/>
      </g>
     </g>
    </g>
    <g id="xtick_4">
     <g id="line2d_4">
      <g>
       <use xlink:href="#m96aec13a69" x="627.504085" y="424.8504" style="stroke: #000000; stroke-width: 0.8"/>
      </g>
     </g>
     <g id="text_4">
      <!-- 3600 -->
      <g transform="translate(614.779085 439.448838) scale(0.1 -0.1)">
       <defs>
        <path id="DejaVuSans-36" d="M 2113 2584 
Q 1688 2584 1439 2293 
Q 1191 2003 1191 1497 
Q 1191 994 1439 701 
Q 1688 409 2113 409 
Q 2538 409 2786 701 
Q 3034 994 3034 1497 
Q 3034 2003 2786 2293 
Q 2538 2584 2113 2584 
z
M 3366 4563 
L 3366 3988 
Q 3128 4100 2886 4159 
Q 2644 4219 2406 4219 
Q 1781 4219 1451 3797 
Q 1122 3375 1075 2522 
Q 1259 2794 1537 2939 
Q 1816 3084 2150 3084 
Q 2853 3084 3261 2657 
Q 3669 2231 3669 1497 
Q 3669 778 3244 343 
Q 2819 -91 2113 -91 
Q 1303 -91 875 529 
Q 447 1150 447 2328 
Q 447 3434 972 4092 
Q 1497 4750 2381 4750 
Q 2619 4750 2861 4703 
Q 3103 4656 3366 4563 
z
" transform="scale(0.015625)"/>
       </defs>
       <use xlink:href="#DejaVuSans-33"/>
       <use xlink:href="#DejaVuSans-36" x="63.623047"/>
       <use xlink:href="#DejaVuSans-30" x="127.246094"/>
       <use xlink:href="#DejaVuSans-30" x="190.869141"/>
      </g>
     </g>
    </g>
    <g id="xtick_5">
     <g id="line2d_5">
      <g>
       <use xlink:href="#m96aec13a69" x="755.935375" y="424.8504" style="stroke: #000000; stroke-width: 0.8"/>
      </g>
     </g>
     <g id="text_5">
      <!-- 3800 -->
      <g transform="translate(743.210375 439.448838) scale(0.1 -0.1)">
       <defs>
        <path id="DejaVuSans-38" d="M 2034 2216 
Q 1584 2216 1326 1975 
Q 1069 1734 1069 1313 
Q 1069 891 1326 650 
Q 1584 409 2034 409 
Q 2484 409 2743 651 
Q 3003 894 3003 1313 
Q 3003 1734 2745 1975 
Q 2488 2216 2034 2216 
z
M 1403 2484 
Q 997 2584 770 2862 
Q 544 3141 544 3541 
Q 544 4100 942 4425 
Q 1341 4750 2034 4750 
Q 2731 4750 3128 4425 
Q 3525 4100 3525 3541 
Q 3525 3141 3298 2862 
Q 3072 2584 2669 2484 
Q 3125 2378 3379 2068 
Q 3634 1759 3634 1313 
Q 3634 634 3220 271 
Q 2806 -91 2034 -91 
Q 1263 -91 848 271 
Q 434 634 434 1313 
Q 434 1759 690 2068 
Q 947 2378 1403 2484 
z
M 1172 3481 
Q 1172 3119 1398 2916 
Q 1625 2713 2034 2713 
Q 2441 2713 2670 2916 
Q 2900 3119 2900 3481 
Q 2900 3844 2670 4047 
Q 2441 4250 2034 4250 
Q 1625 4250 1398 4047 
Q 1172 3844 1172 3481 
z
" transform="scale(0.015625)"/>
       </defs>
       <use xlink:href="#DejaVuSans-33"/>
       <use xlink:href="#DejaVuSans-38" x="63.623047"/>
       <use xlink:href="#DejaVuSans-30" x="127.246094"/>
       <use xlink:href="#DejaVuSans-30" x="190.869141"/>
      </g>
     </g>
    </g>
    <g id="xtick_6">
     <g id="line2d_6">
      <g>
       <use xlink:href="#m96aec13a69" x="884.366665" y="424.8504" style="stroke: #000000; stroke-width: 0.8"/>
      </g>
     </g>
     <g id="text_6">
      <!-- 4000 -->
      <g transform="translate(871.641665 439.448838) scale(0.1 -0.1)">
       <use xlink:href="#DejaVuSans-34"/>
       <use xlink:href="#DejaVuSans-30" x="63.623047"/>
       <use xlink:href="#DejaVuSans-30" x="127.246094"/>
       <use xlink:href="#DejaVuSans-30" x="190.869141"/>
      </g>
     </g>
    </g>
    <g id="text_7">
     <!-- Instante -->
     <g transform="translate(483.575875 453.126963) scale(0.1 -0.1)">
      <defs>
       <path id="DejaVuSans-49" d="M 628 4666 
L 1259 4666 
L 1259 0 
L 628 0 
L 628 4666 
z
" transform="scale(0.015625)"/>
       <path id="DejaVuSans-6e" d="M 3513 2113 
L 3513 0 
L 2938 0 
L 2938 2094 
Q 2938 2591 2744 2837 
Q 2550 3084 2163 3084 
Q 1697 3084 1428 2787 
Q 1159 2491 1159 1978 
L 1159 0 
L 581 0 
L 581 3500 
L 1159 3500 
L 1159 2956 
Q 1366 3272 1645 3428 
Q 1925 3584 2291 3584 
Q 2894 3584 3203 3211 
Q 3513 2838 3513 2113 
z
" transform="scale(0.015625)"/>
       <path id="DejaVuSans-73" d="M 2834 3397 
L 2834 2853 
Q 2591 2978 2328 3040 
Q 2066 3103 1784 3103 
Q 1356 3103 1142 2972 
Q 928 2841 928 2578 
Q 928 2378 1081 2264 
Q 1234 2150 1697 2047 
L 1894 2003 
Q 2506 1872 2764 1633 
Q 3022 1394 3022 966 
Q 3022 478 2636 193 
Q 2250 -91 1575 -91 
Q 1294 -91 989 -36 
Q 684 19 347 128 
L 347 722 
Q 666 556 975 473 
Q 1284 391 1588 391 
Q 1994 391 2212 530 
Q 2431 669 2431 922 
Q 2431 1156 2273 1281 
Q 2116 1406 1581 1522 
L 1381 1569 
Q 847 1681 609 1914 
Q 372 2147 372 2553 
Q 372 3047 722 3315 
Q 1072 3584 1716 3584 
Q 2034 3584 2315 3537 
Q 2597 3491 2834 3397 
z
" transform="scale(0.015625)"/>
       <path id="DejaVuSans-74" d="M 1172 4494 
L 1172 3500 
L 2356 3500 
L 2356 3053 
L 1172 3053 
L 1172 1153 
Q 1172 725 1289 603 
Q 1406 481 1766 481 
L 2356 481 
L 2356 0 
L 1766 0 
Q 1100 0 847 248 
Q 594 497 594 1153 
L 594 3053 
L 172 3053 
L 172 3500 
L 594 3500 
L 594 4494 
L 1172 4494 
z
" transform="scale(0.015625)"/>
       <path id="DejaVuSans-61" d="M 2194 1759 
Q 1497 1759 1228 1600 
Q 959 1441 959 1056 
Q 959 750 1161 570 
Q 1363 391 1709 391 
Q 2188 391 2477 730 
Q 2766 1069 2766 1631 
L 2766 1759 
L 2194 1759 
z
M 3341 1997 
L 3341 0 
L 2766 0 
L 2766 531 
Q 2569 213 2275 61 
Q 1981 -91 1556 -91 
Q 1019 -91 701 211 
Q 384 513 384 1019 
Q 384 1609 779 1909 
Q 1175 2209 1959 2209 
L 2766 2209 
L 2766 2266 
Q 2766 2663 2505 2880 
Q 2244 3097 1772 3097 
Q 1472 3097 1187 3025 
Q 903 2953 641 2809 
L 641 3341 
Q 956 3463 1253 3523 
Q 1550 3584 1831 3584 
Q 2591 3584 2966 3190 
Q 3341 2797 3341 1997 
z
" transform="scale(0.015625)"/>
       <path id="DejaVuSans-65" d="M 3597 1894 
L 3597 1613 
L 953 1613 
Q 991 1019 1311 708 
Q 1631 397 2203 397 
Q 2534 397 2845 478 
Q 3156 559 3463 722 
L 3463 178 
Q 3153 47 2828 -22 
Q 2503 -91 2169 -91 
Q 1331 -91 842 396 
Q 353 884 353 1716 
Q 353 2575 817 3079 
Q 1281 3584 2069 3584 
Q 2775 3584 3186 3129 
Q 3597 2675 3597 1894 
z
M 3022 2063 
Q 3016 2534 2758 2815 
Q 2500 3097 2075 3097 
Q 1594 3097 1305 2825 
Q 1016 2553 972 2059 
L 3022 2063 
z
" transform="scale(0.015625)"/>
      </defs>
      <use xlink:href="#DejaVuSans-49"/>
      <use xlink:href="#DejaVuSans-6e" x="29.492188"/>
      <use xlink:href="#DejaVuSans-73" x="92.871094"/>
      <use xlink:href="#DejaVuSans-74" x="144.970703"/>
      <use xlink:href="#DejaVuSans-61" x="184.179688"/>
      <use xlink:href="#DejaVuSans-6e" x="245.458984"/>
      <use xlink:href="#DejaVuSans-74" x="308.837891"/>
      <use xlink:href="#DejaVuSans-65" x="348.046875"/>
     </g>
    </g>
   </g>
   <g id="matplotlib.axis_2">
    <g id="ytick_1">
     <g id="line2d_7">
      <defs>
       <path id="m7eec47a497" d="M 0 0 
L -3.5 0 
" style="stroke: #000000; stroke-width: 0.8"/>
      </defs>
      <g>
       <use xlink:href="#m7eec47a497" x="122.94" y="359.008967" style="stroke: #000000; stroke-width: 0.8"/>
      </g>
     </g>
     <g id="text_8">
      <!-- 10 -->
      <g transform="translate(103.215 362.808186) scale(0.1 -0.1)">
       <defs>
        <path id="DejaVuSans-31" d="M 794 531 
L 1825 531 
L 1825 4091 
L 703 3866 
L 703 4441 
L 1819 4666 
L 2450 4666 
L 2450 531 
L 3481 531 
L 3481 0 
L 794 0 
L 794 531 
z
" transform="scale(0.015625)"/>
       </defs>
       <use xlink:href="#DejaVuSans-31"/>
       <use xlink:href="#DejaVuSans-30" x="63.623047"/>
      </g>
     </g>
    </g>
    <g id="ytick_2">
     <g id="line2d_8">
      <g>
       <use xlink:href="#m7eec47a497" x="122.94" y="286.343801" style="stroke: #000000; stroke-width: 0.8"/>
      </g>
     </g>
     <g id="text_9">
      <!-- 20 -->
      <g transform="translate(103.215 290.14302) scale(0.1 -0.1)">
       <use xlink:href="#DejaVuSans-32"/>
       <use xlink:href="#DejaVuSans-30" x="63.623047"/>
      </g>
     </g>
    </g>
    <g id="ytick_3">
     <g id="line2d_9">
      <g>
       <use xlink:href="#m7eec47a497" x="122.94" y="213.678635" style="stroke: #000000; stroke-width: 0.8"/>
      </g>
     </g>
     <g id="text_10">
      <!-- 30 -->
      <g transform="translate(103.215 217.477854) scale(0.1 -0.1)">
       <use xlink:href="#DejaVuSans-33"/>
       <use xlink:href="#DejaVuSans-30" x="63.623047"/>
      </g>
     </g>
    </g>
    <g id="ytick_4">
     <g id="line2d_10">
      <g>
       <use xlink:href="#m7eec47a497" x="122.94" y="141.013469" style="stroke: #000000; stroke-width: 0.8"/>
      </g>
     </g>
     <g id="text_11">
      <!-- 40 -->
      <g transform="translate(103.215 144.812688) scale(0.1 -0.1)">
       <use xlink:href="#DejaVuSans-34"/>
       <use xlink:href="#DejaVuSans-30" x="63.623047"/>
      </g>
     </g>
    </g>
    <g id="ytick_5">
     <g id="line2d_11">
      <g>
       <use xlink:href="#m7eec47a497" x="122.94" y="68.348303" style="stroke: #000000; stroke-width: 0.8"/>
      </g>
     </g>
     <g id="text_12">
      <!-- 50 -->
      <g transform="translate(103.215 72.147522) scale(0.1 -0.1)">
       <defs>
        <path id="DejaVuSans-35" d="M 691 4666 
L 3169 4666 
L 3169 4134 
L 1269 4134 
L 1269 2991 
Q 1406 3038 1543 3061 
Q 1681 3084 1819 3084 
Q 2600 3084 3056 2656 
Q 3513 2228 3513 1497 
Q 3513 744 3044 326 
Q 2575 -91 1722 -91 
Q 1428 -91 1123 -41 
Q 819 9 494 109 
L 494 744 
Q 775 591 1075 516 
Q 1375 441 1709 441 
Q 2250 441 2565 725 
Q 2881 1009 2881 1497 
Q 2881 1984 2565 2268 
Q 2250 2553 1709 2553 
Q 1456 2553 1204 2497 
Q 953 2441 691 2322 
L 691 4666 
z
" transform="scale(0.015625)"/>
       </defs>
       <use xlink:href="#DejaVuSans-35"/>
       <use xlink:href="#DejaVuSans-30" x="63.623047"/>
      </g>
     </g>
    </g>
    <g id="text_13">
     <!-- Potencia[W] maximas -->
     <g transform="translate(97.135312 295.623831) rotate(-90) scale(0.1 -0.1)">
      <defs>
       <path id="DejaVuSans-50" d="M 1259 4147 
L 1259 2394 
L 2053 2394 
Q 2494 2394 2734 2622 
Q 2975 2850 2975 3272 
Q 2975 3691 2734 3919 
Q 2494 4147 2053 4147 
L 1259 4147 
z
M 628 4666 
L 2053 4666 
Q 2838 4666 3239 4311 
Q 3641 3956 3641 3272 
Q 3641 2581 3239 2228 
Q 2838 1875 2053 1875 
L 1259 1875 
L 1259 0 
L 628 0 
L 628 4666 
z
" transform="scale(0.015625)"/>
       <path id="DejaVuSans-6f" d="M 1959 3097 
Q 1497 3097 1228 2736 
Q 959 2375 959 1747 
Q 959 1119 1226 758 
Q 1494 397 1959 397 
Q 2419 397 2687 759 
Q 2956 1122 2956 1747 
Q 2956 2369 2687 2733 
Q 2419 3097 1959 3097 
z
M 1959 3584 
Q 2709 3584 3137 3096 
Q 3566 2609 3566 1747 
Q 3566 888 3137 398 
Q 2709 -91 1959 -91 
Q 1206 -91 779 398 
Q 353 888 353 1747 
Q 353 2609 779 3096 
Q 1206 3584 1959 3584 
z
" transform="scale(0.015625)"/>
       <path id="DejaVuSans-63" d="M 3122 3366 
L 3122 2828 
Q 2878 2963 2633 3030 
Q 2388 3097 2138 3097 
Q 1578 3097 1268 2742 
Q 959 2388 959 1747 
Q 959 1106 1268 751 
Q 1578 397 2138 397 
Q 2388 397 2633 464 
Q 2878 531 3122 666 
L 3122 134 
Q 2881 22 2623 -34 
Q 2366 -91 2075 -91 
Q 1284 -91 818 406 
Q 353 903 353 1747 
Q 353 2603 823 3093 
Q 1294 3584 2113 3584 
Q 2378 3584 2631 3529 
Q 2884 3475 3122 3366 
z
" transform="scale(0.015625)"/>
       <path id="DejaVuSans-69" d="M 603 3500 
L 1178 3500 
L 1178 0 
L 603 0 
L 603 3500 
z
M 603 4863 
L 1178 4863 
L 1178 4134 
L 603 4134 
L 603 4863 
z
" transform="scale(0.015625)"/>
       <path id="DejaVuSans-5b" d="M 550 4863 
L 1875 4863 
L 1875 4416 
L 1125 4416 
L 1125 -397 
L 1875 -397 
L 1875 -844 
L 550 -844 
L 550 4863 
z
" transform="scale(0.015625)"/>
       <path id="DejaVuSans-57" d="M 213 4666 
L 850 4666 
L 1831 722 
L 2809 4666 
L 3519 4666 
L 4500 722 
L 5478 4666 
L 6119 4666 
L 4947 0 
L 4153 0 
L 3169 4050 
L 2175 0 
L 1381 0 
L 213 4666 
z
" transform="scale(0.015625)"/>
       <path id="DejaVuSans-5d" d="M 1947 4863 
L 1947 -844 
L 622 -844 
L 622 -397 
L 1369 -397 
L 1369 4416 
L 622 4416 
L 622 4863 
L 1947 4863 
z
" transform="scale(0.015625)"/>
       <path id="DejaVuSans-20" transform="scale(0.015625)"/>
       <path id="DejaVuSans-6d" d="M 3328 2828 
Q 3544 3216 3844 3400 
Q 4144 3584 4550 3584 
Q 5097 3584 5394 3201 
Q 5691 2819 5691 2113 
L 5691 0 
L 5113 0 
L 5113 2094 
Q 5113 2597 4934 2840 
Q 4756 3084 4391 3084 
Q 3944 3084 3684 2787 
Q 3425 2491 3425 1978 
L 3425 0 
L 2847 0 
L 2847 2094 
Q 2847 2600 2669 2842 
Q 2491 3084 2119 3084 
Q 1678 3084 1418 2786 
Q 1159 2488 1159 1978 
L 1159 0 
L 581 0 
L 581 3500 
L 1159 3500 
L 1159 2956 
Q 1356 3278 1631 3431 
Q 1906 3584 2284 3584 
Q 2666 3584 2933 3390 
Q 3200 3197 3328 2828 
z
" transform="scale(0.015625)"/>
       <path id="DejaVuSans-78" d="M 3513 3500 
L 2247 1797 
L 3578 0 
L 2900 0 
L 1881 1375 
L 863 0 
L 184 0 
L 1544 1831 
L 300 3500 
L 978 3500 
L 1906 2253 
L 2834 3500 
L 3513 3500 
z
" transform="scale(0.015625)"/>
      </defs>
      <use xlink:href="#DejaVuSans-50"/>
      <use xlink:href="#DejaVuSans-6f" x="56.677734"/>
      <use xlink:href="#DejaVuSans-74" x="117.859375"/>
      <use xlink:href="#DejaVuSans-65" x="157.068359"/>
      <use xlink:href="#DejaVuSans-6e" x="218.591797"/>
      <use xlink:href="#DejaVuSans-63" x="281.970703"/>
      <use xlink:href="#DejaVuSans-69" x="336.951172"/>
      <use xlink:href="#DejaVuSans-61" x="364.734375"/>
      <use xlink:href="#DejaVuSans-5b" x="426.013672"/>
      <use xlink:href="#DejaVuSans-57" x="465.027344"/>
      <use xlink:href="#DejaVuSans-5d" x="563.904297"/>
      <use xlink:href="#DejaVuSans-20" x="602.917969"/>
      <use xlink:href="#DejaVuSans-6d" x="634.705078"/>
      <use xlink:href="#DejaVuSans-61" x="732.117188"/>
      <use xlink:href="#DejaVuSans-78" x="793.396484"/>
      <use xlink:href="#DejaVuSans-69" x="852.576172"/>
      <use xlink:href="#DejaVuSans-6d" x="880.359375"/>
      <use xlink:href="#DejaVuSans-61" x="977.771484"/>
      <use xlink:href="#DejaVuSans-73" x="1039.050781"/>
     </g>
    </g>
   </g>
   <g id="line2d_12">
    <path d="M 122.769117 72.279116 
L 123.411274 72.054974 
L 124.05343 71.38578 
L 125.337743 69.700367 
L 126.622056 69.49095 
L 127.264212 69.366319 
L 127.906369 67.965105 
L 128.548525 68.667581 
L 129.190682 68.811169 
L 129.832838 67.275818 
L 130.474994 67.979072 
L 131.117151 67.169492 
L 131.759307 67.275502 
L 132.401464 67.208356 
L 133.04362 67.319734 
L 133.685777 69.068716 
L 134.327933 69.460137 
L 134.97009 69.544236 
L 135.612246 71.787414 
L 136.254402 70.621144 
L 136.896559 71.867467 
L 137.538715 72.254312 
L 138.180872 72.995072 
L 138.823028 73.252928 
L 140.749498 73.346767 
L 141.391654 74.252359 
L 142.033811 76.617504 
L 142.675967 74.504875 
L 143.318123 76.660397 
L 143.96028 74.617595 
L 144.602436 76.25417 
L 145.244593 75.214579 
L 145.886749 76.410079 
L 147.171062 74.454325 
L 147.813219 73.92391 
L 148.455375 76.835622 
L 149.097531 74.404199 
L 149.739688 75.650935 
L 150.381844 73.410314 
L 151.666157 73.257536 
L 152.308314 74.196599 
L 152.95047 74.061125 
L 153.592627 73.003547 
L 154.876939 72.357012 
L 155.519096 73.030694 
L 156.161252 73.124358 
L 157.445565 72.331737 
L 158.087722 71.969373 
L 158.729878 72.242634 
L 160.656348 72.398768 
L 161.298504 72.06942 
L 161.94066 72.073793 
L 162.582817 72.280273 
L 163.224973 73.104669 
L 163.86713 73.078281 
L 164.509286 72.426486 
L 165.151443 72.223842 
L 165.793599 72.286496 
L 166.435756 73.055403 
L 167.077912 73.263806 
L 167.720068 73.159007 
L 168.362225 73.204232 
L 169.004381 72.690962 
L 170.288694 73.368237 
L 171.573007 73.160247 
L 172.85732 73.33706 
L 173.499476 74.38305 
L 174.141633 73.901221 
L 174.783789 73.205881 
L 175.425946 73.436162 
L 176.068102 73.351521 
L 176.710259 74.218953 
L 177.352415 76.889623 
L 177.994572 74.526732 
L 178.636728 76.739224 
L 179.278885 74.597331 
L 179.921041 76.686432 
L 180.563197 74.693935 
L 181.205354 77.581163 
L 181.84751 74.65117 
L 182.489667 76.968281 
L 183.131823 74.759533 
L 183.77398 77.074752 
L 184.416136 75.469215 
L 185.058293 77.191984 
L 185.700449 75.059958 
L 186.342605 77.178981 
L 186.984762 74.290005 
L 187.626918 78.241342 
L 188.269075 75.726385 
L 188.911231 79.280341 
L 189.553388 73.294059 
L 190.195544 78.74978 
L 190.837701 75.514305 
L 191.479857 81.87267 
L 192.122013 76.024565 
L 192.76417 79.427956 
L 193.406326 75.226052 
L 194.048483 78.837043 
L 194.690639 76.027472 
L 195.332796 80.998981 
L 195.974952 75.961619 
L 196.617109 82.093801 
L 197.259265 74.145414 
L 197.901422 78.895807 
L 198.543578 74.276092 
L 199.185734 78.532026 
L 199.827891 74.332427 
L 200.470047 78.678019 
L 201.112204 73.299284 
L 201.75436 78.755636 
L 202.396517 73.605047 
L 203.038673 80.213397 
L 203.68083 76.059712 
L 204.322986 80.822929 
L 204.965142 75.795079 
L 205.607299 81.070421 
L 206.249455 76.201444 
L 206.891612 82.148589 
L 207.533768 76.639107 
L 208.175925 82.779543 
L 208.818081 77.206423 
L 209.460238 83.083226 
L 210.102394 78.246886 
L 210.74455 84.975297 
L 211.386707 78.492422 
L 212.028863 84.928081 
L 212.67102 78.372177 
L 213.313176 85.403232 
L 213.955333 79.205045 
L 214.597489 86.267108 
L 215.239646 78.696923 
L 215.881802 85.052816 
L 216.523959 78.576068 
L 217.166115 85.998993 
L 217.808271 79.311546 
L 218.450428 86.255307 
L 219.092584 78.672784 
L 219.734741 84.899739 
L 220.376897 78.710746 
L 221.019054 86.09357 
L 221.66121 79.350099 
L 222.303367 85.772614 
L 222.945523 78.223185 
L 223.587679 84.536408 
L 224.229836 78.579107 
L 224.871992 85.557599 
L 225.514149 79.140483 
L 226.156305 85.063887 
L 226.798462 78.271424 
L 227.440618 84.501681 
L 228.082775 78.666283 
L 228.724931 86.081006 
L 229.367087 79.029535 
L 230.009244 85.216645 
L 230.6514 78.839979 
L 231.293557 86.170932 
L 231.935713 80.362686 
L 232.57787 88.053034 
L 233.220026 80.355579 
L 233.862183 85.961747 
L 234.504339 81.544935 
L 235.146496 89.25914 
L 235.788652 84.780508 
L 236.430808 87.432404 
L 237.072965 84.106377 
L 237.715121 85.298924 
L 238.357278 84.97866 
L 238.999434 86.065147 
L 239.641591 87.400047 
L 240.283747 87.405553 
L 240.925904 86.399555 
L 241.56806 86.21549 
L 242.210216 86.590011 
L 242.852373 87.842675 
L 243.494529 88.308484 
L 244.136686 88.071812 
L 245.420999 86.504396 
L 246.063155 87.018647 
L 246.705312 87.875889 
L 247.347468 88.244526 
L 247.989624 87.176203 
L 248.631781 86.501697 
L 249.916094 86.766282 
L 250.55825 87.057754 
L 251.200407 86.800975 
L 251.842563 86.056728 
L 252.48472 85.880366 
L 253.126876 85.986816 
L 253.769033 86.366127 
L 254.411189 86.328338 
L 255.695502 85.473637 
L 256.337658 85.417476 
L 256.979815 86.773481 
L 257.621971 86.429098 
L 258.264128 86.535209 
L 258.906284 85.971121 
L 259.548441 86.465627 
L 260.190597 86.768879 
L 260.832753 88.190156 
L 261.47491 88.215091 
L 262.117066 88.367267 
L 263.401379 88.335351 
L 264.043536 92.084034 
L 264.685692 92.429308 
L 265.327849 92.498159 
L 266.612161 92.222029 
L 267.254318 92.503805 
L 267.896474 93.671689 
L 269.180787 94.945025 
L 269.822944 94.851445 
L 270.4651 90.64895 
L 271.107257 92.67053 
L 271.749413 95.953495 
L 273.033726 96.085052 
L 273.675882 92.459269 
L 274.318039 92.514794 
L 275.602352 93.097911 
L 276.244508 94.633875 
L 276.886665 95.316828 
L 277.528821 91.990245 
L 278.170978 94.396358 
L 278.813134 95.71578 
L 279.45529 95.123079 
L 280.097447 94.016449 
L 280.739603 95.701342 
L 281.38176 99.955877 
L 282.023916 140.025333 
L 282.666073 101.040632 
L 283.308229 96.090254 
L 283.950386 151.055449 
L 284.592542 152.302312 
L 285.234698 153.045292 
L 285.876855 161.332351 
L 287.161168 149.895849 
L 287.803324 192.665704 
L 289.087637 200.458782 
L 289.729794 196.61255 
L 290.37195 226.910277 
L 291.014107 239.887009 
L 291.656263 199.563024 
L 292.298419 201.128978 
L 292.940576 205.910364 
L 293.582732 187.365736 
L 294.224889 188.546476 
L 294.867045 210.851048 
L 295.509202 202.664914 
L 296.151358 215.946269 
L 296.793515 187.32556 
L 297.435671 193.299805 
L 298.077827 201.913562 
L 298.719984 238.061975 
L 299.36214 204.607807 
L 300.004297 186.796552 
L 300.646453 256.074355 
L 301.28861 268.039442 
L 301.930766 214.546298 
L 302.572923 254.844394 
L 303.215079 248.945741 
L 303.857235 190.613698 
L 304.499392 252.489532 
L 305.141548 217.289268 
L 305.783705 210.81548 
L 306.425861 272.628953 
L 307.068018 276.936489 
L 307.710174 290.469553 
L 308.352331 290.462191 
L 308.994487 271.729532 
L 309.636644 314.659075 
L 310.2788 274.781689 
L 310.920956 289.329119 
L 311.563113 280.321621 
L 313.489582 344.996224 
L 314.131739 317.531108 
L 314.773895 330.384545 
L 315.416052 339.74286 
L 316.058208 340.812568 
L 316.700364 341.325774 
L 317.342521 364.226708 
L 317.984677 351.449737 
L 318.626834 330.615024 
L 319.26899 274.159588 
L 319.911147 270.172565 
L 320.553303 300.286578 
L 321.19546 292.955022 
L 321.837616 313.251259 
L 322.479772 329.320476 
L 323.121929 339.594398 
L 324.406242 376.433158 
L 325.048398 371.808731 
L 325.690555 362.631401 
L 326.332711 366.894718 
L 326.974868 368.813108 
L 327.617024 367.225731 
L 328.901337 406.763409 
L 329.543493 407.386094 
L 330.18565 403.307927 
L 330.827806 392.914861 
L 331.469963 386.254785 
L 332.112119 406.22803 
L 332.754276 393.7304 
L 333.396432 402.422972 
L 334.038589 396.384097 
L 334.680745 408.161282 
L 335.322901 414.746371 
L 335.965058 388.379676 
L 336.607214 393.385052 
L 337.249371 400.017742 
L 337.891527 408.344394 
L 338.533684 418.872838 
L 339.17584 419.195253 
L 339.817997 410.558953 
L 340.460153 410.995907 
L 341.102309 410.376767 
L 341.744466 416.402289 
L 342.386622 417.617818 
L 343.028779 427.643808 
L 343.670935 428.93283 
L 344.313092 424.879519 
L 344.955248 419.880453 
L 345.597405 425.848902 
L 346.239561 425.50376 
L 346.881718 418.83176 
L 347.523874 414.604022 
L 348.16603 427.783078 
L 348.808187 426.753528 
L 349.450343 426.845548 
L 350.0925 429.294283 
L 350.734656 429.524678 
L 351.376813 428.410533 
L 352.018969 425.801669 
L 352.661126 415.456826 
L 353.303282 425.408601 
L 353.945438 426.476197 
L 354.587595 422.485487 
L 355.229751 429.36455 
L 355.871908 429.376271 
L 356.514064 427.561502 
L 357.156221 424.268216 
L 357.798377 410.198251 
L 358.440534 419.772256 
L 359.08269 409.20635 
L 359.724846 427.013573 
L 360.367003 426.470112 
L 361.009159 417.54355 
L 361.651316 411.974992 
L 362.293472 418.752857 
L 362.935629 415.794714 
L 363.577785 416.766174 
L 364.219942 420.318669 
L 364.862098 420.304287 
L 365.504255 421.056748 
L 366.788567 405.572126 
L 367.430724 405.001467 
L 368.07288 419.694672 
L 368.715037 417.955131 
L 369.357193 413.918075 
L 369.99935 416.500613 
L 370.641506 412.683238 
L 371.283663 412.216684 
L 371.925819 416.141025 
L 372.567975 417.211432 
L 373.210132 404.229521 
L 373.852288 406.076765 
L 374.494445 410.54066 
L 375.136601 397.123393 
L 375.778758 393.94976 
L 376.420914 397.003397 
L 377.063071 423.353883 
L 377.705227 421.670716 
L 378.347383 424.964061 
L 378.98954 416.046708 
L 379.631696 408.871796 
L 380.273853 396.717589 
L 380.916009 417.034508 
L 381.558166 425.743851 
L 382.200322 419.850177 
L 382.842479 410.134422 
L 383.484635 415.964541 
L 384.126792 426.643639 
L 384.768948 422.305086 
L 385.411104 423.481897 
L 386.053261 422.451502 
L 386.695417 425.485699 
L 387.337574 421.030759 
L 387.97973 423.053155 
L 388.621887 419.106686 
L 389.264043 427.949372 
L 389.9062 426.143351 
L 390.548356 429.311082 
L 391.190512 426.639204 
L 391.832669 413.11553 
L 392.474825 411.940589 
L 393.116982 424.083368 
L 393.759138 410.899916 
L 394.401295 421.927538 
L 395.043451 427.493846 
L 395.685608 418.7114 
L 396.327764 413.390506 
L 396.96992 424.633857 
L 397.612077 414.532988 
L 398.254233 411.01864 
L 399.538546 412.729303 
L 400.180703 424.363422 
L 400.822859 412.034097 
L 401.465016 395.732044 
L 402.107172 420.251226 
L 402.749329 426.65631 
L 403.391485 409.403213 
L 404.033641 419.226979 
L 404.675798 412.11787 
L 405.317954 395.794049 
L 405.960111 384.065452 
L 407.244424 412.85853 
L 407.88658 410.245939 
L 408.528737 404.362 
L 409.170893 401.039489 
L 409.813049 409.351807 
L 410.455206 403.206609 
L 411.097362 413.118361 
L 412.381675 399.820563 
L 413.665988 423.389814 
L 414.950301 402.216394 
L 415.592457 419.659442 
L 416.87677 401.564062 
L 417.518927 408.069066 
L 418.161083 416.575928 
L 418.80324 423.170362 
L 419.445396 398.755907 
L 420.087553 384.902508 
L 420.729709 394.534515 
L 421.371866 391.320429 
L 422.014022 397.275396 
L 422.656178 388.79373 
L 423.298335 390.682142 
L 423.940491 385.36488 
L 424.582648 393.959771 
L 425.866961 356.650646 
L 426.509117 383.518249 
L 427.151274 383.504025 
L 427.79343 387.279637 
L 428.435586 397.903391 
L 429.077743 379.984625 
L 429.719899 393.887116 
L 430.362056 393.109378 
L 431.004212 390.957531 
L 431.646369 375.305375 
L 432.288525 381.430212 
L 432.930682 397.151236 
L 434.214994 372.90055 
L 434.857151 381.146632 
L 435.499307 370.161986 
L 436.141464 365.427842 
L 436.78362 379.916487 
L 437.425777 359.370869 
L 438.067933 360.64567 
L 438.71009 339.626582 
L 439.352246 366.817608 
L 439.994403 372.262999 
L 440.636559 351.68462 
L 441.278715 338.230659 
L 441.920872 330.388887 
L 442.563028 348.000506 
L 443.205185 343.994737 
L 443.847341 342.418004 
L 444.489498 312.6491 
L 445.131654 322.825483 
L 445.773811 351.389788 
L 446.415967 357.480519 
L 447.058123 358.141723 
L 447.70028 354.646673 
L 448.342436 323.950815 
L 448.984593 366.218012 
L 449.626749 363.51776 
L 450.268906 351.430623 
L 450.911062 384.716319 
L 451.553219 366.460765 
L 452.195375 341.781525 
L 452.837531 348.671416 
L 453.479688 370.666927 
L 454.121844 352.059696 
L 454.764001 317.340276 
L 455.406157 365.590255 
L 456.048314 361.222479 
L 456.69047 362.643526 
L 457.974783 325.939535 
L 459.259096 381.85755 
L 459.901252 358.478046 
L 460.543409 329.410585 
L 461.185565 334.424269 
L 461.827722 357.842325 
L 462.469878 375.317594 
L 463.112035 359.072166 
L 463.754191 357.699686 
L 464.396348 352.211949 
L 465.038504 341.706458 
L 465.68066 345.716302 
L 466.322817 366.994422 
L 466.964973 361.987754 
L 467.60713 371.355714 
L 468.249286 373.775067 
L 468.891443 355.502551 
L 469.533599 378.937867 
L 470.175756 365.32918 
L 470.817912 347.88772 
L 471.460068 357.106205 
L 472.102225 382.473809 
L 472.744381 397.207776 
L 473.386538 361.797691 
L 474.028694 370.079978 
L 474.670851 398.453625 
L 475.313007 393.575781 
L 475.955164 382.095378 
L 476.59732 394.425435 
L 477.239477 384.209223 
L 477.881633 392.213013 
L 478.523789 396.226098 
L 479.165946 403.463655 
L 479.808102 394.33036 
L 480.450259 405.277305 
L 481.092415 403.285078 
L 481.734572 379.31642 
L 482.376728 341.827341 
L 483.018885 415.289136 
L 483.661041 387.17908 
L 484.303197 400.597898 
L 484.945354 408.572541 
L 485.58751 421.214861 
L 486.871823 396.649084 
L 487.51398 407.135641 
L 488.156136 406.258102 
L 488.798293 390.947512 
L 489.440449 404.478009 
L 490.082605 404.050044 
L 490.724762 387.485727 
L 491.366918 395.777927 
L 492.009075 407.34479 
L 492.651231 371.871085 
L 493.293388 404.114021 
L 493.935544 377.266548 
L 494.577701 373.874129 
L 495.219857 356.696609 
L 495.862014 373.606985 
L 496.50417 344.140806 
L 497.146326 367.323429 
L 497.788483 363.715626 
L 498.430639 371.038593 
L 499.072796 352.47015 
L 499.714952 359.468018 
L 500.357109 324.601768 
L 500.999265 337.193874 
L 501.641422 363.004733 
L 502.283578 368.498913 
L 502.925734 342.226633 
L 503.567891 379.412084 
L 504.210047 357.930946 
L 504.852204 361.333553 
L 505.49436 379.588463 
L 506.136517 378.552737 
L 506.778673 363.247282 
L 507.42083 365.699101 
L 508.062986 345.970064 
L 508.705142 397.908504 
L 509.347299 394.124928 
L 509.989455 384.073592 
L 510.631612 366.405445 
L 511.273768 380.938746 
L 511.915925 402.598103 
L 513.200238 380.66981 
L 514.484551 405.858847 
L 515.126707 389.844224 
L 515.768863 384.710938 
L 516.41102 342.478484 
L 517.053176 363.847107 
L 517.695333 391.191362 
L 518.337489 389.694019 
L 518.979646 343.546569 
L 520.263959 359.056235 
L 520.906115 366.75968 
L 521.548271 377.351366 
L 522.190428 362.852171 
L 522.832584 340.93247 
L 523.474741 339.992565 
L 524.116897 338.404681 
L 525.40121 354.54 
L 526.043367 346.76094 
L 526.685523 370.486228 
L 527.327679 377.841253 
L 527.969836 370.6297 
L 528.611992 354.985477 
L 529.254149 394.048141 
L 529.896305 395.001125 
L 530.538462 366.635681 
L 531.180618 371.780101 
L 531.822775 374.365326 
L 532.464931 352.111062 
L 533.107088 351.948969 
L 533.749244 374.647932 
L 534.3914 363.001137 
L 535.033557 369.047478 
L 535.675713 378.791957 
L 536.31787 361.558028 
L 536.960026 379.28188 
L 538.244339 391.617864 
L 538.886496 391.948134 
L 539.528652 384.45645 
L 540.170808 397.700464 
L 540.812965 394.960173 
L 541.455121 401.426313 
L 542.097278 404.146512 
L 542.739434 404.802186 
L 543.381591 388.572106 
L 544.023747 401.928768 
L 544.665904 400.885309 
L 545.30806 408.733904 
L 545.950216 415.172263 
L 546.592373 415.48119 
L 547.234529 394.788621 
L 547.876686 413.390024 
L 548.518842 413.926223 
L 549.160999 406.114054 
L 549.803155 402.775402 
L 550.445312 386.200426 
L 551.087468 390.22707 
L 551.729625 370.865259 
L 552.371781 364.585368 
L 553.013937 360.021155 
L 553.656094 377.057189 
L 554.29825 375.530945 
L 554.940407 365.377359 
L 555.582563 377.780573 
L 556.22472 383.864663 
L 556.866876 367.577858 
L 558.151189 381.628888 
L 558.793345 366.175196 
L 559.435502 378.261951 
L 560.719815 346.137021 
L 561.361971 355.81763 
L 562.004128 358.176171 
L 562.646284 366.339458 
L 563.288441 353.058596 
L 563.930597 313.169686 
L 564.572753 302.170911 
L 565.21491 330.161852 
L 565.857066 320.757222 
L 566.499223 343.101681 
L 567.141379 331.355808 
L 567.783536 290.699812 
L 568.425692 269.134163 
L 569.067849 312.897478 
L 569.710005 316.008466 
L 570.352162 320.111587 
L 570.994318 316.404701 
L 571.636474 310.252882 
L 572.278631 296.059841 
L 572.920787 296.595275 
L 573.562944 281.736705 
L 574.2051 314.497829 
L 574.847257 289.618818 
L 576.13157 269.603432 
L 576.773726 215.788941 
L 577.415882 206.611942 
L 578.058039 223.593479 
L 578.700195 204.605698 
L 579.342352 211.278306 
L 579.984508 210.821214 
L 580.626665 247.028533 
L 581.268821 270.774955 
L 581.910978 242.209519 
L 582.553134 251.979843 
L 583.19529 222.094788 
L 583.837447 210.974425 
L 584.479603 211.655446 
L 585.12176 211.247854 
L 585.763916 176.820138 
L 586.406073 174.999031 
L 587.048229 103.756025 
L 587.690386 159.611941 
L 588.332542 181.597206 
L 588.974699 107.163803 
L 589.616855 139.982717 
L 590.259011 118.489365 
L 590.901168 183.563825 
L 591.543324 190.560276 
L 592.185481 205.742321 
L 592.827637 204.922239 
L 593.469794 205.357235 
L 594.11195 181.839858 
L 594.754107 205.716823 
L 595.396263 205.916338 
L 596.038419 205.178179 
L 596.680576 205.495363 
L 597.322732 205.459159 
L 597.964889 205.899765 
L 598.607045 204.820497 
L 599.249202 205.670201 
L 599.891358 204.681413 
L 600.533515 204.420432 
L 601.175671 204.746509 
L 601.817827 204.615809 
L 602.459984 204.854897 
L 603.10214 204.815588 
L 603.744297 205.211817 
L 604.386453 229.683233 
L 605.02861 226.045231 
L 605.670766 206.182703 
L 606.312923 206.052803 
L 606.955079 205.711258 
L 607.597236 206.179929 
L 608.239392 206.153349 
L 608.881548 205.251463 
L 609.523705 205.200316 
L 610.165861 229.309591 
L 610.808018 206.340774 
L 612.092331 206.126084 
L 612.734487 185.656944 
L 613.376644 177.142182 
L 614.0188 205.915148 
L 614.660956 173.31836 
L 615.303113 104.304921 
L 615.945269 161.708265 
L 616.587426 175.950715 
L 617.229582 102.162765 
L 617.871739 156.437871 
L 618.513895 185.985771 
L 619.156052 110.137221 
L 619.798208 186.894645 
L 620.440364 153.527479 
L 621.082521 177.600248 
L 621.724677 164.719445 
L 622.366834 184.401196 
L 623.00899 199.165028 
L 623.651147 199.270752 
L 624.293303 201.360125 
L 624.93546 205.787709 
L 625.577616 205.514694 
L 626.219773 204.642071 
L 626.861929 205.889812 
L 627.504085 204.905153 
L 628.146242 205.602572 
L 628.788398 225.695291 
L 629.430555 256.516939 
L 630.072711 248.587882 
L 630.714868 250.703168 
L 631.357024 276.40753 
L 631.999181 295.981023 
L 632.641337 273.250969 
L 633.283493 261.390006 
L 633.92565 245.152336 
L 634.567806 275.95335 
L 635.209963 299.272123 
L 635.852119 309.797457 
L 636.494276 323.067264 
L 637.136432 319.298085 
L 637.778589 282.501659 
L 638.420745 309.279615 
L 639.062901 275.233131 
L 639.705058 333.538507 
L 640.347214 339.451736 
L 640.989371 340.177744 
L 641.631527 311.054396 
L 642.273684 358.19159 
L 642.91584 359.360377 
L 643.557997 340.829298 
L 644.200153 377.918457 
L 644.84231 348.311748 
L 645.484466 342.7407 
L 646.126622 342.61039 
L 646.768779 378.53553 
L 647.410935 380.797557 
L 648.053092 386.172009 
L 648.695248 375.958393 
L 649.337405 345.849435 
L 649.979561 376.228552 
L 650.621718 374.842929 
L 651.263874 372.895136 
L 651.90603 368.030038 
L 652.548187 376.802209 
L 653.190343 352.943322 
L 653.8325 343.266772 
L 654.474656 396.275942 
L 655.116813 363.460252 
L 655.758969 345.631474 
L 656.401126 381.301782 
L 657.043282 360.249809 
L 657.685438 376.084231 
L 658.327595 366.540914 
L 658.969751 366.057571 
L 659.611908 357.345055 
L 660.254064 360.958506 
L 660.896221 393.835894 
L 661.538377 386.826714 
L 662.180534 392.079413 
L 662.82269 402.035979 
L 663.464847 407.203435 
L 664.107003 396.133555 
L 664.749159 394.921709 
L 665.391316 401.121361 
L 666.033472 401.947654 
L 666.675629 381.737135 
L 667.317785 365.410321 
L 668.602098 403.258748 
L 669.244255 393.882634 
L 669.886411 387.856699 
L 670.528567 408.847504 
L 671.170724 408.277842 
L 671.81288 390.106607 
L 672.455037 387.663243 
L 673.097193 399.068234 
L 673.73935 391.560071 
L 675.023663 391.454624 
L 675.665819 391.13486 
L 676.307975 376.219614 
L 676.950132 382.21414 
L 677.592288 391.269833 
L 678.234445 402.916209 
L 678.876601 388.056241 
L 679.518758 357.023016 
L 680.160914 368.223393 
L 680.803071 397.991643 
L 681.445227 395.671954 
L 682.087384 390.549721 
L 682.72954 363.154606 
L 683.371696 364.355895 
L 684.013853 348.516985 
L 684.656009 328.005872 
L 685.298166 342.765325 
L 685.940322 325.016343 
L 686.582479 355.741519 
L 687.224635 377.063094 
L 687.866792 413.088164 
L 688.508948 355.789239 
L 689.151104 386.526187 
L 689.793261 392.793861 
L 690.435417 372.585189 
L 691.077574 369.222333 
L 691.71973 398.01954 
L 692.361887 402.37033 
L 693.004043 370.839962 
L 693.6462 407.128046 
L 694.288356 393.331138 
L 695.572669 375.704028 
L 696.214825 377.392749 
L 696.856982 365.537206 
L 697.499138 339.231282 
L 698.141295 349.631779 
L 698.783451 379.784623 
L 699.425608 373.628118 
L 700.067764 388.292041 
L 701.352077 355.025009 
L 701.994233 355.961877 
L 702.63639 338.836646 
L 703.278546 373.720128 
L 703.920703 342.454135 
L 704.562859 365.182996 
L 705.205016 394.941121 
L 705.847172 391.164178 
L 706.489329 384.495598 
L 707.131485 366.826759 
L 707.773641 368.871873 
L 708.415798 380.491461 
L 709.057954 387.566012 
L 709.700111 384.077886 
L 710.342267 393.535987 
L 710.984424 384.834371 
L 711.62658 367.51276 
L 712.268737 403.471427 
L 713.553049 374.507682 
L 714.195206 369.548847 
L 714.837362 401.962715 
L 715.479519 407.648631 
L 716.121675 407.717083 
L 716.763832 402.262836 
L 717.405988 401.925342 
L 718.048145 401.968275 
L 718.690301 403.163398 
L 719.332458 405.096922 
L 719.974614 406.027804 
L 720.61677 398.561323 
L 721.258927 402.039726 
L 721.901083 401.051569 
L 722.54324 398.569157 
L 723.185396 384.696595 
L 723.827553 388.399166 
L 724.469709 396.796859 
L 725.111866 400.770787 
L 725.754022 399.725323 
L 726.396178 391.606338 
L 727.038335 401.782722 
L 727.680491 403.017063 
L 728.322648 403.862189 
L 728.964804 395.948115 
L 729.606961 395.685816 
L 730.249117 409.774212 
L 730.891274 404.131388 
L 731.53343 397.49181 
L 732.175586 396.301344 
L 732.817743 396.861238 
L 733.459899 388.869032 
L 734.102056 405.482383 
L 734.744212 401.944396 
L 735.386369 410.048666 
L 736.028525 414.923708 
L 736.670682 405.943617 
L 737.312838 423.417346 
L 737.954995 419.063507 
L 738.597151 417.560463 
L 739.239307 396.046506 
L 739.881464 407.37671 
L 740.52362 415.526086 
L 741.807933 398.758994 
L 742.45009 405.981622 
L 743.092246 403.639346 
L 743.734403 399.903417 
L 744.376559 410.341881 
L 745.018715 403.941842 
L 745.660872 420.078364 
L 746.303028 398.054776 
L 746.945185 407.94301 
L 748.229498 410.913373 
L 748.871654 412.839653 
L 749.513811 426.054546 
L 750.155967 412.246879 
L 750.798123 411.186523 
L 751.44028 414.431932 
L 752.082436 426.573905 
L 752.724593 413.572666 
L 753.366749 426.561641 
L 754.008906 417.438239 
L 754.651062 403.619389 
L 755.293219 374.092356 
L 755.935375 421.47797 
L 756.577532 413.482487 
L 757.219688 415.274093 
L 757.861844 405.508572 
L 758.504001 410.036628 
L 759.146157 416.938219 
L 759.788314 398.172103 
L 760.43047 392.0268 
L 761.072627 383.523913 
L 761.714783 413.439646 
L 762.35694 393.125332 
L 762.999096 386.74178 
L 763.641252 382.347435 
L 764.283409 374.564375 
L 764.925565 365.067035 
L 765.567722 376.764369 
L 766.209878 339.762873 
L 766.852035 367.019355 
L 767.494191 346.335573 
L 768.136348 335.406755 
L 768.778504 346.485107 
L 769.42066 345.910142 
L 770.062817 375.894222 
L 770.704973 381.477559 
L 771.34713 335.255269 
L 771.989286 354.095156 
L 772.631443 384.000627 
L 773.273599 359.447878 
L 773.915756 384.129891 
L 774.557912 357.712237 
L 775.200069 368.602406 
L 775.842225 370.271475 
L 776.484381 376.589203 
L 777.126538 357.515462 
L 777.768694 369.724432 
L 778.410851 371.672208 
L 779.053007 372.885031 
L 779.695164 361.329673 
L 780.33732 358.523147 
L 780.979477 376.734583 
L 781.621633 365.90561 
L 782.263789 388.985389 
L 782.905946 387.601372 
L 783.548102 386.887944 
L 784.190259 363.437704 
L 784.832415 359.371636 
L 785.474572 378.300286 
L 786.116728 379.752932 
L 787.401041 404.982477 
L 788.043197 377.128505 
L 788.685354 371.758953 
L 789.32751 381.495432 
L 789.969667 392.932834 
L 790.611823 383.088125 
L 791.25398 401.183651 
L 791.896136 389.425502 
L 792.538293 371.42963 
L 793.822606 407.96863 
L 794.464762 386.574148 
L 795.106918 386.76698 
L 795.749075 409.833174 
L 796.391231 408.854664 
L 797.033388 414.056291 
L 797.675544 414.04692 
L 798.317701 401.422783 
L 798.959857 407.719213 
L 799.602014 415.658639 
L 800.24417 411.998543 
L 800.886326 406.025583 
L 801.528483 402.618251 
L 802.170639 410.38813 
L 802.812796 413.363146 
L 803.454952 414.167343 
L 804.097109 397.825941 
L 804.739265 401.9349 
L 805.381422 411.924212 
L 806.023578 397.930088 
L 806.665734 392.300523 
L 807.307891 412.200097 
L 807.950047 419.107402 
L 808.592204 394.8743 
L 809.23436 375.408179 
L 809.876517 394.772092 
L 810.518673 398.380632 
L 811.16083 404.135361 
L 811.802986 412.879095 
L 812.445143 406.274241 
L 813.087299 394.188544 
L 813.729455 379.790629 
L 814.371612 394.848498 
L 815.013768 390.108199 
L 815.655925 400.979914 
L 816.298081 395.787813 
L 816.940238 402.819245 
L 817.582394 387.892949 
L 818.224551 377.147007 
L 818.866707 373.317982 
L 819.508863 405.522606 
L 820.15102 416.247035 
L 820.793176 409.117715 
L 821.435333 414.06503 
L 822.077489 381.487235 
L 822.719646 412.711964 
L 823.361802 357.343239 
L 824.003959 350.936308 
L 824.646115 369.331858 
L 825.288271 309.725138 
L 825.930428 348.633362 
L 826.572584 308.974007 
L 827.214741 312.689446 
L 828.499054 282.752402 
L 829.14121 260.881901 
L 829.783367 258.728356 
L 830.425523 195.936007 
L 831.06768 282.660344 
L 831.709836 218.716684 
L 832.351992 209.689035 
L 832.994149 224.219364 
L 833.636305 265.943101 
L 834.278462 233.619949 
L 834.920618 241.497285 
L 835.562775 266.043623 
L 836.204931 223.728653 
L 836.847088 305.421489 
L 837.489244 222.900665 
L 838.1314 262.961371 
L 838.773557 239.866832 
L 839.415713 279.501796 
L 840.05787 237.920708 
L 840.700026 272.25128 
L 841.342183 256.617973 
L 841.984339 306.145328 
L 842.626496 322.089624 
L 843.268652 346.034905 
L 843.910808 340.914399 
L 844.552965 321.479843 
L 845.195121 280.727965 
L 845.837278 326.136896 
L 846.479434 316.716096 
L 847.121591 356.701874 
L 847.763747 378.769273 
L 848.405904 328.144761 
L 849.04806 346.51038 
L 849.690217 383.748044 
L 850.332373 400.390105 
L 850.974529 389.383652 
L 851.616686 372.496901 
L 852.258842 376.853044 
L 852.900999 384.260273 
L 853.543155 409.997344 
L 854.185312 402.968237 
L 854.827468 392.94123 
L 855.469625 396.863879 
L 856.111781 403.352192 
L 856.753937 397.999952 
L 857.396094 402.759354 
L 858.03825 410.338287 
L 858.680407 402.890716 
L 859.322563 410.287617 
L 859.96472 400.523628 
L 860.606876 386.202451 
L 861.249033 400.367302 
L 861.891189 388.52852 
L 862.533345 390.440023 
L 863.175502 391.248147 
L 863.817658 388.195812 
L 864.459815 400.875866 
L 865.101971 404.751717 
L 865.744128 399.358773 
L 866.386284 404.141072 
L 867.028441 402.542466 
L 867.670597 405.448338 
L 868.312754 409.463044 
L 868.95491 412.084115 
L 869.597066 396.704075 
L 870.239223 413.548713 
L 870.881379 389.674613 
L 871.523536 384.227761 
L 872.165692 376.587682 
L 872.807849 403.392411 
L 873.450005 376.034662 
L 874.092162 358.715344 
L 874.734318 359.324849 
L 875.376474 398.920324 
L 876.018631 379.817178 
L 876.660787 370.255465 
L 877.302944 386.223575 
L 877.9451 405.863189 
L 878.587257 379.213566 
L 879.229413 392.082706 
L 879.87157 396.770739 
L 880.513726 399.553234 
L 881.155882 409.650165 
L 881.798039 365.008244 
L 882.440195 389.114844 
L 883.082352 386.271837 
L 883.724508 369.490732 
L 883.724508 369.490732 
" clip-path="url(#p47f8afacdf)" style="fill: none; stroke: #1f77b4; stroke-width: 1.5; stroke-linecap: square"/>
   </g>
   <g id="line2d_13">
    <path d="M 122.769117 67.163285 
L 123.411274 66.903648 
L 124.695586 65.925723 
L 125.337743 63.539426 
L 125.979899 63.489733 
L 127.264212 63.155646 
L 127.906369 62.565123 
L 128.548525 62.791992 
L 129.190682 62.840409 
L 129.832838 62.264191 
L 130.474994 62.560166 
L 131.759307 62.297167 
L 132.401464 62.385903 
L 133.04362 62.293377 
L 133.685777 62.958083 
L 134.327933 63.269582 
L 134.97009 63.366723 
L 135.612246 66.770126 
L 136.254402 66.086099 
L 136.896559 66.883789 
L 137.538715 67.093743 
L 138.180872 67.678877 
L 139.465185 67.9697 
L 140.107341 67.802595 
L 140.749498 68.079539 
L 141.391654 71.399837 
L 142.033811 71.405004 
L 142.675967 71.687171 
L 143.96028 71.204227 
L 144.602436 71.570997 
L 145.886749 71.828215 
L 146.528906 71.606385 
L 147.171062 69.843505 
L 147.813219 71.399532 
L 149.097531 71.5756 
L 149.739688 70.792214 
L 150.381844 68.228818 
L 151.024001 67.867112 
L 151.666157 67.943119 
L 152.308314 71.361983 
L 152.95047 68.007382 
L 153.592627 68.001625 
L 154.234783 67.520889 
L 154.876939 67.179131 
L 155.519096 67.703972 
L 156.161252 67.658848 
L 158.087722 66.846865 
L 158.729878 67.099967 
L 160.656348 67.18876 
L 161.298504 66.905071 
L 161.94066 66.978781 
L 162.582817 67.215299 
L 163.224973 67.851241 
L 163.86713 67.602866 
L 164.509286 67.221064 
L 165.151443 67.068949 
L 165.793599 67.11994 
L 166.435756 67.774612 
L 167.077912 67.843175 
L 167.720068 67.760451 
L 168.362225 67.820041 
L 169.004381 67.397406 
L 169.646538 67.808409 
L 170.288694 68.018187 
L 171.573007 67.741654 
L 172.85732 68.011858 
L 173.499476 70.785539 
L 174.141633 68.17126 
L 175.425946 68.031996 
L 176.068102 68.075888 
L 176.710259 71.552918 
L 177.994572 71.685359 
L 179.278885 71.52003 
L 179.921041 71.727265 
L 180.563197 72.356684 
L 181.205354 72.332055 
L 181.84751 71.839276 
L 182.489667 71.866493 
L 183.131823 71.732361 
L 183.77398 72.558209 
L 184.416136 72.539043 
L 185.058293 72.37594 
L 185.700449 72.447683 
L 186.342605 72.013031 
L 187.626918 72.928796 
L 188.269075 75.651445 
L 189.553388 72.598661 
L 190.837701 75.512779 
L 191.479857 75.882911 
L 192.122013 75.759374 
L 192.76417 74.393498 
L 193.406326 75.208117 
L 194.048483 72.65093 
L 194.690639 75.817376 
L 195.332796 75.478322 
L 195.974952 75.730023 
L 196.617109 75.753696 
L 197.259265 73.475217 
L 197.901422 74.183459 
L 199.185734 72.706166 
L 199.827891 73.92118 
L 200.470047 72.733889 
L 201.112204 72.754029 
L 201.75436 73.578839 
L 202.396517 72.925883 
L 203.038673 75.660338 
L 203.68083 75.476472 
L 204.322986 75.726489 
L 204.965142 75.495142 
L 206.891612 76.100193 
L 208.175925 76.411809 
L 209.460238 76.559218 
L 210.102394 76.998108 
L 210.74455 77.20304 
L 212.028863 77.20185 
L 212.67102 77.100724 
L 213.313176 77.614122 
L 213.955333 77.935516 
L 214.597489 77.835167 
L 215.239646 77.432434 
L 215.881802 77.293649 
L 216.523959 77.331082 
L 217.166115 77.811054 
L 217.808271 78.016432 
L 218.450428 77.853511 
L 219.092584 77.397052 
L 219.734741 77.106204 
L 221.019054 77.938268 
L 221.66121 78.080797 
L 222.303367 77.653855 
L 222.945523 76.911061 
L 223.587679 76.911095 
L 224.229836 77.354347 
L 225.514149 77.860972 
L 226.156305 77.157638 
L 226.798462 77.029385 
L 227.440618 77.09225 
L 228.724931 77.801207 
L 229.367087 77.733701 
L 230.009244 77.32475 
L 230.6514 77.63494 
L 232.57787 79.447012 
L 233.220026 78.958733 
L 233.862183 78.318065 
L 234.504339 79.962718 
L 235.146496 80.002435 
L 235.788652 83.806687 
L 236.430808 84.313706 
L 237.072965 81.16473 
L 237.715121 82.575695 
L 238.357278 82.656933 
L 238.999434 84.371938 
L 239.641591 85.498398 
L 240.283747 85.098905 
L 240.925904 84.329105 
L 241.56806 84.162855 
L 242.210216 84.720636 
L 242.852373 85.945535 
L 243.494529 86.292711 
L 244.136686 85.991725 
L 244.778842 84.810219 
L 245.420999 84.622229 
L 246.063155 84.941592 
L 246.705312 86.080927 
L 247.347468 86.04925 
L 247.989624 84.917288 
L 248.631781 84.485911 
L 249.916094 84.784692 
L 250.55825 85.06426 
L 251.842563 84.044675 
L 252.48472 83.891877 
L 253.126876 84.007131 
L 253.769033 84.389079 
L 254.411189 84.288381 
L 255.053345 83.823754 
L 255.695502 81.416253 
L 256.337658 83.944489 
L 257.621971 84.788091 
L 258.264128 84.166861 
L 258.906284 84.365601 
L 259.548441 84.277644 
L 260.832753 86.15649 
L 262.759223 86.402581 
L 263.401379 86.395615 
L 264.043536 91.002415 
L 264.685692 91.318355 
L 265.327849 91.408237 
L 266.612161 91.098604 
L 267.254318 91.398415 
L 267.896474 92.546133 
L 269.180787 93.749087 
L 269.822944 93.658946 
L 270.4651 89.26764 
L 271.107257 91.790896 
L 271.749413 94.795222 
L 273.033726 95.093564 
L 273.675882 91.325084 
L 274.318039 91.380745 
L 275.602352 92.032036 
L 276.244508 93.475082 
L 276.886665 94.154547 
L 277.528821 90.787908 
L 278.170978 93.238865 
L 278.813134 94.729282 
L 279.45529 93.955987 
L 280.097447 92.852024 
L 280.739603 94.702907 
L 281.38176 98.865484 
L 282.023916 107.598593 
L 282.666073 94.871099 
L 283.308229 95.335808 
L 283.950386 114.11016 
L 284.592542 145.260053 
L 285.234698 152.289868 
L 286.519011 130.991271 
L 288.445481 175.317944 
L 289.087637 164.460319 
L 289.729794 177.865921 
L 290.37195 209.536185 
L 291.014107 202.338506 
L 292.298419 170.914911 
L 292.940576 203.508802 
L 293.582732 186.31118 
L 294.224889 187.612786 
L 294.867045 207.335785 
L 295.509202 201.715734 
L 296.151358 210.357398 
L 297.435671 158.378504 
L 298.719984 201.223999 
L 299.36214 203.557224 
L 300.004297 186.189226 
L 300.646453 239.766305 
L 301.28861 238.549327 
L 301.930766 196.577593 
L 302.572923 237.525879 
L 303.215079 234.133184 
L 303.857235 189.344757 
L 304.499392 237.259415 
L 305.141548 211.078149 
L 305.783705 206.368037 
L 306.425861 242.944026 
L 307.068018 262.124869 
L 307.710174 274.14781 
L 308.352331 253.0778 
L 308.994487 252.57315 
L 309.636644 264.770042 
L 310.2788 253.869471 
L 310.920956 279.373831 
L 311.563113 263.642101 
L 312.205269 270.36521 
L 312.847426 288.956473 
L 313.489582 303.381789 
L 314.131739 302.988934 
L 314.773895 313.543935 
L 315.416052 326.335315 
L 316.058208 322.805144 
L 316.700364 328.057007 
L 317.342521 338.130546 
L 317.984677 345.815515 
L 318.626834 316.615742 
L 319.26899 270.579262 
L 319.911147 267.113988 
L 320.553303 290.949745 
L 321.19546 284.374813 
L 321.837616 302.377388 
L 322.479772 299.035362 
L 323.121929 339.119779 
L 323.764085 351.915885 
L 324.406242 369.233419 
L 325.048398 365.79481 
L 325.690555 347.715329 
L 326.332711 362.226654 
L 326.974868 352.707674 
L 327.617024 350.622812 
L 328.259181 377.700509 
L 328.901337 396.270287 
L 329.543493 395.477727 
L 330.827806 389.387996 
L 331.469963 382.245243 
L 332.112119 361.789738 
L 332.754276 376.65526 
L 333.396432 396.071676 
L 334.038589 391.509503 
L 334.680745 402.028051 
L 335.322901 399.109419 
L 335.965058 383.510402 
L 337.249371 396.495719 
L 337.891527 397.139178 
L 338.533684 411.406005 
L 339.17584 411.915883 
L 339.817997 403.881754 
L 340.460153 409.327893 
L 341.102309 405.401042 
L 341.744466 410.477696 
L 343.028779 423.965142 
L 343.670935 425.72698 
L 344.955248 415.570126 
L 345.597405 424.763028 
L 346.239561 423.883387 
L 346.881718 406.019484 
L 347.523874 404.474517 
L 348.16603 411.248129 
L 348.808187 413.834917 
L 349.450343 425.720267 
L 350.0925 428.428203 
L 350.734656 428.472423 
L 351.376813 428.024366 
L 352.018969 422.155697 
L 352.661126 414.644737 
L 353.303282 421.241218 
L 353.945438 423.205434 
L 354.587595 418.365676 
L 355.229751 428.239039 
L 355.871908 427.209316 
L 356.514064 425.23174 
L 357.156221 420.672053 
L 357.798377 410.073929 
L 358.440534 388.275233 
L 359.08269 404.467664 
L 359.724846 415.442386 
L 360.367003 421.455446 
L 361.009159 410.744076 
L 361.651316 409.574523 
L 362.293472 411.352654 
L 362.935629 415.086075 
L 363.577785 414.069747 
L 364.219942 413.741178 
L 364.862098 417.015524 
L 365.504255 417.721879 
L 366.146411 405.946875 
L 366.788567 398.694402 
L 367.430724 400.117677 
L 368.07288 407.794893 
L 368.715037 399.99799 
L 369.357193 413.301376 
L 369.99935 415.985848 
L 370.641506 406.145882 
L 371.283663 407.087387 
L 371.925819 410.503813 
L 372.567975 408.314823 
L 373.210132 399.411299 
L 373.852288 405.1356 
L 374.494445 407.286025 
L 375.136601 392.43548 
L 375.778758 380.507287 
L 376.420914 393.551066 
L 377.063071 422.086313 
L 377.705227 420.540155 
L 378.347383 405.850933 
L 378.98954 407.687785 
L 379.631696 401.41051 
L 380.273853 392.397254 
L 380.916009 415.987067 
L 381.558166 418.400428 
L 382.200322 415.015425 
L 382.842479 407.006672 
L 383.484635 413.671218 
L 384.126792 422.892958 
L 384.768948 413.375203 
L 385.411104 413.147571 
L 386.053261 419.433583 
L 386.695417 423.538098 
L 387.337574 420.317224 
L 387.97973 401.276878 
L 389.264043 421.98118 
L 389.9062 423.248926 
L 390.548356 425.898823 
L 391.190512 411.518751 
L 391.832669 406.935488 
L 392.474825 411.930652 
L 393.116982 413.360427 
L 393.759138 410.704721 
L 394.401295 418.392159 
L 395.043451 417.575537 
L 395.685608 417.90469 
L 396.327764 413.066425 
L 396.96992 416.193689 
L 397.612077 407.505993 
L 398.254233 410.180399 
L 398.89639 410.287595 
L 399.538546 405.809423 
L 400.180703 407.467148 
L 400.822859 407.218908 
L 401.465016 391.233853 
L 402.107172 418.178786 
L 403.391485 409.090097 
L 404.675798 402.550931 
L 405.317954 390.945576 
L 405.960111 382.842781 
L 407.244424 408.853526 
L 407.88658 408.740987 
L 408.528737 399.085411 
L 409.170893 392.890655 
L 409.813049 393.900849 
L 410.455206 398.957317 
L 411.097362 408.910579 
L 411.739519 394.458374 
L 412.381675 386.11581 
L 413.023832 410.25268 
L 413.665988 413.218172 
L 414.308145 411.187029 
L 414.950301 396.774504 
L 415.592457 417.370474 
L 416.234614 410.255506 
L 416.87677 396.749256 
L 417.518927 406.386627 
L 418.161083 411.970934 
L 418.80324 399.666629 
L 419.445396 391.609715 
L 420.087553 375.172157 
L 420.729709 385.330348 
L 421.371866 390.259247 
L 422.014022 385.478148 
L 422.656178 363.511231 
L 423.298335 382.497184 
L 423.940491 382.719037 
L 424.582648 371.325292 
L 425.224804 370.507926 
L 425.866961 352.378029 
L 426.509117 372.116871 
L 427.151274 378.194067 
L 427.79343 385.79796 
L 428.435586 375.109407 
L 429.077743 371.608641 
L 429.719899 391.53723 
L 430.362056 391.85521 
L 431.004212 386.578783 
L 431.646369 355.282915 
L 432.288525 359.689358 
L 432.930682 374.107198 
L 433.572838 349.741557 
L 434.214994 364.816204 
L 434.857151 369.860971 
L 435.499307 364.729254 
L 436.141464 354.065564 
L 436.78362 348.151323 
L 437.425777 354.333342 
L 438.067933 335.4867 
L 438.71009 336.551488 
L 439.352246 344.546974 
L 439.994403 355.252955 
L 440.636559 345.093002 
L 441.278715 323.955918 
L 441.920872 329.621841 
L 442.563028 344.606185 
L 443.205185 333.821812 
L 443.847341 331.038138 
L 444.489498 277.123465 
L 445.773811 344.15937 
L 446.415967 340.436009 
L 447.058123 339.703666 
L 447.70028 348.225686 
L 448.342436 310.153809 
L 448.984593 355.619359 
L 449.626749 345.175136 
L 450.268906 347.364057 
L 450.911062 367.478668 
L 451.553219 357.676469 
L 452.195375 321.320505 
L 452.837531 347.92349 
L 453.479688 366.026765 
L 454.121844 342.071473 
L 454.764001 301.933311 
L 455.406157 326.395748 
L 456.048314 339.038232 
L 456.69047 357.566431 
L 457.332627 321.096421 
L 457.974783 303.408014 
L 458.61694 348.438346 
L 459.259096 366.369331 
L 459.901252 349.668947 
L 460.543409 298.162675 
L 461.185565 314.293424 
L 461.827722 353.085447 
L 462.469878 368.000538 
L 463.112035 354.674423 
L 463.754191 353.627781 
L 464.396348 348.796834 
L 465.038504 341.556738 
L 465.68066 331.100231 
L 466.322817 347.898856 
L 466.964973 354.318495 
L 467.60713 352.617519 
L 468.249286 356.159165 
L 468.891443 350.777677 
L 469.533599 372.099013 
L 470.175756 345.352601 
L 470.817912 344.066431 
L 471.460068 353.357647 
L 472.102225 364.587798 
L 472.744381 383.264543 
L 473.386538 354.102782 
L 474.028694 353.016217 
L 474.670851 385.933316 
L 475.313007 383.727659 
L 475.955164 364.353633 
L 476.59732 390.891835 
L 477.239477 373.41674 
L 477.881633 378.306029 
L 478.523789 389.057755 
L 479.165946 395.127244 
L 479.808102 385.93704 
L 480.450259 397.252288 
L 481.092415 395.386903 
L 481.734572 360.62348 
L 482.376728 333.822206 
L 483.018885 342.108133 
L 483.661041 383.126513 
L 484.303197 397.141641 
L 484.945354 407.800895 
L 485.58751 407.696983 
L 486.229667 403.622332 
L 486.871823 393.060714 
L 487.51398 402.84441 
L 488.156136 397.173639 
L 488.798293 386.050582 
L 489.440449 397.639444 
L 490.082605 393.179092 
L 490.724762 383.666294 
L 491.366918 386.602732 
L 492.009075 387.7079 
L 492.651231 371.11202 
L 493.293388 364.2518 
L 493.935544 370.314726 
L 494.577701 367.589822 
L 495.219857 352.021423 
L 495.862014 346.996533 
L 496.50417 340.947 
L 497.146326 362.196338 
L 497.788483 346.512823 
L 498.430639 358.663006 
L 499.072796 339.436486 
L 499.714952 328.493375 
L 500.357109 308.299519 
L 501.641422 358.129333 
L 502.283578 352.374589 
L 502.925734 340.528945 
L 503.567891 352.422283 
L 504.210047 353.221084 
L 504.852204 352.073453 
L 505.49436 350.596537 
L 506.136517 368.735473 
L 506.778673 361.279288 
L 507.42083 344.829522 
L 508.062986 338.087753 
L 508.705142 386.631739 
L 509.347299 392.179681 
L 509.989455 379.066157 
L 510.631612 360.758011 
L 511.273768 369.025868 
L 511.915925 364.7641 
L 512.558081 368.367566 
L 513.200238 359.122604 
L 513.842394 390.194446 
L 514.484551 385.005745 
L 515.126707 375.409073 
L 515.768863 375.832437 
L 516.41102 337.778034 
L 517.053176 358.731918 
L 517.695333 359.925481 
L 518.337489 369.760499 
L 518.979646 338.268278 
L 519.621802 331.345354 
L 520.263959 350.207054 
L 520.906115 354.765193 
L 521.548271 344.001444 
L 522.190428 349.850762 
L 522.832584 321.066776 
L 523.474741 325.450544 
L 524.759054 345.867346 
L 525.40121 349.107053 
L 526.043367 332.198802 
L 526.685523 333.948829 
L 527.327679 358.909949 
L 527.969836 362.20218 
L 528.611992 350.542535 
L 529.254149 389.044054 
L 529.896305 374.349642 
L 530.538462 353.531533 
L 531.180618 349.500451 
L 531.822775 368.169972 
L 532.464931 347.324714 
L 533.107088 349.437107 
L 533.749244 367.199242 
L 534.3914 358.349956 
L 535.033557 358.585043 
L 535.675713 365.196955 
L 536.31787 356.568991 
L 536.960026 378.183197 
L 537.602183 385.477844 
L 538.244339 387.2385 
L 538.886496 389.927682 
L 539.528652 381.644741 
L 540.170808 370.268954 
L 540.812965 391.126789 
L 541.455121 398.121734 
L 542.097278 391.98932 
L 542.739434 400.802715 
L 543.381591 386.047615 
L 544.023747 385.163716 
L 544.665904 397.962892 
L 545.30806 405.281872 
L 545.950216 401.655254 
L 546.592373 402.566663 
L 547.234529 394.748525 
L 547.876686 402.552553 
L 548.518842 403.66655 
L 549.160999 391.545097 
L 549.803155 357.979427 
L 550.445312 382.805469 
L 551.087468 379.509639 
L 551.729625 364.602854 
L 552.371781 346.196378 
L 553.656094 363.401881 
L 554.29825 372.828061 
L 554.940407 358.378834 
L 556.22472 378.087286 
L 556.866876 361.395862 
L 557.509033 367.003907 
L 558.151189 348.82633 
L 558.793345 355.458379 
L 559.435502 329.111845 
L 560.077658 323.284168 
L 560.719815 338.834789 
L 561.361971 322.407806 
L 562.004128 342.704606 
L 562.646284 330.951496 
L 563.930597 294.744097 
L 564.572753 289.961402 
L 565.21491 314.978696 
L 565.857066 313.610672 
L 566.499223 295.229355 
L 567.141379 297.21559 
L 567.783536 278.556287 
L 568.425692 266.049289 
L 569.067849 303.765985 
L 569.710005 301.857312 
L 570.352162 304.236692 
L 570.994318 284.939698 
L 571.636474 270.746737 
L 572.278631 266.719738 
L 572.920787 266.510717 
L 573.562944 275.922035 
L 574.2051 283.27453 
L 574.847257 276.806476 
L 575.489413 273.838385 
L 577.415882 179.031218 
L 578.058039 162.11415 
L 578.700195 171.237492 
L 579.342352 170.891157 
L 579.984508 204.96689 
L 580.626665 207.339021 
L 581.268821 209.019027 
L 581.910978 207.107798 
L 582.553134 207.164785 
L 583.19529 201.806249 
L 583.837447 170.359127 
L 584.479603 151.817419 
L 585.12176 151.071868 
L 585.763916 150.942752 
L 586.406073 121.614278 
L 587.048229 101.60379 
L 587.690386 98.026278 
L 588.332542 98.657434 
L 588.974699 103.241596 
L 589.616855 111.853746 
L 590.259011 115.200779 
L 590.901168 132.972492 
L 591.543324 164.831134 
L 592.185481 155.435227 
L 592.827637 154.800122 
L 593.469794 156.391005 
L 595.396263 168.68516 
L 596.038419 164.450116 
L 596.680576 171.264229 
L 597.322732 194.07747 
L 597.964889 187.465745 
L 598.607045 200.134069 
L 599.249202 179.14651 
L 599.891358 169.110159 
L 600.533515 176.073058 
L 601.175671 192.083057 
L 601.817827 201.092772 
L 602.459984 195.949133 
L 603.10214 183.666228 
L 603.744297 194.695099 
L 604.386453 224.038745 
L 605.02861 219.914915 
L 605.670766 201.12003 
L 606.312923 194.078264 
L 606.955079 176.661024 
L 607.597236 184.642563 
L 608.239392 196.371897 
L 609.523705 201.72228 
L 610.165861 217.523622 
L 610.808018 201.147208 
L 611.450174 200.719951 
L 612.734487 164.546186 
L 613.376644 152.140651 
L 614.0188 167.392321 
L 614.660956 126.11974 
L 615.303113 100.196474 
L 615.945269 97.890669 
L 617.871739 97.696883 
L 618.513895 98.471527 
L 619.156052 108.948431 
L 619.798208 135.096334 
L 620.440364 143.350024 
L 621.082521 144.878779 
L 621.724677 149.819601 
L 622.366834 163.443621 
L 623.00899 165.765335 
L 623.651147 166.425237 
L 624.293303 167.427586 
L 624.93546 176.944818 
L 625.577616 188.724005 
L 626.219773 192.973202 
L 626.861929 199.990407 
L 627.504085 201.485874 
L 628.146242 203.390446 
L 628.788398 219.634549 
L 629.430555 223.75421 
L 630.072711 239.261384 
L 630.714868 246.130812 
L 631.357024 269.067462 
L 631.999181 271.745194 
L 632.641337 244.040714 
L 633.283493 242.582957 
L 633.92565 241.988129 
L 634.567806 248.522414 
L 635.209963 268.811196 
L 635.852119 293.410213 
L 636.494276 298.9435 
L 637.136432 285.17056 
L 637.778589 275.386963 
L 638.420745 289.73031 
L 639.062901 273.053987 
L 639.705058 306.605948 
L 640.347214 329.204201 
L 640.989371 330.61552 
L 641.631527 297.748536 
L 642.273684 349.968638 
L 642.91584 329.835158 
L 643.557997 340.603671 
L 644.200153 327.516122 
L 644.84231 344.081917 
L 645.484466 342.312102 
L 646.126622 331.083795 
L 646.768779 360.901978 
L 647.410935 379.877832 
L 648.053092 365.91546 
L 648.695248 356.724989 
L 649.337405 341.696571 
L 649.979561 358.040321 
L 650.621718 369.071199 
L 651.263874 367.548242 
L 651.90603 362.951387 
L 652.548187 369.969773 
L 653.190343 348.610455 
L 653.8325 342.382082 
L 654.474656 376.503758 
L 655.116813 350.113393 
L 655.758969 344.992596 
L 656.401126 365.797402 
L 657.043282 355.388459 
L 657.685438 361.226123 
L 658.327595 356.770882 
L 658.969751 349.517395 
L 659.611908 329.594775 
L 660.896221 384.748101 
L 661.538377 386.400156 
L 662.180534 390.68888 
L 662.82269 398.792103 
L 663.464847 399.733255 
L 664.107003 385.711148 
L 664.749159 385.682234 
L 665.391316 387.823568 
L 666.033472 393.798115 
L 666.675629 368.79793 
L 667.317785 354.636239 
L 667.959942 381.06349 
L 668.602098 383.160911 
L 669.244255 377.14411 
L 669.886411 386.357101 
L 670.528567 400.847645 
L 671.170724 403.118462 
L 671.81288 373.289799 
L 672.455037 381.154042 
L 673.097193 395.439444 
L 673.73935 389.094861 
L 674.381506 389.738297 
L 675.665819 389.607645 
L 676.307975 360.513344 
L 676.950132 373.952164 
L 677.592288 380.960691 
L 678.234445 399.228217 
L 679.518758 352.009303 
L 680.160914 362.883202 
L 680.803071 389.963267 
L 681.445227 385.56957 
L 682.087384 377.863029 
L 682.72954 352.494543 
L 684.013853 323.849047 
L 684.656009 323.293898 
L 685.298166 341.038999 
L 685.940322 311.540245 
L 686.582479 321.525904 
L 687.224635 374.855039 
L 687.866792 357.663943 
L 688.508948 349.730034 
L 689.151104 340.084808 
L 689.793261 372.912512 
L 690.435417 360.173266 
L 692.361887 385.03779 
L 693.004043 360.37173 
L 693.6462 351.703642 
L 694.288356 356.215903 
L 694.930512 356.595231 
L 695.572669 368.532871 
L 696.214825 369.388364 
L 696.856982 360.672396 
L 697.499138 338.550772 
L 698.141295 343.286948 
L 698.783451 360.570813 
L 699.425608 363.945582 
L 700.067764 362.260266 
L 700.709921 358.124678 
L 701.352077 347.543899 
L 701.994233 330.982369 
L 703.278546 337.850045 
L 703.920703 333.850883 
L 704.562859 350.639173 
L 705.205016 377.754721 
L 705.847172 372.793397 
L 706.489329 362.952159 
L 707.131485 356.836902 
L 707.773641 359.981215 
L 708.415798 368.028954 
L 709.057954 383.410327 
L 709.700111 371.777255 
L 710.342267 375.157544 
L 710.984424 383.662797 
L 711.62658 362.562068 
L 712.268737 394.290563 
L 712.910893 387.414249 
L 713.553049 365.806442 
L 714.195206 351.929327 
L 714.837362 395.653874 
L 715.479519 403.588222 
L 716.121675 396.284358 
L 716.763832 393.760209 
L 717.405988 398.19415 
L 718.048145 398.309426 
L 718.690301 394.523432 
L 719.332458 393.358418 
L 719.974614 403.337008 
L 720.61677 394.151115 
L 721.258927 397.679204 
L 721.901083 389.066146 
L 723.185396 383.70607 
L 723.827553 387.85559 
L 724.469709 394.594357 
L 725.111866 390.174285 
L 725.754022 392.736501 
L 726.396178 374.807558 
L 727.038335 391.1552 
L 727.680491 398.920281 
L 728.322648 394.97544 
L 728.964804 387.814051 
L 729.606961 392.041347 
L 730.249117 408.420634 
L 730.891274 399.908296 
L 731.53343 393.731303 
L 732.175586 392.68651 
L 732.817743 385.74094 
L 733.459899 362.767749 
L 734.102056 394.622716 
L 734.744212 397.917612 
L 736.028525 412.598594 
L 736.670682 400.222538 
L 737.312838 420.466771 
L 737.954995 413.506466 
L 739.239307 392.347863 
L 739.881464 407.017074 
L 740.52362 409.960666 
L 741.165777 402.370041 
L 741.807933 397.903086 
L 742.45009 402.620885 
L 743.092246 399.792236 
L 743.734403 395.844033 
L 744.376559 406.141905 
L 745.018715 403.92184 
L 745.660872 415.64424 
L 746.303028 384.194212 
L 746.945185 399.644797 
L 747.587341 404.062856 
L 748.229498 401.239459 
L 749.513811 423.519889 
L 750.155967 411.63835 
L 750.798123 410.512959 
L 751.44028 413.989378 
L 752.082436 420.761856 
L 752.724593 412.85085 
L 753.366749 423.077459 
L 754.651062 397.718918 
L 755.293219 374.052637 
L 755.935375 393.180209 
L 756.577532 401.453864 
L 757.219688 403.919819 
L 757.861844 385.47027 
L 758.504001 399.802986 
L 759.146157 407.799425 
L 759.788314 394.984261 
L 761.072627 383.486037 
L 761.714783 390.637089 
L 762.35694 385.79583 
L 762.999096 385.85847 
L 763.641252 361.821828 
L 764.283409 356.923401 
L 764.925565 356.811807 
L 765.567722 312.213777 
L 766.209878 331.491242 
L 766.852035 328.183489 
L 767.494191 339.844829 
L 768.136348 315.924273 
L 768.778504 310.034253 
L 769.42066 345.81234 
L 770.062817 357.178073 
L 770.704973 360.268643 
L 771.34713 314.259188 
L 771.989286 329.611445 
L 772.631443 363.164139 
L 773.273599 355.023796 
L 773.915756 371.897384 
L 774.557912 353.735391 
L 775.200069 364.020777 
L 775.842225 351.817758 
L 776.484381 372.979541 
L 777.126538 353.396243 
L 777.768694 353.782461 
L 778.410851 366.12075 
L 779.053007 360.518545 
L 779.695164 347.294483 
L 780.33732 347.870698 
L 780.979477 357.947696 
L 781.621633 352.83091 
L 782.263789 378.50299 
L 782.905946 382.772248 
L 783.548102 361.363983 
L 784.190259 349.970426 
L 784.832415 344.186167 
L 785.474572 367.393462 
L 786.116728 371.152285 
L 786.758885 388.196932 
L 787.401041 380.139095 
L 788.043197 355.436167 
L 788.685354 350.74572 
L 789.32751 377.123956 
L 789.969667 352.611989 
L 790.611823 375.88653 
L 791.25398 386.592892 
L 792.538293 364.623733 
L 793.180449 380.816957 
L 793.822606 393.908832 
L 794.464762 384.097823 
L 795.106918 365.928964 
L 795.749075 401.633244 
L 796.391231 403.252759 
L 797.033388 406.61332 
L 797.675544 404.987696 
L 798.317701 393.415404 
L 798.959857 406.261526 
L 799.602014 409.758417 
L 800.24417 400.082215 
L 800.886326 402.525445 
L 801.528483 396.533129 
L 802.170639 405.7718 
L 802.812796 410.871498 
L 803.454952 403.717751 
L 804.097109 389.493197 
L 805.381422 404.312127 
L 806.023578 393.414898 
L 806.665734 389.810333 
L 807.307891 405.684886 
L 807.950047 398.491033 
L 809.23436 374.940613 
L 809.876517 380.891116 
L 810.518673 393.596755 
L 811.16083 403.319151 
L 811.802986 397.903742 
L 812.445143 403.628992 
L 813.729455 376.009654 
L 814.371612 385.322125 
L 815.013768 388.043505 
L 815.655925 384.80938 
L 816.298081 383.561101 
L 816.940238 395.408092 
L 818.224551 368.492254 
L 818.866707 366.39563 
L 819.508863 389.262292 
L 820.15102 387.655571 
L 820.793176 385.27192 
L 821.435333 376.359054 
L 822.077489 371.167656 
L 823.361802 326.332094 
L 824.003959 317.651263 
L 824.646115 313.958688 
L 825.288271 299.328569 
L 825.930428 264.857616 
L 826.572584 262.576046 
L 827.214741 262.363877 
L 827.856897 263.256256 
L 828.499054 263.526372 
L 829.14121 236.470829 
L 829.783367 195.006589 
L 830.425523 195.568598 
L 831.06768 216.004391 
L 831.709836 211.757459 
L 832.351992 205.213434 
L 832.994149 217.77941 
L 833.636305 222.523678 
L 834.278462 226.436187 
L 834.920618 233.754569 
L 835.562775 250.764444 
L 836.204931 223.563538 
L 836.847088 222.090999 
L 837.489244 222.591598 
L 838.1314 223.56861 
L 838.773557 229.063571 
L 839.415713 223.217448 
L 840.05787 220.463483 
L 840.700026 219.969476 
L 841.342183 245.350819 
L 841.984339 282.290988 
L 842.626496 301.69856 
L 843.268652 301.588612 
L 843.910808 300.152056 
L 844.552965 291.183039 
L 845.195121 271.672534 
L 846.479434 311.961062 
L 847.121591 314.616517 
L 847.763747 312.144735 
L 848.405904 311.197647 
L 849.04806 340.447626 
L 850.332373 383.814812 
L 850.974529 376.279206 
L 851.616686 366.589238 
L 852.258842 373.021867 
L 852.900999 380.71245 
L 853.543155 401.576177 
L 854.185312 396.288994 
L 854.827468 389.31754 
L 855.469625 393.692352 
L 856.111781 392.748361 
L 856.753937 384.332291 
L 857.396094 399.292417 
L 858.03825 382.307669 
L 858.680407 399.523067 
L 859.322563 402.798574 
L 859.96472 389.596937 
L 860.606876 384.035623 
L 861.249033 396.772932 
L 861.891189 375.695998 
L 862.533345 369.156299 
L 863.175502 389.574 
L 863.817658 382.631328 
L 864.459815 390.390858 
L 865.101971 391.15311 
L 865.744128 395.42282 
L 866.386284 394.274857 
L 867.028441 402.455205 
L 867.670597 397.073073 
L 868.312754 403.321752 
L 868.95491 406.880878 
L 869.597066 392.49538 
L 870.239223 402.367569 
L 870.881379 385.46832 
L 872.165692 360.21675 
L 872.807849 386.133051 
L 873.450005 367.865343 
L 874.092162 354.37031 
L 874.734318 356.080591 
L 875.376474 340.967202 
L 876.018631 360.818392 
L 876.660787 361.882355 
L 877.302944 383.673363 
L 877.9451 398.980656 
L 878.587257 376.781242 
L 879.229413 372.168694 
L 879.87157 373.832969 
L 880.513726 373.896695 
L 881.155882 349.742788 
L 881.798039 363.281723 
L 882.440195 370.136342 
L 883.082352 379.59978 
L 883.724508 363.610118 
L 883.724508 363.610118 
" clip-path="url(#p47f8afacdf)" style="fill: none; stroke: #ff7f0e; stroke-width: 1.5; stroke-linecap: square"/>
   </g>
   <g id="patch_3">
    <path d="M 122.94 424.8504 
L 122.94 57.2832 
" style="fill: none; stroke: #000000; stroke-width: 0.8; stroke-linejoin: miter; stroke-linecap: square"/>
   </g>
   <g id="patch_4">
    <path d="M 885.168 424.8504 
L 885.168 57.2832 
" style="fill: none; stroke: #000000; stroke-width: 0.8; stroke-linejoin: miter; stroke-linecap: square"/>
   </g>
   <g id="patch_5">
    <path d="M 122.94 424.8504 
L 885.168 424.8504 
" style="fill: none; stroke: #000000; stroke-width: 0.8; stroke-linejoin: miter; stroke-linecap: square"/>
   </g>
   <g id="patch_6">
    <path d="M 122.94 57.2832 
L 885.168 57.2832 
" style="fill: none; stroke: #000000; stroke-width: 0.8; stroke-linejoin: miter; stroke-linecap: square"/>
   </g>
   <g id="text_14">
    <!-- Potencia -->
    <g transform="translate(478.493063 51.2832) scale(0.12 -0.12)">
     <use xlink:href="#DejaVuSans-50"/>
     <use xlink:href="#DejaVuSans-6f" x="56.677734"/>
     <use xlink:href="#DejaVuSans-74" x="117.859375"/>
     <use xlink:href="#DejaVuSans-65" x="157.068359"/>
     <use xlink:href="#DejaVuSans-6e" x="218.591797"/>
     <use xlink:href="#DejaVuSans-63" x="281.970703"/>
     <use xlink:href="#DejaVuSans-69" x="336.951172"/>
     <use xlink:href="#DejaVuSans-61" x="364.734375"/>
    </g>
   </g>
   <g id="legend_1">
    <g id="patch_7">
     <path d="M 783.060187 94.63945 
L 878.168 94.63945 
Q 880.168 94.63945 880.168 92.63945 
L 880.168 64.2832 
Q 880.168 62.2832 878.168 62.2832 
L 783.060187 62.2832 
Q 781.060187 62.2832 781.060187 64.2832 
L 781.060187 92.63945 
Q 781.060187 94.63945 783.060187 94.63945 
z
" style="fill: #ffffff; opacity: 0.8; stroke: #cccccc; stroke-linejoin: miter"/>
    </g>
    <g id="line2d_14">
     <path d="M 785.060187 70.381638 
L 795.060187 70.381638 
L 805.060187 70.381638 
" style="fill: none; stroke: #1f77b4; stroke-width: 1.5; stroke-linecap: square"/>
    </g>
    <g id="text_15">
     <!-- predicciones -->
     <g transform="translate(813.060187 73.881638) scale(0.1 -0.1)">
      <defs>
       <path id="DejaVuSans-70" d="M 1159 525 
L 1159 -1331 
L 581 -1331 
L 581 3500 
L 1159 3500 
L 1159 2969 
Q 1341 3281 1617 3432 
Q 1894 3584 2278 3584 
Q 2916 3584 3314 3078 
Q 3713 2572 3713 1747 
Q 3713 922 3314 415 
Q 2916 -91 2278 -91 
Q 1894 -91 1617 61 
Q 1341 213 1159 525 
z
M 3116 1747 
Q 3116 2381 2855 2742 
Q 2594 3103 2138 3103 
Q 1681 3103 1420 2742 
Q 1159 2381 1159 1747 
Q 1159 1113 1420 752 
Q 1681 391 2138 391 
Q 2594 391 2855 752 
Q 3116 1113 3116 1747 
z
" transform="scale(0.015625)"/>
       <path id="DejaVuSans-72" d="M 2631 2963 
Q 2534 3019 2420 3045 
Q 2306 3072 2169 3072 
Q 1681 3072 1420 2755 
Q 1159 2438 1159 1844 
L 1159 0 
L 581 0 
L 581 3500 
L 1159 3500 
L 1159 2956 
Q 1341 3275 1631 3429 
Q 1922 3584 2338 3584 
Q 2397 3584 2469 3576 
Q 2541 3569 2628 3553 
L 2631 2963 
z
" transform="scale(0.015625)"/>
       <path id="DejaVuSans-64" d="M 2906 2969 
L 2906 4863 
L 3481 4863 
L 3481 0 
L 2906 0 
L 2906 525 
Q 2725 213 2448 61 
Q 2172 -91 1784 -91 
Q 1150 -91 751 415 
Q 353 922 353 1747 
Q 353 2572 751 3078 
Q 1150 3584 1784 3584 
Q 2172 3584 2448 3432 
Q 2725 3281 2906 2969 
z
M 947 1747 
Q 947 1113 1208 752 
Q 1469 391 1925 391 
Q 2381 391 2643 752 
Q 2906 1113 2906 1747 
Q 2906 2381 2643 2742 
Q 2381 3103 1925 3103 
Q 1469 3103 1208 2742 
Q 947 2381 947 1747 
z
" transform="scale(0.015625)"/>
      </defs>
      <use xlink:href="#DejaVuSans-70"/>
      <use xlink:href="#DejaVuSans-72" x="63.476562"/>
      <use xlink:href="#DejaVuSans-65" x="102.339844"/>
      <use xlink:href="#DejaVuSans-64" x="163.863281"/>
      <use xlink:href="#DejaVuSans-69" x="227.339844"/>
      <use xlink:href="#DejaVuSans-63" x="255.123047"/>
      <use xlink:href="#DejaVuSans-63" x="310.103516"/>
      <use xlink:href="#DejaVuSans-69" x="365.083984"/>
      <use xlink:href="#DejaVuSans-6f" x="392.867188"/>
      <use xlink:href="#DejaVuSans-6e" x="454.048828"/>
      <use xlink:href="#DejaVuSans-65" x="517.427734"/>
      <use xlink:href="#DejaVuSans-73" x="578.951172"/>
     </g>
    </g>
    <g id="line2d_15">
     <path d="M 785.060187 85.059763 
L 795.060187 85.059763 
L 805.060187 85.059763 
" style="fill: none; stroke: #ff7f0e; stroke-width: 1.5; stroke-linecap: square"/>
    </g>
    <g id="text_16">
     <!-- Real -->
     <g transform="translate(813.060187 88.559763) scale(0.1 -0.1)">
      <defs>
       <path id="DejaVuSans-52" d="M 2841 2188 
Q 3044 2119 3236 1894 
Q 3428 1669 3622 1275 
L 4263 0 
L 3584 0 
L 2988 1197 
Q 2756 1666 2539 1819 
Q 2322 1972 1947 1972 
L 1259 1972 
L 1259 0 
L 628 0 
L 628 4666 
L 2053 4666 
Q 2853 4666 3247 4331 
Q 3641 3997 3641 3322 
Q 3641 2881 3436 2590 
Q 3231 2300 2841 2188 
z
M 1259 4147 
L 1259 2491 
L 2053 2491 
Q 2509 2491 2742 2702 
Q 2975 2913 2975 3322 
Q 2975 3731 2742 3939 
Q 2509 4147 2053 4147 
L 1259 4147 
z
" transform="scale(0.015625)"/>
       <path id="DejaVuSans-6c" d="M 603 4863 
L 1178 4863 
L 1178 0 
L 603 0 
L 603 4863 
z
" transform="scale(0.015625)"/>
      </defs>
      <use xlink:href="#DejaVuSans-52"/>
      <use xlink:href="#DejaVuSans-65" x="64.982422"/>
      <use xlink:href="#DejaVuSans-61" x="126.505859"/>
      <use xlink:href="#DejaVuSans-6c" x="187.785156"/>
     </g>
    </g>
   </g>
  </g>
 </g>
 <defs>
  <clipPath id="p47f8afacdf">
   <rect x="122.94" y="57.2832" width="762.228" height="367.5672"/>
  </clipPath>
 </defs>
</svg>
