<?xml version="1.0" encoding="utf-8" standalone="no"?>
<!DOCTYPE svg PUBLIC "-//W3C//DTD SVG 1.1//EN"
  "http://www.w3.org/Graphics/SVG/1.1/DTD/svg11.dtd">
<svg xmlns:xlink="http://www.w3.org/1999/xlink" width="983.52pt" height="477.36pt" viewBox="0 0 983.52 477.36" xmlns="http://www.w3.org/2000/svg" version="1.1">
 <metadata>
  <rdf:RDF xmlns:dc="http://purl.org/dc/elements/1.1/" xmlns:cc="http://creativecommons.org/ns#" xmlns:rdf="http://www.w3.org/1999/02/22-rdf-syntax-ns#">
   <cc:Work>
    <dc:type rdf:resource="http://purl.org/dc/dcmitype/StillImage"/>
    <dc:date>2024-05-03T19:46:59.573004</dc:date>
    <dc:format>image/svg+xml</dc:format>
    <dc:creator>
     <cc:Agent>
      <dc:title>Matplotlib v3.8.0, https://matplotlib.org/</dc:title>
     </cc:Agent>
    </dc:creator>
   </cc:Work>
  </rdf:RDF>
 </metadata>
 <defs>
  <style type="text/css">*{stroke-linejoin: round; stroke-linecap: butt}</style>
 </defs>
 <g id="figure_1">
  <g id="patch_1">
   <path d="M 0 477.36 
L 983.52 477.36 
L 983.52 0 
L 0 0 
z
" style="fill: #ffffff"/>
  </g>
  <g id="axes_1">
   <g id="patch_2">
    <path d="M 122.94 424.8504 
L 885.168 424.8504 
L 885.168 57.2832 
L 122.94 57.2832 
z
" style="fill: #ffffff"/>
   </g>
   <g id="matplotlib.axis_1">
    <g id="xtick_1">
     <g id="line2d_1">
      <defs>
       <path id="m5f0a1a2467" d="M 0 0 
L 0 3.5 
" style="stroke: #000000; stroke-width: 0.8"/>
      </defs>
      <g>
       <use xlink:href="#m5f0a1a2467" x="188.962449" y="424.8504" style="stroke: #000000; stroke-width: 0.8"/>
      </g>
     </g>
     <g id="text_1">
      <!-- 200 -->
      <g transform="translate(179.418699 439.448838) scale(0.1 -0.1)">
       <defs>
        <path id="DejaVuSans-32" d="M 1228 531 
L 3431 531 
L 3431 0 
L 469 0 
L 469 531 
Q 828 903 1448 1529 
Q 2069 2156 2228 2338 
Q 2531 2678 2651 2914 
Q 2772 3150 2772 3378 
Q 2772 3750 2511 3984 
Q 2250 4219 1831 4219 
Q 1534 4219 1204 4116 
Q 875 4013 500 3803 
L 500 4441 
Q 881 4594 1212 4672 
Q 1544 4750 1819 4750 
Q 2544 4750 2975 4387 
Q 3406 4025 3406 3419 
Q 3406 3131 3298 2873 
Q 3191 2616 2906 2266 
Q 2828 2175 2409 1742 
Q 1991 1309 1228 531 
z
" transform="scale(0.015625)"/>
        <path id="DejaVuSans-30" d="M 2034 4250 
Q 1547 4250 1301 3770 
Q 1056 3291 1056 2328 
Q 1056 1369 1301 889 
Q 1547 409 2034 409 
Q 2525 409 2770 889 
Q 3016 1369 3016 2328 
Q 3016 3291 2770 3770 
Q 2525 4250 2034 4250 
z
M 2034 4750 
Q 2819 4750 3233 4129 
Q 3647 3509 3647 2328 
Q 3647 1150 3233 529 
Q 2819 -91 2034 -91 
Q 1250 -91 836 529 
Q 422 1150 422 2328 
Q 422 3509 836 4129 
Q 1250 4750 2034 4750 
z
" transform="scale(0.015625)"/>
       </defs>
       <use xlink:href="#DejaVuSans-32"/>
       <use xlink:href="#DejaVuSans-30" x="63.623047"/>
       <use xlink:href="#DejaVuSans-30" x="127.246094"/>
      </g>
     </g>
    </g>
    <g id="xtick_2">
     <g id="line2d_2">
      <g>
       <use xlink:href="#m5f0a1a2467" x="321.355582" y="424.8504" style="stroke: #000000; stroke-width: 0.8"/>
      </g>
     </g>
     <g id="text_2">
      <!-- 400 -->
      <g transform="translate(311.811832 439.448838) scale(0.1 -0.1)">
       <defs>
        <path id="DejaVuSans-34" d="M 2419 4116 
L 825 1625 
L 2419 1625 
L 2419 4116 
z
M 2253 4666 
L 3047 4666 
L 3047 1625 
L 3713 1625 
L 3713 1100 
L 3047 1100 
L 3047 0 
L 2419 0 
L 2419 1100 
L 313 1100 
L 313 1709 
L 2253 4666 
z
" transform="scale(0.015625)"/>
       </defs>
       <use xlink:href="#DejaVuSans-34"/>
       <use xlink:href="#DejaVuSans-30" x="63.623047"/>
       <use xlink:href="#DejaVuSans-30" x="127.246094"/>
      </g>
     </g>
    </g>
    <g id="xtick_3">
     <g id="line2d_3">
      <g>
       <use xlink:href="#m5f0a1a2467" x="453.748715" y="424.8504" style="stroke: #000000; stroke-width: 0.8"/>
      </g>
     </g>
     <g id="text_3">
      <!-- 600 -->
      <g transform="translate(444.204965 439.448838) scale(0.1 -0.1)">
       <defs>
        <path id="DejaVuSans-36" d="M 2113 2584 
Q 1688 2584 1439 2293 
Q 1191 2003 1191 1497 
Q 1191 994 1439 701 
Q 1688 409 2113 409 
Q 2538 409 2786 701 
Q 3034 994 3034 1497 
Q 3034 2003 2786 2293 
Q 2538 2584 2113 2584 
z
M 3366 4563 
L 3366 3988 
Q 3128 4100 2886 4159 
Q 2644 4219 2406 4219 
Q 1781 4219 1451 3797 
Q 1122 3375 1075 2522 
Q 1259 2794 1537 2939 
Q 1816 3084 2150 3084 
Q 2853 3084 3261 2657 
Q 3669 2231 3669 1497 
Q 3669 778 3244 343 
Q 2819 -91 2113 -91 
Q 1303 -91 875 529 
Q 447 1150 447 2328 
Q 447 3434 972 4092 
Q 1497 4750 2381 4750 
Q 2619 4750 2861 4703 
Q 3103 4656 3366 4563 
z
" transform="scale(0.015625)"/>
       </defs>
       <use xlink:href="#DejaVuSans-36"/>
       <use xlink:href="#DejaVuSans-30" x="63.623047"/>
       <use xlink:href="#DejaVuSans-30" x="127.246094"/>
      </g>
     </g>
    </g>
    <g id="xtick_4">
     <g id="line2d_4">
      <g>
       <use xlink:href="#m5f0a1a2467" x="586.141847" y="424.8504" style="stroke: #000000; stroke-width: 0.8"/>
      </g>
     </g>
     <g id="text_4">
      <!-- 800 -->
      <g transform="translate(576.598097 439.448838) scale(0.1 -0.1)">
       <defs>
        <path id="DejaVuSans-38" d="M 2034 2216 
Q 1584 2216 1326 1975 
Q 1069 1734 1069 1313 
Q 1069 891 1326 650 
Q 1584 409 2034 409 
Q 2484 409 2743 651 
Q 3003 894 3003 1313 
Q 3003 1734 2745 1975 
Q 2488 2216 2034 2216 
z
M 1403 2484 
Q 997 2584 770 2862 
Q 544 3141 544 3541 
Q 544 4100 942 4425 
Q 1341 4750 2034 4750 
Q 2731 4750 3128 4425 
Q 3525 4100 3525 3541 
Q 3525 3141 3298 2862 
Q 3072 2584 2669 2484 
Q 3125 2378 3379 2068 
Q 3634 1759 3634 1313 
Q 3634 634 3220 271 
Q 2806 -91 2034 -91 
Q 1263 -91 848 271 
Q 434 634 434 1313 
Q 434 1759 690 2068 
Q 947 2378 1403 2484 
z
M 1172 3481 
Q 1172 3119 1398 2916 
Q 1625 2713 2034 2713 
Q 2441 2713 2670 2916 
Q 2900 3119 2900 3481 
Q 2900 3844 2670 4047 
Q 2441 4250 2034 4250 
Q 1625 4250 1398 4047 
Q 1172 3844 1172 3481 
z
" transform="scale(0.015625)"/>
       </defs>
       <use xlink:href="#DejaVuSans-38"/>
       <use xlink:href="#DejaVuSans-30" x="63.623047"/>
       <use xlink:href="#DejaVuSans-30" x="127.246094"/>
      </g>
     </g>
    </g>
    <g id="xtick_5">
     <g id="line2d_5">
      <g>
       <use xlink:href="#m5f0a1a2467" x="718.53498" y="424.8504" style="stroke: #000000; stroke-width: 0.8"/>
      </g>
     </g>
     <g id="text_5">
      <!-- 1000 -->
      <g transform="translate(705.80998 439.448838) scale(0.1 -0.1)">
       <defs>
        <path id="DejaVuSans-31" d="M 794 531 
L 1825 531 
L 1825 4091 
L 703 3866 
L 703 4441 
L 1819 4666 
L 2450 4666 
L 2450 531 
L 3481 531 
L 3481 0 
L 794 0 
L 794 531 
z
" transform="scale(0.015625)"/>
       </defs>
       <use xlink:href="#DejaVuSans-31"/>
       <use xlink:href="#DejaVuSans-30" x="63.623047"/>
       <use xlink:href="#DejaVuSans-30" x="127.246094"/>
       <use xlink:href="#DejaVuSans-30" x="190.869141"/>
      </g>
     </g>
    </g>
    <g id="xtick_6">
     <g id="line2d_6">
      <g>
       <use xlink:href="#m5f0a1a2467" x="850.928113" y="424.8504" style="stroke: #000000; stroke-width: 0.8"/>
      </g>
     </g>
     <g id="text_6">
      <!-- 1200 -->
      <g transform="translate(838.203113 439.448838) scale(0.1 -0.1)">
       <use xlink:href="#DejaVuSans-31"/>
       <use xlink:href="#DejaVuSans-32" x="63.623047"/>
       <use xlink:href="#DejaVuSans-30" x="127.246094"/>
       <use xlink:href="#DejaVuSans-30" x="190.869141"/>
      </g>
     </g>
    </g>
    <g id="text_7">
     <!-- Instante -->
     <g transform="translate(483.575875 453.126963) scale(0.1 -0.1)">
      <defs>
       <path id="DejaVuSans-49" d="M 628 4666 
L 1259 4666 
L 1259 0 
L 628 0 
L 628 4666 
z
" transform="scale(0.015625)"/>
       <path id="DejaVuSans-6e" d="M 3513 2113 
L 3513 0 
L 2938 0 
L 2938 2094 
Q 2938 2591 2744 2837 
Q 2550 3084 2163 3084 
Q 1697 3084 1428 2787 
Q 1159 2491 1159 1978 
L 1159 0 
L 581 0 
L 581 3500 
L 1159 3500 
L 1159 2956 
Q 1366 3272 1645 3428 
Q 1925 3584 2291 3584 
Q 2894 3584 3203 3211 
Q 3513 2838 3513 2113 
z
" transform="scale(0.015625)"/>
       <path id="DejaVuSans-73" d="M 2834 3397 
L 2834 2853 
Q 2591 2978 2328 3040 
Q 2066 3103 1784 3103 
Q 1356 3103 1142 2972 
Q 928 2841 928 2578 
Q 928 2378 1081 2264 
Q 1234 2150 1697 2047 
L 1894 2003 
Q 2506 1872 2764 1633 
Q 3022 1394 3022 966 
Q 3022 478 2636 193 
Q 2250 -91 1575 -91 
Q 1294 -91 989 -36 
Q 684 19 347 128 
L 347 722 
Q 666 556 975 473 
Q 1284 391 1588 391 
Q 1994 391 2212 530 
Q 2431 669 2431 922 
Q 2431 1156 2273 1281 
Q 2116 1406 1581 1522 
L 1381 1569 
Q 847 1681 609 1914 
Q 372 2147 372 2553 
Q 372 3047 722 3315 
Q 1072 3584 1716 3584 
Q 2034 3584 2315 3537 
Q 2597 3491 2834 3397 
z
" transform="scale(0.015625)"/>
       <path id="DejaVuSans-74" d="M 1172 4494 
L 1172 3500 
L 2356 3500 
L 2356 3053 
L 1172 3053 
L 1172 1153 
Q 1172 725 1289 603 
Q 1406 481 1766 481 
L 2356 481 
L 2356 0 
L 1766 0 
Q 1100 0 847 248 
Q 594 497 594 1153 
L 594 3053 
L 172 3053 
L 172 3500 
L 594 3500 
L 594 4494 
L 1172 4494 
z
" transform="scale(0.015625)"/>
       <path id="DejaVuSans-61" d="M 2194 1759 
Q 1497 1759 1228 1600 
Q 959 1441 959 1056 
Q 959 750 1161 570 
Q 1363 391 1709 391 
Q 2188 391 2477 730 
Q 2766 1069 2766 1631 
L 2766 1759 
L 2194 1759 
z
M 3341 1997 
L 3341 0 
L 2766 0 
L 2766 531 
Q 2569 213 2275 61 
Q 1981 -91 1556 -91 
Q 1019 -91 701 211 
Q 384 513 384 1019 
Q 384 1609 779 1909 
Q 1175 2209 1959 2209 
L 2766 2209 
L 2766 2266 
Q 2766 2663 2505 2880 
Q 2244 3097 1772 3097 
Q 1472 3097 1187 3025 
Q 903 2953 641 2809 
L 641 3341 
Q 956 3463 1253 3523 
Q 1550 3584 1831 3584 
Q 2591 3584 2966 3190 
Q 3341 2797 3341 1997 
z
" transform="scale(0.015625)"/>
       <path id="DejaVuSans-65" d="M 3597 1894 
L 3597 1613 
L 953 1613 
Q 991 1019 1311 708 
Q 1631 397 2203 397 
Q 2534 397 2845 478 
Q 3156 559 3463 722 
L 3463 178 
Q 3153 47 2828 -22 
Q 2503 -91 2169 -91 
Q 1331 -91 842 396 
Q 353 884 353 1716 
Q 353 2575 817 3079 
Q 1281 3584 2069 3584 
Q 2775 3584 3186 3129 
Q 3597 2675 3597 1894 
z
M 3022 2063 
Q 3016 2534 2758 2815 
Q 2500 3097 2075 3097 
Q 1594 3097 1305 2825 
Q 1016 2553 972 2059 
L 3022 2063 
z
" transform="scale(0.015625)"/>
      </defs>
      <use xlink:href="#DejaVuSans-49"/>
      <use xlink:href="#DejaVuSans-6e" x="29.492188"/>
      <use xlink:href="#DejaVuSans-73" x="92.871094"/>
      <use xlink:href="#DejaVuSans-74" x="144.970703"/>
      <use xlink:href="#DejaVuSans-61" x="184.179688"/>
      <use xlink:href="#DejaVuSans-6e" x="245.458984"/>
      <use xlink:href="#DejaVuSans-74" x="308.837891"/>
      <use xlink:href="#DejaVuSans-65" x="348.046875"/>
     </g>
    </g>
   </g>
   <g id="matplotlib.axis_2">
    <g id="ytick_1">
     <g id="line2d_7">
      <defs>
       <path id="m46946b5705" d="M 0 0 
L -3.5 0 
" style="stroke: #000000; stroke-width: 0.8"/>
      </defs>
      <g>
       <use xlink:href="#m46946b5705" x="122.94" y="381.312184" style="stroke: #000000; stroke-width: 0.8"/>
      </g>
     </g>
     <g id="text_8">
      <!-- 2.5 -->
      <g transform="translate(100.036875 385.111403) scale(0.1 -0.1)">
       <defs>
        <path id="DejaVuSans-2e" d="M 684 794 
L 1344 794 
L 1344 0 
L 684 0 
L 684 794 
z
" transform="scale(0.015625)"/>
        <path id="DejaVuSans-35" d="M 691 4666 
L 3169 4666 
L 3169 4134 
L 1269 4134 
L 1269 2991 
Q 1406 3038 1543 3061 
Q 1681 3084 1819 3084 
Q 2600 3084 3056 2656 
Q 3513 2228 3513 1497 
Q 3513 744 3044 326 
Q 2575 -91 1722 -91 
Q 1428 -91 1123 -41 
Q 819 9 494 109 
L 494 744 
Q 775 591 1075 516 
Q 1375 441 1709 441 
Q 2250 441 2565 725 
Q 2881 1009 2881 1497 
Q 2881 1984 2565 2268 
Q 2250 2553 1709 2553 
Q 1456 2553 1204 2497 
Q 953 2441 691 2322 
L 691 4666 
z
" transform="scale(0.015625)"/>
       </defs>
       <use xlink:href="#DejaVuSans-32"/>
       <use xlink:href="#DejaVuSans-2e" x="63.623047"/>
       <use xlink:href="#DejaVuSans-35" x="95.410156"/>
      </g>
     </g>
    </g>
    <g id="ytick_2">
     <g id="line2d_8">
      <g>
       <use xlink:href="#m46946b5705" x="122.94" y="336.293802" style="stroke: #000000; stroke-width: 0.8"/>
      </g>
     </g>
     <g id="text_9">
      <!-- 5.0 -->
      <g transform="translate(100.036875 340.093021) scale(0.1 -0.1)">
       <use xlink:href="#DejaVuSans-35"/>
       <use xlink:href="#DejaVuSans-2e" x="63.623047"/>
       <use xlink:href="#DejaVuSans-30" x="95.410156"/>
      </g>
     </g>
    </g>
    <g id="ytick_3">
     <g id="line2d_9">
      <g>
       <use xlink:href="#m46946b5705" x="122.94" y="291.27542" style="stroke: #000000; stroke-width: 0.8"/>
      </g>
     </g>
     <g id="text_10">
      <!-- 7.5 -->
      <g transform="translate(100.036875 295.074639) scale(0.1 -0.1)">
       <defs>
        <path id="DejaVuSans-37" d="M 525 4666 
L 3525 4666 
L 3525 4397 
L 1831 0 
L 1172 0 
L 2766 4134 
L 525 4134 
L 525 4666 
z
" transform="scale(0.015625)"/>
       </defs>
       <use xlink:href="#DejaVuSans-37"/>
       <use xlink:href="#DejaVuSans-2e" x="63.623047"/>
       <use xlink:href="#DejaVuSans-35" x="95.410156"/>
      </g>
     </g>
    </g>
    <g id="ytick_4">
     <g id="line2d_10">
      <g>
       <use xlink:href="#m46946b5705" x="122.94" y="246.257038" style="stroke: #000000; stroke-width: 0.8"/>
      </g>
     </g>
     <g id="text_11">
      <!-- 10.0 -->
      <g transform="translate(93.674375 250.056257) scale(0.1 -0.1)">
       <use xlink:href="#DejaVuSans-31"/>
       <use xlink:href="#DejaVuSans-30" x="63.623047"/>
       <use xlink:href="#DejaVuSans-2e" x="127.246094"/>
       <use xlink:href="#DejaVuSans-30" x="159.033203"/>
      </g>
     </g>
    </g>
    <g id="ytick_5">
     <g id="line2d_11">
      <g>
       <use xlink:href="#m46946b5705" x="122.94" y="201.238656" style="stroke: #000000; stroke-width: 0.8"/>
      </g>
     </g>
     <g id="text_12">
      <!-- 12.5 -->
      <g transform="translate(93.674375 205.037875) scale(0.1 -0.1)">
       <use xlink:href="#DejaVuSans-31"/>
       <use xlink:href="#DejaVuSans-32" x="63.623047"/>
       <use xlink:href="#DejaVuSans-2e" x="127.246094"/>
       <use xlink:href="#DejaVuSans-35" x="159.033203"/>
      </g>
     </g>
    </g>
    <g id="ytick_6">
     <g id="line2d_12">
      <g>
       <use xlink:href="#m46946b5705" x="122.94" y="156.220274" style="stroke: #000000; stroke-width: 0.8"/>
      </g>
     </g>
     <g id="text_13">
      <!-- 15.0 -->
      <g transform="translate(93.674375 160.019493) scale(0.1 -0.1)">
       <use xlink:href="#DejaVuSans-31"/>
       <use xlink:href="#DejaVuSans-35" x="63.623047"/>
       <use xlink:href="#DejaVuSans-2e" x="127.246094"/>
       <use xlink:href="#DejaVuSans-30" x="159.033203"/>
      </g>
     </g>
    </g>
    <g id="ytick_7">
     <g id="line2d_13">
      <g>
       <use xlink:href="#m46946b5705" x="122.94" y="111.201892" style="stroke: #000000; stroke-width: 0.8"/>
      </g>
     </g>
     <g id="text_14">
      <!-- 17.5 -->
      <g transform="translate(93.674375 115.001111) scale(0.1 -0.1)">
       <use xlink:href="#DejaVuSans-31"/>
       <use xlink:href="#DejaVuSans-37" x="63.623047"/>
       <use xlink:href="#DejaVuSans-2e" x="127.246094"/>
       <use xlink:href="#DejaVuSans-35" x="159.033203"/>
      </g>
     </g>
    </g>
    <g id="ytick_8">
     <g id="line2d_14">
      <g>
       <use xlink:href="#m46946b5705" x="122.94" y="66.18351" style="stroke: #000000; stroke-width: 0.8"/>
      </g>
     </g>
     <g id="text_15">
      <!-- 20.0 -->
      <g transform="translate(93.674375 69.982729) scale(0.1 -0.1)">
       <use xlink:href="#DejaVuSans-32"/>
       <use xlink:href="#DejaVuSans-30" x="63.623047"/>
       <use xlink:href="#DejaVuSans-2e" x="127.246094"/>
       <use xlink:href="#DejaVuSans-30" x="159.033203"/>
      </g>
     </g>
    </g>
    <g id="text_16">
     <!-- Tension[V]  -->
     <g transform="translate(87.594687 268.648831) rotate(-90) scale(0.1 -0.1)">
      <defs>
       <path id="DejaVuSans-54" d="M -19 4666 
L 3928 4666 
L 3928 4134 
L 2272 4134 
L 2272 0 
L 1638 0 
L 1638 4134 
L -19 4134 
L -19 4666 
z
" transform="scale(0.015625)"/>
       <path id="DejaVuSans-69" d="M 603 3500 
L 1178 3500 
L 1178 0 
L 603 0 
L 603 3500 
z
M 603 4863 
L 1178 4863 
L 1178 4134 
L 603 4134 
L 603 4863 
z
" transform="scale(0.015625)"/>
       <path id="DejaVuSans-6f" d="M 1959 3097 
Q 1497 3097 1228 2736 
Q 959 2375 959 1747 
Q 959 1119 1226 758 
Q 1494 397 1959 397 
Q 2419 397 2687 759 
Q 2956 1122 2956 1747 
Q 2956 2369 2687 2733 
Q 2419 3097 1959 3097 
z
M 1959 3584 
Q 2709 3584 3137 3096 
Q 3566 2609 3566 1747 
Q 3566 888 3137 398 
Q 2709 -91 1959 -91 
Q 1206 -91 779 398 
Q 353 888 353 1747 
Q 353 2609 779 3096 
Q 1206 3584 1959 3584 
z
" transform="scale(0.015625)"/>
       <path id="DejaVuSans-5b" d="M 550 4863 
L 1875 4863 
L 1875 4416 
L 1125 4416 
L 1125 -397 
L 1875 -397 
L 1875 -844 
L 550 -844 
L 550 4863 
z
" transform="scale(0.015625)"/>
       <path id="DejaVuSans-56" d="M 1831 0 
L 50 4666 
L 709 4666 
L 2188 738 
L 3669 4666 
L 4325 4666 
L 2547 0 
L 1831 0 
z
" transform="scale(0.015625)"/>
       <path id="DejaVuSans-5d" d="M 1947 4863 
L 1947 -844 
L 622 -844 
L 622 -397 
L 1369 -397 
L 1369 4416 
L 622 4416 
L 622 4863 
L 1947 4863 
z
" transform="scale(0.015625)"/>
       <path id="DejaVuSans-20" transform="scale(0.015625)"/>
      </defs>
      <use xlink:href="#DejaVuSans-54"/>
      <use xlink:href="#DejaVuSans-65" x="44.083984"/>
      <use xlink:href="#DejaVuSans-6e" x="105.607422"/>
      <use xlink:href="#DejaVuSans-73" x="168.986328"/>
      <use xlink:href="#DejaVuSans-69" x="221.085938"/>
      <use xlink:href="#DejaVuSans-6f" x="248.869141"/>
      <use xlink:href="#DejaVuSans-6e" x="310.050781"/>
      <use xlink:href="#DejaVuSans-5b" x="373.429688"/>
      <use xlink:href="#DejaVuSans-56" x="412.443359"/>
      <use xlink:href="#DejaVuSans-5d" x="480.851562"/>
      <use xlink:href="#DejaVuSans-20" x="519.865234"/>
     </g>
    </g>
   </g>
   <g id="line2d_15">
    <path d="M 122.765883 335.741445 
L 123.427848 331.715209 
L 124.089814 337.626679 
L 124.75178 331.492885 
L 125.413745 315.978378 
L 126.075711 325.331176 
L 126.737677 315.983315 
L 127.399642 317.517599 
L 128.061608 285.985128 
L 128.723574 326.793762 
L 129.385539 338.119703 
L 130.047505 311.684653 
L 130.709471 332.088939 
L 131.371436 340.123149 
L 132.033402 337.985143 
L 132.695368 339.066682 
L 133.357333 309.028645 
L 134.019299 312.238083 
L 134.681265 219.825088 
L 136.005196 186.520477 
L 136.667162 181.028126 
L 137.329127 270.117104 
L 137.991093 292.916031 
L 139.315024 328.160882 
L 139.97699 245.169875 
L 140.638956 240.55356 
L 141.300921 249.419474 
L 141.962887 187.310236 
L 142.624853 198.497272 
L 143.286818 292.001664 
L 143.948784 238.835936 
L 144.61075 279.067749 
L 145.272715 178.095295 
L 145.934681 176.581138 
L 146.596647 263.094693 
L 147.258612 176.878886 
L 147.920578 202.092436 
L 148.582544 257.763804 
L 149.244509 257.42065 
L 149.906475 175.51733 
L 150.568441 333.199785 
L 151.230406 200.814514 
L 151.892372 281.448532 
L 152.554338 177.38862 
L 153.216303 231.805833 
L 153.878269 314.142337 
L 154.540235 279.590706 
L 155.2022 275.690306 
L 155.864166 332.599248 
L 156.526132 214.554373 
L 157.188097 316.410738 
L 157.850063 305.879046 
L 158.512029 300.825933 
L 159.173994 329.848659 
L 159.83596 330.843276 
L 160.497926 317.2057 
L 161.159891 316.565906 
L 161.821857 272.46797 
L 162.483823 323.710546 
L 163.145788 322.781882 
L 163.807754 213.90382 
L 164.46972 340.008853 
L 165.131685 338.174632 
L 165.793651 305.448438 
L 166.455616 339.645761 
L 167.117582 336.467337 
L 167.779548 337.513139 
L 168.441513 335.234666 
L 169.103479 305.417295 
L 169.765445 303.724589 
L 170.42741 288.446238 
L 171.089376 304.908334 
L 171.751342 324.503937 
L 172.413307 339.520706 
L 173.075273 338.680115 
L 173.737239 308.601437 
L 174.399204 300.440756 
L 175.06117 279.610507 
L 175.723136 285.870833 
L 176.385101 280.133395 
L 177.047067 279.991373 
L 177.709033 240.728623 
L 178.370998 234.581151 
L 179.032964 250.929371 
L 179.69493 246.803625 
L 180.356895 264.280809 
L 181.018861 278.507561 
L 181.680827 271.008218 
L 182.342792 276.747966 
L 183.004758 279.610593 
L 183.666724 293.263522 
L 184.328689 283.995542 
L 184.990655 288.65229 
L 185.652621 287.330387 
L 186.314586 291.851202 
L 186.976552 288.155153 
L 187.638518 280.017184 
L 188.300483 262.590799 
L 188.962449 261.742634 
L 189.624415 253.374038 
L 190.28638 295.591127 
L 190.948346 303.661108 
L 191.610312 294.624442 
L 192.272277 275.62443 
L 192.934243 276.294835 
L 193.596209 250.40353 
L 194.258174 279.981052 
L 194.92014 295.537994 
L 195.582106 251.215442 
L 196.244071 285.829299 
L 196.906037 247.179099 
L 197.568003 280.217354 
L 198.229968 295.694535 
L 198.891934 291.690847 
L 199.5539 289.313431 
L 200.215865 279.598125 
L 200.877831 286.222195 
L 201.539797 294.856761 
L 202.863728 285.92941 
L 203.525694 292.474939 
L 204.187659 290.512426 
L 204.849625 286.350307 
L 205.511591 289.580937 
L 206.173556 317.59985 
L 206.835522 313.820709 
L 207.497488 287.207436 
L 208.159453 284.34851 
L 208.821419 290.179679 
L 209.483385 284.415468 
L 210.14535 296.947068 
L 210.807316 296.397192 
L 211.469282 284.640479 
L 212.131247 279.38717 
L 212.793213 287.809518 
L 214.117144 324.473188 
L 214.77911 305.40651 
L 215.441076 306.613387 
L 216.103041 294.290218 
L 216.765007 275.367107 
L 217.426973 305.328286 
L 218.088938 285.903968 
L 218.750904 292.633138 
L 219.41287 280.219295 
L 220.074835 305.022656 
L 220.736801 300.66399 
L 221.398767 326.039114 
L 222.060732 293.030336 
L 222.722698 285.555216 
L 223.384664 318.682136 
L 224.046629 288.303478 
L 224.708595 309.729953 
L 225.370561 305.511807 
L 226.032526 319.984625 
L 226.694492 285.831746 
L 227.356458 275.268499 
L 228.018423 304.783502 
L 228.680389 280.086426 
L 229.342355 250.622419 
L 230.00432 290.245538 
L 230.666286 309.132826 
L 231.328252 291.195454 
L 231.990217 294.158011 
L 232.652183 333.999126 
L 233.976114 279.955807 
L 234.63808 254.418956 
L 235.300046 289.892604 
L 235.962011 292.594516 
L 236.623977 328.325572 
L 237.285943 276.211511 
L 237.947908 301.968634 
L 238.609874 338.273755 
L 239.27184 305.495381 
L 239.933805 281.040412 
L 240.595771 304.57168 
L 241.257737 334.380696 
L 241.919702 331.439314 
L 242.581668 305.412606 
L 243.243634 293.272744 
L 243.905599 248.647129 
L 244.567565 262.462687 
L 245.891496 322.481687 
L 246.553462 305.532861 
L 247.215428 268.534581 
L 247.877393 219.765016 
L 248.539359 279.994996 
L 249.201324 299.315958 
L 249.86329 324.155494 
L 251.187221 283.947732 
L 251.849187 283.03072 
L 252.511153 251.141219 
L 253.173118 243.82611 
L 253.835084 213.751151 
L 254.49705 211.889615 
L 255.159015 223.796035 
L 255.820981 241.946852 
L 256.482947 268.744917 
L 257.144912 238.408462 
L 257.806878 213.391991 
L 258.468844 206.36625 
L 259.130809 206.486015 
L 259.792775 212.533093 
L 260.454741 217.325055 
L 261.116706 213.746136 
L 261.778672 206.388472 
L 262.440638 205.141529 
L 263.102603 204.599751 
L 263.764569 214.952618 
L 264.426535 244.297616 
L 265.0885 237.85425 
L 265.750466 250.669679 
L 266.412432 221.516849 
L 267.074397 246.90663 
L 267.736363 248.428789 
L 268.398329 237.729436 
L 269.060294 213.751116 
L 269.72226 212.611712 
L 270.384226 220.922761 
L 271.046191 237.864382 
L 271.708157 244.3841 
L 272.370123 263.747771 
L 273.032088 277.060105 
L 273.694054 214.192947 
L 274.35602 227.205111 
L 275.017985 215.927641 
L 275.679951 217.837742 
L 276.341917 222.069618 
L 277.003882 279.715349 
L 277.665848 239.221439 
L 278.327814 229.178684 
L 278.989779 206.476707 
L 279.651745 206.43453 
L 280.313711 223.331948 
L 280.975676 259.039598 
L 281.637642 282.948169 
L 282.299608 236.670471 
L 282.961573 205.825055 
L 283.623539 205.37924 
L 284.285505 214.950352 
L 285.609436 292.560084 
L 286.271402 238.529292 
L 286.933367 208.190794 
L 287.595333 202.142582 
L 288.257299 179.181703 
L 288.919264 180.303075 
L 289.58123 159.50433 
L 290.243196 183.179475 
L 290.905161 197.774179 
L 291.567127 205.124768 
L 292.229093 166.192173 
L 292.891058 167.734562 
L 293.553024 177.178214 
L 294.21499 169.059951 
L 294.876955 179.152096 
L 295.538921 165.880617 
L 296.200887 179.389292 
L 296.862852 183.502948 
L 297.524818 179.306174 
L 298.186784 183.97363 
L 298.848749 180.46962 
L 299.510715 159.578209 
L 300.172681 134.509531 
L 300.834646 135.583059 
L 301.496612 159.485508 
L 302.158578 159.435362 
L 302.820543 166.787772 
L 303.482509 135.199136 
L 304.144475 133.814706 
L 304.80644 135.143015 
L 305.468406 126.662879 
L 306.130372 132.803757 
L 306.792337 122.743657 
L 307.454303 121.678029 
L 308.116269 129.949854 
L 308.778234 134.684114 
L 309.4402 137.103639 
L 310.102166 163.829662 
L 310.764131 181.679022 
L 311.426097 181.609471 
L 312.088063 181.743937 
L 312.750028 181.65237 
L 313.411994 170.438646 
L 314.07396 164.802934 
L 314.735925 183.081966 
L 315.397891 183.114869 
L 316.059857 167.995491 
L 316.721822 159.051405 
L 317.383788 158.292867 
L 318.707719 180.541164 
L 319.369685 180.27158 
L 320.031651 179.368409 
L 320.693616 199.518903 
L 321.355582 203.010513 
L 322.017548 205.453874 
L 322.679513 186.211223 
L 323.341479 181.642134 
L 324.003445 166.601031 
L 324.66541 179.896346 
L 325.327376 180.384167 
L 325.989342 200.914942 
L 326.651307 205.808603 
L 327.313273 205.890072 
L 327.975239 201.432781 
L 328.637204 205.639757 
L 329.29917 202.221029 
L 329.961135 206.476673 
L 330.623101 199.122168 
L 331.285067 206.242053 
L 331.947032 201.618938 
L 332.608998 190.274596 
L 333.270964 205.704843 
L 333.932929 205.288909 
L 334.594895 212.780936 
L 335.256861 205.46727 
L 335.918826 208.535699 
L 336.580792 205.588718 
L 337.242758 214.244776 
L 337.904723 206.080694 
L 338.566689 207.725058 
L 339.228655 217.625001 
L 339.89062 212.383 
L 340.552586 203.330174 
L 341.214552 206.2504 
L 341.876517 205.583085 
L 342.538483 205.759041 
L 343.200449 216.260663 
L 343.862414 242.121229 
L 344.52438 205.794384 
L 345.186346 204.928788 
L 345.848311 200.926173 
L 346.510277 205.54132 
L 347.172243 180.686826 
L 347.834208 181.136969 
L 349.15814 183.104291 
L 349.820105 183.168484 
L 350.482071 167.674662 
L 351.144037 133.485084 
L 351.806002 122.498459 
L 352.467968 122.593014 
L 353.129934 112.866108 
L 353.791899 111.628679 
L 356.439762 111.639223 
L 357.101728 111.772212 
L 358.425659 111.732851 
L 359.087625 111.770735 
L 359.74959 112.708733 
L 360.411556 112.388144 
L 361.073522 112.363175 
L 361.735487 111.873809 
L 362.397453 112.908937 
L 363.059419 112.752078 
L 364.38335 112.774472 
L 365.045316 111.761428 
L 365.707281 112.090431 
L 367.031213 112.082978 
L 367.693178 112.918795 
L 368.355144 111.765309 
L 370.341041 111.732405 
L 372.988904 111.710526 
L 374.312835 111.751021 
L 374.974801 112.01085 
L 375.636766 112.121445 
L 376.298732 112.894649 
L 376.960698 115.445618 
L 377.622663 122.653567 
L 378.284629 122.480496 
L 378.946595 122.491933 
L 379.60856 126.652815 
L 380.270526 112.816168 
L 380.932492 111.726429 
L 382.256423 111.729726 
L 385.566251 111.739789 
L 386.228217 112.725013 
L 386.890183 112.887024 
L 387.552148 111.705683 
L 388.214114 111.67642 
L 388.87608 120.102255 
L 389.538045 112.809471 
L 390.200011 112.927038 
L 390.861977 125.751122 
L 391.523942 111.783753 
L 392.185908 111.681401 
L 392.847874 111.787496 
L 393.509839 122.253879 
L 394.171805 123.380575 
L 394.833771 123.374667 
L 395.495736 126.828634 
L 396.157702 112.718144 
L 396.819668 112.722265 
L 397.481633 112.922779 
L 398.143599 112.192886 
L 398.805565 111.718941 
L 399.46753 112.488642 
L 400.129496 112.88438 
L 400.791462 112.90801 
L 402.115393 112.005767 
L 402.777359 113.420697 
L 403.439324 112.906945 
L 404.10129 115.194615 
L 404.763256 113.445083 
L 405.425221 124.501672 
L 406.087187 121.690118 
L 406.749153 113.925519 
L 407.411118 112.923638 
L 408.073084 112.738511 
L 408.73505 113.818393 
L 409.397015 114.674818 
L 410.058981 119.168379 
L 410.720947 113.42657 
L 411.382912 113.350837 
L 412.044878 112.905159 
L 412.706843 112.906052 
L 413.368809 112.76853 
L 414.030775 113.901545 
L 414.69274 112.07604 
L 415.354706 115.313591 
L 416.016672 113.366087 
L 416.678637 112.90066 
L 417.340603 111.780249 
L 418.002569 113.641407 
L 418.664534 113.37457 
L 419.988466 113.428082 
L 420.650431 112.745312 
L 421.312397 112.907598 
L 421.974363 113.43708 
L 422.636328 111.780284 
L 423.298294 112.911891 
L 423.96026 112.912406 
L 424.622225 115.207048 
L 425.284191 112.439527 
L 425.946157 112.038121 
L 426.608122 113.841783 
L 427.932054 111.733401 
L 428.594019 113.521401 
L 429.255985 120.175653 
L 429.917951 112.762382 
L 430.579916 112.903064 
L 431.241882 126.751389 
L 431.903848 112.901381 
L 432.565813 113.388171 
L 433.227779 112.913505 
L 433.889745 114.028146 
L 434.55171 112.896401 
L 435.213676 114.34657 
L 435.875642 112.031046 
L 437.199573 121.796077 
L 437.861539 121.812735 
L 438.523504 121.509663 
L 439.18547 121.787696 
L 439.847436 122.426778 
L 440.509401 121.567227 
L 441.171367 121.352048 
L 441.833333 121.296853 
L 442.495298 121.610469 
L 443.157264 121.193952 
L 443.81923 123.444081 
L 444.481195 116.314098 
L 445.143161 111.778566 
L 445.805127 112.242241 
L 446.467092 111.785023 
L 447.129058 112.52838 
L 447.791024 112.718968 
L 448.452989 112.752353 
L 449.114955 116.82232 
L 449.776921 112.742495 
L 450.438886 112.890116 
L 451.100852 112.917627 
L 451.762818 113.924145 
L 452.424783 113.895088 
L 453.086749 126.321167 
L 453.748715 121.768703 
L 454.41068 113.464661 
L 455.072646 120.452003 
L 455.734612 117.807235 
L 456.396577 112.902618 
L 457.058543 127.01194 
L 457.720509 121.75967 
L 458.382474 113.635705 
L 459.04444 117.876237 
L 459.706406 126.701965 
L 461.030337 117.875138 
L 461.692303 122.362585 
L 462.354268 112.727074 
L 463.016234 113.997749 
L 463.6782 113.444602 
L 464.340165 113.304023 
L 465.002131 113.879152 
L 465.664097 113.396586 
L 466.326062 112.730646 
L 466.988028 112.912509 
L 467.649994 112.924634 
L 468.311959 112.721407 
L 468.973925 112.890219 
L 469.635891 112.898084 
L 470.297856 113.173816 
L 470.959822 112.552904 
L 471.621788 112.104753 
L 472.283753 112.906945 
L 472.945719 112.920443 
L 473.607685 115.042083 
L 474.931616 112.004565 
L 476.255547 121.322235 
L 476.917513 112.910277 
L 477.579479 115.0822 
L 478.241444 112.029054 
L 478.90341 113.391503 
L 479.565376 126.734044 
L 480.227341 123.47118 
L 480.889307 127.019393 
L 481.551273 117.58158 
L 482.213238 124.542647 
L 482.875204 122.462395 
L 483.53717 113.471152 
L 484.199135 126.660269 
L 484.861101 126.65467 
L 485.523067 122.354307 
L 486.185032 122.030181 
L 486.846998 122.327071 
L 487.508964 126.657967 
L 488.170929 122.665176 
L 488.832895 115.710119 
L 489.494861 122.54359 
L 490.156826 115.861551 
L 490.818792 126.606654 
L 491.480758 113.987686 
L 492.142723 122.415272 
L 492.804689 122.701411 
L 493.466654 123.122428 
L 494.790586 122.904707 
L 495.452551 122.435983 
L 496.114517 123.037799 
L 496.776483 123.101992 
L 497.438448 126.718279 
L 498.76238 118.021865 
L 499.424345 122.466929 
L 500.086311 121.567021 
L 500.748277 123.366287 
L 501.410242 126.848074 
L 502.072208 122.48812 
L 503.396139 122.57141 
L 504.058105 122.083418 
L 504.720071 122.365504 
L 505.382036 122.452022 
L 506.044002 126.685444 
L 506.705968 122.697152 
L 507.367933 122.405174 
L 508.029899 122.55695 
L 508.691865 123.376213 
L 509.35383 122.389993 
L 510.015796 123.881584 
L 510.677762 122.656864 
L 511.339727 122.187419 
L 512.001693 122.058757 
L 512.663659 122.176531 
L 513.325624 122.675205 
L 513.98759 122.349842 
L 514.649556 122.357604 
L 515.311521 122.028086 
L 515.973487 122.606959 
L 517.297418 122.403697 
L 517.959384 127.025301 
L 518.62135 122.030902 
L 519.283315 122.534969 
L 519.945281 122.275929 
L 520.607247 123.393248 
L 521.269212 125.12729 
L 521.931178 123.015817 
L 522.593144 124.70617 
L 523.255109 123.477637 
L 523.917075 125.690054 
L 524.579041 126.679262 
L 525.241006 117.107979 
L 525.902972 123.503637 
L 526.564938 126.972717 
L 527.888869 115.125888 
L 528.550835 115.446957 
L 529.2128 124.208011 
L 529.874766 122.024789 
L 530.536732 123.552134 
L 531.198697 126.648934 
L 531.860663 112.516222 
L 532.522629 112.863806 
L 533.184594 115.314861 
L 533.84656 113.386351 
L 534.508526 113.960037 
L 535.170491 121.459895 
L 535.832457 113.420697 
L 536.494423 113.418293 
L 537.156388 121.537518 
L 537.818354 112.888536 
L 538.48032 125.141544 
L 539.804251 126.724668 
L 540.466217 112.920066 
L 541.128182 126.585119 
L 541.790148 123.957421 
L 542.452114 112.925561 
L 543.114079 113.431139 
L 543.776045 112.907426 
L 544.438011 113.92023 
L 545.099976 112.720994 
L 545.761942 115.054448 
L 546.423908 112.911376 
L 547.085873 112.732191 
L 547.747839 112.912578 
L 548.409805 112.717594 
L 549.07177 112.882834 
L 551.057667 112.909556 
L 551.719633 115.204266 
L 552.381599 113.903641 
L 553.043564 121.989515 
L 553.70553 112.905984 
L 554.367496 112.740606 
L 555.029461 113.859609 
L 555.691427 115.313213 
L 556.353393 112.482425 
L 557.015358 112.726112 
L 557.677324 112.71416 
L 558.33929 111.79495 
L 559.001255 112.624378 
L 560.325187 112.563517 
L 560.987152 111.772384 
L 561.649118 123.449233 
L 562.311084 113.376081 
L 562.973049 112.907907 
L 563.635015 112.910243 
L 564.296981 112.735523 
L 564.958946 112.024074 
L 565.620912 120.194165 
L 566.282878 122.94393 
L 566.944843 112.767328 
L 567.606809 113.841302 
L 568.268775 125.858798 
L 568.93074 113.388068 
L 569.592706 112.745415 
L 570.254672 113.422209 
L 570.916637 112.911239 
L 571.578603 123.422134 
L 572.240569 112.89173 
L 572.902534 113.417812 
L 573.5645 121.779144 
L 574.226465 113.377215 
L 574.888431 114.669941 
L 575.550397 122.505706 
L 576.212362 121.475282 
L 576.874328 113.680355 
L 577.536294 120.970254 
L 578.198259 120.962904 
L 578.860225 123.351106 
L 579.522191 120.93292 
L 580.184156 112.8862 
L 580.846122 121.945002 
L 581.508088 122.767253 
L 582.170053 112.881563 
L 582.832019 122.470123 
L 583.493985 112.72594 
L 584.15595 111.754387 
L 584.817916 112.119625 
L 585.479882 113.320784 
L 586.141847 126.671843 
L 586.803813 126.736139 
L 587.465779 115.250977 
L 588.127744 113.356161 
L 588.78971 112.553316 
L 589.451676 112.660614 
L 590.113641 112.908044 
L 590.775607 112.016689 
L 592.099538 113.947432 
L 592.761504 112.907083 
L 593.42347 112.499564 
L 594.747401 112.906464 
L 595.409367 113.765946 
L 596.071332 112.881048 
L 596.733298 124.133343 
L 597.395264 111.914372 
L 598.057229 126.87143 
L 598.719195 126.775294 
L 599.381161 122.765535 
L 600.043126 122.566293 
L 600.705092 126.769078 
L 601.367058 122.133564 
L 602.029023 122.298048 
L 602.690989 126.640004 
L 603.352955 121.73525 
L 604.01492 122.558805 
L 604.676886 122.03839 
L 605.338852 111.731993 
L 606.000817 122.213247 
L 606.662783 114.096529 
L 607.986714 111.726669 
L 608.64868 122.02788 
L 609.310646 111.750334 
L 609.972611 122.370141 
L 611.296543 122.768249 
L 611.958508 112.594806 
L 612.620474 122.057864 
L 613.28244 126.74136 
L 613.944405 112.535044 
L 614.606371 124.163533 
L 615.268337 112.873939 
L 615.930302 121.63276 
L 616.592268 126.274113 
L 617.254234 112.877854 
L 618.578165 112.912887 
L 619.240131 113.95571 
L 619.902096 112.919173 
L 620.564062 121.245162 
L 621.226028 123.392287 
L 621.887993 122.724732 
L 622.549959 127.002426 
L 623.211925 115.040331 
L 623.87389 112.723467 
L 624.535856 126.649278 
L 625.197822 122.2094 
L 625.859787 112.750292 
L 626.521753 112.776464 
L 627.183719 113.364885 
L 627.845684 111.774033 
L 628.50765 122.321197 
L 629.169616 111.731031 
L 629.831581 116.375372 
L 630.493547 126.781751 
L 631.155513 111.733847 
L 632.479444 111.733367 
L 633.14141 112.910174 
L 633.803375 112.885101 
L 634.465341 111.727322 
L 638.437135 111.68116 
L 639.099101 113.623512 
L 639.761066 112.904713 
L 640.423032 112.730749 
L 641.084998 112.860063 
L 641.746963 112.629187 
L 642.408929 115.422228 
L 643.070895 119.182461 
L 643.73286 115.369781 
L 645.056792 115.511734 
L 645.718757 114.908029 
L 646.380723 113.397651 
L 647.042689 112.467038 
L 647.704654 111.768022 
L 649.028586 111.727047 
L 649.690551 116.7267 
L 650.352517 113.452639 
L 651.014483 111.704894 
L 652.338414 111.737523 
L 653.00038 122.303956 
L 653.662345 111.775029 
L 654.324311 122.469333 
L 654.986277 122.270331 
L 655.648242 111.762011 
L 656.310208 111.717705 
L 656.972173 122.435914 
L 657.634139 122.186423 
L 658.296105 111.701665 
L 658.95807 111.703279 
L 659.620036 112.725047 
L 660.282002 122.02733 
L 660.943967 126.661402 
L 661.605933 111.681366 
L 662.267899 112.888467 
L 662.929864 111.719216 
L 663.59183 123.229107 
L 664.253796 122.498699 
L 664.915761 122.942488 
L 665.577727 122.06123 
L 666.239693 111.727699 
L 666.901658 112.906636 
L 667.563624 121.747202 
L 668.22559 112.90983 
L 668.887555 112.447151 
L 669.549521 112.906361 
L 670.211487 123.115387 
L 670.873452 122.635913 
L 671.535418 124.559031 
L 672.197384 122.290045 
L 672.859349 122.2128 
L 673.521315 113.689629 
L 674.183281 112.99968 
L 674.845246 113.398578 
L 675.507212 117.743694 
L 676.169178 112.88991 
L 676.831143 111.893695 
L 677.493109 112.918451 
L 678.155075 123.173466 
L 678.81704 111.721586 
L 679.479006 112.908869 
L 680.140972 113.361587 
L 680.802937 111.728318 
L 681.464903 112.922642 
L 682.126869 111.744907 
L 682.788834 111.97252 
L 683.4508 111.954694 
L 684.112766 111.665258 
L 686.098663 111.66883 
L 686.760628 112.733771 
L 687.422594 112.195771 
L 688.08456 126.66858 
L 688.746525 112.911307 
L 689.408491 111.788698 
L 690.070457 111.676833 
L 690.732422 112.71859 
L 691.394388 111.670101 
L 692.056354 113.660641 
L 692.718319 112.904713 
L 693.380285 112.897878 
L 694.042251 111.678138 
L 694.704216 112.227472 
L 695.366182 111.855846 
L 696.028148 112.910826 
L 696.690113 111.760466 
L 698.014045 111.675184 
L 698.67601 112.896916 
L 699.337976 111.713583 
L 700.661907 111.765343 
L 701.323873 124.83672 
L 701.985839 123.708788 
L 702.647804 115.356214 
L 703.30977 111.721174 
L 703.971736 112.907014 
L 704.633701 111.681126 
L 705.957633 111.67381 
L 706.619598 118.214101 
L 707.281564 111.728764 
L 707.94353 122.178317 
L 708.605495 115.62731 
L 709.267461 111.673226 
L 709.929427 111.674634 
L 710.591392 117.202225 
L 711.253358 126.609745 
L 711.915324 111.724299 
L 712.577289 111.7119 
L 713.239255 122.292656 
L 713.901221 122.025373 
L 714.563186 114.573256 
L 715.225152 114.155365 
L 715.887118 111.725295 
L 716.549083 111.684732 
L 717.211049 112.890734 
L 717.873015 111.721002 
L 718.53498 113.693613 
L 719.196946 111.770392 
L 719.858912 111.881193 
L 720.520877 111.722204 
L 721.182843 111.710698 
L 721.844809 112.913265 
L 722.506774 113.390404 
L 723.16874 111.737042 
L 725.154637 111.711797 
L 725.816603 112.907873 
L 726.478568 111.766889 
L 727.140534 112.911685 
L 727.8025 111.636373 
L 729.126431 111.665876 
L 729.788397 112.91615 
L 730.450362 111.653992 
L 731.112328 111.655435 
L 731.774294 126.693344 
L 732.436259 111.764004 
L 733.760191 111.669448 
L 734.422156 111.670341 
L 735.084122 122.158842 
L 735.746088 112.879365 
L 736.408053 111.672505 
L 737.070019 122.484892 
L 737.731984 122.497909 
L 738.39395 111.697337 
L 739.055916 111.695792 
L 740.379847 112.709042 
L 741.041813 111.987186 
L 741.703778 111.705958 
L 744.351641 111.675321 
L 745.013607 112.018475 
L 745.675572 112.927141 
L 746.337538 111.676249 
L 747.661469 111.69744 
L 748.323435 112.910929 
L 748.985401 111.727219 
L 750.309332 111.660243 
L 750.971298 112.91354 
L 751.633263 112.730199 
L 752.295229 112.911239 
L 752.957195 112.883796 
L 753.61916 122.486953 
L 754.281126 112.881014 
L 754.943092 111.665464 
L 755.605057 111.785813 
L 756.267023 122.681524 
L 756.928989 122.543315 
L 757.590954 111.703142 
L 758.25292 112.8794 
L 758.914886 122.737337 
L 759.576851 111.702798 
L 760.238817 111.987804 
L 760.900783 122.317213 
L 761.562748 111.727734 
L 762.224714 111.651451 
L 762.88668 113.056558 
L 763.548645 112.784844 
L 764.210611 124.633287 
L 764.872577 113.266139 
L 765.534542 111.657942 
L 766.196508 113.340258 
L 766.858474 122.008543 
L 767.520439 126.636432 
L 768.182405 113.098186 
L 768.844371 111.742503 
L 769.506336 112.859204 
L 770.168302 122.009848 
L 770.830268 122.139128 
L 771.492233 123.457133 
L 772.154199 122.017542 
L 772.816165 128.685704 
L 773.47813 127.167289 
L 774.140096 127.783633 
L 774.802062 126.509866 
L 775.464027 129.15879 
L 776.125993 128.610726 
L 776.787959 128.956078 
L 777.449924 133.819274 
L 778.11189 133.75824 
L 778.773856 145.804518 
L 779.435821 133.761709 
L 780.097787 128.262729 
L 780.759753 133.493156 
L 781.421718 135.164928 
L 782.083684 157.828505 
L 782.74565 157.744082 
L 783.407615 133.776307 
L 784.731547 183.104806 
L 785.393512 174.503874 
L 786.055478 159.602114 
L 786.717444 163.253057 
L 787.379409 165.446652 
L 788.041375 172.287507 
L 788.703341 173.717756 
L 789.365306 170.839124 
L 790.027272 169.25758 
L 790.689238 158.9608 
L 791.351203 165.604542 
L 792.013169 165.924168 
L 792.675135 166.662889 
L 793.3371 172.335214 
L 793.999066 183.176967 
L 794.661032 179.635417 
L 795.322997 169.058887 
L 795.984963 173.918819 
L 796.646929 183.115144 
L 797.308894 186.539298 
L 797.97086 181.678507 
L 798.632826 182.301137 
L 799.294791 201.526409 
L 799.956757 187.979542 
L 800.618723 203.42813 
L 801.280688 203.780866 
L 801.942654 205.254116 
L 802.60462 187.895119 
L 803.266585 202.833149 
L 803.928551 209.044677 
L 804.590517 205.88626 
L 805.252482 205.838313 
L 805.914448 186.431863 
L 806.576414 184.705275 
L 807.238379 201.150661 
L 807.900345 204.43743 
L 808.562311 200.382746 
L 809.224276 204.179524 
L 809.886242 201.405373 
L 810.548208 202.379159 
L 811.210173 197.987092 
L 812.534105 183.913249 
L 813.19607 196.684405 
L 813.858036 205.159011 
L 814.520002 206.013891 
L 815.181967 201.477706 
L 815.843933 205.310582 
L 816.505899 205.452398 
L 817.167864 183.855994 
L 817.82983 199.916461 
L 818.491796 201.979506 
L 819.153761 201.811072 
L 819.815727 205.360315 
L 820.477692 206.252598 
L 821.139658 212.013022 
L 821.801624 223.396072 
L 822.463589 212.436992 
L 823.125555 215.156326 
L 823.787521 206.090037 
L 825.111452 206.093403 
L 825.773418 209.054294 
L 826.435383 207.340963 
L 827.097349 206.334136 
L 828.42128 214.98851 
L 829.083246 222.269685 
L 829.745212 211.666193 
L 830.407177 205.981605 
L 831.069143 205.406099 
L 831.731109 206.33599 
L 832.393074 220.545604 
L 833.05504 237.296157 
L 833.717006 250.561488 
L 834.378971 219.449167 
L 835.040937 206.512118 
L 835.702903 205.883684 
L 836.364868 215.580984 
L 837.026834 246.892445 
L 837.6888 235.560089 
L 838.350765 241.117664 
L 839.012731 219.634534 
L 839.674697 223.18182 
L 840.998628 217.539307 
L 841.660594 213.928996 
L 842.322559 213.64818 
L 842.984525 236.280125 
L 843.646491 241.464321 
L 844.308456 233.382568 
L 844.970422 216.979153 
L 845.632388 247.554538 
L 846.294353 247.413822 
L 846.956319 242.5667 
L 847.618285 249.124817 
L 848.28025 266.580912 
L 848.942216 248.383143 
L 849.604182 268.059692 
L 850.266147 220.591182 
L 850.928113 236.529994 
L 851.590079 259.591234 
L 852.252044 242.832884 
L 853.575976 246.230076 
L 854.237941 246.227706 
L 854.899907 250.66463 
L 855.561873 252.505283 
L 856.223838 243.222508 
L 856.885804 244.790726 
L 857.54777 288.805844 
L 858.209735 289.405676 
L 858.871701 281.556826 
L 859.533667 248.766001 
L 860.195632 284.586693 
L 860.857598 285.739458 
L 861.519564 280.642252 
L 862.181529 285.460085 
L 862.843495 291.945774 
L 863.505461 280.673937 
L 864.167426 292.410007 
L 864.829392 295.362278 
L 865.491358 280.890267 
L 866.153323 292.338584 
L 866.815289 293.687355 
L 867.477255 292.772163 
L 868.13922 305.483566 
L 869.463152 294.326497 
L 870.125117 296.130751 
L 870.787083 296.031164 
L 871.449049 291.064465 
L 872.111014 293.705172 
L 872.77298 333.811956 
L 873.434946 314.030385 
L 874.758877 292.764813 
L 875.420843 306.664898 
L 876.082808 329.250767 
L 876.744774 294.261282 
L 877.40674 320.48931 
L 878.068705 332.800037 
L 878.730671 311.787031 
L 879.392637 305.435859 
L 880.054602 295.395268 
L 880.716568 303.568957 
L 881.378534 305.472043 
L 882.040499 293.974198 
L 882.702465 285.280445 
L 884.026396 318.785055 
L 884.688362 285.786375 
L 885.350328 279.828777 
L 885.350328 279.828777 
" clip-path="url(#pa87ca9a75b)" style="fill: none; stroke: #1f77b4; stroke-width: 1.5; stroke-linecap: square"/>
   </g>
   <g id="line2d_16">
    <path d="M 122.765883 314.839328 
L 124.75178 314.839328 
L 125.413745 267.057368 
L 126.075711 267.057368 
L 126.737677 362.621287 
L 127.399642 362.621287 
L 128.061608 410.403247 
L 128.723574 410.403247 
L 130.047505 314.839328 
L 134.019299 314.839328 
L 134.681265 410.403247 
L 136.667162 410.403247 
L 137.329127 211.311749 
L 137.991093 123.71149 
L 138.653059 410.403247 
L 139.315024 131.67515 
L 139.97699 322.802988 
L 140.638956 131.67515 
L 141.300921 410.403247 
L 141.962887 362.621287 
L 142.624853 410.403247 
L 143.948784 410.403247 
L 144.61075 362.621287 
L 145.272715 370.584947 
L 145.934681 219.275409 
L 146.596647 195.384429 
L 147.258612 187.420769 
L 147.920578 410.403247 
L 148.582544 410.403247 
L 149.244509 187.420769 
L 149.906475 203.348089 
L 150.568441 171.493449 
L 151.230406 187.420769 
L 151.892372 410.403247 
L 152.554338 362.621287 
L 153.216303 362.621287 
L 153.878269 410.403247 
L 157.188097 410.403247 
L 157.850063 362.621287 
L 159.83596 362.621287 
L 160.497926 195.384429 
L 161.159891 410.403247 
L 161.821857 410.403247 
L 163.145788 314.839328 
L 163.807754 362.621287 
L 164.46972 370.584947 
L 165.131685 362.621287 
L 165.793651 314.839328 
L 166.455616 314.839328 
L 167.117582 322.802988 
L 167.779548 362.621287 
L 168.441513 314.839328 
L 169.103479 362.621287 
L 169.765445 314.839328 
L 170.42741 314.839328 
L 171.089376 219.275409 
L 171.751342 267.057368 
L 172.413307 362.621287 
L 173.075273 370.584947 
L 173.737239 314.839328 
L 174.399204 322.802988 
L 175.06117 267.057368 
L 175.723136 163.529789 
L 176.385101 219.275409 
L 177.047067 314.839328 
L 177.709033 314.839328 
L 178.370998 219.275409 
L 179.032964 219.275409 
L 179.69493 123.71149 
L 180.356895 322.802988 
L 181.018861 267.057368 
L 181.680827 322.802988 
L 182.342792 314.839328 
L 183.004758 267.057368 
L 183.666724 171.493449 
L 184.328689 267.057368 
L 184.990655 219.275409 
L 185.652621 267.057368 
L 186.314586 267.057368 
L 186.976552 314.839328 
L 187.638518 314.839328 
L 188.300483 171.493449 
L 188.962449 163.529789 
L 189.624415 171.493449 
L 190.28638 163.529789 
L 190.948346 131.67515 
L 191.610312 314.839328 
L 192.272277 259.093708 
L 192.934243 163.529789 
L 193.596209 314.839328 
L 194.258174 267.057368 
L 195.582106 267.057368 
L 196.244071 219.275409 
L 196.906037 267.057368 
L 197.568003 219.275409 
L 198.229968 314.839328 
L 198.891934 267.057368 
L 199.5539 259.093708 
L 200.215865 314.839328 
L 200.877831 211.311749 
L 201.539797 203.348089 
L 202.201762 314.839328 
L 202.863728 314.839328 
L 203.525694 219.275409 
L 204.187659 211.311749 
L 204.849625 267.057368 
L 205.511591 163.529789 
L 206.835522 362.621287 
L 207.497488 267.057368 
L 208.159453 219.275409 
L 208.821419 211.311749 
L 209.483385 314.839328 
L 210.14535 219.275409 
L 210.807316 314.839328 
L 212.131247 314.839328 
L 212.793213 163.529789 
L 214.117144 362.621287 
L 215.441076 267.057368 
L 216.103041 314.839328 
L 216.765007 314.839328 
L 217.426973 267.057368 
L 218.088938 267.057368 
L 218.750904 211.311749 
L 219.41287 322.802988 
L 220.074835 267.057368 
L 220.736801 314.839328 
L 222.722698 314.839328 
L 223.384664 370.584947 
L 224.046629 370.584947 
L 224.708595 211.311749 
L 226.032526 314.839328 
L 226.694492 267.057368 
L 227.356458 314.839328 
L 228.018423 211.311749 
L 228.680389 314.839328 
L 229.342355 314.839328 
L 230.00432 211.311749 
L 230.666286 314.839328 
L 231.328252 267.057368 
L 231.990217 314.839328 
L 232.652183 314.839328 
L 233.314149 362.621287 
L 234.63808 267.057368 
L 235.300046 163.529789 
L 235.962011 259.093708 
L 237.285943 362.621287 
L 237.947908 314.839328 
L 238.609874 362.621287 
L 239.27184 362.621287 
L 240.595771 259.093708 
L 241.257737 306.875668 
L 241.919702 306.875668 
L 242.581668 314.839328 
L 243.243634 314.839328 
L 243.905599 267.057368 
L 245.229531 267.057368 
L 245.891496 314.839328 
L 246.553462 267.057368 
L 247.877393 267.057368 
L 248.539359 219.275409 
L 249.201324 322.802988 
L 249.86329 314.839328 
L 250.525256 314.839328 
L 251.187221 267.057368 
L 251.849187 267.057368 
L 252.511153 314.839328 
L 253.173118 322.802988 
L 254.49705 219.275409 
L 255.159015 171.493449 
L 255.820981 163.529789 
L 256.482947 211.311749 
L 257.144912 322.802988 
L 257.806878 267.057368 
L 258.468844 275.021028 
L 259.792775 171.493449 
L 260.454741 163.529789 
L 261.116706 219.275409 
L 262.440638 219.275409 
L 263.102603 171.493449 
L 263.764569 171.493449 
L 264.426535 219.275409 
L 265.0885 163.529789 
L 265.750466 322.802988 
L 266.412432 267.057368 
L 267.074397 267.057368 
L 267.736363 314.839328 
L 268.398329 322.802988 
L 269.060294 163.529789 
L 269.72226 171.493449 
L 270.384226 123.71149 
L 271.046191 123.71149 
L 271.708157 267.057368 
L 272.370123 267.057368 
L 273.032088 171.493449 
L 273.694054 314.839328 
L 275.017985 115.74783 
L 275.679951 115.74783 
L 277.665848 267.057368 
L 278.327814 267.057368 
L 278.989779 163.529789 
L 279.651745 171.493449 
L 280.313711 115.74783 
L 280.975676 275.021028 
L 281.637642 275.021028 
L 282.299608 267.057368 
L 282.961573 267.057368 
L 284.94747 115.74783 
L 285.609436 267.057368 
L 286.271402 275.021028 
L 287.595333 275.021028 
L 288.919264 171.493449 
L 289.58123 171.493449 
L 290.243196 179.457109 
L 290.905161 179.457109 
L 291.567127 219.275409 
L 292.229093 171.493449 
L 292.891058 179.457109 
L 293.553024 179.457109 
L 294.21499 171.493449 
L 294.876955 123.71149 
L 295.538921 115.74783 
L 296.200887 171.493449 
L 296.862852 171.493449 
L 297.524818 67.96587 
L 298.186784 67.96587 
L 298.848749 282.984688 
L 299.510715 227.239069 
L 300.172681 123.71149 
L 301.496612 243.166388 
L 303.482509 243.166388 
L 304.144475 179.457109 
L 304.80644 75.92953 
L 305.468406 123.71149 
L 306.130372 195.384429 
L 306.792337 187.420769 
L 307.454303 139.63881 
L 308.116269 195.384429 
L 309.4402 179.457109 
L 310.102166 243.166388 
L 316.059857 243.166388 
L 316.721822 235.202729 
L 317.383788 171.493449 
L 318.045754 179.457109 
L 318.707719 235.202729 
L 319.369685 235.202729 
L 320.031651 227.239069 
L 320.693616 282.984688 
L 323.341479 282.984688 
L 324.66541 171.493449 
L 325.327376 227.239069 
L 325.989342 227.239069 
L 326.651307 219.275409 
L 327.313273 163.529789 
L 327.975239 163.529789 
L 329.29917 275.021028 
L 329.961135 282.984688 
L 330.623101 275.021028 
L 331.285067 219.275409 
L 331.947032 275.021028 
L 332.608998 275.021028 
L 333.270964 227.239069 
L 333.932929 275.021028 
L 334.594895 219.275409 
L 335.256861 275.021028 
L 335.918826 219.275409 
L 336.580792 275.021028 
L 337.242758 219.275409 
L 337.904723 267.057368 
L 339.89062 290.948348 
L 341.214552 290.948348 
L 342.538483 275.021028 
L 343.200449 219.275409 
L 343.862414 275.021028 
L 345.186346 290.948348 
L 345.848311 282.984688 
L 346.510277 219.275409 
L 347.172243 275.021028 
L 347.834208 282.984688 
L 348.496174 227.239069 
L 349.15814 243.166388 
L 351.144037 243.166388 
L 351.806002 179.457109 
L 352.467968 195.384429 
L 353.129934 147.602469 
L 353.791899 155.566129 
L 355.777796 155.566129 
L 356.439762 107.78417 
L 437.199573 107.78417 
L 437.861539 99.82051 
L 438.523504 99.82051 
L 439.18547 91.85685 
L 442.495298 91.85685 
L 443.157264 99.82051 
L 444.481195 99.82051 
L 445.143161 107.78417 
L 502.072208 107.78417 
L 502.734174 99.82051 
L 503.396139 107.78417 
L 504.058105 99.82051 
L 504.720071 107.78417 
L 505.382036 99.82051 
L 506.044002 107.78417 
L 509.35383 107.78417 
L 510.015796 99.82051 
L 510.677762 107.78417 
L 512.663659 107.78417 
L 513.325624 99.82051 
L 513.98759 107.78417 
L 514.649556 99.82051 
L 515.311521 99.82051 
L 515.973487 107.78417 
L 516.635453 99.82051 
L 517.297418 107.78417 
L 517.959384 99.82051 
L 518.62135 107.78417 
L 578.198259 107.78417 
L 578.860225 99.82051 
L 580.184156 99.82051 
L 580.846122 107.78417 
L 581.508088 107.78417 
L 582.170053 99.82051 
L 582.832019 107.78417 
L 599.381161 107.78417 
L 600.043126 99.82051 
L 600.705092 107.78417 
L 602.029023 107.78417 
L 602.690989 99.82051 
L 603.352955 107.78417 
L 610.634577 107.78417 
L 611.296543 99.82051 
L 611.958508 99.82051 
L 612.620474 107.78417 
L 613.28244 99.82051 
L 613.944405 107.78417 
L 707.94353 107.78417 
L 708.605495 99.82051 
L 709.267461 107.78417 
L 713.239255 107.78417 
L 713.901221 91.85685 
L 715.225152 107.78417 
L 735.084122 107.78417 
L 735.746088 99.82051 
L 736.408053 107.78417 
L 737.070019 107.78417 
L 737.731984 99.82051 
L 738.39395 99.82051 
L 739.055916 107.78417 
L 766.196508 107.78417 
L 766.858474 99.82051 
L 768.182405 99.82051 
L 768.844371 91.85685 
L 770.168302 91.85685 
L 770.830268 147.602469 
L 771.492233 91.85685 
L 772.154199 155.566129 
L 773.47813 139.63881 
L 774.140096 83.89319 
L 774.802062 83.89319 
L 775.464027 91.85685 
L 776.125993 83.89319 
L 776.787959 147.602469 
L 777.449924 139.63881 
L 778.11189 83.89319 
L 778.773856 75.92953 
L 779.435821 123.71149 
L 780.097787 83.89319 
L 780.759753 139.63881 
L 781.421718 83.89319 
L 782.083684 75.92953 
L 782.74565 131.67515 
L 783.407615 75.92953 
L 786.055478 75.92953 
L 786.717444 83.89319 
L 787.379409 83.89319 
L 788.041375 75.92953 
L 789.365306 171.493449 
L 790.027272 75.92953 
L 790.689238 75.92953 
L 791.351203 131.67515 
L 792.013169 131.67515 
L 792.675135 123.71149 
L 793.3371 179.457109 
L 793.999066 131.67515 
L 794.661032 131.67515 
L 795.322997 123.71149 
L 795.984963 179.457109 
L 796.646929 75.92953 
L 797.308894 123.71149 
L 797.97086 123.71149 
L 798.632826 179.457109 
L 799.294791 179.457109 
L 799.956757 75.92953 
L 800.618723 171.493449 
L 801.280688 227.239069 
L 801.942654 171.493449 
L 802.60462 171.493449 
L 803.266585 123.71149 
L 803.928551 123.71149 
L 804.590517 115.74783 
L 805.914448 227.239069 
L 806.576414 179.457109 
L 807.238379 179.457109 
L 807.900345 67.96587 
L 808.562311 67.96587 
L 809.224276 171.493449 
L 809.886242 227.239069 
L 811.210173 123.71149 
L 811.872139 171.493449 
L 812.534105 171.493449 
L 813.19607 75.92953 
L 813.858036 75.92953 
L 814.520002 227.239069 
L 815.181967 171.493449 
L 815.843933 227.239069 
L 816.505899 219.275409 
L 817.167864 219.275409 
L 817.82983 179.457109 
L 818.491796 67.96587 
L 819.153761 171.493449 
L 821.139658 171.493449 
L 821.801624 163.529789 
L 822.463589 115.74783 
L 823.125555 115.74783 
L 824.449486 219.275409 
L 825.111452 171.493449 
L 825.773418 227.239069 
L 826.435383 219.275409 
L 827.759315 219.275409 
L 828.42128 275.021028 
L 830.407177 275.021028 
L 831.731109 179.457109 
L 832.393074 171.493449 
L 833.05504 67.96587 
L 833.717006 219.275409 
L 834.378971 163.529789 
L 835.040937 219.275409 
L 835.702903 219.275409 
L 836.364868 115.74783 
L 837.026834 163.529789 
L 837.6888 267.057368 
L 838.350765 219.275409 
L 839.012731 115.74783 
L 839.674697 219.275409 
L 840.336662 219.275409 
L 840.998628 171.493449 
L 841.660594 67.96587 
L 842.984525 171.493449 
L 843.646491 163.529789 
L 844.308456 267.057368 
L 844.970422 275.021028 
L 845.632388 219.275409 
L 846.294353 67.96587 
L 846.956319 60.00221 
L 847.618285 171.493449 
L 848.28025 171.493449 
L 848.942216 115.74783 
L 849.604182 163.529789 
L 850.266147 267.057368 
L 850.928113 219.275409 
L 851.590079 275.021028 
L 852.252044 267.057368 
L 853.575976 163.529789 
L 854.899907 275.021028 
L 855.561873 267.057368 
L 856.223838 267.057368 
L 856.885804 171.493449 
L 858.209735 267.057368 
L 858.871701 123.71149 
L 859.533667 267.057368 
L 860.195632 219.275409 
L 861.519564 314.839328 
L 862.181529 219.275409 
L 862.843495 219.275409 
L 863.505461 259.093708 
L 864.167426 314.839328 
L 865.491358 314.839328 
L 866.153323 219.275409 
L 866.815289 314.839328 
L 867.477255 219.275409 
L 868.13922 211.311749 
L 868.801186 267.057368 
L 870.125117 267.057368 
L 870.787083 314.839328 
L 872.111014 314.839328 
L 872.77298 171.493449 
L 873.434946 267.057368 
L 874.096911 314.839328 
L 874.758877 219.275409 
L 875.420843 219.275409 
L 876.082808 314.839328 
L 876.744774 362.621287 
L 877.40674 171.493449 
L 878.068705 362.621287 
L 878.730671 290.948348 
L 879.392637 362.621287 
L 880.054602 267.057368 
L 880.716568 314.839328 
L 882.040499 314.839328 
L 882.702465 267.057368 
L 883.364431 267.057368 
L 884.688362 362.621287 
L 885.350328 267.057368 
L 885.350328 267.057368 
" clip-path="url(#pa87ca9a75b)" style="fill: none; stroke: #ff7f0e; stroke-width: 1.5; stroke-linecap: square"/>
   </g>
   <g id="patch_3">
    <path d="M 122.94 424.8504 
L 122.94 57.2832 
" style="fill: none; stroke: #000000; stroke-width: 0.8; stroke-linejoin: miter; stroke-linecap: square"/>
   </g>
   <g id="patch_4">
    <path d="M 885.168 424.8504 
L 885.168 57.2832 
" style="fill: none; stroke: #000000; stroke-width: 0.8; stroke-linejoin: miter; stroke-linecap: square"/>
   </g>
   <g id="patch_5">
    <path d="M 122.94 424.8504 
L 885.168 424.8504 
" style="fill: none; stroke: #000000; stroke-width: 0.8; stroke-linejoin: miter; stroke-linecap: square"/>
   </g>
   <g id="patch_6">
    <path d="M 122.94 57.2832 
L 885.168 57.2832 
" style="fill: none; stroke: #000000; stroke-width: 0.8; stroke-linejoin: miter; stroke-linecap: square"/>
   </g>
   <g id="text_17">
    <!-- Tension -->
    <g transform="translate(481.648688 51.2832) scale(0.12 -0.12)">
     <use xlink:href="#DejaVuSans-54"/>
     <use xlink:href="#DejaVuSans-65" x="44.083984"/>
     <use xlink:href="#DejaVuSans-6e" x="105.607422"/>
     <use xlink:href="#DejaVuSans-73" x="168.986328"/>
     <use xlink:href="#DejaVuSans-69" x="221.085938"/>
     <use xlink:href="#DejaVuSans-6f" x="248.869141"/>
     <use xlink:href="#DejaVuSans-6e" x="310.050781"/>
    </g>
   </g>
   <g id="legend_1">
    <g id="patch_7">
     <path d="M 129.94 94.63945 
L 225.047812 94.63945 
Q 227.047812 94.63945 227.047812 92.63945 
L 227.047812 64.2832 
Q 227.047812 62.2832 225.047812 62.2832 
L 129.94 62.2832 
Q 127.94 62.2832 127.94 64.2832 
L 127.94 92.63945 
Q 127.94 94.63945 129.94 94.63945 
z
" style="fill: #ffffff; opacity: 0.8; stroke: #cccccc; stroke-linejoin: miter"/>
    </g>
    <g id="line2d_17">
     <path d="M 131.94 70.381638 
L 141.94 70.381638 
L 151.94 70.381638 
" style="fill: none; stroke: #1f77b4; stroke-width: 1.5; stroke-linecap: square"/>
    </g>
    <g id="text_18">
     <!-- predicciones -->
     <g transform="translate(159.94 73.881638) scale(0.1 -0.1)">
      <defs>
       <path id="DejaVuSans-70" d="M 1159 525 
L 1159 -1331 
L 581 -1331 
L 581 3500 
L 1159 3500 
L 1159 2969 
Q 1341 3281 1617 3432 
Q 1894 3584 2278 3584 
Q 2916 3584 3314 3078 
Q 3713 2572 3713 1747 
Q 3713 922 3314 415 
Q 2916 -91 2278 -91 
Q 1894 -91 1617 61 
Q 1341 213 1159 525 
z
M 3116 1747 
Q 3116 2381 2855 2742 
Q 2594 3103 2138 3103 
Q 1681 3103 1420 2742 
Q 1159 2381 1159 1747 
Q 1159 1113 1420 752 
Q 1681 391 2138 391 
Q 2594 391 2855 752 
Q 3116 1113 3116 1747 
z
" transform="scale(0.015625)"/>
       <path id="DejaVuSans-72" d="M 2631 2963 
Q 2534 3019 2420 3045 
Q 2306 3072 2169 3072 
Q 1681 3072 1420 2755 
Q 1159 2438 1159 1844 
L 1159 0 
L 581 0 
L 581 3500 
L 1159 3500 
L 1159 2956 
Q 1341 3275 1631 3429 
Q 1922 3584 2338 3584 
Q 2397 3584 2469 3576 
Q 2541 3569 2628 3553 
L 2631 2963 
z
" transform="scale(0.015625)"/>
       <path id="DejaVuSans-64" d="M 2906 2969 
L 2906 4863 
L 3481 4863 
L 3481 0 
L 2906 0 
L 2906 525 
Q 2725 213 2448 61 
Q 2172 -91 1784 -91 
Q 1150 -91 751 415 
Q 353 922 353 1747 
Q 353 2572 751 3078 
Q 1150 3584 1784 3584 
Q 2172 3584 2448 3432 
Q 2725 3281 2906 2969 
z
M 947 1747 
Q 947 1113 1208 752 
Q 1469 391 1925 391 
Q 2381 391 2643 752 
Q 2906 1113 2906 1747 
Q 2906 2381 2643 2742 
Q 2381 3103 1925 3103 
Q 1469 3103 1208 2742 
Q 947 2381 947 1747 
z
" transform="scale(0.015625)"/>
       <path id="DejaVuSans-63" d="M 3122 3366 
L 3122 2828 
Q 2878 2963 2633 3030 
Q 2388 3097 2138 3097 
Q 1578 3097 1268 2742 
Q 959 2388 959 1747 
Q 959 1106 1268 751 
Q 1578 397 2138 397 
Q 2388 397 2633 464 
Q 2878 531 3122 666 
L 3122 134 
Q 2881 22 2623 -34 
Q 2366 -91 2075 -91 
Q 1284 -91 818 406 
Q 353 903 353 1747 
Q 353 2603 823 3093 
Q 1294 3584 2113 3584 
Q 2378 3584 2631 3529 
Q 2884 3475 3122 3366 
z
" transform="scale(0.015625)"/>
      </defs>
      <use xlink:href="#DejaVuSans-70"/>
      <use xlink:href="#DejaVuSans-72" x="63.476562"/>
      <use xlink:href="#DejaVuSans-65" x="102.339844"/>
      <use xlink:href="#DejaVuSans-64" x="163.863281"/>
      <use xlink:href="#DejaVuSans-69" x="227.339844"/>
      <use xlink:href="#DejaVuSans-63" x="255.123047"/>
      <use xlink:href="#DejaVuSans-63" x="310.103516"/>
      <use xlink:href="#DejaVuSans-69" x="365.083984"/>
      <use xlink:href="#DejaVuSans-6f" x="392.867188"/>
      <use xlink:href="#DejaVuSans-6e" x="454.048828"/>
      <use xlink:href="#DejaVuSans-65" x="517.427734"/>
      <use xlink:href="#DejaVuSans-73" x="578.951172"/>
     </g>
    </g>
    <g id="line2d_18">
     <path d="M 131.94 85.059763 
L 141.94 85.059763 
L 151.94 85.059763 
" style="fill: none; stroke: #ff7f0e; stroke-width: 1.5; stroke-linecap: square"/>
    </g>
    <g id="text_19">
     <!-- Real -->
     <g transform="translate(159.94 88.559763) scale(0.1 -0.1)">
      <defs>
       <path id="DejaVuSans-52" d="M 2841 2188 
Q 3044 2119 3236 1894 
Q 3428 1669 3622 1275 
L 4263 0 
L 3584 0 
L 2988 1197 
Q 2756 1666 2539 1819 
Q 2322 1972 1947 1972 
L 1259 1972 
L 1259 0 
L 628 0 
L 628 4666 
L 2053 4666 
Q 2853 4666 3247 4331 
Q 3641 3997 3641 3322 
Q 3641 2881 3436 2590 
Q 3231 2300 2841 2188 
z
M 1259 4147 
L 1259 2491 
L 2053 2491 
Q 2509 2491 2742 2702 
Q 2975 2913 2975 3322 
Q 2975 3731 2742 3939 
Q 2509 4147 2053 4147 
L 1259 4147 
z
" transform="scale(0.015625)"/>
       <path id="DejaVuSans-6c" d="M 603 4863 
L 1178 4863 
L 1178 0 
L 603 0 
L 603 4863 
z
" transform="scale(0.015625)"/>
      </defs>
      <use xlink:href="#DejaVuSans-52"/>
      <use xlink:href="#DejaVuSans-65" x="64.982422"/>
      <use xlink:href="#DejaVuSans-61" x="126.505859"/>
      <use xlink:href="#DejaVuSans-6c" x="187.785156"/>
     </g>
    </g>
   </g>
  </g>
 </g>
 <defs>
  <clipPath id="pa87ca9a75b">
   <rect x="122.94" y="57.2832" width="762.228" height="367.5672"/>
  </clipPath>
 </defs>
</svg>
