<?xml version="1.0" encoding="utf-8" standalone="no"?>
<!DOCTYPE svg PUBLIC "-//W3C//DTD SVG 1.1//EN"
  "http://www.w3.org/Graphics/SVG/1.1/DTD/svg11.dtd">
<svg xmlns:xlink="http://www.w3.org/1999/xlink" width="983.52pt" height="477.36pt" viewBox="0 0 983.52 477.36" xmlns="http://www.w3.org/2000/svg" version="1.1">
 <metadata>
  <rdf:RDF xmlns:dc="http://purl.org/dc/elements/1.1/" xmlns:cc="http://creativecommons.org/ns#" xmlns:rdf="http://www.w3.org/1999/02/22-rdf-syntax-ns#">
   <cc:Work>
    <dc:type rdf:resource="http://purl.org/dc/dcmitype/StillImage"/>
    <dc:date>2024-05-03T19:48:28.807163</dc:date>
    <dc:format>image/svg+xml</dc:format>
    <dc:creator>
     <cc:Agent>
      <dc:title>Matplotlib v3.8.0, https://matplotlib.org/</dc:title>
     </cc:Agent>
    </dc:creator>
   </cc:Work>
  </rdf:RDF>
 </metadata>
 <defs>
  <style type="text/css">*{stroke-linejoin: round; stroke-linecap: butt}</style>
 </defs>
 <g id="figure_1">
  <g id="patch_1">
   <path d="M 0 477.36 
L 983.52 477.36 
L 983.52 0 
L 0 0 
z
" style="fill: #ffffff"/>
  </g>
  <g id="axes_1">
   <g id="patch_2">
    <path d="M 122.94 424.8504 
L 885.168 424.8504 
L 885.168 57.2832 
L 122.94 57.2832 
z
" style="fill: #ffffff"/>
   </g>
   <g id="matplotlib.axis_1">
    <g id="xtick_1">
     <g id="line2d_1">
      <defs>
       <path id="m365bc72bc9" d="M 0 0 
L 0 3.5 
" style="stroke: #000000; stroke-width: 0.8"/>
      </defs>
      <g>
       <use xlink:href="#m365bc72bc9" x="203.070674" y="424.8504" style="stroke: #000000; stroke-width: 0.8"/>
      </g>
     </g>
     <g id="text_1">
      <!-- 2200 -->
      <g transform="translate(190.345674 439.448838) scale(0.1 -0.1)">
       <defs>
        <path id="DejaVuSans-32" d="M 1228 531 
L 3431 531 
L 3431 0 
L 469 0 
L 469 531 
Q 828 903 1448 1529 
Q 2069 2156 2228 2338 
Q 2531 2678 2651 2914 
Q 2772 3150 2772 3378 
Q 2772 3750 2511 3984 
Q 2250 4219 1831 4219 
Q 1534 4219 1204 4116 
Q 875 4013 500 3803 
L 500 4441 
Q 881 4594 1212 4672 
Q 1544 4750 1819 4750 
Q 2544 4750 2975 4387 
Q 3406 4025 3406 3419 
Q 3406 3131 3298 2873 
Q 3191 2616 2906 2266 
Q 2828 2175 2409 1742 
Q 1991 1309 1228 531 
z
" transform="scale(0.015625)"/>
        <path id="DejaVuSans-30" d="M 2034 4250 
Q 1547 4250 1301 3770 
Q 1056 3291 1056 2328 
Q 1056 1369 1301 889 
Q 1547 409 2034 409 
Q 2525 409 2770 889 
Q 3016 1369 3016 2328 
Q 3016 3291 2770 3770 
Q 2525 4250 2034 4250 
z
M 2034 4750 
Q 2819 4750 3233 4129 
Q 3647 3509 3647 2328 
Q 3647 1150 3233 529 
Q 2819 -91 2034 -91 
Q 1250 -91 836 529 
Q 422 1150 422 2328 
Q 422 3509 836 4129 
Q 1250 4750 2034 4750 
z
" transform="scale(0.015625)"/>
       </defs>
       <use xlink:href="#DejaVuSans-32"/>
       <use xlink:href="#DejaVuSans-32" x="63.623047"/>
       <use xlink:href="#DejaVuSans-30" x="127.246094"/>
       <use xlink:href="#DejaVuSans-30" x="190.869141"/>
      </g>
     </g>
    </g>
    <g id="xtick_2">
     <g id="line2d_2">
      <g>
       <use xlink:href="#m365bc72bc9" x="326.184532" y="424.8504" style="stroke: #000000; stroke-width: 0.8"/>
      </g>
     </g>
     <g id="text_2">
      <!-- 2400 -->
      <g transform="translate(313.459532 439.448838) scale(0.1 -0.1)">
       <defs>
        <path id="DejaVuSans-34" d="M 2419 4116 
L 825 1625 
L 2419 1625 
L 2419 4116 
z
M 2253 4666 
L 3047 4666 
L 3047 1625 
L 3713 1625 
L 3713 1100 
L 3047 1100 
L 3047 0 
L 2419 0 
L 2419 1100 
L 313 1100 
L 313 1709 
L 2253 4666 
z
" transform="scale(0.015625)"/>
       </defs>
       <use xlink:href="#DejaVuSans-32"/>
       <use xlink:href="#DejaVuSans-34" x="63.623047"/>
       <use xlink:href="#DejaVuSans-30" x="127.246094"/>
       <use xlink:href="#DejaVuSans-30" x="190.869141"/>
      </g>
     </g>
    </g>
    <g id="xtick_3">
     <g id="line2d_3">
      <g>
       <use xlink:href="#m365bc72bc9" x="449.29839" y="424.8504" style="stroke: #000000; stroke-width: 0.8"/>
      </g>
     </g>
     <g id="text_3">
      <!-- 2600 -->
      <g transform="translate(436.57339 439.448838) scale(0.1 -0.1)">
       <defs>
        <path id="DejaVuSans-36" d="M 2113 2584 
Q 1688 2584 1439 2293 
Q 1191 2003 1191 1497 
Q 1191 994 1439 701 
Q 1688 409 2113 409 
Q 2538 409 2786 701 
Q 3034 994 3034 1497 
Q 3034 2003 2786 2293 
Q 2538 2584 2113 2584 
z
M 3366 4563 
L 3366 3988 
Q 3128 4100 2886 4159 
Q 2644 4219 2406 4219 
Q 1781 4219 1451 3797 
Q 1122 3375 1075 2522 
Q 1259 2794 1537 2939 
Q 1816 3084 2150 3084 
Q 2853 3084 3261 2657 
Q 3669 2231 3669 1497 
Q 3669 778 3244 343 
Q 2819 -91 2113 -91 
Q 1303 -91 875 529 
Q 447 1150 447 2328 
Q 447 3434 972 4092 
Q 1497 4750 2381 4750 
Q 2619 4750 2861 4703 
Q 3103 4656 3366 4563 
z
" transform="scale(0.015625)"/>
       </defs>
       <use xlink:href="#DejaVuSans-32"/>
       <use xlink:href="#DejaVuSans-36" x="63.623047"/>
       <use xlink:href="#DejaVuSans-30" x="127.246094"/>
       <use xlink:href="#DejaVuSans-30" x="190.869141"/>
      </g>
     </g>
    </g>
    <g id="xtick_4">
     <g id="line2d_4">
      <g>
       <use xlink:href="#m365bc72bc9" x="572.412249" y="424.8504" style="stroke: #000000; stroke-width: 0.8"/>
      </g>
     </g>
     <g id="text_4">
      <!-- 2800 -->
      <g transform="translate(559.687249 439.448838) scale(0.1 -0.1)">
       <defs>
        <path id="DejaVuSans-38" d="M 2034 2216 
Q 1584 2216 1326 1975 
Q 1069 1734 1069 1313 
Q 1069 891 1326 650 
Q 1584 409 2034 409 
Q 2484 409 2743 651 
Q 3003 894 3003 1313 
Q 3003 1734 2745 1975 
Q 2488 2216 2034 2216 
z
M 1403 2484 
Q 997 2584 770 2862 
Q 544 3141 544 3541 
Q 544 4100 942 4425 
Q 1341 4750 2034 4750 
Q 2731 4750 3128 4425 
Q 3525 4100 3525 3541 
Q 3525 3141 3298 2862 
Q 3072 2584 2669 2484 
Q 3125 2378 3379 2068 
Q 3634 1759 3634 1313 
Q 3634 634 3220 271 
Q 2806 -91 2034 -91 
Q 1263 -91 848 271 
Q 434 634 434 1313 
Q 434 1759 690 2068 
Q 947 2378 1403 2484 
z
M 1172 3481 
Q 1172 3119 1398 2916 
Q 1625 2713 2034 2713 
Q 2441 2713 2670 2916 
Q 2900 3119 2900 3481 
Q 2900 3844 2670 4047 
Q 2441 4250 2034 4250 
Q 1625 4250 1398 4047 
Q 1172 3844 1172 3481 
z
" transform="scale(0.015625)"/>
       </defs>
       <use xlink:href="#DejaVuSans-32"/>
       <use xlink:href="#DejaVuSans-38" x="63.623047"/>
       <use xlink:href="#DejaVuSans-30" x="127.246094"/>
       <use xlink:href="#DejaVuSans-30" x="190.869141"/>
      </g>
     </g>
    </g>
    <g id="xtick_5">
     <g id="line2d_5">
      <g>
       <use xlink:href="#m365bc72bc9" x="695.526107" y="424.8504" style="stroke: #000000; stroke-width: 0.8"/>
      </g>
     </g>
     <g id="text_5">
      <!-- 3000 -->
      <g transform="translate(682.801107 439.448838) scale(0.1 -0.1)">
       <defs>
        <path id="DejaVuSans-33" d="M 2597 2516 
Q 3050 2419 3304 2112 
Q 3559 1806 3559 1356 
Q 3559 666 3084 287 
Q 2609 -91 1734 -91 
Q 1441 -91 1130 -33 
Q 819 25 488 141 
L 488 750 
Q 750 597 1062 519 
Q 1375 441 1716 441 
Q 2309 441 2620 675 
Q 2931 909 2931 1356 
Q 2931 1769 2642 2001 
Q 2353 2234 1838 2234 
L 1294 2234 
L 1294 2753 
L 1863 2753 
Q 2328 2753 2575 2939 
Q 2822 3125 2822 3475 
Q 2822 3834 2567 4026 
Q 2313 4219 1838 4219 
Q 1578 4219 1281 4162 
Q 984 4106 628 3988 
L 628 4550 
Q 988 4650 1302 4700 
Q 1616 4750 1894 4750 
Q 2613 4750 3031 4423 
Q 3450 4097 3450 3541 
Q 3450 3153 3228 2886 
Q 3006 2619 2597 2516 
z
" transform="scale(0.015625)"/>
       </defs>
       <use xlink:href="#DejaVuSans-33"/>
       <use xlink:href="#DejaVuSans-30" x="63.623047"/>
       <use xlink:href="#DejaVuSans-30" x="127.246094"/>
       <use xlink:href="#DejaVuSans-30" x="190.869141"/>
      </g>
     </g>
    </g>
    <g id="xtick_6">
     <g id="line2d_6">
      <g>
       <use xlink:href="#m365bc72bc9" x="818.639966" y="424.8504" style="stroke: #000000; stroke-width: 0.8"/>
      </g>
     </g>
     <g id="text_6">
      <!-- 3200 -->
      <g transform="translate(805.914966 439.448838) scale(0.1 -0.1)">
       <use xlink:href="#DejaVuSans-33"/>
       <use xlink:href="#DejaVuSans-32" x="63.623047"/>
       <use xlink:href="#DejaVuSans-30" x="127.246094"/>
       <use xlink:href="#DejaVuSans-30" x="190.869141"/>
      </g>
     </g>
    </g>
    <g id="text_7">
     <!-- Instante -->
     <g transform="translate(483.575875 453.126963) scale(0.1 -0.1)">
      <defs>
       <path id="DejaVuSans-49" d="M 628 4666 
L 1259 4666 
L 1259 0 
L 628 0 
L 628 4666 
z
" transform="scale(0.015625)"/>
       <path id="DejaVuSans-6e" d="M 3513 2113 
L 3513 0 
L 2938 0 
L 2938 2094 
Q 2938 2591 2744 2837 
Q 2550 3084 2163 3084 
Q 1697 3084 1428 2787 
Q 1159 2491 1159 1978 
L 1159 0 
L 581 0 
L 581 3500 
L 1159 3500 
L 1159 2956 
Q 1366 3272 1645 3428 
Q 1925 3584 2291 3584 
Q 2894 3584 3203 3211 
Q 3513 2838 3513 2113 
z
" transform="scale(0.015625)"/>
       <path id="DejaVuSans-73" d="M 2834 3397 
L 2834 2853 
Q 2591 2978 2328 3040 
Q 2066 3103 1784 3103 
Q 1356 3103 1142 2972 
Q 928 2841 928 2578 
Q 928 2378 1081 2264 
Q 1234 2150 1697 2047 
L 1894 2003 
Q 2506 1872 2764 1633 
Q 3022 1394 3022 966 
Q 3022 478 2636 193 
Q 2250 -91 1575 -91 
Q 1294 -91 989 -36 
Q 684 19 347 128 
L 347 722 
Q 666 556 975 473 
Q 1284 391 1588 391 
Q 1994 391 2212 530 
Q 2431 669 2431 922 
Q 2431 1156 2273 1281 
Q 2116 1406 1581 1522 
L 1381 1569 
Q 847 1681 609 1914 
Q 372 2147 372 2553 
Q 372 3047 722 3315 
Q 1072 3584 1716 3584 
Q 2034 3584 2315 3537 
Q 2597 3491 2834 3397 
z
" transform="scale(0.015625)"/>
       <path id="DejaVuSans-74" d="M 1172 4494 
L 1172 3500 
L 2356 3500 
L 2356 3053 
L 1172 3053 
L 1172 1153 
Q 1172 725 1289 603 
Q 1406 481 1766 481 
L 2356 481 
L 2356 0 
L 1766 0 
Q 1100 0 847 248 
Q 594 497 594 1153 
L 594 3053 
L 172 3053 
L 172 3500 
L 594 3500 
L 594 4494 
L 1172 4494 
z
" transform="scale(0.015625)"/>
       <path id="DejaVuSans-61" d="M 2194 1759 
Q 1497 1759 1228 1600 
Q 959 1441 959 1056 
Q 959 750 1161 570 
Q 1363 391 1709 391 
Q 2188 391 2477 730 
Q 2766 1069 2766 1631 
L 2766 1759 
L 2194 1759 
z
M 3341 1997 
L 3341 0 
L 2766 0 
L 2766 531 
Q 2569 213 2275 61 
Q 1981 -91 1556 -91 
Q 1019 -91 701 211 
Q 384 513 384 1019 
Q 384 1609 779 1909 
Q 1175 2209 1959 2209 
L 2766 2209 
L 2766 2266 
Q 2766 2663 2505 2880 
Q 2244 3097 1772 3097 
Q 1472 3097 1187 3025 
Q 903 2953 641 2809 
L 641 3341 
Q 956 3463 1253 3523 
Q 1550 3584 1831 3584 
Q 2591 3584 2966 3190 
Q 3341 2797 3341 1997 
z
" transform="scale(0.015625)"/>
       <path id="DejaVuSans-65" d="M 3597 1894 
L 3597 1613 
L 953 1613 
Q 991 1019 1311 708 
Q 1631 397 2203 397 
Q 2534 397 2845 478 
Q 3156 559 3463 722 
L 3463 178 
Q 3153 47 2828 -22 
Q 2503 -91 2169 -91 
Q 1331 -91 842 396 
Q 353 884 353 1716 
Q 353 2575 817 3079 
Q 1281 3584 2069 3584 
Q 2775 3584 3186 3129 
Q 3597 2675 3597 1894 
z
M 3022 2063 
Q 3016 2534 2758 2815 
Q 2500 3097 2075 3097 
Q 1594 3097 1305 2825 
Q 1016 2553 972 2059 
L 3022 2063 
z
" transform="scale(0.015625)"/>
      </defs>
      <use xlink:href="#DejaVuSans-49"/>
      <use xlink:href="#DejaVuSans-6e" x="29.492188"/>
      <use xlink:href="#DejaVuSans-73" x="92.871094"/>
      <use xlink:href="#DejaVuSans-74" x="144.970703"/>
      <use xlink:href="#DejaVuSans-61" x="184.179688"/>
      <use xlink:href="#DejaVuSans-6e" x="245.458984"/>
      <use xlink:href="#DejaVuSans-74" x="308.837891"/>
      <use xlink:href="#DejaVuSans-65" x="348.046875"/>
     </g>
    </g>
   </g>
   <g id="matplotlib.axis_2">
    <g id="ytick_1">
     <g id="line2d_7">
      <defs>
       <path id="m9207263f32" d="M 0 0 
L -3.5 0 
" style="stroke: #000000; stroke-width: 0.8"/>
      </defs>
      <g>
       <use xlink:href="#m9207263f32" x="122.94" y="423.2714" style="stroke: #000000; stroke-width: 0.8"/>
      </g>
     </g>
     <g id="text_8">
      <!-- 0.0 -->
      <g transform="translate(100.036875 427.070618) scale(0.1 -0.1)">
       <defs>
        <path id="DejaVuSans-2e" d="M 684 794 
L 1344 794 
L 1344 0 
L 684 0 
L 684 794 
z
" transform="scale(0.015625)"/>
       </defs>
       <use xlink:href="#DejaVuSans-30"/>
       <use xlink:href="#DejaVuSans-2e" x="63.623047"/>
       <use xlink:href="#DejaVuSans-30" x="95.410156"/>
      </g>
     </g>
    </g>
    <g id="ytick_2">
     <g id="line2d_8">
      <g>
       <use xlink:href="#m9207263f32" x="122.94" y="378.64114" style="stroke: #000000; stroke-width: 0.8"/>
      </g>
     </g>
     <g id="text_9">
      <!-- 2.5 -->
      <g transform="translate(100.036875 382.440358) scale(0.1 -0.1)">
       <defs>
        <path id="DejaVuSans-35" d="M 691 4666 
L 3169 4666 
L 3169 4134 
L 1269 4134 
L 1269 2991 
Q 1406 3038 1543 3061 
Q 1681 3084 1819 3084 
Q 2600 3084 3056 2656 
Q 3513 2228 3513 1497 
Q 3513 744 3044 326 
Q 2575 -91 1722 -91 
Q 1428 -91 1123 -41 
Q 819 9 494 109 
L 494 744 
Q 775 591 1075 516 
Q 1375 441 1709 441 
Q 2250 441 2565 725 
Q 2881 1009 2881 1497 
Q 2881 1984 2565 2268 
Q 2250 2553 1709 2553 
Q 1456 2553 1204 2497 
Q 953 2441 691 2322 
L 691 4666 
z
" transform="scale(0.015625)"/>
       </defs>
       <use xlink:href="#DejaVuSans-32"/>
       <use xlink:href="#DejaVuSans-2e" x="63.623047"/>
       <use xlink:href="#DejaVuSans-35" x="95.410156"/>
      </g>
     </g>
    </g>
    <g id="ytick_3">
     <g id="line2d_9">
      <g>
       <use xlink:href="#m9207263f32" x="122.94" y="334.01088" style="stroke: #000000; stroke-width: 0.8"/>
      </g>
     </g>
     <g id="text_10">
      <!-- 5.0 -->
      <g transform="translate(100.036875 337.810099) scale(0.1 -0.1)">
       <use xlink:href="#DejaVuSans-35"/>
       <use xlink:href="#DejaVuSans-2e" x="63.623047"/>
       <use xlink:href="#DejaVuSans-30" x="95.410156"/>
      </g>
     </g>
    </g>
    <g id="ytick_4">
     <g id="line2d_10">
      <g>
       <use xlink:href="#m9207263f32" x="122.94" y="289.38062" style="stroke: #000000; stroke-width: 0.8"/>
      </g>
     </g>
     <g id="text_11">
      <!-- 7.5 -->
      <g transform="translate(100.036875 293.179839) scale(0.1 -0.1)">
       <defs>
        <path id="DejaVuSans-37" d="M 525 4666 
L 3525 4666 
L 3525 4397 
L 1831 0 
L 1172 0 
L 2766 4134 
L 525 4134 
L 525 4666 
z
" transform="scale(0.015625)"/>
       </defs>
       <use xlink:href="#DejaVuSans-37"/>
       <use xlink:href="#DejaVuSans-2e" x="63.623047"/>
       <use xlink:href="#DejaVuSans-35" x="95.410156"/>
      </g>
     </g>
    </g>
    <g id="ytick_5">
     <g id="line2d_11">
      <g>
       <use xlink:href="#m9207263f32" x="122.94" y="244.75036" style="stroke: #000000; stroke-width: 0.8"/>
      </g>
     </g>
     <g id="text_12">
      <!-- 10.0 -->
      <g transform="translate(93.674375 248.549579) scale(0.1 -0.1)">
       <defs>
        <path id="DejaVuSans-31" d="M 794 531 
L 1825 531 
L 1825 4091 
L 703 3866 
L 703 4441 
L 1819 4666 
L 2450 4666 
L 2450 531 
L 3481 531 
L 3481 0 
L 794 0 
L 794 531 
z
" transform="scale(0.015625)"/>
       </defs>
       <use xlink:href="#DejaVuSans-31"/>
       <use xlink:href="#DejaVuSans-30" x="63.623047"/>
       <use xlink:href="#DejaVuSans-2e" x="127.246094"/>
       <use xlink:href="#DejaVuSans-30" x="159.033203"/>
      </g>
     </g>
    </g>
    <g id="ytick_6">
     <g id="line2d_12">
      <g>
       <use xlink:href="#m9207263f32" x="122.94" y="200.1201" style="stroke: #000000; stroke-width: 0.8"/>
      </g>
     </g>
     <g id="text_13">
      <!-- 12.5 -->
      <g transform="translate(93.674375 203.919319) scale(0.1 -0.1)">
       <use xlink:href="#DejaVuSans-31"/>
       <use xlink:href="#DejaVuSans-32" x="63.623047"/>
       <use xlink:href="#DejaVuSans-2e" x="127.246094"/>
       <use xlink:href="#DejaVuSans-35" x="159.033203"/>
      </g>
     </g>
    </g>
    <g id="ytick_7">
     <g id="line2d_13">
      <g>
       <use xlink:href="#m9207263f32" x="122.94" y="155.48984" style="stroke: #000000; stroke-width: 0.8"/>
      </g>
     </g>
     <g id="text_14">
      <!-- 15.0 -->
      <g transform="translate(93.674375 159.289059) scale(0.1 -0.1)">
       <use xlink:href="#DejaVuSans-31"/>
       <use xlink:href="#DejaVuSans-35" x="63.623047"/>
       <use xlink:href="#DejaVuSans-2e" x="127.246094"/>
       <use xlink:href="#DejaVuSans-30" x="159.033203"/>
      </g>
     </g>
    </g>
    <g id="ytick_8">
     <g id="line2d_14">
      <g>
       <use xlink:href="#m9207263f32" x="122.94" y="110.85958" style="stroke: #000000; stroke-width: 0.8"/>
      </g>
     </g>
     <g id="text_15">
      <!-- 17.5 -->
      <g transform="translate(93.674375 114.658799) scale(0.1 -0.1)">
       <use xlink:href="#DejaVuSans-31"/>
       <use xlink:href="#DejaVuSans-37" x="63.623047"/>
       <use xlink:href="#DejaVuSans-2e" x="127.246094"/>
       <use xlink:href="#DejaVuSans-35" x="159.033203"/>
      </g>
     </g>
    </g>
    <g id="ytick_9">
     <g id="line2d_15">
      <g>
       <use xlink:href="#m9207263f32" x="122.94" y="66.22932" style="stroke: #000000; stroke-width: 0.8"/>
      </g>
     </g>
     <g id="text_16">
      <!-- 20.0 -->
      <g transform="translate(93.674375 70.028539) scale(0.1 -0.1)">
       <use xlink:href="#DejaVuSans-32"/>
       <use xlink:href="#DejaVuSans-30" x="63.623047"/>
       <use xlink:href="#DejaVuSans-2e" x="127.246094"/>
       <use xlink:href="#DejaVuSans-30" x="159.033203"/>
      </g>
     </g>
    </g>
    <g id="text_17">
     <!-- Tension[V]  -->
     <g transform="translate(87.594687 268.648831) rotate(-90) scale(0.1 -0.1)">
      <defs>
       <path id="DejaVuSans-54" d="M -19 4666 
L 3928 4666 
L 3928 4134 
L 2272 4134 
L 2272 0 
L 1638 0 
L 1638 4134 
L -19 4134 
L -19 4666 
z
" transform="scale(0.015625)"/>
       <path id="DejaVuSans-69" d="M 603 3500 
L 1178 3500 
L 1178 0 
L 603 0 
L 603 3500 
z
M 603 4863 
L 1178 4863 
L 1178 4134 
L 603 4134 
L 603 4863 
z
" transform="scale(0.015625)"/>
       <path id="DejaVuSans-6f" d="M 1959 3097 
Q 1497 3097 1228 2736 
Q 959 2375 959 1747 
Q 959 1119 1226 758 
Q 1494 397 1959 397 
Q 2419 397 2687 759 
Q 2956 1122 2956 1747 
Q 2956 2369 2687 2733 
Q 2419 3097 1959 3097 
z
M 1959 3584 
Q 2709 3584 3137 3096 
Q 3566 2609 3566 1747 
Q 3566 888 3137 398 
Q 2709 -91 1959 -91 
Q 1206 -91 779 398 
Q 353 888 353 1747 
Q 353 2609 779 3096 
Q 1206 3584 1959 3584 
z
" transform="scale(0.015625)"/>
       <path id="DejaVuSans-5b" d="M 550 4863 
L 1875 4863 
L 1875 4416 
L 1125 4416 
L 1125 -397 
L 1875 -397 
L 1875 -844 
L 550 -844 
L 550 4863 
z
" transform="scale(0.015625)"/>
       <path id="DejaVuSans-56" d="M 1831 0 
L 50 4666 
L 709 4666 
L 2188 738 
L 3669 4666 
L 4325 4666 
L 2547 0 
L 1831 0 
z
" transform="scale(0.015625)"/>
       <path id="DejaVuSans-5d" d="M 1947 4863 
L 1947 -844 
L 622 -844 
L 622 -397 
L 1369 -397 
L 1369 4416 
L 622 4416 
L 622 4863 
L 1947 4863 
z
" transform="scale(0.015625)"/>
       <path id="DejaVuSans-20" transform="scale(0.015625)"/>
      </defs>
      <use xlink:href="#DejaVuSans-54"/>
      <use xlink:href="#DejaVuSans-65" x="44.083984"/>
      <use xlink:href="#DejaVuSans-6e" x="105.607422"/>
      <use xlink:href="#DejaVuSans-73" x="168.986328"/>
      <use xlink:href="#DejaVuSans-69" x="221.085938"/>
      <use xlink:href="#DejaVuSans-6f" x="248.869141"/>
      <use xlink:href="#DejaVuSans-6e" x="310.050781"/>
      <use xlink:href="#DejaVuSans-5b" x="373.429688"/>
      <use xlink:href="#DejaVuSans-56" x="412.443359"/>
      <use xlink:href="#DejaVuSans-5d" x="480.851562"/>
      <use xlink:href="#DejaVuSans-20" x="519.865234"/>
     </g>
    </g>
   </g>
   <g id="line2d_16">
    <path d="M 122.431096 111.327566 
L 124.893374 111.324842 
L 132.280205 111.290179 
L 159.365254 111.286263 
L 182.141318 111.292767 
L 182.756887 111.418991 
L 183.372456 111.289668 
L 252.931786 111.298828 
L 253.547356 112.562737 
L 254.162925 111.381468 
L 256.625202 111.284459 
L 300.330622 111.331073 
L 302.17733 111.302165 
L 304.639607 111.322595 
L 310.17973 111.324842 
L 313.873146 111.284595 
L 358.194135 111.310677 
L 358.809705 112.515611 
L 359.425274 129.260675 
L 360.040843 129.815012 
L 361.271982 126.520316 
L 361.887551 126.373118 
L 362.50312 129.280425 
L 363.11869 132.765836 
L 363.734259 180.771933 
L 364.349828 185.801963 
L 364.965397 204.329759 
L 365.580967 207.156026 
L 366.196536 204.118545 
L 366.812105 182.61003 
L 367.427675 197.296182 
L 368.043244 204.107275 
L 368.658813 205.21234 
L 369.274382 213.158563 
L 369.889952 205.25211 
L 370.505521 200.284222 
L 371.12109 202.072674 
L 371.73666 204.650511 
L 372.352229 215.728161 
L 372.967798 212.53776 
L 373.583368 200.400163 
L 374.198937 178.248372 
L 375.430075 181.91888 
L 376.045645 184.902663 
L 376.661214 204.920359 
L 377.276783 204.862338 
L 377.892353 204.386827 
L 378.507922 188.269307 
L 379.123491 205.301517 
L 379.73906 205.133718 
L 380.35463 237.924319 
L 380.970199 235.379272 
L 381.585768 254.343762 
L 383.432476 228.312326 
L 384.048045 181.109745 
L 384.663615 180.488227 
L 385.279184 181.610964 
L 385.894753 182.206093 
L 386.510323 126.05451 
L 387.125892 122.127808 
L 387.741461 122.057461 
L 388.357031 121.874781 
L 388.9726 112.857509 
L 389.588169 111.286331 
L 562.56314 111.374487 
L 563.178709 124.571284 
L 563.794279 120.377663 
L 564.409848 123.840635 
L 565.640987 112.485477 
L 566.256556 112.577208 
L 566.872125 112.083514 
L 567.487695 111.284527 
L 609.346406 111.284697 
L 641.971579 111.305842 
L 642.587148 111.366928 
L 643.818287 111.292426 
L 721.995587 111.29464 
L 722.611156 112.305998 
L 723.226725 126.189451 
L 723.842295 123.003239 
L 724.457864 122.57911 
L 725.073433 122.019427 
L 725.689003 122.001482 
L 726.304572 121.847201 
L 726.920141 124.520787 
L 727.53571 126.513983 
L 728.15128 122.528068 
L 728.766849 121.357491 
L 729.382418 127.19325 
L 729.997988 127.581627 
L 730.613557 121.96481 
L 731.229126 126.284723 
L 731.844696 132.221339 
L 732.460265 128.025437 
L 733.075834 127.139996 
L 733.691403 122.927886 
L 734.922542 134.833159 
L 735.538111 134.986078 
L 736.153681 134.84797 
L 736.76925 128.590227 
L 737.384819 134.736694 
L 738.000388 134.494087 
L 738.615958 133.286361 
L 739.231527 132.761954 
L 739.847096 133.29375 
L 740.462666 157.66752 
L 741.078235 132.786777 
L 741.693804 133.273864 
L 742.309373 157.056557 
L 742.924943 158.358943 
L 743.540512 132.823278 
L 744.156081 156.897815 
L 744.771651 133.324225 
L 745.38722 158.365276 
L 746.002789 159.183026 
L 746.618359 136.045992 
L 747.233928 147.801853 
L 747.849497 137.107473 
L 749.080636 180.652349 
L 749.696205 143.217745 
L 750.311774 156.056265 
L 750.927344 181.412145 
L 751.542913 179.45065 
L 752.158482 140.173147 
L 752.774051 171.489648 
L 753.389621 179.658458 
L 754.00519 135.130587 
L 754.620759 175.227643 
L 755.236329 161.316951 
L 755.851898 134.731723 
L 756.467467 169.989874 
L 757.083037 178.526868 
L 757.698606 184.726147 
L 758.314175 202.178979 
L 758.929744 180.151743 
L 759.545314 194.277156 
L 760.160883 179.609255 
L 760.776452 184.604929 
L 762.007591 204.197167 
L 762.62316 204.802648 
L 763.238729 204.452782 
L 763.854299 205.179651 
L 764.469868 205.218775 
L 765.085437 213.887442 
L 765.701007 213.934397 
L 766.316576 213.317305 
L 766.932145 234.217752 
L 767.547714 217.122107 
L 768.163284 205.316805 
L 768.778853 186.756424 
L 769.394422 182.763324 
L 770.009992 202.396764 
L 770.625561 201.758391 
L 771.24113 204.859001 
L 771.8567 208.720632 
L 772.472269 216.226417 
L 773.703407 244.186829 
L 774.318977 240.384207 
L 774.934546 231.668006 
L 775.550115 238.606617 
L 776.165685 238.059805 
L 776.781254 237.215803 
L 777.396823 253.497104 
L 778.012392 289.052674 
L 779.243531 287.899777 
L 779.8591 281.232521 
L 780.47467 260.73934 
L 781.090239 288.153758 
L 781.705808 288.365797 
L 782.321377 284.883876 
L 782.936947 284.504599 
L 783.552516 289.791767 
L 784.168085 290.277944 
L 784.783655 288.793416 
L 785.399224 289.80818 
L 786.014793 280.981401 
L 786.630363 280.571973 
L 787.861501 303.431378 
L 788.47707 286.130019 
L 789.09264 294.884015 
L 789.708209 288.381034 
L 790.323778 291.238304 
L 790.939348 305.524273 
L 791.554917 331.708406 
L 792.170486 328.755668 
L 792.786055 303.46868 
L 793.401625 303.38301 
L 794.017194 335.043656 
L 794.632763 335.123453 
L 795.863902 288.231613 
L 796.479471 334.729194 
L 797.09504 336.162392 
L 797.71061 336.620146 
L 798.326179 314.313571 
L 798.941748 182.057498 
L 799.557318 332.149169 
L 800.172887 325.579892 
L 800.788456 335.654508 
L 801.404026 311.898485 
L 802.019595 333.633723 
L 802.635164 303.492268 
L 803.250733 327.18432 
L 803.866303 226.539367 
L 804.481872 334.256858 
L 805.097441 336.168981 
L 805.713011 337.080385 
L 806.32858 326.129939 
L 806.944149 336.65394 
L 807.559718 335.285506 
L 808.175288 337.194164 
L 809.406426 337.064296 
L 810.637565 337.383466 
L 811.253134 299.196488 
L 811.868704 303.50897 
L 812.484273 303.418056 
L 813.099842 332.620645 
L 813.715411 287.922872 
L 814.330981 299.023922 
L 814.94655 303.145169 
L 815.562119 302.260086 
L 816.177689 295.257486 
L 816.793258 323.117561 
L 817.408827 303.169098 
L 818.024396 296.82319 
L 818.639966 288.623301 
L 819.255535 303.985528 
L 819.871104 303.463002 
L 820.486674 302.515981 
L 821.102243 298.738164 
L 822.333381 282.455153 
L 822.948951 264.768056 
L 823.56452 289.38531 
L 824.180089 322.135145 
L 824.795659 316.942049 
L 825.411228 310.649558 
L 826.026797 289.201848 
L 826.642367 288.886645 
L 827.257936 299.624559 
L 827.873505 332.090943 
L 828.489074 337.45652 
L 829.104644 303.458482 
L 829.720213 291.972146 
L 830.335782 294.984991 
L 830.951352 330.103221 
L 831.566921 337.231661 
L 832.18249 303.001103 
L 832.798059 336.85293 
L 833.413629 336.558123 
L 834.029198 327.8286 
L 834.644767 337.3186 
L 835.260337 285.909867 
L 835.875906 328.452706 
L 836.491475 333.595663 
L 837.107044 261.777122 
L 837.722614 335.579572 
L 838.338183 331.661417 
L 838.953752 304.704923 
L 839.569322 303.419673 
L 840.184891 298.668711 
L 840.80046 303.139176 
L 842.031599 335.867339 
L 842.647168 335.127488 
L 843.262737 331.506914 
L 843.878307 337.275782 
L 844.493876 337.240761 
L 845.109445 292.736189 
L 845.725015 303.479568 
L 846.340584 322.466786 
L 846.956153 303.391931 
L 847.571722 277.816308 
L 848.802861 327.011251 
L 849.41843 324.27743 
L 850.034 302.358321 
L 850.649569 285.138792 
L 851.265138 278.178211 
L 851.880707 302.957016 
L 852.496277 303.380992 
L 853.111846 307.163849 
L 853.727415 291.939236 
L 854.958554 283.695788 
L 855.574123 289.69698 
L 856.189693 322.858865 
L 856.805262 294.132434 
L 857.420831 278.250516 
L 858.0364 273.915962 
L 858.65197 303.833741 
L 859.267539 318.419257 
L 859.883108 291.49397 
L 860.498678 301.191472 
L 861.114247 301.382017 
L 861.729816 300.595245 
L 862.345385 287.098798 
L 862.960955 299.566801 
L 863.576524 292.271566 
L 864.192093 303.459052 
L 864.807663 287.084046 
L 865.423232 265.262039 
L 866.038801 268.934641 
L 866.65437 281.400014 
L 867.26994 282.679152 
L 867.885509 269.587826 
L 868.501078 288.872847 
L 869.116648 303.501394 
L 870.347786 246.676273 
L 870.963356 234.735043 
L 871.578925 250.669678 
L 872.194494 286.311174 
L 872.810063 278.496342 
L 873.425633 265.154764 
L 874.041202 246.197459 
L 874.656771 277.632012 
L 875.272341 290.645823 
L 875.88791 289.925389 
L 876.503479 239.804775 
L 877.119048 253.624724 
L 877.734618 277.816394 
L 878.350187 260.579645 
L 878.965756 278.685048 
L 879.581326 249.564443 
L 880.196895 263.24465 
L 880.812464 235.807794 
L 881.428034 247.47652 
L 882.043603 231.299277 
L 882.659172 232.846313 
L 883.274741 215.756831 
L 883.890311 235.961701 
L 884.50588 240.719942 
L 885.121449 222.378571 
L 885.737019 208.526717 
L 885.737019 208.526717 
" clip-path="url(#p0ed7ee2d97)" style="fill: none; stroke: #1f77b4; stroke-width: 1.5; stroke-linecap: square"/>
   </g>
   <g id="line2d_17">
    <path d="M 122.431096 107.471324 
L 355.731858 107.471324 
L 356.347427 91.68132 
L 356.962997 146.946333 
L 360.040843 146.946333 
L 360.656412 131.15633 
L 361.271982 194.316345 
L 362.50312 194.316345 
L 363.734259 178.526341 
L 364.965397 281.161366 
L 366.812105 281.161366 
L 367.427675 225.896352 
L 368.043244 218.00135 
L 368.658813 218.00135 
L 369.274382 273.266364 
L 369.889952 265.371362 
L 370.505521 162.736337 
L 371.12109 218.00135 
L 371.73666 218.00135 
L 372.352229 273.266364 
L 372.967798 281.161366 
L 374.198937 281.161366 
L 375.430075 170.631339 
L 376.661214 281.161366 
L 377.276783 273.266364 
L 377.892353 273.266364 
L 378.507922 281.161366 
L 379.123491 225.896352 
L 379.73906 273.266364 
L 380.35463 218.00135 
L 381.585768 320.636375 
L 382.201338 265.371362 
L 382.816907 320.636375 
L 383.432476 273.266364 
L 384.048045 281.161366 
L 384.663615 281.161366 
L 385.279184 233.791354 
L 385.894753 241.686356 
L 386.510323 241.686356 
L 387.125892 186.421343 
L 387.741461 194.316345 
L 388.357031 194.316345 
L 388.9726 146.946333 
L 389.588169 154.841335 
L 390.203738 154.841335 
L 390.819308 99.576322 
L 391.434877 107.471324 
L 435.755866 107.471324 
L 436.371435 99.576322 
L 445.604975 99.576322 
L 446.220544 107.471324 
L 461.609776 107.471324 
L 462.225346 99.576322 
L 475.76787 99.576322 
L 476.383439 107.471324 
L 485.616979 107.471324 
L 486.232548 99.576322 
L 505.315196 99.576322 
L 505.930765 107.471324 
L 506.546335 99.576322 
L 507.777473 99.576322 
L 508.393042 107.471324 
L 509.624181 107.471324 
L 510.23975 99.576322 
L 643.202717 99.576322 
L 643.818287 91.68132 
L 644.433856 99.576322 
L 646.280564 99.576322 
L 646.896133 91.68132 
L 647.511703 91.68132 
L 648.127272 99.576322 
L 649.35841 99.576322 
L 649.97398 91.68132 
L 650.589549 99.576322 
L 651.205118 91.68132 
L 651.820688 91.68132 
L 652.436257 99.576322 
L 657.360811 99.576322 
L 657.97638 91.68132 
L 658.59195 99.576322 
L 659.207519 91.68132 
L 659.823088 99.576322 
L 660.438658 91.68132 
L 735.538111 91.68132 
L 736.153681 83.786318 
L 736.76925 131.15633 
L 737.384819 139.051331 
L 738.000388 83.786318 
L 738.615958 139.051331 
L 739.231527 139.051331 
L 739.847096 75.891316 
L 740.462666 83.786318 
L 741.078235 75.891316 
L 741.693804 178.526341 
L 742.309373 178.526341 
L 742.924943 75.891316 
L 743.540512 83.786318 
L 744.156081 123.261328 
L 744.771651 131.15633 
L 745.38722 131.15633 
L 746.002789 123.261328 
L 746.618359 131.15633 
L 747.233928 123.261328 
L 747.849497 131.15633 
L 748.465066 83.786318 
L 749.080636 75.891316 
L 749.696205 75.891316 
L 750.311774 131.15633 
L 750.927344 131.15633 
L 751.542913 123.261328 
L 752.158482 67.996314 
L 752.774051 131.15633 
L 753.389621 67.996314 
L 754.00519 123.261328 
L 754.620759 131.15633 
L 755.236329 123.261328 
L 756.467467 123.261328 
L 757.698606 225.896352 
L 758.314175 115.366326 
L 758.929744 67.996314 
L 759.545314 170.631339 
L 760.160883 225.896352 
L 760.776452 170.631339 
L 761.392022 170.631339 
L 762.007591 123.261328 
L 762.62316 123.261328 
L 763.238729 273.266364 
L 764.469868 170.631339 
L 765.085437 273.266364 
L 765.701007 115.366326 
L 767.547714 115.366326 
L 768.163284 210.106348 
L 768.778853 162.736337 
L 769.394422 178.526341 
L 770.009992 178.526341 
L 770.625561 225.896352 
L 771.24113 170.631339 
L 771.8567 170.631339 
L 772.472269 123.261328 
L 773.087838 218.00135 
L 773.703407 115.366326 
L 774.318977 210.106348 
L 774.934546 210.106348 
L 775.550115 170.631339 
L 776.781254 265.371362 
L 777.396823 265.371362 
L 778.012392 210.106348 
L 778.627962 360.111384 
L 779.243531 360.111384 
L 779.8591 368.006386 
L 780.47467 368.006386 
L 781.090239 210.106348 
L 782.321377 312.741373 
L 782.936947 360.111384 
L 783.552516 265.371362 
L 784.168085 360.111384 
L 784.783655 360.111384 
L 786.014793 265.371362 
L 786.630363 265.371362 
L 787.245932 218.00135 
L 787.861501 210.106348 
L 788.47707 360.111384 
L 789.09264 218.00135 
L 789.708209 360.111384 
L 790.323778 265.371362 
L 790.939348 218.00135 
L 791.554917 312.741373 
L 792.786055 407.481396 
L 793.401625 265.371362 
L 794.017194 265.371362 
L 794.632763 312.741373 
L 795.248333 281.161366 
L 795.863902 312.741373 
L 796.479471 218.00135 
L 797.09504 360.111384 
L 797.71061 360.111384 
L 798.326179 312.741373 
L 798.941748 368.006386 
L 799.557318 360.111384 
L 800.172887 320.636375 
L 800.788456 265.371362 
L 802.019595 360.111384 
L 802.635164 360.111384 
L 803.250733 233.791354 
L 803.866303 202.211347 
L 804.481872 360.111384 
L 805.097441 360.111384 
L 805.713011 265.371362 
L 806.32858 312.741373 
L 806.944149 320.636375 
L 807.559718 360.111384 
L 813.099842 360.111384 
L 813.715411 265.371362 
L 814.330981 218.00135 
L 814.94655 312.741373 
L 815.562119 265.371362 
L 816.177689 360.111384 
L 816.793258 312.741373 
L 818.024396 312.741373 
L 819.255535 218.00135 
L 819.871104 265.371362 
L 820.486674 368.006386 
L 821.102243 265.371362 
L 821.717812 312.741373 
L 822.333381 265.371362 
L 822.948951 265.371362 
L 823.56452 218.00135 
L 824.795659 312.741373 
L 826.026797 312.741373 
L 826.642367 218.00135 
L 827.257936 265.371362 
L 827.873505 265.371362 
L 829.104644 360.111384 
L 829.720213 265.371362 
L 830.335782 265.371362 
L 830.951352 218.00135 
L 831.566921 360.111384 
L 832.798059 360.111384 
L 833.413629 265.371362 
L 834.029198 273.266364 
L 834.644767 312.741373 
L 835.260337 312.741373 
L 835.875906 360.111384 
L 836.491475 360.111384 
L 837.107044 273.266364 
L 837.722614 407.481396 
L 838.338183 360.111384 
L 838.953752 265.371362 
L 840.184891 360.111384 
L 840.80046 312.741373 
L 841.41603 360.111384 
L 842.031599 360.111384 
L 842.647168 312.741373 
L 843.262737 312.741373 
L 843.878307 360.111384 
L 845.109445 265.371362 
L 845.725015 312.741373 
L 846.340584 312.741373 
L 846.956153 360.111384 
L 847.571722 312.741373 
L 848.187292 218.00135 
L 848.802861 218.00135 
L 849.41843 360.111384 
L 850.034 312.741373 
L 850.649569 360.111384 
L 851.265138 218.00135 
L 851.880707 265.371362 
L 853.111846 265.371362 
L 853.727415 257.47636 
L 854.342985 312.741373 
L 854.958554 265.371362 
L 855.574123 320.636375 
L 856.189693 312.741373 
L 856.805262 265.371362 
L 857.420831 265.371362 
L 858.0364 225.896352 
L 858.65197 218.00135 
L 859.267539 360.111384 
L 859.883108 360.111384 
L 860.498678 218.00135 
L 861.114247 265.371362 
L 861.729816 218.00135 
L 862.345385 312.741373 
L 862.960955 265.371362 
L 863.576524 312.741373 
L 864.192093 218.00135 
L 864.807663 312.741373 
L 865.423232 312.741373 
L 866.65437 210.106348 
L 867.885509 312.741373 
L 868.501078 265.371362 
L 870.347786 265.371362 
L 870.963356 218.00135 
L 871.578925 218.00135 
L 872.194494 162.736337 
L 872.810063 265.371362 
L 873.425633 265.371362 
L 874.041202 162.736337 
L 874.656771 218.00135 
L 875.272341 210.106348 
L 875.88791 312.741373 
L 876.503479 265.371362 
L 877.119048 170.631339 
L 877.734618 115.366326 
L 878.350187 312.741373 
L 878.965756 265.371362 
L 879.581326 320.636375 
L 880.196895 265.371362 
L 880.812464 320.636375 
L 881.428034 265.371362 
L 882.043603 273.266364 
L 882.659172 218.00135 
L 883.274741 273.266364 
L 883.890311 218.00135 
L 885.121449 320.636375 
L 885.737019 115.366326 
L 885.737019 115.366326 
" clip-path="url(#p0ed7ee2d97)" style="fill: none; stroke: #ff7f0e; stroke-width: 1.5; stroke-linecap: square"/>
   </g>
   <g id="patch_3">
    <path d="M 122.94 424.8504 
L 122.94 57.2832 
" style="fill: none; stroke: #000000; stroke-width: 0.8; stroke-linejoin: miter; stroke-linecap: square"/>
   </g>
   <g id="patch_4">
    <path d="M 885.168 424.8504 
L 885.168 57.2832 
" style="fill: none; stroke: #000000; stroke-width: 0.8; stroke-linejoin: miter; stroke-linecap: square"/>
   </g>
   <g id="patch_5">
    <path d="M 122.94 424.8504 
L 885.168 424.8504 
" style="fill: none; stroke: #000000; stroke-width: 0.8; stroke-linejoin: miter; stroke-linecap: square"/>
   </g>
   <g id="patch_6">
    <path d="M 122.94 57.2832 
L 885.168 57.2832 
" style="fill: none; stroke: #000000; stroke-width: 0.8; stroke-linejoin: miter; stroke-linecap: square"/>
   </g>
   <g id="text_18">
    <!-- Tension -->
    <g transform="translate(481.648688 51.2832) scale(0.12 -0.12)">
     <use xlink:href="#DejaVuSans-54"/>
     <use xlink:href="#DejaVuSans-65" x="44.083984"/>
     <use xlink:href="#DejaVuSans-6e" x="105.607422"/>
     <use xlink:href="#DejaVuSans-73" x="168.986328"/>
     <use xlink:href="#DejaVuSans-69" x="221.085938"/>
     <use xlink:href="#DejaVuSans-6f" x="248.869141"/>
     <use xlink:href="#DejaVuSans-6e" x="310.050781"/>
    </g>
   </g>
   <g id="legend_1">
    <g id="patch_7">
     <path d="M 783.060187 94.63945 
L 878.168 94.63945 
Q 880.168 94.63945 880.168 92.63945 
L 880.168 64.2832 
Q 880.168 62.2832 878.168 62.2832 
L 783.060187 62.2832 
Q 781.060187 62.2832 781.060187 64.2832 
L 781.060187 92.63945 
Q 781.060187 94.63945 783.060187 94.63945 
z
" style="fill: #ffffff; opacity: 0.8; stroke: #cccccc; stroke-linejoin: miter"/>
    </g>
    <g id="line2d_18">
     <path d="M 785.060187 70.381638 
L 795.060187 70.381638 
L 805.060187 70.381638 
" style="fill: none; stroke: #1f77b4; stroke-width: 1.5; stroke-linecap: square"/>
    </g>
    <g id="text_19">
     <!-- predicciones -->
     <g transform="translate(813.060187 73.881638) scale(0.1 -0.1)">
      <defs>
       <path id="DejaVuSans-70" d="M 1159 525 
L 1159 -1331 
L 581 -1331 
L 581 3500 
L 1159 3500 
L 1159 2969 
Q 1341 3281 1617 3432 
Q 1894 3584 2278 3584 
Q 2916 3584 3314 3078 
Q 3713 2572 3713 1747 
Q 3713 922 3314 415 
Q 2916 -91 2278 -91 
Q 1894 -91 1617 61 
Q 1341 213 1159 525 
z
M 3116 1747 
Q 3116 2381 2855 2742 
Q 2594 3103 2138 3103 
Q 1681 3103 1420 2742 
Q 1159 2381 1159 1747 
Q 1159 1113 1420 752 
Q 1681 391 2138 391 
Q 2594 391 2855 752 
Q 3116 1113 3116 1747 
z
" transform="scale(0.015625)"/>
       <path id="DejaVuSans-72" d="M 2631 2963 
Q 2534 3019 2420 3045 
Q 2306 3072 2169 3072 
Q 1681 3072 1420 2755 
Q 1159 2438 1159 1844 
L 1159 0 
L 581 0 
L 581 3500 
L 1159 3500 
L 1159 2956 
Q 1341 3275 1631 3429 
Q 1922 3584 2338 3584 
Q 2397 3584 2469 3576 
Q 2541 3569 2628 3553 
L 2631 2963 
z
" transform="scale(0.015625)"/>
       <path id="DejaVuSans-64" d="M 2906 2969 
L 2906 4863 
L 3481 4863 
L 3481 0 
L 2906 0 
L 2906 525 
Q 2725 213 2448 61 
Q 2172 -91 1784 -91 
Q 1150 -91 751 415 
Q 353 922 353 1747 
Q 353 2572 751 3078 
Q 1150 3584 1784 3584 
Q 2172 3584 2448 3432 
Q 2725 3281 2906 2969 
z
M 947 1747 
Q 947 1113 1208 752 
Q 1469 391 1925 391 
Q 2381 391 2643 752 
Q 2906 1113 2906 1747 
Q 2906 2381 2643 2742 
Q 2381 3103 1925 3103 
Q 1469 3103 1208 2742 
Q 947 2381 947 1747 
z
" transform="scale(0.015625)"/>
       <path id="DejaVuSans-63" d="M 3122 3366 
L 3122 2828 
Q 2878 2963 2633 3030 
Q 2388 3097 2138 3097 
Q 1578 3097 1268 2742 
Q 959 2388 959 1747 
Q 959 1106 1268 751 
Q 1578 397 2138 397 
Q 2388 397 2633 464 
Q 2878 531 3122 666 
L 3122 134 
Q 2881 22 2623 -34 
Q 2366 -91 2075 -91 
Q 1284 -91 818 406 
Q 353 903 353 1747 
Q 353 2603 823 3093 
Q 1294 3584 2113 3584 
Q 2378 3584 2631 3529 
Q 2884 3475 3122 3366 
z
" transform="scale(0.015625)"/>
      </defs>
      <use xlink:href="#DejaVuSans-70"/>
      <use xlink:href="#DejaVuSans-72" x="63.476562"/>
      <use xlink:href="#DejaVuSans-65" x="102.339844"/>
      <use xlink:href="#DejaVuSans-64" x="163.863281"/>
      <use xlink:href="#DejaVuSans-69" x="227.339844"/>
      <use xlink:href="#DejaVuSans-63" x="255.123047"/>
      <use xlink:href="#DejaVuSans-63" x="310.103516"/>
      <use xlink:href="#DejaVuSans-69" x="365.083984"/>
      <use xlink:href="#DejaVuSans-6f" x="392.867188"/>
      <use xlink:href="#DejaVuSans-6e" x="454.048828"/>
      <use xlink:href="#DejaVuSans-65" x="517.427734"/>
      <use xlink:href="#DejaVuSans-73" x="578.951172"/>
     </g>
    </g>
    <g id="line2d_19">
     <path d="M 785.060187 85.059763 
L 795.060187 85.059763 
L 805.060187 85.059763 
" style="fill: none; stroke: #ff7f0e; stroke-width: 1.5; stroke-linecap: square"/>
    </g>
    <g id="text_20">
     <!-- Real -->
     <g transform="translate(813.060187 88.559763) scale(0.1 -0.1)">
      <defs>
       <path id="DejaVuSans-52" d="M 2841 2188 
Q 3044 2119 3236 1894 
Q 3428 1669 3622 1275 
L 4263 0 
L 3584 0 
L 2988 1197 
Q 2756 1666 2539 1819 
Q 2322 1972 1947 1972 
L 1259 1972 
L 1259 0 
L 628 0 
L 628 4666 
L 2053 4666 
Q 2853 4666 3247 4331 
Q 3641 3997 3641 3322 
Q 3641 2881 3436 2590 
Q 3231 2300 2841 2188 
z
M 1259 4147 
L 1259 2491 
L 2053 2491 
Q 2509 2491 2742 2702 
Q 2975 2913 2975 3322 
Q 2975 3731 2742 3939 
Q 2509 4147 2053 4147 
L 1259 4147 
z
" transform="scale(0.015625)"/>
       <path id="DejaVuSans-6c" d="M 603 4863 
L 1178 4863 
L 1178 0 
L 603 0 
L 603 4863 
z
" transform="scale(0.015625)"/>
      </defs>
      <use xlink:href="#DejaVuSans-52"/>
      <use xlink:href="#DejaVuSans-65" x="64.982422"/>
      <use xlink:href="#DejaVuSans-61" x="126.505859"/>
      <use xlink:href="#DejaVuSans-6c" x="187.785156"/>
     </g>
    </g>
   </g>
  </g>
 </g>
 <defs>
  <clipPath id="p0ed7ee2d97">
   <rect x="122.94" y="57.2832" width="762.228" height="367.5672"/>
  </clipPath>
 </defs>
</svg>
