<?xml version="1.0" encoding="utf-8" standalone="no"?>
<!DOCTYPE svg PUBLIC "-//W3C//DTD SVG 1.1//EN"
  "http://www.w3.org/Graphics/SVG/1.1/DTD/svg11.dtd">
<svg xmlns:xlink="http://www.w3.org/1999/xlink" width="983.52pt" height="477.36pt" viewBox="0 0 983.52 477.36" xmlns="http://www.w3.org/2000/svg" version="1.1">
 <metadata>
  <rdf:RDF xmlns:dc="http://purl.org/dc/elements/1.1/" xmlns:cc="http://creativecommons.org/ns#" xmlns:rdf="http://www.w3.org/1999/02/22-rdf-syntax-ns#">
   <cc:Work>
    <dc:type rdf:resource="http://purl.org/dc/dcmitype/StillImage"/>
    <dc:date>2024-05-01T15:13:20.397535</dc:date>
    <dc:format>image/svg+xml</dc:format>
    <dc:creator>
     <cc:Agent>
      <dc:title>Matplotlib v3.8.0, https://matplotlib.org/</dc:title>
     </cc:Agent>
    </dc:creator>
   </cc:Work>
  </rdf:RDF>
 </metadata>
 <defs>
  <style type="text/css">*{stroke-linejoin: round; stroke-linecap: butt}</style>
 </defs>
 <g id="figure_1">
  <g id="patch_1">
   <path d="M 0 477.36 
L 983.52 477.36 
L 983.52 0 
L 0 0 
z
" style="fill: #ffffff"/>
  </g>
  <g id="axes_1">
   <g id="patch_2">
    <path d="M 122.94 424.8504 
L 885.168 424.8504 
L 885.168 57.2832 
L 122.94 57.2832 
z
" style="fill: #ffffff"/>
   </g>
   <g id="matplotlib.axis_1">
    <g id="xtick_1">
     <g id="line2d_1">
      <defs>
       <path id="m9a2bb26e2d" d="M 0 0 
L 0 3.5 
" style="stroke: #000000; stroke-width: 0.8"/>
      </defs>
      <g>
       <use xlink:href="#m9a2bb26e2d" x="206.230404" y="424.8504" style="stroke: #000000; stroke-width: 0.8"/>
      </g>
     </g>
     <g id="text_1">
      <!-- 3200 -->
      <g transform="translate(193.505404 439.448838) scale(0.1 -0.1)">
       <defs>
        <path id="DejaVuSans-33" d="M 2597 2516 
Q 3050 2419 3304 2112 
Q 3559 1806 3559 1356 
Q 3559 666 3084 287 
Q 2609 -91 1734 -91 
Q 1441 -91 1130 -33 
Q 819 25 488 141 
L 488 750 
Q 750 597 1062 519 
Q 1375 441 1716 441 
Q 2309 441 2620 675 
Q 2931 909 2931 1356 
Q 2931 1769 2642 2001 
Q 2353 2234 1838 2234 
L 1294 2234 
L 1294 2753 
L 1863 2753 
Q 2328 2753 2575 2939 
Q 2822 3125 2822 3475 
Q 2822 3834 2567 4026 
Q 2313 4219 1838 4219 
Q 1578 4219 1281 4162 
Q 984 4106 628 3988 
L 628 4550 
Q 988 4650 1302 4700 
Q 1616 4750 1894 4750 
Q 2613 4750 3031 4423 
Q 3450 4097 3450 3541 
Q 3450 3153 3228 2886 
Q 3006 2619 2597 2516 
z
" transform="scale(0.015625)"/>
        <path id="DejaVuSans-32" d="M 1228 531 
L 3431 531 
L 3431 0 
L 469 0 
L 469 531 
Q 828 903 1448 1529 
Q 2069 2156 2228 2338 
Q 2531 2678 2651 2914 
Q 2772 3150 2772 3378 
Q 2772 3750 2511 3984 
Q 2250 4219 1831 4219 
Q 1534 4219 1204 4116 
Q 875 4013 500 3803 
L 500 4441 
Q 881 4594 1212 4672 
Q 1544 4750 1819 4750 
Q 2544 4750 2975 4387 
Q 3406 4025 3406 3419 
Q 3406 3131 3298 2873 
Q 3191 2616 2906 2266 
Q 2828 2175 2409 1742 
Q 1991 1309 1228 531 
z
" transform="scale(0.015625)"/>
        <path id="DejaVuSans-30" d="M 2034 4250 
Q 1547 4250 1301 3770 
Q 1056 3291 1056 2328 
Q 1056 1369 1301 889 
Q 1547 409 2034 409 
Q 2525 409 2770 889 
Q 3016 1369 3016 2328 
Q 3016 3291 2770 3770 
Q 2525 4250 2034 4250 
z
M 2034 4750 
Q 2819 4750 3233 4129 
Q 3647 3509 3647 2328 
Q 3647 1150 3233 529 
Q 2819 -91 2034 -91 
Q 1250 -91 836 529 
Q 422 1150 422 2328 
Q 422 3509 836 4129 
Q 1250 4750 2034 4750 
z
" transform="scale(0.015625)"/>
       </defs>
       <use xlink:href="#DejaVuSans-33"/>
       <use xlink:href="#DejaVuSans-32" x="63.623047"/>
       <use xlink:href="#DejaVuSans-30" x="127.246094"/>
       <use xlink:href="#DejaVuSans-30" x="190.869141"/>
      </g>
     </g>
    </g>
    <g id="xtick_2">
     <g id="line2d_2">
      <g>
       <use xlink:href="#m9a2bb26e2d" x="354.764533" y="424.8504" style="stroke: #000000; stroke-width: 0.8"/>
      </g>
     </g>
     <g id="text_2">
      <!-- 3400 -->
      <g transform="translate(342.039533 439.448838) scale(0.1 -0.1)">
       <defs>
        <path id="DejaVuSans-34" d="M 2419 4116 
L 825 1625 
L 2419 1625 
L 2419 4116 
z
M 2253 4666 
L 3047 4666 
L 3047 1625 
L 3713 1625 
L 3713 1100 
L 3047 1100 
L 3047 0 
L 2419 0 
L 2419 1100 
L 313 1100 
L 313 1709 
L 2253 4666 
z
" transform="scale(0.015625)"/>
       </defs>
       <use xlink:href="#DejaVuSans-33"/>
       <use xlink:href="#DejaVuSans-34" x="63.623047"/>
       <use xlink:href="#DejaVuSans-30" x="127.246094"/>
       <use xlink:href="#DejaVuSans-30" x="190.869141"/>
      </g>
     </g>
    </g>
    <g id="xtick_3">
     <g id="line2d_3">
      <g>
       <use xlink:href="#m9a2bb26e2d" x="503.298662" y="424.8504" style="stroke: #000000; stroke-width: 0.8"/>
      </g>
     </g>
     <g id="text_3">
      <!-- 3600 -->
      <g transform="translate(490.573662 439.448838) scale(0.1 -0.1)">
       <defs>
        <path id="DejaVuSans-36" d="M 2113 2584 
Q 1688 2584 1439 2293 
Q 1191 2003 1191 1497 
Q 1191 994 1439 701 
Q 1688 409 2113 409 
Q 2538 409 2786 701 
Q 3034 994 3034 1497 
Q 3034 2003 2786 2293 
Q 2538 2584 2113 2584 
z
M 3366 4563 
L 3366 3988 
Q 3128 4100 2886 4159 
Q 2644 4219 2406 4219 
Q 1781 4219 1451 3797 
Q 1122 3375 1075 2522 
Q 1259 2794 1537 2939 
Q 1816 3084 2150 3084 
Q 2853 3084 3261 2657 
Q 3669 2231 3669 1497 
Q 3669 778 3244 343 
Q 2819 -91 2113 -91 
Q 1303 -91 875 529 
Q 447 1150 447 2328 
Q 447 3434 972 4092 
Q 1497 4750 2381 4750 
Q 2619 4750 2861 4703 
Q 3103 4656 3366 4563 
z
" transform="scale(0.015625)"/>
       </defs>
       <use xlink:href="#DejaVuSans-33"/>
       <use xlink:href="#DejaVuSans-36" x="63.623047"/>
       <use xlink:href="#DejaVuSans-30" x="127.246094"/>
       <use xlink:href="#DejaVuSans-30" x="190.869141"/>
      </g>
     </g>
    </g>
    <g id="xtick_4">
     <g id="line2d_4">
      <g>
       <use xlink:href="#m9a2bb26e2d" x="651.83279" y="424.8504" style="stroke: #000000; stroke-width: 0.8"/>
      </g>
     </g>
     <g id="text_4">
      <!-- 3800 -->
      <g transform="translate(639.10779 439.448838) scale(0.1 -0.1)">
       <defs>
        <path id="DejaVuSans-38" d="M 2034 2216 
Q 1584 2216 1326 1975 
Q 1069 1734 1069 1313 
Q 1069 891 1326 650 
Q 1584 409 2034 409 
Q 2484 409 2743 651 
Q 3003 894 3003 1313 
Q 3003 1734 2745 1975 
Q 2488 2216 2034 2216 
z
M 1403 2484 
Q 997 2584 770 2862 
Q 544 3141 544 3541 
Q 544 4100 942 4425 
Q 1341 4750 2034 4750 
Q 2731 4750 3128 4425 
Q 3525 4100 3525 3541 
Q 3525 3141 3298 2862 
Q 3072 2584 2669 2484 
Q 3125 2378 3379 2068 
Q 3634 1759 3634 1313 
Q 3634 634 3220 271 
Q 2806 -91 2034 -91 
Q 1263 -91 848 271 
Q 434 634 434 1313 
Q 434 1759 690 2068 
Q 947 2378 1403 2484 
z
M 1172 3481 
Q 1172 3119 1398 2916 
Q 1625 2713 2034 2713 
Q 2441 2713 2670 2916 
Q 2900 3119 2900 3481 
Q 2900 3844 2670 4047 
Q 2441 4250 2034 4250 
Q 1625 4250 1398 4047 
Q 1172 3844 1172 3481 
z
" transform="scale(0.015625)"/>
       </defs>
       <use xlink:href="#DejaVuSans-33"/>
       <use xlink:href="#DejaVuSans-38" x="63.623047"/>
       <use xlink:href="#DejaVuSans-30" x="127.246094"/>
       <use xlink:href="#DejaVuSans-30" x="190.869141"/>
      </g>
     </g>
    </g>
    <g id="xtick_5">
     <g id="line2d_5">
      <g>
       <use xlink:href="#m9a2bb26e2d" x="800.366919" y="424.8504" style="stroke: #000000; stroke-width: 0.8"/>
      </g>
     </g>
     <g id="text_5">
      <!-- 4000 -->
      <g transform="translate(787.641919 439.448838) scale(0.1 -0.1)">
       <use xlink:href="#DejaVuSans-34"/>
       <use xlink:href="#DejaVuSans-30" x="63.623047"/>
       <use xlink:href="#DejaVuSans-30" x="127.246094"/>
       <use xlink:href="#DejaVuSans-30" x="190.869141"/>
      </g>
     </g>
    </g>
    <g id="text_6">
     <!-- Instante -->
     <g transform="translate(483.575875 453.126963) scale(0.1 -0.1)">
      <defs>
       <path id="DejaVuSans-49" d="M 628 4666 
L 1259 4666 
L 1259 0 
L 628 0 
L 628 4666 
z
" transform="scale(0.015625)"/>
       <path id="DejaVuSans-6e" d="M 3513 2113 
L 3513 0 
L 2938 0 
L 2938 2094 
Q 2938 2591 2744 2837 
Q 2550 3084 2163 3084 
Q 1697 3084 1428 2787 
Q 1159 2491 1159 1978 
L 1159 0 
L 581 0 
L 581 3500 
L 1159 3500 
L 1159 2956 
Q 1366 3272 1645 3428 
Q 1925 3584 2291 3584 
Q 2894 3584 3203 3211 
Q 3513 2838 3513 2113 
z
" transform="scale(0.015625)"/>
       <path id="DejaVuSans-73" d="M 2834 3397 
L 2834 2853 
Q 2591 2978 2328 3040 
Q 2066 3103 1784 3103 
Q 1356 3103 1142 2972 
Q 928 2841 928 2578 
Q 928 2378 1081 2264 
Q 1234 2150 1697 2047 
L 1894 2003 
Q 2506 1872 2764 1633 
Q 3022 1394 3022 966 
Q 3022 478 2636 193 
Q 2250 -91 1575 -91 
Q 1294 -91 989 -36 
Q 684 19 347 128 
L 347 722 
Q 666 556 975 473 
Q 1284 391 1588 391 
Q 1994 391 2212 530 
Q 2431 669 2431 922 
Q 2431 1156 2273 1281 
Q 2116 1406 1581 1522 
L 1381 1569 
Q 847 1681 609 1914 
Q 372 2147 372 2553 
Q 372 3047 722 3315 
Q 1072 3584 1716 3584 
Q 2034 3584 2315 3537 
Q 2597 3491 2834 3397 
z
" transform="scale(0.015625)"/>
       <path id="DejaVuSans-74" d="M 1172 4494 
L 1172 3500 
L 2356 3500 
L 2356 3053 
L 1172 3053 
L 1172 1153 
Q 1172 725 1289 603 
Q 1406 481 1766 481 
L 2356 481 
L 2356 0 
L 1766 0 
Q 1100 0 847 248 
Q 594 497 594 1153 
L 594 3053 
L 172 3053 
L 172 3500 
L 594 3500 
L 594 4494 
L 1172 4494 
z
" transform="scale(0.015625)"/>
       <path id="DejaVuSans-61" d="M 2194 1759 
Q 1497 1759 1228 1600 
Q 959 1441 959 1056 
Q 959 750 1161 570 
Q 1363 391 1709 391 
Q 2188 391 2477 730 
Q 2766 1069 2766 1631 
L 2766 1759 
L 2194 1759 
z
M 3341 1997 
L 3341 0 
L 2766 0 
L 2766 531 
Q 2569 213 2275 61 
Q 1981 -91 1556 -91 
Q 1019 -91 701 211 
Q 384 513 384 1019 
Q 384 1609 779 1909 
Q 1175 2209 1959 2209 
L 2766 2209 
L 2766 2266 
Q 2766 2663 2505 2880 
Q 2244 3097 1772 3097 
Q 1472 3097 1187 3025 
Q 903 2953 641 2809 
L 641 3341 
Q 956 3463 1253 3523 
Q 1550 3584 1831 3584 
Q 2591 3584 2966 3190 
Q 3341 2797 3341 1997 
z
" transform="scale(0.015625)"/>
       <path id="DejaVuSans-65" d="M 3597 1894 
L 3597 1613 
L 953 1613 
Q 991 1019 1311 708 
Q 1631 397 2203 397 
Q 2534 397 2845 478 
Q 3156 559 3463 722 
L 3463 178 
Q 3153 47 2828 -22 
Q 2503 -91 2169 -91 
Q 1331 -91 842 396 
Q 353 884 353 1716 
Q 353 2575 817 3079 
Q 1281 3584 2069 3584 
Q 2775 3584 3186 3129 
Q 3597 2675 3597 1894 
z
M 3022 2063 
Q 3016 2534 2758 2815 
Q 2500 3097 2075 3097 
Q 1594 3097 1305 2825 
Q 1016 2553 972 2059 
L 3022 2063 
z
" transform="scale(0.015625)"/>
      </defs>
      <use xlink:href="#DejaVuSans-49"/>
      <use xlink:href="#DejaVuSans-6e" x="29.492188"/>
      <use xlink:href="#DejaVuSans-73" x="92.871094"/>
      <use xlink:href="#DejaVuSans-74" x="144.970703"/>
      <use xlink:href="#DejaVuSans-61" x="184.179688"/>
      <use xlink:href="#DejaVuSans-6e" x="245.458984"/>
      <use xlink:href="#DejaVuSans-74" x="308.837891"/>
      <use xlink:href="#DejaVuSans-65" x="348.046875"/>
     </g>
    </g>
   </g>
   <g id="matplotlib.axis_2">
    <g id="ytick_1">
     <g id="line2d_6">
      <defs>
       <path id="m3482268e23" d="M 0 0 
L -3.5 0 
" style="stroke: #000000; stroke-width: 0.8"/>
      </defs>
      <g>
       <use xlink:href="#m3482268e23" x="122.94" y="398.19578" style="stroke: #000000; stroke-width: 0.8"/>
      </g>
     </g>
     <g id="text_7">
      <!-- 0 -->
      <g transform="translate(109.5775 401.994998) scale(0.1 -0.1)">
       <use xlink:href="#DejaVuSans-30"/>
      </g>
     </g>
    </g>
    <g id="ytick_2">
     <g id="line2d_7">
      <g>
       <use xlink:href="#m3482268e23" x="122.94" y="328.434797" style="stroke: #000000; stroke-width: 0.8"/>
      </g>
     </g>
     <g id="text_8">
      <!-- 10 -->
      <g transform="translate(103.215 332.234016) scale(0.1 -0.1)">
       <defs>
        <path id="DejaVuSans-31" d="M 794 531 
L 1825 531 
L 1825 4091 
L 703 3866 
L 703 4441 
L 1819 4666 
L 2450 4666 
L 2450 531 
L 3481 531 
L 3481 0 
L 794 0 
L 794 531 
z
" transform="scale(0.015625)"/>
       </defs>
       <use xlink:href="#DejaVuSans-31"/>
       <use xlink:href="#DejaVuSans-30" x="63.623047"/>
      </g>
     </g>
    </g>
    <g id="ytick_3">
     <g id="line2d_8">
      <g>
       <use xlink:href="#m3482268e23" x="122.94" y="258.673814" style="stroke: #000000; stroke-width: 0.8"/>
      </g>
     </g>
     <g id="text_9">
      <!-- 20 -->
      <g transform="translate(103.215 262.473033) scale(0.1 -0.1)">
       <use xlink:href="#DejaVuSans-32"/>
       <use xlink:href="#DejaVuSans-30" x="63.623047"/>
      </g>
     </g>
    </g>
    <g id="ytick_4">
     <g id="line2d_9">
      <g>
       <use xlink:href="#m3482268e23" x="122.94" y="188.912832" style="stroke: #000000; stroke-width: 0.8"/>
      </g>
     </g>
     <g id="text_10">
      <!-- 30 -->
      <g transform="translate(103.215 192.71205) scale(0.1 -0.1)">
       <use xlink:href="#DejaVuSans-33"/>
       <use xlink:href="#DejaVuSans-30" x="63.623047"/>
      </g>
     </g>
    </g>
    <g id="ytick_5">
     <g id="line2d_10">
      <g>
       <use xlink:href="#m3482268e23" x="122.94" y="119.151849" style="stroke: #000000; stroke-width: 0.8"/>
      </g>
     </g>
     <g id="text_11">
      <!-- 40 -->
      <g transform="translate(103.215 122.951068) scale(0.1 -0.1)">
       <use xlink:href="#DejaVuSans-34"/>
       <use xlink:href="#DejaVuSans-30" x="63.623047"/>
      </g>
     </g>
    </g>
    <g id="text_12">
     <!-- Potencia[W] maximas -->
     <g transform="translate(97.135312 295.623831) rotate(-90) scale(0.1 -0.1)">
      <defs>
       <path id="DejaVuSans-50" d="M 1259 4147 
L 1259 2394 
L 2053 2394 
Q 2494 2394 2734 2622 
Q 2975 2850 2975 3272 
Q 2975 3691 2734 3919 
Q 2494 4147 2053 4147 
L 1259 4147 
z
M 628 4666 
L 2053 4666 
Q 2838 4666 3239 4311 
Q 3641 3956 3641 3272 
Q 3641 2581 3239 2228 
Q 2838 1875 2053 1875 
L 1259 1875 
L 1259 0 
L 628 0 
L 628 4666 
z
" transform="scale(0.015625)"/>
       <path id="DejaVuSans-6f" d="M 1959 3097 
Q 1497 3097 1228 2736 
Q 959 2375 959 1747 
Q 959 1119 1226 758 
Q 1494 397 1959 397 
Q 2419 397 2687 759 
Q 2956 1122 2956 1747 
Q 2956 2369 2687 2733 
Q 2419 3097 1959 3097 
z
M 1959 3584 
Q 2709 3584 3137 3096 
Q 3566 2609 3566 1747 
Q 3566 888 3137 398 
Q 2709 -91 1959 -91 
Q 1206 -91 779 398 
Q 353 888 353 1747 
Q 353 2609 779 3096 
Q 1206 3584 1959 3584 
z
" transform="scale(0.015625)"/>
       <path id="DejaVuSans-63" d="M 3122 3366 
L 3122 2828 
Q 2878 2963 2633 3030 
Q 2388 3097 2138 3097 
Q 1578 3097 1268 2742 
Q 959 2388 959 1747 
Q 959 1106 1268 751 
Q 1578 397 2138 397 
Q 2388 397 2633 464 
Q 2878 531 3122 666 
L 3122 134 
Q 2881 22 2623 -34 
Q 2366 -91 2075 -91 
Q 1284 -91 818 406 
Q 353 903 353 1747 
Q 353 2603 823 3093 
Q 1294 3584 2113 3584 
Q 2378 3584 2631 3529 
Q 2884 3475 3122 3366 
z
" transform="scale(0.015625)"/>
       <path id="DejaVuSans-69" d="M 603 3500 
L 1178 3500 
L 1178 0 
L 603 0 
L 603 3500 
z
M 603 4863 
L 1178 4863 
L 1178 4134 
L 603 4134 
L 603 4863 
z
" transform="scale(0.015625)"/>
       <path id="DejaVuSans-5b" d="M 550 4863 
L 1875 4863 
L 1875 4416 
L 1125 4416 
L 1125 -397 
L 1875 -397 
L 1875 -844 
L 550 -844 
L 550 4863 
z
" transform="scale(0.015625)"/>
       <path id="DejaVuSans-57" d="M 213 4666 
L 850 4666 
L 1831 722 
L 2809 4666 
L 3519 4666 
L 4500 722 
L 5478 4666 
L 6119 4666 
L 4947 0 
L 4153 0 
L 3169 4050 
L 2175 0 
L 1381 0 
L 213 4666 
z
" transform="scale(0.015625)"/>
       <path id="DejaVuSans-5d" d="M 1947 4863 
L 1947 -844 
L 622 -844 
L 622 -397 
L 1369 -397 
L 1369 4416 
L 622 4416 
L 622 4863 
L 1947 4863 
z
" transform="scale(0.015625)"/>
       <path id="DejaVuSans-20" transform="scale(0.015625)"/>
       <path id="DejaVuSans-6d" d="M 3328 2828 
Q 3544 3216 3844 3400 
Q 4144 3584 4550 3584 
Q 5097 3584 5394 3201 
Q 5691 2819 5691 2113 
L 5691 0 
L 5113 0 
L 5113 2094 
Q 5113 2597 4934 2840 
Q 4756 3084 4391 3084 
Q 3944 3084 3684 2787 
Q 3425 2491 3425 1978 
L 3425 0 
L 2847 0 
L 2847 2094 
Q 2847 2600 2669 2842 
Q 2491 3084 2119 3084 
Q 1678 3084 1418 2786 
Q 1159 2488 1159 1978 
L 1159 0 
L 581 0 
L 581 3500 
L 1159 3500 
L 1159 2956 
Q 1356 3278 1631 3431 
Q 1906 3584 2284 3584 
Q 2666 3584 2933 3390 
Q 3200 3197 3328 2828 
z
" transform="scale(0.015625)"/>
       <path id="DejaVuSans-78" d="M 3513 3500 
L 2247 1797 
L 3578 0 
L 2900 0 
L 1881 1375 
L 863 0 
L 184 0 
L 1544 1831 
L 300 3500 
L 978 3500 
L 1906 2253 
L 2834 3500 
L 3513 3500 
z
" transform="scale(0.015625)"/>
      </defs>
      <use xlink:href="#DejaVuSans-50"/>
      <use xlink:href="#DejaVuSans-6f" x="56.677734"/>
      <use xlink:href="#DejaVuSans-74" x="117.859375"/>
      <use xlink:href="#DejaVuSans-65" x="157.068359"/>
      <use xlink:href="#DejaVuSans-6e" x="218.591797"/>
      <use xlink:href="#DejaVuSans-63" x="281.970703"/>
      <use xlink:href="#DejaVuSans-69" x="336.951172"/>
      <use xlink:href="#DejaVuSans-61" x="364.734375"/>
      <use xlink:href="#DejaVuSans-5b" x="426.013672"/>
      <use xlink:href="#DejaVuSans-57" x="465.027344"/>
      <use xlink:href="#DejaVuSans-5d" x="563.904297"/>
      <use xlink:href="#DejaVuSans-20" x="602.917969"/>
      <use xlink:href="#DejaVuSans-6d" x="634.705078"/>
      <use xlink:href="#DejaVuSans-61" x="732.117188"/>
      <use xlink:href="#DejaVuSans-78" x="793.396484"/>
      <use xlink:href="#DejaVuSans-69" x="852.576172"/>
      <use xlink:href="#DejaVuSans-6d" x="880.359375"/>
      <use xlink:href="#DejaVuSans-61" x="977.771484"/>
      <use xlink:href="#DejaVuSans-73" x="1039.050781"/>
     </g>
    </g>
   </g>
   <g id="line2d_11">
    <path d="M 122.308621 298.381113 
L 123.051292 300.01568 
L 123.793963 303.398808 
L 124.536633 300.986125 
L 125.279304 295.653416 
L 126.021974 291.307517 
L 126.764645 297.957203 
L 127.507316 293.549616 
L 128.249986 292.426807 
L 128.992657 303.025068 
L 129.735328 288.763862 
L 130.477998 289.279318 
L 131.220669 290.285371 
L 131.96334 291.485877 
L 132.70601 297.491443 
L 133.448681 300.723753 
L 134.191352 306.089418 
L 134.934022 309.135458 
L 135.676693 301.068833 
L 136.419363 302.510522 
L 137.162034 300.200644 
L 137.904705 300.750992 
L 138.647375 299.706888 
L 139.390046 299.118117 
L 140.132717 303.066309 
L 140.875387 316.781166 
L 141.618058 316.873185 
L 142.360729 338.29353 
L 143.103399 333.800694 
L 143.84607 336.705535 
L 144.588741 351.041945 
L 145.331411 345.868806 
L 146.074082 329.731949 
L 146.816752 327.087566 
L 147.559423 326.343469 
L 148.302094 318.803837 
L 149.044764 317.018171 
L 149.787435 313.636026 
L 150.530106 325.407588 
L 151.272776 340.351784 
L 152.015447 347.940562 
L 152.758118 348.085439 
L 153.500788 356.064539 
L 154.243459 353.688886 
L 154.98613 343.794233 
L 155.7288 335.916986 
L 156.471471 342.891399 
L 157.214141 357.976332 
L 157.956812 377.771434 
L 158.699483 376.088455 
L 159.442153 371.747912 
L 160.184824 359.904345 
L 160.927495 367.517333 
L 161.670165 347.594259 
L 162.412836 346.585844 
L 163.155507 368.624891 
L 163.898177 371.838503 
L 164.640848 376.136188 
L 165.383519 369.457479 
L 166.126189 354.076389 
L 166.86886 365.673975 
L 167.61153 373.488391 
L 168.354201 378.666969 
L 169.096872 385.878164 
L 169.839542 385.910816 
L 170.582213 376.891577 
L 171.324884 378.998815 
L 172.067554 377.710398 
L 172.810225 383.494732 
L 173.552896 384.60762 
L 174.295566 394.455639 
L 175.038237 395.112604 
L 175.780908 390.306331 
L 176.523578 386.476973 
L 177.266249 391.739204 
L 178.00892 391.360424 
L 178.75159 374.580686 
L 179.494261 382.423649 
L 180.236931 394.047847 
L 180.979602 395.103185 
L 181.722273 392.577004 
L 182.464943 395.603152 
L 183.207614 396.399945 
L 183.950285 394.692391 
L 184.692955 391.246869 
L 185.435626 382.455558 
L 186.178297 391.55543 
L 186.920967 392.610553 
L 187.663638 388.764786 
L 188.406309 395.632183 
L 189.148979 395.937969 
L 189.89165 393.840096 
L 190.63432 389.895236 
L 191.376991 378.340708 
L 192.119662 356.564462 
L 192.862332 376.716365 
L 193.605003 392.869254 
L 194.347674 394.543846 
L 195.090344 384.291165 
L 195.833015 378.323947 
L 196.575686 385.484986 
L 197.318356 383.018338 
L 198.061027 383.886802 
L 198.803698 386.885635 
L 199.546368 386.871365 
L 200.289039 387.530445 
L 201.031709 375.5052 
L 201.77438 367.948564 
L 202.517051 373.075658 
L 203.259721 386.027282 
L 204.002392 368.718353 
L 204.745063 381.252864 
L 205.487733 383.663742 
L 206.230404 380.6512 
L 206.973075 380.211238 
L 207.715745 383.45173 
L 208.458416 377.296925 
L 209.201087 373.200666 
L 209.943757 373.856257 
L 210.686428 378.276165 
L 211.429098 371.413862 
L 212.171769 361.14868 
L 212.91444 362.002498 
L 213.65711 389.167011 
L 214.399781 387.912846 
L 215.142452 374.191105 
L 215.885122 383.852012 
L 216.627793 378.399504 
L 217.370464 371.983855 
L 218.113134 383.637039 
L 218.855805 391.723067 
L 219.598476 386.330336 
L 220.341146 377.368114 
L 221.083817 383.141556 
L 221.826488 392.459102 
L 222.569158 388.57501 
L 223.311829 389.414371 
L 224.054499 388.684798 
L 224.79717 391.244388 
L 225.539841 387.565285 
L 226.282511 369.724033 
L 227.025182 384.278228 
L 227.767853 394.9488 
L 228.510523 391.544136 
L 229.253194 395.867967 
L 229.995865 392.119038 
L 230.738535 380.153596 
L 231.481206 380.032736 
L 232.223877 390.116547 
L 232.966547 378.975679 
L 233.709218 388.303226 
L 234.451888 393.227245 
L 235.194559 385.404762 
L 235.93723 381.019118 
L 236.6799 390.628615 
L 237.422571 375.907245 
L 238.165242 379.19281 
L 238.907912 378.603041 
L 239.650583 374.500808 
L 240.393254 390.412738 
L 241.135924 375.910327 
L 241.878595 368.12399 
L 242.621266 386.810196 
L 243.363936 392.804754 
L 244.106607 377.527206 
L 244.849277 374.55263 
L 245.591948 380.568496 
L 247.077289 360.811749 
L 247.81996 374.534732 
L 248.562631 381.135075 
L 249.305301 377.252829 
L 250.047972 375.699189 
L 250.790643 360.967882 
L 251.533313 363.494365 
L 252.275984 375.847175 
L 253.018655 381.366064 
L 253.761325 377.544854 
L 254.503996 365.762402 
L 255.246666 379.04536 
L 255.989337 389.635634 
L 256.732008 380.402591 
L 257.474678 374.950545 
L 258.217349 386.11109 
L 258.96002 378.518648 
L 259.70269 374.847695 
L 260.445361 375.002732 
L 261.188032 383.688487 
L 261.930702 368.767773 
L 262.673373 361.60981 
L 263.416044 358.730213 
L 264.158714 364.184411 
L 264.901385 367.554441 
L 265.644055 355.711572 
L 266.386726 353.453693 
L 267.129397 362.734012 
L 267.872067 360.834817 
L 268.614738 358.301272 
L 269.357409 364.770381 
L 270.100079 357.710844 
L 270.84275 348.483588 
L 271.585421 356.35158 
L 272.328091 359.637161 
L 273.070762 354.656243 
L 273.813433 355.187577 
L 274.556103 363.063573 
L 275.298774 361.343268 
L 276.041445 367.365723 
L 276.784115 359.299674 
L 277.526786 359.521794 
L 278.269456 344.896163 
L 279.012127 334.410626 
L 279.754798 334.110175 
L 280.497468 344.801802 
L 281.240139 334.090755 
L 281.98281 341.77562 
L 282.72548 341.457493 
L 283.468151 339.168499 
L 284.210822 331.451647 
L 284.953492 332.856033 
L 285.696163 319.254731 
L 287.181504 329.933213 
L 287.924175 327.204808 
L 288.666845 332.019243 
L 289.409516 343.822309 
L 290.152187 341.086885 
L 290.894857 337.355777 
L 291.637528 328.979785 
L 292.380199 334.014578 
L 293.122869 349.198977 
L 293.86554 357.822738 
L 295.350881 347.343432 
L 296.093552 339.798036 
L 296.836223 357.119917 
L 297.578893 348.357845 
L 298.321564 333.974483 
L 299.064234 338.881098 
L 299.806905 349.120886 
L 300.549576 334.848981 
L 301.292246 334.393676 
L 302.034917 362.014571 
L 302.777588 337.646831 
L 303.520258 329.604028 
L 304.262929 331.573904 
L 305.0056 344.823401 
L 305.74827 338.023837 
L 306.490941 326.935938 
L 307.233612 342.239756 
L 307.976282 347.116075 
L 308.718953 353.923879 
L 310.204294 330.287648 
L 310.946965 331.346667 
L 312.432306 349.077207 
L 313.174977 349.965355 
L 313.917647 349.934593 
L 314.660318 320.770028 
L 315.402989 339.546683 
L 316.145659 333.762395 
L 316.88833 352.72447 
L 317.631001 358.121588 
L 318.373671 359.36254 
L 319.116342 346.616268 
L 319.859012 353.792491 
L 320.601683 358.156377 
L 321.344354 361.041102 
L 322.087024 347.899539 
L 322.829695 343.660216 
L 323.572366 360.542317 
L 324.315036 364.388566 
L 325.057707 346.893806 
L 325.800378 360.441595 
L 326.543048 368.765351 
L 327.285719 367.473198 
L 328.02839 352.433832 
L 328.77106 361.060543 
L 329.513731 364.653859 
L 330.256402 361.371212 
L 330.999072 369.515249 
L 331.741743 368.941889 
L 332.484413 368.213818 
L 333.227084 366.700077 
L 333.969755 371.048889 
L 335.455096 323.88663 
L 336.197767 318.945936 
L 336.940437 359.715996 
L 337.683108 373.940895 
L 338.425779 376.44653 
L 339.168449 387.707586 
L 339.91112 372.664296 
L 340.653791 367.999882 
L 341.396461 374.656115 
L 342.139132 373.103308 
L 342.881802 367.411825 
L 343.624473 374.790106 
L 344.367144 363.046393 
L 345.109814 362.445743 
L 345.852485 366.37127 
L 346.595156 360.646367 
L 347.337826 351.742393 
L 348.080497 338.067649 
L 348.823168 342.414356 
L 349.565838 358.27267 
L 350.308509 345.003452 
L 351.79385 328.36636 
L 352.536521 333.649696 
L 353.279191 355.118176 
L 354.021862 350.691579 
L 354.764533 347.086481 
L 355.507203 338.702867 
L 356.249874 335.91397 
L 356.992545 326.753186 
L 357.735215 328.70448 
L 358.477886 352.578098 
L 359.220557 340.092634 
L 360.705898 343.482412 
L 361.448569 326.965478 
L 362.191239 341.997816 
L 362.93391 338.906683 
L 363.67658 350.468432 
L 364.419251 335.279146 
L 365.161922 344.185465 
L 365.904592 356.868921 
L 366.647263 371.721066 
L 368.132604 331.048822 
L 368.875275 352.644403 
L 369.617946 334.039211 
L 370.360616 339.161636 
L 371.845958 360.656054 
L 372.588628 355.555023 
L 373.331299 346.377271 
L 374.07397 348.597103 
L 374.81664 341.318111 
L 375.559311 330.867127 
L 376.301981 329.419882 
L 377.044652 340.936764 
L 377.787323 336.07685 
L 378.529993 342.342695 
L 379.272664 346.421272 
L 380.015335 351.687734 
L 380.758005 328.484577 
L 382.243347 329.729949 
L 382.986017 331.005235 
L 383.728688 342.641043 
L 384.471359 343.966356 
L 385.214029 353.583316 
L 386.69937 332.539733 
L 387.442041 336.331797 
L 388.927382 349.303578 
L 389.670053 360.169907 
L 390.412724 367.741723 
L 391.155394 345.910009 
L 391.898065 332.754008 
L 392.640736 348.477331 
L 393.383406 349.798656 
L 394.126077 347.11252 
L 394.868748 353.965178 
L 395.611418 358.856577 
L 396.354089 344.341201 
L 397.096759 357.426199 
L 397.83943 359.327906 
L 399.324771 367.859718 
L 400.067442 357.706824 
L 400.810113 369.897304 
L 402.295454 356.25072 
L 403.038125 368.998616 
L 403.780795 369.434169 
L 404.523466 361.848412 
L 405.266137 370.220155 
L 406.008807 355.540831 
L 406.751478 354.960829 
L 407.494148 372.516413 
L 408.97949 382.283116 
L 409.72216 374.581685 
L 410.464831 364.436885 
L 411.207502 381.321273 
L 411.950172 372.591131 
L 412.692843 361.648876 
L 413.435514 347.725843 
L 414.178184 356.885501 
L 414.920855 358.005222 
L 415.663526 346.447487 
L 416.406196 338.096443 
L 417.148867 358.469108 
L 417.891537 362.812602 
L 418.634208 354.850861 
L 419.376879 335.914591 
L 420.119549 339.250511 
L 420.86222 353.369747 
L 421.604891 351.605991 
L 422.347561 341.103214 
L 423.090232 318.783271 
L 423.832903 327.158783 
L 424.575573 323.335197 
L 425.318244 326.560745 
L 426.060915 335.267195 
L 426.803585 348.564447 
L 427.546256 328.376089 
L 428.288927 323.169666 
L 429.031597 329.111865 
L 430.516938 309.739188 
L 431.259609 309.232856 
L 432.00228 303.579206 
L 432.74495 304.426227 
L 433.487621 306.111787 
L 434.230292 303.146258 
L 435.715633 313.042802 
L 436.458304 323.469528 
L 437.200974 312.167867 
L 437.943645 297.556389 
L 438.686316 296.565268 
L 439.428986 297.860511 
L 440.171657 301.21604 
L 440.914327 321.559379 
L 441.656998 298.258021 
L 442.399669 295.581495 
L 443.142339 295.982678 
L 443.88501 295.208208 
L 444.627681 283.503249 
L 445.370351 274.243455 
L 446.113022 273.575972 
L 447.598363 273.591196 
L 448.341034 272.627292 
L 449.083705 266.809032 
L 449.826375 273.487334 
L 450.569046 263.955246 
L 451.311716 264.926822 
L 452.054387 261.283504 
L 452.797058 261.472592 
L 453.539728 261.384952 
L 454.282399 255.362334 
L 455.02507 252.807123 
L 455.76774 252.841428 
L 456.510411 252.632282 
L 457.995752 252.54951 
L 458.738423 255.225864 
L 459.481094 267.453718 
L 460.223764 267.538009 
L 460.966435 267.361862 
L 462.451776 266.395536 
L 463.194447 266.166037 
L 463.937117 266.186506 
L 464.679788 277.39783 
L 465.422459 280.449655 
L 466.165129 272.695787 
L 466.9078 271.025029 
L 467.650471 273.828557 
L 468.393141 284.993394 
L 469.878483 286.595199 
L 470.621153 286.195007 
L 471.363824 272.28555 
L 472.106495 271.816121 
L 472.849165 273.685445 
L 473.591836 273.768321 
L 474.334506 273.585401 
L 475.077177 273.663217 
L 475.819848 280.177606 
L 476.562518 273.575526 
L 477.305189 273.811147 
L 478.79053 273.705748 
L 480.275872 269.638671 
L 481.018542 270.996762 
L 481.761213 273.5945 
L 482.503884 273.8053 
L 483.246554 273.816195 
L 483.989225 273.631404 
L 484.731895 273.606931 
L 486.217237 273.746602 
L 486.959907 261.563313 
L 487.702578 261.305033 
L 489.187919 261.402958 
L 489.93059 252.576269 
L 491.415931 252.641097 
L 493.643943 252.639755 
L 495.871955 252.67574 
L 497.357296 252.510624 
L 498.099967 256.219167 
L 498.842638 266.767577 
L 499.585308 266.32629 
L 500.327979 265.61072 
L 501.07065 265.629647 
L 502.555991 266.700162 
L 503.298662 266.80493 
L 504.041332 272.305458 
L 504.784003 282.511683 
L 505.526673 286.966095 
L 506.269344 287.38674 
L 507.012015 287.292815 
L 508.497356 288.563417 
L 509.240027 289.807199 
L 509.982697 292.775264 
L 510.725368 307.995131 
L 511.468039 305.491806 
L 512.210709 304.815866 
L 512.95338 297.368343 
L 513.696051 296.488473 
L 515.181392 304.834639 
L 515.924062 317.907464 
L 516.666733 322.621095 
L 517.409404 321.5453 
L 518.152074 321.546724 
L 518.894745 321.808426 
L 519.637416 330.957756 
L 521.122757 330.786024 
L 521.865428 335.407069 
L 522.608098 326.253387 
L 523.350769 343.122252 
L 524.09344 338.664455 
L 524.83611 338.791691 
L 525.578781 352.567663 
L 526.321452 356.495435 
L 527.064122 351.341799 
L 527.806793 344.848038 
L 528.549463 347.663678 
L 529.292134 348.229873 
L 530.034805 355.601891 
L 530.777475 364.682329 
L 531.520146 347.116852 
L 532.262817 344.438665 
L 533.005487 332.130683 
L 533.748158 342.080759 
L 534.490829 345.386887 
L 535.233499 338.299384 
L 535.97617 344.876933 
L 536.718841 343.231104 
L 537.461511 340.477408 
L 538.204182 350.565202 
L 538.946852 352.353192 
L 539.689523 352.011207 
L 540.432194 348.665234 
L 541.174864 360.203906 
L 541.917535 357.742344 
L 542.660206 362.921142 
L 543.402876 364.242116 
L 544.145547 375.492709 
L 544.888218 372.900818 
L 545.630888 366.094443 
L 546.373559 355.990559 
L 547.11623 358.046502 
L 547.8589 363.735427 
L 548.601571 355.686955 
L 549.344241 352.480071 
L 550.086912 364.877049 
L 550.829583 353.495893 
L 551.572253 345.84561 
L 552.314924 365.254574 
L 553.800265 374.883946 
L 554.542936 352.922982 
L 555.285607 367.722617 
L 556.028277 365.682454 
L 556.770948 366.668522 
L 557.513619 365.871999 
L 558.256289 368.701091 
L 558.99896 365.911377 
L 559.74163 351.524958 
L 560.484301 356.076646 
L 561.226972 354.396898 
L 561.969642 376.473621 
L 562.712313 367.507063 
L 563.454984 343.706804 
L 564.197654 350.352552 
L 564.940325 366.588404 
L 565.682996 368.068272 
L 566.425666 366.281023 
L 567.168337 349.561255 
L 567.911008 348.510328 
L 568.653678 323.170475 
L 569.396349 309.520992 
L 570.13902 338.525979 
L 570.88169 336.716017 
L 571.624361 351.436404 
L 572.367031 352.617784 
L 573.109702 333.704119 
L 573.852373 341.259021 
L 574.595043 341.167689 
L 575.337714 346.41908 
L 576.080385 341.86554 
L 577.565726 368.169022 
L 578.308397 355.789323 
L 579.051067 329.750776 
L 579.793738 321.514492 
L 580.536409 325.755085 
L 581.279079 326.165274 
L 582.02175 346.069214 
L 582.76442 358.925729 
L 583.507091 345.836338 
L 584.249762 339.293494 
L 584.992432 323.628302 
L 585.735103 329.944115 
L 586.477774 352.438865 
L 587.220444 334.154731 
L 587.963115 327.873208 
L 588.705786 344.14451 
L 589.448456 333.153865 
L 590.191127 343.374245 
L 590.933798 330.570968 
L 591.676468 336.446377 
L 592.419139 355.502834 
L 593.161809 356.117602 
L 593.90448 367.522139 
L 594.647151 357.012873 
L 595.389821 359.834793 
L 596.132492 350.326561 
L 596.875163 337.279786 
L 597.617833 356.992164 
L 598.360504 359.134474 
L 599.103175 371.578489 
L 599.845845 360.834113 
L 600.588516 361.439322 
L 601.331187 362.759284 
L 602.073857 369.227941 
L 602.816528 357.068674 
L 603.559198 359.104083 
L 604.301869 373.520446 
L 605.04454 378.83264 
L 605.78721 376.278876 
L 606.529881 371.060145 
L 607.272552 375.450473 
L 608.015222 370.845481 
L 608.757893 369.935412 
L 609.500564 368.611176 
L 610.243234 372.165381 
L 610.985905 367.830887 
L 611.728576 369.118531 
L 612.471246 372.721995 
L 613.956587 365.698664 
L 614.699258 365.339939 
L 616.184599 371.486537 
L 617.669941 360.341011 
L 618.412611 371.32764 
L 619.155282 376.637812 
L 619.897953 371.592781 
L 620.640623 364.654981 
L 621.383294 372.148832 
L 622.125965 376.871295 
L 623.611306 372.434433 
L 624.353977 365.13378 
L 625.096647 359.080569 
L 626.581988 376.331926 
L 627.324659 370.51441 
L 628.06733 377.547027 
L 628.81 382.451476 
L 629.552671 376.826654 
L 630.295342 389.123687 
L 631.038012 385.645181 
L 631.780683 372.192851 
L 632.523354 367.782753 
L 634.008695 383.025497 
L 635.494036 367.300704 
L 636.236707 371.946735 
L 636.979377 374.987981 
L 637.722048 367.08323 
L 638.464719 378.229704 
L 639.207389 372.650034 
L 639.95006 386.697583 
L 640.692731 372.338062 
L 641.435401 378.957349 
L 642.178072 377.179622 
L 642.920743 376.784822 
L 643.663413 380.166099 
L 644.406084 392.134472 
L 645.148755 379.807637 
L 645.891425 378.940235 
L 646.634096 381.962438 
L 647.376766 392.425928 
L 648.119437 380.855487 
L 648.862108 392.272027 
L 650.347449 375.295439 
L 651.09012 344.007415 
L 652.575461 381.462671 
L 653.318132 382.81375 
L 654.060802 355.674852 
L 654.803473 379.058089 
L 655.546144 384.138398 
L 656.288814 364.642905 
L 657.031485 366.227317 
L 657.774155 354.223311 
L 658.516826 360.81465 
L 659.259497 355.722052 
L 660.002167 366.693907 
L 660.744838 351.723272 
L 661.487509 348.844771 
L 662.230179 343.124115 
L 662.97285 328.861922 
L 663.715521 326.440282 
L 665.200862 310.99405 
L 665.943533 330.145087 
L 666.686203 333.546574 
L 667.428874 333.056454 
L 668.171544 347.916865 
L 668.914215 356.775787 
L 669.656886 342.547359 
L 670.399556 341.333958 
L 671.142227 338.551012 
L 671.884898 351.17887 
L 672.627568 357.875392 
L 673.370239 356.846079 
L 674.11291 356.97191 
L 674.85558 362.433846 
L 675.598251 358.861922 
L 676.340922 348.885065 
L 677.083592 353.205602 
L 677.826263 350.402451 
L 678.568934 345.582264 
L 679.311604 342.893834 
L 680.054275 347.589713 
L 680.796945 342.248759 
L 681.539616 352.914875 
L 682.282287 356.23291 
L 683.024957 363.270519 
L 683.767628 369.237786 
L 684.510299 352.904176 
L 685.252969 352.846534 
L 685.99564 361.235577 
L 686.738311 364.472341 
L 687.480981 368.371017 
L 688.223652 369.190631 
L 688.966323 350.543359 
L 689.708993 353.501924 
L 690.451664 357.753516 
L 691.194334 333.216326 
L 691.937005 347.120921 
L 692.679676 373.206289 
L 693.422346 369.283415 
L 694.165017 349.910695 
L 694.907688 351.742881 
L 695.650358 379.273019 
L 696.393029 360.436414 
L 697.1357 363.491813 
L 697.87837 373.517196 
L 698.621041 376.108945 
L 699.363712 381.706261 
L 700.106382 381.754975 
L 700.849053 363.433328 
L 701.591723 374.881217 
L 702.334394 382.950677 
L 703.077065 380.061002 
L 704.562406 366.172758 
L 705.305077 379.864226 
L 706.047747 380.940153 
L 706.790418 372.541932 
L 707.533089 358.962685 
L 708.275759 366.564546 
L 709.01843 380.337141 
L 709.761101 363.303242 
L 710.503771 363.897214 
L 711.246442 381.037588 
L 711.989112 367.892994 
L 713.474454 347.120305 
L 714.217124 356.437932 
L 714.959795 371.960037 
L 715.702466 372.203339 
L 716.445136 367.164317 
L 717.187807 372.678906 
L 717.930478 370.188063 
L 718.673148 353.645239 
L 719.415819 360.789436 
L 720.15849 363.510981 
L 720.90116 355.500039 
L 721.643831 371.381026 
L 722.386502 365.156216 
L 723.129172 353.566548 
L 723.871843 352.728501 
L 724.614513 343.01732 
L 726.099855 383.147754 
L 726.842525 376.636626 
L 727.585196 365.041232 
L 729.813208 297.443543 
L 730.555879 294.745482 
L 731.298549 294.09307 
L 732.04122 293.07132 
L 732.783891 278.579628 
L 733.526561 273.983584 
L 734.269232 274.488714 
L 735.754573 281.032548 
L 736.497244 281.956921 
L 737.239914 276.861875 
L 737.982585 266.867981 
L 738.725256 275.752791 
L 739.467926 274.825876 
L 740.210597 277.062077 
L 740.953268 284.615323 
L 741.695938 285.362292 
L 742.438609 288.384413 
L 743.18128 282.467751 
L 743.92395 266.288324 
L 744.666621 282.079108 
L 745.409291 285.390294 
L 746.151962 285.591358 
L 746.894633 285.260712 
L 747.637303 286.077859 
L 748.379974 287.311347 
L 749.122645 289.333872 
L 749.865315 292.093516 
L 750.607986 295.378066 
L 751.350657 295.714695 
L 752.093327 300.800176 
L 752.835998 295.413134 
L 753.578669 295.989031 
L 754.321339 307.706292 
L 755.06401 308.810089 
L 755.80668 311.938288 
L 756.549351 312.363947 
L 758.034692 311.57099 
L 758.777363 311.507881 
L 759.520034 313.371766 
L 761.005375 356.219714 
L 761.748046 365.948008 
L 762.490716 357.879379 
L 763.233387 341.943925 
L 763.976058 364.290614 
L 764.718728 377.095039 
L 765.461399 375.920948 
L 766.204069 370.328949 
L 766.94674 367.316257 
L 767.689411 362.466944 
L 768.432081 373.207834 
L 769.174752 368.509752 
L 769.917423 352.221558 
L 770.660093 369.396512 
L 771.402764 378.041015 
L 772.145435 373.594303 
L 772.888105 367.084226 
L 773.630776 366.783699 
L 774.373447 364.712767 
L 775.116117 364.176428 
L 775.858788 370.535409 
L 776.601459 361.415057 
L 777.344129 375.940743 
L 778.0868 373.056849 
L 778.82947 371.706404 
L 779.572141 374.072812 
L 780.314812 371.463548 
L 781.057482 367.791478 
L 781.800153 372.273387 
L 782.542824 380.422569 
L 783.285494 369.99017 
L 784.028165 382.167892 
L 785.513506 351.485547 
L 786.256177 347.543577 
L 786.998848 356.534477 
L 787.741518 341.864264 
L 788.484189 353.200306 
L 789.226859 341.99072 
L 790.712201 331.942276 
L 791.454871 337.484233 
L 792.197542 358.752565 
L 792.940213 368.363139 
L 793.682883 359.939748 
L 794.425554 341.078714 
L 795.168225 345.435396 
L 795.910895 344.930922 
L 796.653566 333.236174 
L 797.396237 339.332463 
L 798.138907 339.299932 
L 798.881578 359.050003 
L 799.624248 353.141962 
L 799.624248 353.141962 
" clip-path="url(#p5b971fbd69)" style="fill: none; stroke: #1f77b4; stroke-width: 1.5; stroke-linecap: square"/>
   </g>
   <g id="line2d_12">
    <path d="M 122.308621 158.357521 
L 123.051292 177.890596 
L 123.793963 179.146294 
L 124.536633 164.147683 
L 125.279304 215.003439 
L 126.021974 216.607942 
L 126.764645 173.007328 
L 127.507316 213.189654 
L 128.249986 209.980648 
L 128.992657 167.914776 
L 129.735328 213.050132 
L 130.477998 188.494266 
L 131.220669 183.750519 
L 131.96334 219.258859 
L 132.70601 238.303607 
L 133.448681 248.558472 
L 134.191352 227.420894 
L 134.934022 226.514001 
L 135.676693 239.838349 
L 136.419363 230.350855 
L 137.162034 252.813892 
L 137.904705 238.582651 
L 138.647375 244.024008 
L 139.390046 264.04541 
L 140.132717 277.997606 
L 140.875387 276.183821 
L 142.360729 299.972316 
L 143.103399 294.251915 
L 143.84607 300.600165 
L 145.331411 317.831128 
L 146.074082 290.136017 
L 146.816752 245.000662 
L 147.559423 241.721895 
L 148.302094 265.370869 
L 149.044764 258.185487 
L 149.787435 275.486211 
L 150.530106 272.486489 
L 151.272776 310.645746 
L 152.015447 322.99344 
L 152.758118 339.387271 
L 153.500788 335.899222 
L 154.243459 318.458976 
L 154.98613 331.853085 
L 155.7288 325.225792 
L 156.471471 323.342245 
L 157.214141 348.874765 
L 157.956812 366.105728 
L 158.699483 366.384772 
L 159.442153 362.687439 
L 160.184824 360.524849 
L 160.927495 351.107116 
L 161.670165 332.969261 
L 162.412836 346.781935 
L 163.155507 365.826684 
L 163.898177 360.943415 
L 164.640848 371.826128 
L 165.383519 369.384494 
L 166.126189 353.967317 
L 166.86886 358.43202 
L 167.61153 364.919791 
L 168.354201 366.524294 
L 169.096872 379.360314 
L 169.839542 380.685773 
L 170.582213 372.244694 
L 171.324884 378.174378 
L 172.067554 373.988719 
L 172.810225 377.895334 
L 174.295566 391.638247 
L 175.038237 394.428687 
L 175.780908 388.499003 
L 176.523578 384.0343 
L 177.266249 391.708008 
L 178.00892 390.731354 
L 178.75159 374.756089 
L 179.494261 373.36087 
L 180.236931 380.336968 
L 180.979602 382.639081 
L 181.722273 392.824184 
L 182.464943 394.777491 
L 183.207614 395.40534 
L 183.950285 394.568209 
L 184.692955 389.68494 
L 185.435626 382.56932 
L 186.178297 388.98733 
L 186.920967 390.591833 
L 187.663638 385.569042 
L 188.406309 394.707731 
L 189.148979 394.358926 
L 189.89165 392.196335 
L 190.63432 388.219959 
L 191.376991 378.383661 
L 192.119662 358.083215 
L 192.862332 373.430631 
L 193.605003 383.894778 
L 194.347674 389.196613 
L 195.090344 379.639358 
L 195.833015 378.662704 
L 196.575686 380.267207 
L 197.318356 383.406451 
L 198.061027 382.56932 
L 198.803698 382.220515 
L 199.546368 385.150476 
L 200.289039 384.941193 
L 201.031709 373.918958 
L 201.77438 367.919513 
L 202.517051 369.175211 
L 203.259721 376.848919 
L 204.002392 369.10545 
L 204.745063 381.1741 
L 205.487733 383.964539 
L 206.230404 374.616567 
L 206.973075 375.383938 
L 207.715745 378.941748 
L 208.458416 377.197724 
L 209.201087 368.547362 
L 209.943757 373.849197 
L 210.686428 375.872265 
L 212.171769 350.479267 
L 212.91444 363.036244 
L 213.65711 389.405896 
L 214.399781 388.568764 
L 215.142452 374.477046 
L 215.885122 376.011787 
L 216.627793 369.942582 
L 217.370464 361.780547 
L 218.113134 383.755256 
L 218.855805 386.406174 
L 219.598476 383.057646 
L 220.341146 375.244416 
L 221.083817 381.104339 
L 221.826488 390.522072 
L 222.569158 381.941471 
L 223.311829 381.453144 
L 224.054499 387.034022 
L 224.79717 390.522072 
L 225.539841 387.661871 
L 226.282511 369.872821 
L 227.767853 389.68494 
L 228.510523 390.452311 
L 229.253194 393.452033 
L 229.995865 379.848641 
L 230.738535 375.035133 
L 231.481206 379.988163 
L 232.223877 381.801949 
L 232.966547 378.871987 
L 233.709218 386.545696 
L 234.451888 385.917847 
L 235.194559 385.708564 
L 235.93723 381.034578 
L 236.6799 384.383105 
L 237.422571 376.081548 
L 238.165242 377.825573 
L 238.907912 378.383661 
L 239.650583 374.407285 
L 240.393254 376.91868 
L 241.135924 375.802504 
L 241.878595 359.687717 
L 242.621266 385.569042 
L 244.849277 374.546807 
L 245.591948 371.128518 
L 246.334619 360.106283 
L 247.077289 352.223292 
L 248.562631 377.407007 
L 249.305301 377.337246 
L 250.047972 367.989274 
L 250.790643 362.268874 
L 251.533313 363.594332 
L 252.275984 367.989274 
L 253.018655 376.639636 
L 253.761325 363.245527 
L 254.503996 355.502058 
L 255.246666 379.220792 
L 255.989337 382.080993 
L 256.732008 378.941748 
L 257.474678 366.175489 
L 258.217349 385.638803 
L 258.96002 378.383661 
L 259.70269 365.826684 
L 260.445361 375.314177 
L 261.188032 379.360314 
L 261.930702 368.756645 
L 262.673373 361.29222 
L 263.416044 345.386716 
L 264.158714 355.292775 
L 264.901385 358.850585 
L 265.644055 355.850863 
L 266.386726 335.689939 
L 267.129397 352.572097 
L 267.872067 352.78138 
L 268.614738 341.898667 
L 269.357409 340.503447 
L 270.100079 323.830572 
L 270.84275 342.10795 
L 272.328091 355.432297 
L 273.070762 347.200501 
L 273.813433 341.619623 
L 274.556103 360.455088 
L 275.298774 361.501503 
L 276.041445 356.478712 
L 276.784115 326.55125 
L 277.526786 332.341412 
L 278.269456 345.177433 
L 279.012127 323.272484 
L 279.754798 336.666593 
L 280.497468 339.875598 
L 281.240139 336.875876 
L 281.98281 327.109338 
L 282.72548 319.296108 
L 283.468151 324.38866 
L 284.210822 308.134351 
L 284.953492 310.645746 
L 285.696163 318.179932 
L 286.438834 327.806948 
L 287.181504 317.482323 
L 287.924175 296.833072 
L 288.666845 302.692994 
L 289.409516 316.226625 
L 290.152187 305.483434 
L 290.894857 302.274428 
L 291.637528 250.790823 
L 293.122869 315.249971 
L 293.86554 312.040966 
L 294.608211 311.761922 
L 295.350881 318.319454 
L 296.093552 283.090158 
L 296.836223 325.574597 
L 297.578893 316.017342 
L 298.321564 317.831128 
L 299.064234 339.177988 
L 299.806905 327.667426 
L 300.549576 293.763589 
L 301.292246 318.947303 
L 302.034917 336.875876 
L 302.777588 315.947581 
L 303.520258 276.183821 
L 304.262929 300.042077 
L 305.0056 309.45981 
L 305.74827 328.64408 
L 306.490941 294.182154 
L 307.233612 275.486211 
L 307.976282 319.226347 
L 308.718953 338.550139 
L 309.461623 319.644913 
L 310.204294 272.765533 
L 310.946965 286.368924 
L 311.689635 323.412006 
L 312.432306 339.177988 
L 313.174977 325.295553 
L 313.917647 323.551528 
L 314.660318 318.807781 
L 315.402989 312.947859 
L 316.145659 302.623233 
L 316.88833 318.458976 
L 317.631001 325.435075 
L 318.373671 323.342245 
L 319.116342 326.969816 
L 319.859012 321.667982 
L 320.601683 341.828906 
L 321.344354 316.435908 
L 322.087024 316.087103 
L 322.829695 323.272484 
L 323.572366 335.899222 
L 324.315036 353.548751 
L 325.057707 325.504836 
L 325.800378 323.970094 
L 326.543048 354.595165 
L 327.285719 352.293053 
L 328.02839 334.713285 
L 328.77106 360.803893 
L 329.513731 343.084603 
L 330.256402 347.82835 
L 330.999072 358.152976 
L 331.741743 363.733854 
L 332.484413 355.223014 
L 333.227084 366.315011 
L 333.969755 364.291942 
L 334.712425 331.364758 
L 335.455096 308.204112 
L 336.197767 315.110449 
L 336.940437 353.339468 
L 337.683108 366.454533 
L 338.425779 376.430353 
L 339.168449 377.127963 
L 339.91112 372.105172 
L 340.653791 361.780547 
L 341.396461 371.616845 
L 342.139132 367.500947 
L 342.881802 355.362536 
L 343.624473 365.826684 
L 344.367144 362.826961 
L 345.109814 353.827795 
L 345.852485 357.246083 
L 346.595156 359.269151 
L 347.337826 340.922013 
L 348.080497 334.434241 
L 348.823168 341.898667 
L 349.565838 338.480378 
L 350.308509 322.99344 
L 351.05118 320.900611 
L 351.79385 313.226903 
L 352.536521 332.829739 
L 353.279191 319.505391 
L 354.021862 328.992885 
L 354.764533 310.92479 
L 355.507203 299.902555 
L 356.249874 281.415895 
L 356.992545 304.088214 
L 357.735215 331.155475 
L 358.477886 324.249138 
L 359.220557 312.529293 
L 359.963227 324.179377 
L 360.705898 324.109616 
L 361.448569 324.737465 
L 362.191239 324.38866 
L 362.93391 339.736076 
L 363.67658 331.783324 
L 364.419251 318.877542 
L 365.161922 309.390049 
L 365.904592 356.967039 
L 366.647263 361.29222 
L 367.389934 349.781658 
L 368.132604 334.085437 
L 368.875275 339.666315 
L 369.617946 336.45731 
L 370.360616 339.247749 
L 371.103287 330.388104 
L 371.845958 360.176044 
L 372.588628 355.292775 
L 373.331299 346.572652 
L 374.07397 345.247194 
L 374.81664 310.296941 
L 375.559311 328.992885 
L 376.301981 332.341412 
L 377.044652 341.131296 
L 377.787323 311.203834 
L 378.529993 303.390604 
L 379.272664 321.737743 
L 380.015335 325.225792 
L 380.758005 317.203279 
L 381.500676 322.016787 
L 382.243347 292.856696 
L 382.986017 296.902833 
L 383.728688 309.45981 
L 384.471359 316.924235 
L 385.214029 319.086825 
L 385.9567 303.320843 
L 386.69937 306.66937 
L 387.442041 330.388104 
L 388.184712 333.248305 
L 388.927382 321.877265 
L 389.670053 357.804171 
L 390.412724 343.782213 
L 391.155394 326.900055 
L 391.898065 323.132962 
L 392.640736 338.410617 
L 393.383406 318.249693 
L 394.126077 320.412284 
L 394.868748 337.85253 
L 395.611418 328.504558 
L 396.354089 331.225236 
L 397.096759 337.364203 
L 397.83943 328.085992 
L 398.582101 348.595721 
L 399.324771 355.292775 
L 400.067442 357.594888 
L 400.810113 359.129629 
L 401.552783 351.455921 
L 402.295454 341.201057 
L 403.038125 360.734132 
L 403.780795 367.640469 
L 404.523466 361.920069 
L 405.266137 369.942582 
L 406.008807 355.920624 
L 406.751478 354.94397 
L 407.494148 366.803337 
L 408.236819 373.570153 
L 408.97949 372.035411 
L 409.72216 371.895889 
L 410.464831 364.501225 
L 411.207502 370.570431 
L 411.950172 372.872543 
L 412.692843 361.361981 
L 413.435514 330.0393 
L 414.178184 353.060424 
L 414.920855 348.944526 
L 415.663526 334.504002 
L 416.406196 316.784713 
L 417.148867 324.458421 
L 417.891537 335.620178 
L 418.634208 343.363647 
L 419.376879 329.062646 
L 420.86222 348.246916 
L 421.604891 331.225236 
L 422.347561 336.806115 
L 423.090232 322.156309 
L 423.832903 327.458143 
L 424.575573 302.344189 
L 425.318244 296.763311 
L 426.060915 310.92479 
L 426.803585 295.647135 
L 427.546256 315.319732 
L 428.288927 306.111282 
L 429.031597 286.299163 
L 429.774268 270.672703 
L 430.516938 262.929234 
L 431.259609 288.740798 
L 432.00228 286.368924 
L 432.74495 270.393659 
L 433.487621 272.277206 
L 434.230292 253.581263 
L 434.972962 242.000939 
L 435.715633 276.602387 
L 436.458304 276.741909 
L 437.200974 280.160197 
L 437.943645 258.115726 
L 438.686316 246.674925 
L 439.428986 241.861417 
L 440.171657 241.163808 
L 440.914327 251.139628 
L 441.656998 256.720507 
L 442.399669 249.953691 
L 443.142339 250.162974 
L 444.627681 179.56486 
L 445.370351 157.869194 
L 446.113022 140.917275 
L 446.855693 150.823335 
L 447.598363 149.358354 
L 448.341034 182.006494 
L 449.083705 184.308607 
L 449.826375 185.843348 
L 450.569046 184.308607 
L 451.311716 184.169085 
L 452.054387 179.843904 
L 452.797058 150.055964 
L 453.539728 130.522889 
L 454.282399 129.755518 
L 455.02507 129.89504 
L 456.510411 81.480918 
L 457.253082 78.06263 
L 457.995752 78.690479 
L 458.738423 83.852792 
L 459.481094 91.666022 
L 460.223764 94.665744 
L 460.966435 112.385034 
L 461.709105 141.754407 
L 462.451776 133.243567 
L 463.194447 132.75524 
L 463.937117 134.499265 
L 464.679788 139.522056 
L 465.422459 143.289149 
L 466.165129 145.591261 
L 466.9078 142.452017 
L 467.650471 149.07931 
L 468.393141 170.35641 
L 469.135812 165.612663 
L 469.878483 179.076533 
L 470.621153 158.915609 
L 471.363824 146.707437 
L 472.106495 155.148516 
L 472.849165 169.100712 
L 473.591836 177.890596 
L 474.334506 175.169918 
L 475.077177 161.84557 
L 475.819848 170.705215 
L 476.562518 200.004828 
L 477.305189 196.58654 
L 478.04786 179.913665 
L 478.79053 169.449517 
L 479.533201 156.264692 
L 480.275872 161.706048 
L 481.018542 175.239679 
L 482.503884 179.425338 
L 483.246554 194.284427 
L 483.989225 179.216055 
L 484.731895 177.402269 
L 485.474566 159.055131 
L 486.217237 144.82389 
L 486.959907 128.290538 
L 487.702578 148.590984 
L 488.445249 106.385589 
L 489.187919 79.178806 
L 489.93059 77.713825 
L 491.415931 77.644064 
L 492.158602 77.504542 
L 492.901273 77.783586 
L 493.643943 89.084865 
L 494.386614 114.477863 
L 495.129284 121.174917 
L 495.871955 122.151571 
L 496.614626 128.988147 
L 497.357296 142.940344 
L 498.099967 143.986759 
L 498.842638 145.312217 
L 499.585308 144.82389 
L 501.07065 164.426727 
L 502.555991 178.86725 
L 503.298662 177.890596 
L 504.041332 180.122948 
L 504.784003 196.935345 
L 505.526673 200.14435 
L 506.269344 214.515112 
L 507.012015 219.886708 
L 507.754685 245.000662 
L 508.497356 246.116837 
L 509.240027 218.700771 
L 509.982697 219.119337 
L 510.725368 216.956747 
L 511.468039 223.374757 
L 512.210709 242.559027 
L 512.95338 267.114893 
L 513.696051 270.533181 
L 515.181392 249.604887 
L 515.924062 262.510668 
L 516.666733 247.791101 
L 517.409404 279.67187 
L 518.152074 299.902555 
L 518.894745 302.204667 
L 519.637416 270.393659 
L 520.380086 321.109894 
L 521.122757 301.158253 
L 521.865428 311.482878 
L 522.608098 300.460643 
L 523.350769 314.761644 
L 524.09344 313.645469 
L 524.83611 303.11156 
L 525.578781 331.155475 
L 526.321452 349.711897 
L 527.064122 336.45731 
L 527.806793 328.016231 
L 528.549463 314.064035 
L 529.292134 329.481212 
L 530.034805 339.038466 
L 530.777475 337.782769 
L 531.520146 333.108783 
L 532.262817 341.898667 
L 533.005487 318.807781 
L 533.748158 314.343078 
L 534.490829 346.43313 
L 535.233499 321.040133 
L 535.97617 316.296386 
L 536.718841 336.038744 
L 537.461511 326.132685 
L 538.204182 332.132129 
L 539.689523 321.319177 
L 540.432194 300.669926 
L 541.917535 354.734687 
L 542.660206 355.64158 
L 543.402876 359.687717 
L 544.145547 367.919513 
L 544.888218 368.268318 
L 545.630888 355.013731 
L 546.373559 355.781102 
L 547.11623 358.013454 
L 547.8589 363.524571 
L 548.601571 337.573486 
L 549.344241 326.202446 
L 550.086912 351.316399 
L 550.829583 353.688273 
L 551.572253 347.479545 
L 552.314924 355.990385 
L 553.057595 370.151865 
L 553.800265 372.314455 
L 554.542936 343.014842 
L 555.285607 351.525682 
L 556.028277 365.198835 
L 556.770948 357.873932 
L 557.513619 359.19939 
L 558.256289 359.059868 
L 558.99896 358.711063 
L 559.74163 332.411173 
L 560.484301 344.410062 
L 561.226972 349.990941 
L 561.969642 368.547362 
L 562.712313 347.340023 
L 563.454984 322.226069 
L 564.197654 333.666871 
L 564.940325 358.292498 
L 565.682996 355.502058 
L 566.425666 347.898111 
L 567.168337 324.528182 
L 568.653678 295.577374 
L 569.396349 295.786657 
L 570.13902 312.668815 
L 570.88169 283.92729 
L 571.624361 292.786935 
L 572.367031 344.549584 
L 573.109702 329.271929 
L 573.852373 322.644635 
L 574.595043 312.389771 
L 575.337714 343.084603 
L 576.080385 330.667148 
L 576.823055 339.526793 
L 577.565726 346.154087 
L 578.308397 355.64158 
L 579.051067 331.992607 
L 579.793738 324.737465 
L 580.536409 327.318621 
L 581.279079 328.64408 
L 582.02175 338.6199 
L 582.76442 340.922013 
L 583.507091 331.085714 
L 584.249762 311.064312 
L 584.992432 316.366147 
L 585.735103 331.853085 
L 586.477774 334.085437 
L 587.220444 334.36448 
L 587.963115 328.923124 
L 588.705786 319.086825 
L 589.448456 301.925624 
L 590.933798 309.948137 
L 591.676468 305.134629 
L 592.419139 322.923679 
L 593.161809 346.851696 
L 593.90448 342.386993 
L 594.647151 333.108783 
L 595.389821 326.830294 
L 596.132492 332.690217 
L 596.875163 339.736076 
L 597.617833 353.199946 
L 598.360504 341.41034 
L 599.103175 345.177433 
L 599.845845 352.851141 
L 600.588516 332.550695 
L 601.331187 363.245527 
L 602.073857 357.455366 
L 602.816528 336.248027 
L 603.559198 322.574874 
L 604.301869 363.733854 
L 605.04454 372.035411 
L 605.78721 365.059313 
L 606.529881 362.338635 
L 607.272552 367.152142 
L 608.015222 367.082381 
L 608.757893 362.7572 
L 609.500564 361.98983 
L 610.243234 372.314455 
L 610.985905 363.45481 
L 611.728576 366.524294 
L 612.471246 358.083215 
L 613.213917 355.153253 
L 613.956587 353.758034 
L 614.699258 357.73441 
L 615.441929 363.385049 
L 616.184599 359.966761 
L 616.92727 362.478157 
L 617.669941 345.247194 
L 618.412611 360.176044 
L 619.155282 368.059035 
L 619.897953 363.315288 
L 620.640623 357.0368 
L 621.383294 360.943415 
L 622.125965 376.779158 
L 622.868635 368.477601 
L 623.611306 362.547917 
L 624.353977 361.501503 
L 625.096647 354.525404 
L 625.839318 334.224959 
L 626.581988 363.733854 
L 627.324659 366.803337 
L 628.06733 374.198002 
L 628.81 380.47649 
L 629.552671 369.10545 
L 630.295342 388.28972 
L 631.038012 381.941471 
L 632.523354 361.780547 
L 633.266024 376.081548 
L 634.008695 378.174378 
L 634.751366 370.988996 
L 635.494036 367.361425 
L 636.236707 370.919235 
L 636.979377 368.617123 
L 637.722048 364.570986 
L 638.464719 374.686328 
L 639.207389 372.66326 
L 639.95006 383.476212 
L 640.692731 354.1766 
L 641.435401 368.198557 
L 642.178072 371.826128 
L 642.920743 370.361148 
L 643.663413 380.057924 
L 644.406084 392.614901 
L 645.148755 379.709119 
L 645.891425 378.662704 
L 646.634096 382.708841 
L 647.376766 388.568764 
L 648.119437 381.243861 
L 648.862108 390.312789 
L 650.347449 366.524294 
L 651.09012 344.479823 
L 651.83279 362.687439 
L 652.575461 370.919235 
L 653.318132 373.291109 
L 654.060802 355.850863 
L 654.803473 369.384494 
L 655.546144 377.058202 
L 656.288814 364.501225 
L 657.031485 358.362259 
L 657.774155 354.246361 
L 658.516826 361.082937 
L 659.259497 355.571819 
L 660.002167 355.153253 
L 660.744838 332.759978 
L 661.487509 328.155753 
L 662.230179 328.016231 
L 662.97285 285.880598 
L 663.715521 303.181321 
L 664.458191 303.041799 
L 665.200862 311.6224 
L 665.943533 289.229125 
L 666.686203 283.090158 
L 667.428874 316.714952 
L 668.171544 329.271929 
L 668.914215 330.946192 
L 669.656886 286.78749 
L 670.399556 302.553472 
L 671.142227 333.318066 
L 671.884898 325.714119 
L 672.627568 342.386993 
L 673.370239 324.528182 
L 674.11291 334.224959 
L 674.85558 323.412006 
L 675.598251 343.57293 
L 676.340922 324.458421 
L 677.083592 323.830572 
L 677.826263 335.968983 
L 678.568934 330.80667 
L 679.311604 318.179932 
L 680.054275 320.13324 
L 680.796945 328.992885 
L 681.539616 323.063201 
L 682.282287 348.177155 
L 683.024957 351.316399 
L 683.767628 332.411173 
L 684.510299 321.040133 
L 685.252969 314.622122 
L 685.99564 336.387549 
L 686.738311 340.084881 
L 687.480981 357.664649 
L 688.223652 350.618789 
L 688.966323 326.55125 
L 689.708993 321.598221 
L 690.451664 346.781935 
L 691.194334 324.597943 
L 691.937005 346.921457 
L 692.679676 357.455366 
L 693.422346 345.875043 
L 694.165017 336.038744 
L 694.907688 351.38616 
L 695.650358 364.431464 
L 696.393029 353.409229 
L 697.1357 335.899222 
L 697.87837 370.988996 
L 698.621041 371.128518 
L 699.363712 375.872265 
L 700.106382 374.82585 
L 700.849053 363.664093 
L 701.591723 374.895611 
L 702.334394 378.802226 
L 703.077065 369.593777 
L 703.819735 370.50067 
L 704.562406 365.826684 
L 705.305077 374.128241 
L 706.047747 379.151031 
L 706.790418 372.802782 
L 707.533089 359.129629 
L 708.275759 366.105728 
L 709.01843 374.337524 
L 709.761101 363.036244 
L 710.503771 359.129629 
L 711.246442 375.314177 
L 711.989112 367.779991 
L 713.474454 344.689106 
L 714.217124 350.68855 
L 715.702466 372.244694 
L 716.445136 367.361425 
L 717.187807 372.872543 
L 718.673148 346.223848 
L 719.415819 355.64158 
L 720.15849 357.594888 
L 721.643831 352.990663 
L 722.386502 365.129074 
L 723.129172 353.269707 
L 723.871843 339.177988 
L 724.614513 335.968983 
L 725.357184 360.873654 
L 726.099855 359.19939 
L 726.842525 356.129907 
L 728.327867 342.526515 
L 729.813208 301.088492 
L 730.555879 291.600998 
L 731.298549 286.717729 
L 732.04122 272.765533 
L 732.783891 241.442852 
L 733.526561 238.164085 
L 734.269232 238.024563 
L 735.011902 239.140739 
L 735.754573 237.466476 
L 736.497244 214.305829 
L 737.239914 173.077088 
L 737.982585 172.170196 
L 738.725256 191.703271 
L 739.467926 189.261636 
L 740.210597 182.006494 
L 740.953268 196.656301 
L 742.438609 202.655745 
L 743.18128 209.631843 
L 743.92395 226.44424 
L 744.666621 198.74913 
L 745.409291 197.911998 
L 746.151962 197.911998 
L 746.894633 199.307218 
L 747.637303 203.074311 
L 748.379974 199.167696 
L 749.865315 195.819169 
L 750.607986 220.444796 
L 751.350657 256.23218 
L 752.093327 275.555972 
L 752.835998 275.904777 
L 753.578669 274.300274 
L 754.321339 265.928956 
L 755.06401 245.768032 
L 755.80668 268.091547 
L 756.549351 284.415617 
L 757.292022 287.4851 
L 758.034692 285.252749 
L 758.777363 284.834183 
L 760.262704 336.317788 
L 761.005375 355.781102 
L 762.490716 337.433964 
L 763.976058 350.479267 
L 764.718728 370.221626 
L 766.204069 358.43202 
L 766.94674 362.7572 
L 767.689411 362.268874 
L 768.432081 353.758034 
L 769.174752 368.547362 
L 769.917423 352.572097 
L 770.660093 368.40784 
L 771.402764 371.337801 
L 772.145435 358.780824 
L 772.888105 354.1766 
L 773.630776 366.524294 
L 774.373447 345.177433 
L 775.116117 339.805837 
L 775.858788 359.059868 
L 776.601459 352.711619 
L 777.344129 359.687717 
L 778.0868 359.478434 
L 778.82947 364.780269 
L 779.572141 362.896722 
L 780.314812 371.337801 
L 781.057482 364.989552 
L 781.800153 372.453977 
L 782.542824 374.756089 
L 783.285494 361.571264 
L 784.028165 370.361148 
L 785.513506 342.10795 
L 786.256177 332.550695 
L 786.998848 356.548473 
L 787.741518 338.340856 
L 788.484189 324.667704 
L 789.226859 328.574319 
L 789.96953 312.668815 
L 790.712201 332.062368 
L 791.454871 332.341412 
L 792.197542 353.688273 
L 792.940213 368.059035 
L 793.682883 347.060979 
L 794.425554 342.805559 
L 795.168225 345.386716 
L 795.910895 344.898389 
L 796.653566 322.714396 
L 797.396237 333.945915 
L 798.138907 340.782491 
L 798.881578 349.014287 
L 799.624248 333.806393 
L 799.624248 333.806393 
" clip-path="url(#p5b971fbd69)" style="fill: none; stroke: #ff7f0e; stroke-width: 1.5; stroke-linecap: square"/>
   </g>
   <g id="patch_3">
    <path d="M 122.94 424.8504 
L 122.94 57.2832 
" style="fill: none; stroke: #000000; stroke-width: 0.8; stroke-linejoin: miter; stroke-linecap: square"/>
   </g>
   <g id="patch_4">
    <path d="M 885.168 424.8504 
L 885.168 57.2832 
" style="fill: none; stroke: #000000; stroke-width: 0.8; stroke-linejoin: miter; stroke-linecap: square"/>
   </g>
   <g id="patch_5">
    <path d="M 122.94 424.8504 
L 885.168 424.8504 
" style="fill: none; stroke: #000000; stroke-width: 0.8; stroke-linejoin: miter; stroke-linecap: square"/>
   </g>
   <g id="patch_6">
    <path d="M 122.94 57.2832 
L 885.168 57.2832 
" style="fill: none; stroke: #000000; stroke-width: 0.8; stroke-linejoin: miter; stroke-linecap: square"/>
   </g>
   <g id="text_13">
    <!-- Potencia -->
    <g transform="translate(478.493063 51.2832) scale(0.12 -0.12)">
     <use xlink:href="#DejaVuSans-50"/>
     <use xlink:href="#DejaVuSans-6f" x="56.677734"/>
     <use xlink:href="#DejaVuSans-74" x="117.859375"/>
     <use xlink:href="#DejaVuSans-65" x="157.068359"/>
     <use xlink:href="#DejaVuSans-6e" x="218.591797"/>
     <use xlink:href="#DejaVuSans-63" x="281.970703"/>
     <use xlink:href="#DejaVuSans-69" x="336.951172"/>
     <use xlink:href="#DejaVuSans-61" x="364.734375"/>
    </g>
   </g>
   <g id="legend_1">
    <g id="patch_7">
     <path d="M 783.060187 94.63945 
L 878.168 94.63945 
Q 880.168 94.63945 880.168 92.63945 
L 880.168 64.2832 
Q 880.168 62.2832 878.168 62.2832 
L 783.060187 62.2832 
Q 781.060187 62.2832 781.060187 64.2832 
L 781.060187 92.63945 
Q 781.060187 94.63945 783.060187 94.63945 
z
" style="fill: #ffffff; opacity: 0.8; stroke: #cccccc; stroke-linejoin: miter"/>
    </g>
    <g id="line2d_13">
     <path d="M 785.060187 70.381638 
L 795.060187 70.381638 
L 805.060187 70.381638 
" style="fill: none; stroke: #1f77b4; stroke-width: 1.5; stroke-linecap: square"/>
    </g>
    <g id="text_14">
     <!-- predicciones -->
     <g transform="translate(813.060187 73.881638) scale(0.1 -0.1)">
      <defs>
       <path id="DejaVuSans-70" d="M 1159 525 
L 1159 -1331 
L 581 -1331 
L 581 3500 
L 1159 3500 
L 1159 2969 
Q 1341 3281 1617 3432 
Q 1894 3584 2278 3584 
Q 2916 3584 3314 3078 
Q 3713 2572 3713 1747 
Q 3713 922 3314 415 
Q 2916 -91 2278 -91 
Q 1894 -91 1617 61 
Q 1341 213 1159 525 
z
M 3116 1747 
Q 3116 2381 2855 2742 
Q 2594 3103 2138 3103 
Q 1681 3103 1420 2742 
Q 1159 2381 1159 1747 
Q 1159 1113 1420 752 
Q 1681 391 2138 391 
Q 2594 391 2855 752 
Q 3116 1113 3116 1747 
z
" transform="scale(0.015625)"/>
       <path id="DejaVuSans-72" d="M 2631 2963 
Q 2534 3019 2420 3045 
Q 2306 3072 2169 3072 
Q 1681 3072 1420 2755 
Q 1159 2438 1159 1844 
L 1159 0 
L 581 0 
L 581 3500 
L 1159 3500 
L 1159 2956 
Q 1341 3275 1631 3429 
Q 1922 3584 2338 3584 
Q 2397 3584 2469 3576 
Q 2541 3569 2628 3553 
L 2631 2963 
z
" transform="scale(0.015625)"/>
       <path id="DejaVuSans-64" d="M 2906 2969 
L 2906 4863 
L 3481 4863 
L 3481 0 
L 2906 0 
L 2906 525 
Q 2725 213 2448 61 
Q 2172 -91 1784 -91 
Q 1150 -91 751 415 
Q 353 922 353 1747 
Q 353 2572 751 3078 
Q 1150 3584 1784 3584 
Q 2172 3584 2448 3432 
Q 2725 3281 2906 2969 
z
M 947 1747 
Q 947 1113 1208 752 
Q 1469 391 1925 391 
Q 2381 391 2643 752 
Q 2906 1113 2906 1747 
Q 2906 2381 2643 2742 
Q 2381 3103 1925 3103 
Q 1469 3103 1208 2742 
Q 947 2381 947 1747 
z
" transform="scale(0.015625)"/>
      </defs>
      <use xlink:href="#DejaVuSans-70"/>
      <use xlink:href="#DejaVuSans-72" x="63.476562"/>
      <use xlink:href="#DejaVuSans-65" x="102.339844"/>
      <use xlink:href="#DejaVuSans-64" x="163.863281"/>
      <use xlink:href="#DejaVuSans-69" x="227.339844"/>
      <use xlink:href="#DejaVuSans-63" x="255.123047"/>
      <use xlink:href="#DejaVuSans-63" x="310.103516"/>
      <use xlink:href="#DejaVuSans-69" x="365.083984"/>
      <use xlink:href="#DejaVuSans-6f" x="392.867188"/>
      <use xlink:href="#DejaVuSans-6e" x="454.048828"/>
      <use xlink:href="#DejaVuSans-65" x="517.427734"/>
      <use xlink:href="#DejaVuSans-73" x="578.951172"/>
     </g>
    </g>
    <g id="line2d_14">
     <path d="M 785.060187 85.059763 
L 795.060187 85.059763 
L 805.060187 85.059763 
" style="fill: none; stroke: #ff7f0e; stroke-width: 1.5; stroke-linecap: square"/>
    </g>
    <g id="text_15">
     <!-- Real -->
     <g transform="translate(813.060187 88.559763) scale(0.1 -0.1)">
      <defs>
       <path id="DejaVuSans-52" d="M 2841 2188 
Q 3044 2119 3236 1894 
Q 3428 1669 3622 1275 
L 4263 0 
L 3584 0 
L 2988 1197 
Q 2756 1666 2539 1819 
Q 2322 1972 1947 1972 
L 1259 1972 
L 1259 0 
L 628 0 
L 628 4666 
L 2053 4666 
Q 2853 4666 3247 4331 
Q 3641 3997 3641 3322 
Q 3641 2881 3436 2590 
Q 3231 2300 2841 2188 
z
M 1259 4147 
L 1259 2491 
L 2053 2491 
Q 2509 2491 2742 2702 
Q 2975 2913 2975 3322 
Q 2975 3731 2742 3939 
Q 2509 4147 2053 4147 
L 1259 4147 
z
" transform="scale(0.015625)"/>
       <path id="DejaVuSans-6c" d="M 603 4863 
L 1178 4863 
L 1178 0 
L 603 0 
L 603 4863 
z
" transform="scale(0.015625)"/>
      </defs>
      <use xlink:href="#DejaVuSans-52"/>
      <use xlink:href="#DejaVuSans-65" x="64.982422"/>
      <use xlink:href="#DejaVuSans-61" x="126.505859"/>
      <use xlink:href="#DejaVuSans-6c" x="187.785156"/>
     </g>
    </g>
   </g>
  </g>
 </g>
 <defs>
  <clipPath id="p5b971fbd69">
   <rect x="122.94" y="57.2832" width="762.228" height="367.5672"/>
  </clipPath>
 </defs>
</svg>
